<svg width="1224" height="699" viewBox="0 0 1224 699" fill="none" xmlns="http://www.w3.org/2000/svg">
<g filter="url(#filter0_d_0_4250)">
<rect x="12" y="4" width="1200" height="675" fill="#EFF5FF"/>
</g>
<mask id="mask0_0_4250" style="mask-type:alpha" maskUnits="userSpaceOnUse" x="12" y="4" width="1200" height="675">
<rect x="12" y="4" width="1200" height="675" fill="white"/>
</mask>
<g mask="url(#mask0_0_4250)">
<g filter="url(#filter1_d_0_4250)">
<rect x="12" y="4" width="1200" height="675" fill="#EFEFFF"/>
</g>
<rect x="12" y="4" width="1200" height="471" fill="#EFEFFF"/>
<mask id="mask1_0_4250" style="mask-type:alpha" maskUnits="userSpaceOnUse" x="12" y="4" width="1200" height="471">
<rect x="12" y="4" width="1200" height="471" fill="white"/>
</mask>
<g mask="url(#mask1_0_4250)">
<g opacity="0.3">
<path d="M452 278.141C447.646 283.851 442.754 289.131 437.391 293.908C436.18 295.117 434.969 296.246 433.799 297.376L433.072 298.101L432.386 297.376C428.315 293.657 424.661 289.506 421.49 284.996C425.979 288.195 430.119 291.857 433.839 295.924H432.386L435.938 292.416C440.819 287.151 446.198 282.371 452 278.141Z" fill="#E0E0E0"/>
<path d="M236.27 849L236.914 847.548L238.888 843.315C241.267 837.861 243.206 832.225 244.686 826.461C249.31 804.982 249.131 782.745 244.162 761.344C241.078 746.516 237.043 731.904 232.083 717.596C226.969 702.073 221.05 685.622 215.976 667.8C210.516 649.216 207.883 629.915 208.165 610.545C208.89 590.385 214.889 570.225 221.452 550.065C228.016 529.905 234.821 510.228 236.874 490.391C239.13 471.321 235.296 452.025 225.922 435.273C217.225 419.145 206.272 405.436 198.058 391.202C190.382 377.994 184.722 363.711 181.267 348.826C176.34 327.259 175.983 304.897 180.22 283.184C181.723 275.247 184.016 267.48 187.066 260C186.967 260.52 186.833 261.031 186.663 261.532C186.3 262.621 185.858 264.072 185.254 265.967C183.617 271.674 182.273 277.461 181.227 283.305C177.291 304.878 177.839 327.031 182.838 348.382C186.339 363.093 192.011 377.199 199.669 390.235C207.722 404.307 218.875 418.016 227.855 434.305C237.463 451.372 241.411 471.053 239.129 490.512C237.076 510.672 230.23 530.509 223.667 550.629C217.104 570.749 211.185 590.95 210.42 610.666C210.141 629.839 212.72 648.946 218.07 667.357C222.862 685.057 228.7 701.548 233.774 717.112C238.691 731.496 242.645 746.192 245.612 761.102C250.535 782.691 250.535 805.114 245.612 826.703C243.997 832.492 241.854 838.12 239.21 843.516C238.284 845.25 237.599 846.621 237.035 847.548C236.849 848.066 236.592 848.554 236.27 849Z" fill="#263238"/>
<path d="M209.453 405.113C209.453 405.113 192.783 351.769 222.661 320.44C223.137 319.925 223.864 319.723 224.537 319.92C225.211 320.116 225.716 320.677 225.842 321.368C227.412 330.238 229.425 357.091 209.453 405.113Z" fill="#A9C0FF"/>
<path d="M219.439 338.302C219.392 341.611 219.015 344.907 218.312 348.14C217.185 354.914 215.896 362.898 214.285 371.687C212.675 380.477 211.628 388.461 210.581 395.235C210.273 398.519 209.68 401.77 208.809 404.952C208.501 401.646 208.596 398.316 209.091 395.033C209.655 388.945 210.702 380.558 212.232 371.365C213.762 362.172 215.332 353.866 216.661 347.858C217.196 344.572 218.129 341.363 219.439 338.302Z" fill="#263238"/>
<path d="M229.022 530.993C229.022 530.993 239.21 476.037 280.24 462.449C280.898 462.207 281.635 462.367 282.134 462.858C282.633 463.349 282.805 464.085 282.576 464.747C279.878 473.375 269.127 497.89 229.022 530.993Z" fill="#4769FF"/>
<path d="M185.495 358.261C185.495 358.261 136.009 332.254 135.002 289.111C134.97 288.408 135.338 287.748 135.953 287.406C136.567 287.064 137.322 287.1 137.901 287.498C145.27 292.579 165.644 310.159 185.495 358.261Z" fill="#A9C0FF"/>
<path d="M145.31 304.03C147.62 306.409 149.684 309.016 151.471 311.812L165.403 331.125L179.415 350.398C181.549 352.898 183.437 355.599 185.052 358.462C182.492 356.351 180.206 353.926 178.247 351.245C174.221 346.568 169.147 339.875 163.712 332.294C158.276 324.714 153.565 317.739 150.263 312.578C148.295 309.925 146.634 307.057 145.31 304.03Z" fill="#263238"/>
<path d="M238.646 472.851C238.646 472.851 187.67 450.03 184.086 406.887C184.006 406.191 184.334 405.511 184.928 405.141C185.522 404.77 186.275 404.775 186.864 405.153C194.515 409.79 215.896 426.039 238.646 472.851Z" fill="#A9C0FF"/>
<path d="M195.239 420.959C197.676 423.182 199.888 425.64 201.843 428.297L216.942 446.764C222.62 453.618 227.734 459.828 232.082 465.15C234.356 467.536 236.405 470.128 238.203 472.892C235.539 470.93 233.119 468.656 230.995 466.118C226.969 461.682 221.211 455.312 215.332 448.054C209.453 440.797 204.299 434.144 200.675 429.225C198.561 426.681 196.738 423.909 195.239 420.959Z" fill="#263238"/>
</g>
<rect opacity="0.5" x="893" y="158" width="131.595" height="8" fill="#A9C0FF"/>
<rect opacity="0.5" x="893" y="142" width="131.595" height="8" fill="#A9C0FF"/>
<rect opacity="0.5" x="893" y="174" width="131.595" height="8" fill="#A9C0FF"/>
<rect opacity="0.5" x="1153" y="450" width="131.595" height="8" fill="#A9C0FF"/>
<rect opacity="0.5" x="1173" y="434" width="131.595" height="8" fill="#A9C0FF"/>
<rect opacity="0.5" x="1130" y="466" width="131.595" height="8" fill="#A9C0FF"/>
<rect opacity="0.5" x="-28" y="408" width="131.595" height="8" fill="#A9C0FF"/>
<rect opacity="0.5" x="-8" y="392" width="131.595" height="8" fill="#A9C0FF"/>
<rect opacity="0.5" x="-51" y="424" width="131.595" height="8" fill="#A9C0FF"/>
<rect x="223" y="45" width="779" height="510" fill="white"/>
<rect x="244.272" y="92.3431" width="407.698" height="415.911" fill="#F4F8FF"/>
<rect x="310.828" y="322.927" width="283.27" height="157.057" fill="#E4E4FF"/>
<path d="M369.69 360.009C369.702 365.353 366.486 370.177 361.544 372.23C356.601 374.282 350.906 373.16 347.117 369.386C343.327 365.612 342.19 359.93 344.236 354.992C346.282 350.054 351.107 346.834 356.461 346.834C363.756 346.834 369.674 352.728 369.69 360.009Z" fill="#F4F8FF"/>
<rect x="382.891" y="350.906" width="92.0242" height="5.08982" fill="#F4F8FF"/>
<rect x="382.891" y="362.511" width="179.007" height="5.08982" fill="#F4F8FF"/>
<path d="M369.69 400.554C369.702 405.897 366.486 410.721 361.544 412.774C356.601 414.827 350.906 413.704 347.117 409.93C343.327 406.156 342.19 400.474 344.236 395.536C346.282 390.598 351.107 387.378 356.461 387.378C359.967 387.37 363.332 388.755 365.814 391.227C368.296 393.699 369.69 397.054 369.69 400.554Z" fill="#F4F8FF"/>
<rect x="382.891" y="391.45" width="46.9737" height="5.08982" fill="#F4F8FF"/>
<rect x="382.891" y="403.026" width="179.007" height="5.08982" fill="#F4F8FF"/>
<path d="M369.69 447.089C369.702 452.432 366.486 457.256 361.544 459.309C356.601 461.362 350.906 460.239 347.117 456.465C343.327 452.691 342.19 447.009 344.236 442.072C346.282 437.134 351.107 433.914 356.461 433.914C359.967 433.906 363.332 435.291 365.814 437.762C368.296 440.234 369.69 443.59 369.69 447.089Z" fill="#F4F8FF"/>
<rect x="382.891" y="437.985" width="46.9737" height="5.08982" fill="#F4F8FF"/>
<rect x="382.891" y="449.561" width="179.007" height="5.08982" fill="#F4F8FF"/>
<path d="M616.944 137.512C616.944 137.802 612.427 135.243 603.831 132.538C591.68 128.755 578.83 127.761 566.24 129.63C557.604 130.961 549.234 133.651 541.442 137.599C532.586 142.332 524.387 148.198 517.052 155.05C509.067 162.088 501.112 170.086 491.962 177.474C482.628 185.439 471.701 191.328 459.908 194.75C453.818 196.356 447.47 196.742 441.23 195.885C435.218 194.975 429.376 193.181 423.891 190.562C413.866 185.356 404.137 179.598 394.751 173.315C386.407 167.757 377.187 163.638 367.476 161.128C358.988 159.06 350.219 158.382 341.512 159.122C328.832 160.217 316.571 164.197 305.67 170.755C297.977 175.438 294.364 178.957 294.014 178.725C294.768 177.766 295.639 176.907 296.608 176.165C299.208 173.828 301.995 171.708 304.942 169.825C323.56 157.818 346.257 153.851 367.855 158.831C377.837 161.334 387.331 165.482 395.946 171.104C405.242 177.273 414.873 182.924 424.795 188.032C435.335 193.427 447.469 194.852 458.976 192.045C470.475 188.8 481.159 183.171 490.33 175.525C499.364 168.283 507.319 160.343 515.449 153.276C522.984 146.332 531.4 140.407 540.48 135.65C560.334 125.815 583.308 124.328 604.268 131.52C607.58 132.634 610.796 134.015 613.884 135.65C614.961 136.172 615.986 136.795 616.944 137.512Z" fill="#B7AFFF"/>
<rect x="356.49" y="199.898" width="34.6475" height="93.5654" fill="#E4E4FF"/>
<rect x="503.589" y="199.898" width="34.6475" height="93.5654" fill="#E4E4FF"/>
<rect x="552.603" y="144.928" width="34.6475" height="148.506" fill="#E4E4FF"/>
<rect x="311.644" y="264.001" width="34.6475" height="31.4987" fill="#E4E4FF"/>
<rect x="405.533" y="242.129" width="34.6766" height="51.3054" fill="#E4E4FF"/>
<rect x="454.546" y="230.35" width="34.6475" height="63.0847" fill="#E4E4FF"/>
<rect x="668.917" y="92.3431" width="311.798" height="415.911" fill="#F4F8FF"/>
<path d="M957.572 432.314C957.572 432.721 928.432 433.07 892.59 433.07C856.747 433.07 827.578 432.721 827.578 432.314C827.578 431.907 856.718 431.529 892.59 431.529C928.461 431.529 957.572 431.878 957.572 432.314Z" fill="#CEE7FF"/>
<path d="M957.572 417.51C957.572 417.917 928.432 418.266 892.59 418.266C856.747 418.266 827.578 417.917 827.578 417.51C827.578 417.103 856.718 416.754 892.59 416.754C928.461 416.754 957.572 417.103 957.572 417.51Z" fill="#CEE7FF"/>
<path d="M957.572 402.735C957.572 403.142 928.432 403.491 892.59 403.491C856.747 403.491 827.578 403.142 827.578 402.735C827.578 402.328 856.718 401.979 892.59 401.979C928.461 401.979 957.572 402.299 957.572 402.735Z" fill="#CEE7FF"/>
<path d="M957.572 446.071C957.572 446.478 928.432 446.827 892.59 446.827C856.747 446.827 827.578 446.478 827.578 446.071C827.578 445.664 856.718 445.286 892.59 445.286C928.461 445.286 957.572 445.78 957.572 446.071Z" fill="#CEE7FF"/>
<path d="M917.329 461.021C917.329 461.457 897.339 461.777 872.687 461.777C848.034 461.777 828.044 461.457 828.044 461.021C828.044 460.584 848.034 460.264 872.687 460.264C897.339 460.264 917.329 460.613 917.329 461.021Z" fill="#CEE7FF"/>
<rect x="733.637" y="322.112" width="227.292" height="14.5423" rx="5.824" fill="#E4E4FF"/>
<rect x="733.637" y="342.471" width="227.292" height="14.5423" rx="5.824" fill="#E4E4FF"/>
<rect x="687.013" y="322.112" width="34.968" height="34.9016" rx="17.4508" fill="#CEE7FF"/>
<path d="M693.327 338.378L700.744 346.173L715.669 330.584" stroke="#00065D" stroke-width="2.912"/>
<path opacity="0.5" d="M686.4 285.291L686.4 276.187C686.4 276.187 689.828 249.527 700.412 242.129C710.996 234.731 722.192 252.747 739.246 239.25C756.3 225.753 744.749 219.48 759.629 200.16C774.51 180.84 786.466 212.803 815.082 190.751C843.697 168.699 839.022 115.791 861.794 121.428C884.566 127.064 911.666 152.782 926.572 156.62C941.479 160.458 960.637 146.877 960.637 146.877V285.291H686.4Z" fill="#D6D1FF"/>
<path opacity="0.5" d="M958.102 113.284C958.102 113.284 957.898 113.284 957.49 113.284H955.712H948.806L922.58 113.488L922.93 113.313L894.955 149.873L894.781 150.105H894.722H824.611L825.223 149.756C815.986 165.084 806.049 181.749 795.763 198.735L766.798 246.754L766.244 247.684L765.574 246.812C751.761 227.79 738.94 210.194 727.692 194.663H728.624L693.802 248.76L684.098 263.623L681.505 267.491C680.922 268.364 680.572 268.8 680.572 268.8C680.572 268.8 680.805 268.305 681.359 267.404L683.778 263.419L693.219 248.382L727.459 194.256L727.954 193.471L728.478 194.227L766.506 246.317H765.282L794.189 198.269L823.708 149.32L823.912 148.971H824.349H894.46L893.994 149.204L922.23 112.877V112.702H922.434L948.66 112.906H955.567H957.344L958.102 113.284Z" fill="#6F60FF"/>
<rect x="223" y="45" width="779" height="32.7248" fill="#6F60FF"/>
<ellipse cx="249.243" cy="61.217" rx="4.73754" ry="4.72854" fill="#8FBEFF"/>
<ellipse cx="268.316" cy="61.217" rx="4.73754" ry="4.72854" fill="#8FBEFF"/>
<ellipse cx="287.388" cy="61.217" rx="4.73754" ry="4.72854" fill="#8FBEFF"/>
<path d="M717.941 417.45H893.348C895.277 417.448 897.127 418.217 898.491 419.585C899.856 420.953 900.622 422.809 900.622 424.744V426.675C900.62 430.705 897.364 433.97 893.348 433.97H718.298" fill="white"/>
<path d="M717.941 417.45H893.348C895.277 417.448 897.127 418.217 898.491 419.585C899.856 420.953 900.622 422.809 900.622 424.744V426.675C900.62 430.705 897.364 433.97 893.348 433.97H718.298" stroke="#1B5FC3" stroke-width="2" stroke-linecap="round"/>
<path d="M851.553 515V434.241H867.391V514.63" fill="white"/>
<path d="M851.553 439.312V434.241H867.391V451.866L851.553 439.312Z" fill="#ECECEC"/>
<path d="M851.553 508.836V434.241H867.391V513.849" stroke="#3F4D79" stroke-width="2" stroke-linecap="round"/>
<path d="M868.034 410.192V414.663L803.64 398.961L739.246 414.663V410.192L796.899 391.445V336.103H811.221V391.72L868.034 410.192Z" fill="white" stroke="#1B5FC3" stroke-width="2"/>
<path d="M903.935 373.7H720.505C718.343 373.7 716.569 371.859 716.41 369.517C716.394 369.273 716.367 369.03 716.328 368.789L695.097 253.342C694.898 252.374 695.008 251.367 695.412 250.466C696.05 248.998 697.478 248.036 699.073 248H882.503C884.666 248 886.439 249.845 886.599 252.188C886.614 252.43 886.641 252.671 886.681 252.911L907.904 368.362C908.102 369.33 907.992 370.337 907.588 371.239C906.951 372.702 905.526 373.662 903.935 373.7Z" fill="white" stroke="#6080FF" stroke-width="2"/>
<path d="M898.836 368.152H723.851C721.763 368.152 720.071 366.287 720.071 363.977L700.413 257.033C700.413 254.727 702.104 252.857 704.193 252.857H879.174C881.258 252.857 882.954 254.727 882.954 257.033L902.612 363.977C902.612 366.287 900.921 368.152 898.836 368.152Z" fill="white" stroke="#6080FF" stroke-width="2"/>
<path d="M710.897 261.934C710.441 259.361 712.419 257 715.032 257H868.399C870.4 257 872.123 258.411 872.517 260.373L892.196 358.318C892.717 360.911 890.74 363.334 888.096 363.345L732.535 363.985C730.492 363.994 728.739 362.53 728.382 360.519L710.897 261.934Z" fill="#EBECFF"/>
<path fill-rule="evenodd" clip-rule="evenodd" d="M715.246 257H868.746C869.858 257 870.924 257.441 871.711 258.227C872.497 259.012 872.939 260.078 872.939 261.189L874.785 271.385L712.988 272.722L711.053 261.189C711.053 258.875 712.93 257 715.246 257ZM728.781 359.811L727.007 350.634L890.552 349.563L892.575 358.743C892.575 361.056 890.697 362.931 888.381 362.931L732.974 364C730.659 364 728.781 362.125 728.781 359.811Z" fill="#E0E3F9"/>
<rect opacity="0.5" x="732.625" y="281.855" width="55.3495" height="1.39617" fill="#456BA3"/>
<rect opacity="0.5" x="739.625" y="293.781" width="55.3495" height="1.39617" fill="#456BA3"/>
<rect opacity="0.5" x="743.625" y="305.706" width="106.761" height="1.39617" fill="#456BA3"/>
<rect opacity="0.5" x="749.162" y="317.631" width="106.761" height="1.39617" fill="#456BA3"/>
<rect opacity="0.5" x="753.117" y="329.557" width="106.761" height="1.39617" fill="#456BA3"/>
<rect opacity="0.5" x="757.863" y="341.482" width="106.761" height="1.39617" fill="#456BA3"/>
<path d="M1025.51 455.153C1025.51 455.153 1051.17 519.308 1037.45 543.771C1014.59 584.509 883.531 551.057 883.531 551.057C883.531 551.057 912.144 586.145 878.864 686.371C878.864 686.371 877.665 690.447 851.952 687.191C851.952 687.191 820.434 542.652 820.43 511.849C820.43 486.632 865.62 478.783 939.513 484.081C939.513 484.081 949.274 475.331 956.628 457.018C956.628 456.994 978.154 463.71 1025.51 455.153Z" fill="#1854B6"/>
<path d="M1044.05 365.936C1036.84 395.319 1026.79 446.657 1026.51 453.619C1026.22 460.582 977.354 465.031 955.601 458.63C955.601 458.63 949.591 424.129 948.087 405.439C936.687 421.431 925.057 433.855 917.153 433.855C888.149 433.855 840.305 417.622 836.678 413.726L838.785 402.778C850.777 403.057 909.622 395.988 909.622 395.988C909.622 395.988 933.006 336.606 948.297 324.341L948.362 324.284C958.403 315.033 984.469 312.069 990.311 310.633C996.354 309.149 1027.17 304.975 1027.17 304.975C1037.63 311.716 1050.46 339.767 1044.05 365.936Z" fill="#B7C0FF"/>
<path d="M955.712 320.905C955.71 322.312 954.832 323.57 953.51 324.059C952.189 324.549 950.701 324.168 949.78 323.103C951.557 321.774 953.468 320.633 955.482 319.7C955.634 320.083 955.712 320.492 955.712 320.905Z" fill="white"/>
<ellipse cx="966.278" cy="320.909" rx="3.3728" ry="3.36644" fill="white"/>
<ellipse cx="980.221" cy="320.909" rx="3.3728" ry="3.36644" fill="white"/>
<ellipse cx="994.16" cy="320.909" rx="3.3728" ry="3.36644" fill="white"/>
<ellipse cx="1008.1" cy="320.909" rx="3.3728" ry="3.36644" fill="white"/>
<ellipse cx="1022.04" cy="320.909" rx="3.3728" ry="3.36644" fill="white"/>
<path d="M1039.31 321.446C1039.02 323.211 1037.4 324.441 1035.62 324.248C1033.84 324.054 1032.52 322.504 1032.62 320.718C1032.71 318.932 1034.19 317.534 1035.99 317.535C1036.56 317.526 1037.13 317.667 1037.63 317.945C1038.2 319.097 1038.77 320.233 1039.31 321.446Z" fill="white"/>
<path d="M948.741 330.332C948.756 332.041 947.485 333.489 945.786 333.699C944.086 333.908 942.5 332.813 942.098 331.152C943.165 329.705 944.307 328.314 945.52 326.986C947.316 327.065 948.734 328.537 948.741 330.332Z" fill="white"/>
<ellipse cx="959.306" cy="330.336" rx="3.3728" ry="3.36644" fill="white"/>
<ellipse cx="973.25" cy="330.336" rx="3.3728" ry="3.36644" fill="white"/>
<ellipse cx="987.189" cy="330.336" rx="3.3728" ry="3.36644" fill="white"/>
<ellipse cx="1001.13" cy="330.336" rx="3.3728" ry="3.36644" fill="white"/>
<ellipse cx="1015.07" cy="330.336" rx="3.3728" ry="3.36644" fill="white"/>
<ellipse cx="1029.01" cy="330.336" rx="3.3728" ry="3.36644" fill="white"/>
<path d="M1043.53 333.645C1043.34 333.682 1043.15 333.7 1042.96 333.698C1041.36 333.696 1039.98 332.576 1039.66 331.015C1039.34 329.454 1040.15 327.88 1041.62 327.244C1042.35 329.295 1042.98 331.435 1043.53 333.645Z" fill="white"/>
<path d="M990.566 311.031C990.564 312.729 989.295 314.159 987.607 314.368C985.919 314.576 984.339 313.497 983.923 311.851C986.774 311.339 989.029 310.949 990.311 310.621L990.529 310.568C990.556 310.721 990.568 310.876 990.566 311.031Z" fill="white"/>
<path d="M1004.5 311.031C1004.52 312.48 1003.6 313.775 1002.23 314.246C1000.85 314.716 999.333 314.257 998.452 313.105C997.57 311.954 997.526 310.368 998.343 309.17C999.879 308.919 1001.54 308.665 1003.27 308.399C1004.06 309.045 1004.51 310.013 1004.5 311.031Z" fill="white"/>
<ellipse cx="1015.07" cy="311.031" rx="3.3728" ry="3.36644" fill="white"/>
<ellipse cx="1029.01" cy="311.031" rx="3.3728" ry="3.36644" fill="white"/>
<ellipse cx="952.335" cy="340.657" rx="3.3728" ry="3.36644" fill="white"/>
<path d="M941.769 340.657C941.787 342.318 940.588 343.744 938.945 344.013C937.302 344.281 935.709 343.312 935.196 341.731C936.089 340.206 936.977 338.741 937.862 337.335C938.035 337.304 938.212 337.289 938.388 337.29C939.283 337.289 940.143 337.643 940.777 338.275C941.411 338.906 941.768 339.763 941.769 340.657Z" fill="white"/>
<ellipse cx="966.278" cy="340.657" rx="3.3728" ry="3.36644" fill="white"/>
<ellipse cx="980.221" cy="340.657" rx="3.3728" ry="3.36644" fill="white"/>
<ellipse cx="994.16" cy="340.657" rx="3.3728" ry="3.36644" fill="white"/>
<ellipse cx="1008.1" cy="340.657" rx="3.3728" ry="3.36644" fill="white"/>
<ellipse cx="1022.04" cy="340.657" rx="3.3728" ry="3.36644" fill="white"/>
<ellipse cx="1035.99" cy="340.657" rx="3.3728" ry="3.36644" fill="white"/>
<ellipse cx="945.367" cy="350.084" rx="3.3728" ry="3.36644" fill="white"/>
<path d="M934.797 350.084C934.798 351.4 934.029 352.596 932.83 353.144C931.631 353.693 930.222 353.494 929.223 352.634C930.237 350.666 931.277 348.726 932.308 346.836C933.778 347.233 934.798 348.564 934.797 350.084Z" fill="white"/>
<ellipse cx="959.306" cy="350.084" rx="3.3728" ry="3.36644" fill="white"/>
<ellipse cx="973.25" cy="350.084" rx="3.3728" ry="3.36644" fill="white"/>
<ellipse cx="987.189" cy="350.084" rx="3.3728" ry="3.36644" fill="white"/>
<ellipse cx="1001.13" cy="350.084" rx="3.3728" ry="3.36644" fill="white"/>
<ellipse cx="1015.07" cy="350.084" rx="3.3728" ry="3.36644" fill="white"/>
<ellipse cx="1029.01" cy="350.084" rx="3.3728" ry="3.36644" fill="white"/>
<path d="M1045.76 351.949C1044.94 353.174 1043.42 353.725 1042.01 353.311C1040.59 352.897 1039.61 351.613 1039.59 350.142C1039.56 348.67 1040.49 347.352 1041.89 346.887C1043.29 346.421 1044.83 346.918 1045.69 348.111C1045.75 349.388 1045.77 350.667 1045.76 351.949Z" fill="white"/>
<ellipse cx="952.335" cy="359.962" rx="3.3728" ry="3.36644" fill="white"/>
<ellipse cx="966.278" cy="359.962" rx="3.3728" ry="3.36644" fill="white"/>
<ellipse cx="980.221" cy="359.962" rx="3.3728" ry="3.36644" fill="white"/>
<ellipse cx="994.16" cy="359.962" rx="3.3728" ry="3.36644" fill="white"/>
<ellipse cx="1008.1" cy="359.962" rx="3.3728" ry="3.36644" fill="white"/>
<ellipse cx="1022.04" cy="359.962" rx="3.3728" ry="3.36644" fill="white"/>
<ellipse cx="1035.99" cy="359.962" rx="3.3728" ry="3.36644" fill="white"/>
<ellipse cx="945.367" cy="369.384" rx="3.3728" ry="3.36644" fill="white"/>
<ellipse cx="959.306" cy="369.384" rx="3.3728" ry="3.36644" fill="white"/>
<ellipse cx="973.25" cy="369.384" rx="3.3728" ry="3.36644" fill="white"/>
<ellipse cx="987.189" cy="369.384" rx="3.3728" ry="3.36644" fill="white"/>
<ellipse cx="1001.13" cy="369.384" rx="3.3728" ry="3.36644" fill="white"/>
<ellipse cx="1015.07" cy="369.384" rx="3.3728" ry="3.36644" fill="white"/>
<ellipse cx="1029.01" cy="369.384" rx="3.3728" ry="3.36644" fill="white"/>
<path d="M1044 366.178C1043.49 368.253 1042.97 370.434 1042.43 372.706C1040.7 372.42 1039.48 370.861 1039.62 369.117C1039.76 367.373 1041.21 366.026 1042.97 366.018C1043.32 366.018 1043.66 366.072 1044 366.178Z" fill="white"/>
<ellipse cx="952.335" cy="379.709" rx="3.3728" ry="3.36644" fill="white"/>
<ellipse cx="938.396" cy="379.709" rx="3.3728" ry="3.36644" fill="white"/>
<ellipse cx="966.278" cy="379.709" rx="3.3728" ry="3.36644" fill="white"/>
<ellipse cx="980.221" cy="379.709" rx="3.3728" ry="3.36644" fill="white"/>
<ellipse cx="994.16" cy="379.709" rx="3.3728" ry="3.36644" fill="white"/>
<ellipse cx="1008.1" cy="379.709" rx="3.3728" ry="3.36644" fill="white"/>
<ellipse cx="1022.04" cy="379.709" rx="3.3728" ry="3.36644" fill="white"/>
<ellipse cx="1035.99" cy="379.709" rx="3.3728" ry="3.36644" fill="white"/>
<ellipse cx="945.367" cy="389.136" rx="3.3728" ry="3.36644" fill="white"/>
<ellipse cx="938.396" cy="359.962" rx="3.3728" ry="3.36644" fill="white"/>
<ellipse cx="931.425" cy="369.384" rx="3.3728" ry="3.36644" fill="white"/>
<ellipse cx="924.453" cy="379.709" rx="3.3728" ry="3.36644" fill="white"/>
<ellipse cx="931.425" cy="389.136" rx="3.3728" ry="3.36644" fill="white"/>
<path d="M927.83 359.957C927.83 361.817 926.32 363.324 924.457 363.324C924.281 363.326 924.105 363.311 923.931 363.279C924.847 361.364 925.792 359.428 926.749 357.497C927.439 358.13 927.831 359.022 927.83 359.957Z" fill="white"/>
<ellipse cx="917.486" cy="389.136" rx="3.3728" ry="3.36644" fill="white"/>
<ellipse cx="959.306" cy="389.136" rx="3.3728" ry="3.36644" fill="white"/>
<ellipse cx="973.25" cy="389.136" rx="3.3728" ry="3.36644" fill="white"/>
<ellipse cx="987.189" cy="389.136" rx="3.3728" ry="3.36644" fill="white"/>
<ellipse cx="1001.13" cy="389.136" rx="3.3728" ry="3.36644" fill="white"/>
<ellipse cx="1015.07" cy="389.136" rx="3.3728" ry="3.36644" fill="white"/>
<ellipse cx="1029.01" cy="389.136" rx="3.3728" ry="3.36644" fill="white"/>
<ellipse cx="952.335" cy="399.01" rx="3.3728" ry="3.36644" fill="white"/>
<ellipse cx="966.278" cy="399.01" rx="3.3728" ry="3.36644" fill="white"/>
<ellipse cx="980.221" cy="399.01" rx="3.3728" ry="3.36644" fill="white"/>
<ellipse cx="994.16" cy="399.01" rx="3.3728" ry="3.36644" fill="white"/>
<ellipse cx="1008.1" cy="399.01" rx="3.3728" ry="3.36644" fill="white"/>
<ellipse cx="1022.04" cy="399.01" rx="3.3728" ry="3.36644" fill="white"/>
<path d="M1037.26 395.893C1036.81 398.05 1036.35 400.21 1035.9 402.372C1034.55 402.34 1033.34 401.504 1032.84 400.248C1032.35 398.992 1032.65 397.56 1033.61 396.611C1034.57 395.662 1036.01 395.379 1037.26 395.893Z" fill="white"/>
<path d="M945.367 405.07C946.23 405.068 947.06 405.398 947.684 405.993C946.362 407.838 945.039 409.63 943.716 411.369C942.379 410.62 941.716 409.065 942.102 407.585C942.488 406.104 943.826 405.069 945.359 405.066L945.367 405.07Z" fill="white"/>
<ellipse cx="959.306" cy="408.437" rx="3.3728" ry="3.36644" fill="white"/>
<ellipse cx="973.25" cy="408.437" rx="3.3728" ry="3.36644" fill="white"/>
<ellipse cx="987.189" cy="408.437" rx="3.3728" ry="3.36644" fill="white"/>
<ellipse cx="1001.13" cy="408.437" rx="3.3728" ry="3.36644" fill="white"/>
<ellipse cx="1015.07" cy="408.437" rx="3.3728" ry="3.36644" fill="white"/>
<ellipse cx="1029.01" cy="408.437" rx="3.3728" ry="3.36644" fill="white"/>
<ellipse cx="953.235" cy="418.762" rx="3.3728" ry="3.36644" fill="white"/>
<path d="M940.158 415.895C938.704 417.683 937.258 419.377 935.837 420.955C934.975 419.955 934.779 418.544 935.334 417.347C935.89 416.15 937.095 415.387 938.416 415.395C939.033 415.396 939.636 415.569 940.158 415.895Z" fill="white"/>
<ellipse cx="966.278" cy="418.762" rx="3.3728" ry="3.36644" fill="white"/>
<ellipse cx="980.221" cy="418.762" rx="3.3728" ry="3.36644" fill="white"/>
<ellipse cx="994.16" cy="418.762" rx="3.3728" ry="3.36644" fill="white"/>
<ellipse cx="1008.1" cy="418.762" rx="3.3728" ry="3.36644" fill="white"/>
<ellipse cx="1022.04" cy="418.762" rx="3.3728" ry="3.36644" fill="white"/>
<ellipse cx="938.396" cy="399.01" rx="3.3728" ry="3.36644" fill="white"/>
<ellipse cx="931.425" cy="408.437" rx="3.3728" ry="3.36644" fill="white"/>
<ellipse cx="924.453" cy="418.762" rx="3.3728" ry="3.36644" fill="white"/>
<ellipse cx="917.486" cy="428.188" rx="3.3728" ry="3.36644" fill="white"/>
<ellipse cx="924.453" cy="399.01" rx="3.3728" ry="3.36644" fill="white"/>
<ellipse cx="917.486" cy="408.437" rx="3.3728" ry="3.36644" fill="white"/>
<ellipse cx="910.514" cy="418.762" rx="3.3728" ry="3.36644" fill="white"/>
<ellipse cx="903.542" cy="428.188" rx="3.3728" ry="3.36644" fill="white"/>
<ellipse cx="910.514" cy="399.01" rx="3.3728" ry="3.36644" fill="white"/>
<ellipse cx="903.542" cy="408.437" rx="3.3728" ry="3.36644" fill="white"/>
<ellipse cx="896.571" cy="418.762" rx="3.3728" ry="3.36644" fill="white"/>
<path d="M892.976 428.168C892.978 429.302 892.407 430.36 891.456 430.981C889.907 430.69 888.35 430.374 886.802 430.046C885.987 428.849 886.029 427.266 886.907 426.114C887.786 424.963 889.303 424.5 890.676 424.966C892.049 425.431 892.97 426.721 892.964 428.168H892.976Z" fill="white"/>
<path d="M899.948 399.01C899.948 400.869 898.438 402.376 896.575 402.376C894.712 402.376 893.202 400.869 893.202 399.01C893.201 398.621 893.269 398.235 893.403 397.87L899.389 397.189C899.749 397.729 899.943 398.362 899.948 399.01Z" fill="white"/>
<ellipse cx="889.599" cy="408.437" rx="3.3728" ry="3.36644" fill="white"/>
<ellipse cx="882.632" cy="418.762" rx="3.3728" ry="3.36644" fill="white"/>
<path d="M879.033 428.168C879.035 428.208 879.035 428.247 879.033 428.287C876.88 427.77 874.744 427.229 872.649 426.671C873.346 425.275 874.913 424.54 876.435 424.897C877.956 425.254 879.032 426.608 879.033 428.168Z" fill="white"/>
<path d="M886.004 399.01C885.99 400.779 884.606 402.234 882.838 402.342C881.069 402.45 879.518 401.174 879.288 399.42L885.988 398.69C886 398.796 886.005 398.903 886.004 399.01Z" fill="white"/>
<ellipse cx="875.66" cy="408.437" rx="3.3728" ry="3.36644" fill="white"/>
<ellipse cx="868.689" cy="418.762" rx="3.3728" ry="3.36644" fill="white"/>
<path d="M871.84 400.211C871.386 401.399 870.3 402.23 869.032 402.358C867.765 402.487 866.534 401.891 865.85 400.818C867.822 400.621 869.81 400.42 871.84 400.211Z" fill="white"/>
<ellipse cx="861.717" cy="408.437" rx="3.3728" ry="3.36644" fill="white"/>
<path d="M858.123 418.762C858.123 420.083 857.346 421.282 856.138 421.825C854.618 421.328 853.16 420.836 851.775 420.357C851.114 419.121 851.288 417.606 852.212 416.552C853.137 415.498 854.619 415.125 855.933 415.617C857.247 416.108 858.119 417.361 858.123 418.762Z" fill="white"/>
<ellipse cx="847.778" cy="408.437" rx="3.3728" ry="3.36644" fill="white"/>
<ellipse cx="959.306" cy="428.188" rx="3.3728" ry="3.36644" fill="white"/>
<ellipse cx="973.25" cy="428.188" rx="3.3728" ry="3.36644" fill="white"/>
<ellipse cx="987.189" cy="428.188" rx="3.3728" ry="3.36644" fill="white"/>
<ellipse cx="1001.13" cy="428.188" rx="3.3728" ry="3.36644" fill="white"/>
<ellipse cx="1015.07" cy="428.188" rx="3.3728" ry="3.36644" fill="white"/>
<path d="M1031.22 425.642C1030.84 427.61 1030.48 429.521 1030.13 431.358C1029.77 431.488 1029.39 431.555 1029.01 431.555C1027.51 431.56 1026.19 430.575 1025.76 429.139C1025.34 427.702 1025.92 426.158 1027.18 425.348C1028.44 424.539 1030.09 424.658 1031.22 425.642Z" fill="white"/>
<path d="M955.712 438.062C955.713 439.753 954.455 441.181 952.774 441.396C952.442 439.272 952.101 437.041 951.76 434.749C951.951 434.713 952.145 434.695 952.339 434.696C954.201 434.698 955.71 436.204 955.712 438.062Z" fill="white"/>
<ellipse cx="966.278" cy="438.062" rx="3.3728" ry="3.36644" fill="white"/>
<ellipse cx="980.221" cy="438.062" rx="3.3728" ry="3.36644" fill="white"/>
<ellipse cx="994.16" cy="438.062" rx="3.3728" ry="3.36644" fill="white"/>
<ellipse cx="1008.1" cy="438.062" rx="3.3728" ry="3.36644" fill="white"/>
<ellipse cx="1022.04" cy="438.062" rx="3.3728" ry="3.36644" fill="white"/>
<ellipse cx="959.306" cy="447.489" rx="3.3728" ry="3.36644" fill="white"/>
<ellipse cx="973.25" cy="447.489" rx="3.3728" ry="3.36644" fill="white"/>
<ellipse cx="987.189" cy="447.489" rx="3.3728" ry="3.36644" fill="white"/>
<ellipse cx="1001.13" cy="447.489" rx="3.3728" ry="3.36644" fill="white"/>
<ellipse cx="1015.07" cy="447.489" rx="3.3728" ry="3.36644" fill="white"/>
<path d="M1027.8 444.348C1027.42 446.607 1027.11 448.551 1026.9 450.089C1025.97 449.333 1025.51 448.142 1025.7 446.961C1025.88 445.78 1026.68 444.785 1027.8 444.348V444.348Z" fill="white"/>
<path d="M969.639 457.81C969.64 459.136 968.859 460.339 967.646 460.881C966.451 460.754 965.288 460.598 964.154 460.434C962.931 459.45 962.55 457.754 963.236 456.343C963.922 454.932 965.493 454.18 967.024 454.531C968.556 454.882 969.642 456.242 969.643 457.81H969.639Z" fill="white"/>
<ellipse cx="980.221" cy="457.814" rx="3.3728" ry="3.36644" fill="white"/>
<ellipse cx="994.16" cy="457.814" rx="3.3728" ry="3.36644" fill="white"/>
<path d="M1011.48 457.81C1011.48 458.513 1011.26 459.198 1010.85 459.77C1009.3 460.016 1007.68 460.245 1006 460.446C1004.77 459.467 1004.39 457.77 1005.07 456.355C1005.75 454.941 1007.32 454.184 1008.85 454.532C1010.39 454.88 1011.48 456.24 1011.48 457.81H1011.48Z" fill="white"/>
<path d="M1024.75 455.809C1023.4 456.658 1021.32 457.449 1018.69 458.154C1018.68 458.04 1018.68 457.925 1018.69 457.81C1018.69 456.357 1019.62 455.066 1021 454.611C1022.39 454.156 1023.91 454.639 1024.77 455.809H1024.75Z" fill="white"/>
<path d="M948.522 407.202C960.539 391.264 967.708 375.683 974.683 361.922" stroke="#00065D" stroke-width="4"/>
<path d="M813.791 401.585C817.784 400.728 831.83 400.802 839.019 402.749L837.66 414.641C837.66 414.641 830.898 417.946 826.432 416.113C821.966 414.28 818.598 410.671 815.418 411.66C812.238 412.648 808.327 415.149 806.417 414.694C804.141 414.186 801.969 413.288 800 412.041C800.76 410.647 808.87 403.106 813.791 401.585Z" fill="#FFCFC9"/>
<path d="M984.736 283.911C985.849 288.364 990.311 307.665 990.311 310.633C990.311 313.602 1021 310.166 1026.95 304.971C1026.95 304.971 1014.85 291.513 1011.88 271.29L984.736 283.911Z" fill="#FFCFC9"/>
<path d="M1008.11 273.361C1008.11 273.361 998.749 292.854 979.297 291.3C977.976 291.197 976.796 290.439 976.154 289.283C973.484 284.444 966.401 270.831 966.66 262.749C966.981 252.822 971.212 234.415 971.212 234.415C971.212 234.415 994.9 229.519 1008.05 251.44C1015.42 263.741 1008.11 273.361 1008.11 273.361Z" fill="#FFCFC9"/>
<path d="M991.013 255.753H956.607" stroke="#D8BAA3" stroke-width="4"/>
<ellipse cx="960.251" cy="259.391" rx="3.3728" ry="9.33255" stroke="#D8BAA3" stroke-width="4"/>
<path d="M1053.01 292.235C1053.01 292.235 1025.71 300.112 988.947 302.511C988.947 302.511 976.15 289.283 990.894 272.959C999.324 263.626 988.992 251.797 988.992 251.797C977.181 248.106 963.147 247.696 963.147 247.696C958.46 240.82 958.333 231.057 971.364 221.417C984.863 211.444 1011.32 201.484 1026.93 217.275C1035.87 226.296 1029.8 244.379 1041.25 249.865C1077.27 267.091 1053.01 292.235 1053.01 292.235Z" fill="#14365B"/>
<path d="M975.435 221.4C988.947 211.428 1015.39 201.468 1031 217.259C1039.94 226.28 1034.77 247.503 1046.2 252.99" stroke="#14365B" stroke-width="3"/>
<path d="M960.005 247.68C955.318 240.803 957.281 229.019 971.841 221.847" stroke="#3F4D90" stroke-width="3"/>
<path d="M982.785 302.453C982.785 302.453 971.783 288.413 987.575 273.094C996.613 264.336 988.869 250.058 988.869 250.058" stroke="#14365B" stroke-width="3"/>
<path d="M1100.68 389.588C1098.5 397.798 1069.37 450.75 1066.48 525.52C1065.66 547.118 1047.95 564.206 1026.38 564.217H894.953C890.482 564.217 887.442 566.015 885.528 568.933C885.184 569.432 884.557 569.649 883.979 569.469C883.401 569.29 883.006 568.755 883.004 568.149V561.339C883.004 552.308 890.335 543.327 899.366 543.352L939.49 543.385C957.454 543.438 968.087 530.848 968.767 512.865C971.275 446.449 992.599 404.411 1002.26 390.799C1005.75 385.902 1011.38 382.996 1017.38 383H1097.35C1100.72 383.004 1101.55 386.309 1100.68 389.588Z" fill="white" stroke="#6B5DF8" stroke-width="2" stroke-linecap="round"/>
<path d="M1099.56 389.096H1021.38C1015.68 389.087 1010.33 391.84 1007.02 396.484C997.808 409.464 978.168 462.273 975.762 522.052C975.142 537.137 962.749 549.045 947.677 549.037H897.965C889.7 549.037 883 555.749 883 564.028" stroke="#6B5DF8" stroke-width="2" stroke-linecap="round"/>
<path d="M604.654 460.442C604.654 460.442 672.578 457.99 701.433 475.749C714.119 483.558 658.752 644.448 658.752 644.448C658.752 644.448 640.718 644.749 631.104 639.945C631.104 639.945 618.13 551.345 650.298 516.301C650.298 516.301 575.926 526.632 542.786 503.067L604.654 460.442Z" fill="#0C2A4A"/>
<path d="M532.895 508.093C573.713 539.687 672.88 526.18 672.88 526.18C672.88 526.18 654.544 558.398 681.597 647.264C681.597 647.264 694.22 649.365 707.443 647.264C707.443 647.264 709.249 580.51 718.867 508.825C720.68 495.307 672.582 474.25 598.946 471.399L532.895 508.093Z" fill="#14365B"/>
<path d="M514.002 287.095C510.871 283.765 497.571 263.012 504.478 247.232C511.386 231.452 526.692 228.854 536.152 232.394C536.152 232.394 544.694 229.008 557.342 240.918C569.506 252.377 576.358 266.636 570.667 275.36C563.499 286.356 561.146 286.013 557.721 290.513C554.684 294.494 547.022 305.06 536.864 299.674C525.693 293.735 514.002 287.095 514.002 287.095Z" fill="#14365B"/>
<path d="M517.477 282.451C510.432 295.146 503.233 303.337 503.233 303.337L532.295 316.739C532.295 316.739 537.095 302.258 539.403 297.478C541.009 294.137 528.434 285.022 524.325 276.466C522.014 271.658 519.844 270.79 518.855 271.298C513.322 274.11 517.477 282.451 517.477 282.451Z" fill="#FFCFC9"/>
<path d="M522.75 282.626C522.491 283.754 521.73 289.847 525.314 292.695C527.547 294.47 532.863 297.772 538.165 300.252C536.966 303.106 535.528 307.182 534.381 310.232C529.669 307.291 523.827 302.311 522.2 294.869C520.496 287.06 522.75 282.626 522.75 282.626Z" fill="#FAB6AD"/>
<path d="M522.754 282.626C522.491 283.754 521.73 289.847 525.314 292.694C528.897 295.542 540.427 302.321 547.086 303.344C553.744 304.366 561.301 284.927 561.813 277.38C562.325 269.834 564.537 250.52 549.137 250.52C542.359 250.52 524.034 277.125 522.754 282.626Z" fill="#FFCFC9"/>
<path d="M598.96 471.399C598.96 471.399 603.767 466.146 604.672 460.442C604.672 460.442 562.303 428.171 542.302 330.169L540.181 329.983C540.181 329.983 537.176 409.036 598.96 471.399Z" fill="#7777BB"/>
<path d="M542.246 330.004C556.739 337.779 582.413 388.249 582.413 388.249L559.368 412.889C575.014 443.912 598.96 471.399 598.96 471.399C578.202 499.313 532.895 508.093 532.895 508.093C532.895 508.093 475.413 461.716 475.413 381.119C475.413 338.279 489.698 323.312 493.296 318.357L542.246 330.004Z" fill="#B7C0FF"/>
<path d="M490.726 317.86C490.726 317.86 517.189 328.215 542.271 330.165C542.271 330.165 541.973 319.961 539.641 317.86C537.309 315.758 508.42 301.667 502.708 302.644C496.996 303.621 490.726 317.86 490.726 317.86Z" fill="#8B98EF"/>
<path d="M531.015 390.802L559.368 412.889" stroke="#7777BB" stroke-width="1.4"/>
<path d="M688.522 407.468C694.679 406.968 699.94 402.841 701.885 396.986L721.139 339.123C723.089 333.268 728.324 328.831 734.464 328.33L703.495 330.859C697.341 331.36 692.106 335.797 690.17 341.652L670.92 399.515C668.97 405.37 664.959 409.394 658.801 409.894L688.522 407.468Z" fill="white" stroke="#00065D" stroke-width="1.75"/>
<path d="M689.49 409.663C695.666 409.602 701.207 405.862 703.568 400.162L726.918 343.823C729.285 338.127 734.825 334.389 741 334.322L709.929 334.634C703.753 334.695 698.211 338.433 695.847 344.131L672.497 400.488C670.136 406.187 664.594 409.926 658.419 409.985L689.49 409.663Z" fill="white" stroke="#00065D" stroke-width="1.75"/>
<path d="M572.395 420.975C572.395 420.975 578.973 428.892 594.78 428.854C602.361 428.854 663.539 383.034 663.539 383.034C663.539 383.034 679.591 381.245 684.073 378.174C688.554 375.102 696.44 358.605 695.798 356.174C693.058 356.333 690.657 358.062 689.641 360.608C688 364.429 681.776 364.702 681.776 364.702L683.115 360.048C683.115 360.048 677.28 360.871 672.841 361.042C668.402 361.214 662.322 371.958 661.228 372.381C660.134 372.805 595.454 397.109 591.768 399.585C588.083 402.061 572.395 420.975 572.395 420.975Z" fill="#FFCFC9"/>
<path d="M592.971 397.606C593.931 396.405 585.218 388.2 582.413 388.249C579.608 388.298 557.015 410.959 558.919 415.161C560.823 419.364 567.885 425.208 571.241 422.613C574.597 420.019 592.971 397.606 592.971 397.606Z" fill="#8B98EF"/>
<path d="M458 385.398C458 385.398 469.101 486.878 531.317 517.334C568.934 535.748 610.503 538.178 637.496 537.218" stroke="#00065D" stroke-width="2.1" stroke-linecap="round"/>
<path d="M472.475 443.047H506.572C541.624 443.046 571.539 468.357 577.297 502.889L582.413 533.562" stroke="#00065D" stroke-width="2.1" stroke-linecap="round"/>
<g filter="url(#filter2_d_0_4250)">
<circle cx="223.5" cy="231.5" r="44.5" fill="#FFF9D1"/>
</g>
<path d="M198 229.893L209.702 246.251L248.164 217" stroke="#6F60FF" stroke-width="4"/>
<g filter="url(#filter3_d_0_4250)">
<circle cx="1033.5" cy="78.5" r="44.5" fill="white"/>
</g>
<path fill-rule="evenodd" clip-rule="evenodd" d="M1053.63 79.3161C1053.63 72.2233 1049.92 66.0003 1044.32 62.3869C1044.59 61.4501 1044.73 60.4467 1044.73 59.4426C1044.73 53.1525 1039.53 48 1033.2 48C1026.86 48 1021.67 53.1525 1021.67 59.4426C1021.67 60.4461 1021.8 61.4501 1022.07 62.3869C1016.41 66.0673 1012.63 72.3573 1012.63 79.4501V79.5168C1007.64 80.7883 1004 85.2714 1004 90.5574C1004 96.8475 1009.19 102 1015.53 102C1019.1 102 1022.27 100.394 1024.43 97.8514C1027.06 99.1229 1030.03 99.7917 1033.13 99.7917C1036.43 99.7917 1039.6 98.9889 1042.37 97.5835C1044.46 100.26 1047.76 102 1051.47 102C1057.81 102 1063 96.8475 1063 90.5574C1063.07 85.0039 1059.02 80.3195 1053.63 79.3161ZM1037.44 56.9668C1037.44 59.309 1035.49 61.2493 1033.13 61.2493C1030.77 61.2493 1028.81 59.3085 1028.81 56.9668C1028.81 54.6245 1030.77 52.6842 1033.13 52.6842C1035.49 52.6842 1037.44 54.6245 1037.44 56.9668ZM1035.76 56.9668C1035.76 55.4946 1034.54 54.3571 1033.13 54.3571C1031.71 54.3571 1030.5 55.4946 1030.5 56.9668C1030.5 58.4389 1031.71 59.5764 1033.13 59.5764C1034.61 59.5764 1035.76 58.3722 1035.76 56.9668ZM1015.53 92.0298C1017.89 92.0298 1019.85 90.0896 1019.85 87.7473C1019.85 85.4051 1017.89 83.4648 1015.53 83.4648C1013.17 83.4648 1011.21 85.4051 1011.21 87.7473C1011.21 90.0896 1013.17 92.0298 1015.53 92.0298ZM1018.16 87.7473C1018.16 86.2751 1016.95 85.1377 1015.53 85.1377C1014.11 85.1377 1012.9 86.2752 1012.9 87.7473C1012.9 89.2195 1014.05 90.357 1015.53 90.357C1017.01 90.357 1018.16 89.1527 1018.16 87.7473ZM1059.29 96.4466C1060.57 94.7738 1061.31 92.7662 1061.31 90.5581V90.5579C1061.31 85.2047 1057 80.855 1051.54 80.855C1046.07 80.855 1041.69 85.2715 1041.69 90.6247C1041.69 92.7658 1042.43 94.8401 1043.65 96.4462C1045.67 94.238 1048.43 92.9665 1051.47 92.967C1054.5 92.967 1057.27 94.2385 1059.29 96.4466ZM1033.13 49.7404C1038.52 49.7404 1042.97 54.0896 1042.97 59.5101C1042.97 61.7851 1042.16 63.9266 1040.82 65.5321C1038.86 63.3906 1036.1 62.1864 1033.13 62.1864C1030.16 62.1864 1027.4 63.3906 1025.44 65.5321C1024.09 63.8593 1023.35 61.7851 1023.35 59.5101C1023.35 54.0897 1027.73 49.7404 1033.13 49.7404ZM1033.2 69.2123C1035.69 69.2123 1037.92 68.2755 1039.67 66.7366C1037.98 64.9303 1035.62 63.8595 1033.13 63.8595C1030.63 63.8595 1028.34 64.9298 1026.66 66.7366C1028.41 68.2755 1030.7 69.2123 1033.2 69.2123ZM1015.53 80.8555C1020.92 80.8555 1025.37 85.2047 1025.37 90.6252C1025.37 92.8334 1024.63 94.8409 1023.35 96.5138C1021.33 94.3056 1018.56 93.0341 1015.53 93.0341C1012.5 93.0341 1009.73 94.3056 1007.71 96.5138C1006.5 94.9077 1005.75 92.8334 1005.75 90.6924C1005.75 85.2052 1010.14 80.8555 1015.53 80.8555ZM1015.53 94.6396C1012.9 94.6396 1010.54 95.7776 1008.85 97.7179C1010.61 99.324 1012.97 100.328 1015.53 100.328C1018.09 100.328 1020.45 99.324 1022.21 97.7179C1020.52 95.7771 1018.16 94.6396 1015.53 94.6396ZM1033.13 98.1193C1030.36 98.1193 1027.8 97.5172 1025.44 96.4465C1026.45 94.7068 1027.06 92.6994 1027.06 90.5579C1027.06 84.2678 1021.87 79.1153 1015.53 79.1153C1015.13 79.1153 1014.72 79.1153 1014.32 79.182C1014.38 72.892 1017.62 67.3381 1022.54 64.0594C1024.36 68.0745 1028.41 70.9516 1033.13 70.9516C1037.85 70.9516 1041.89 68.1412 1043.72 64.0594C1048.57 67.3383 1051.81 72.8923 1051.94 79.182H1051.54C1045.2 79.182 1040.01 84.3346 1040.01 90.6246C1040.01 92.6322 1040.55 94.5724 1041.49 96.2453C1038.93 97.3832 1036.16 98.1194 1033.13 98.1194L1033.13 98.1193ZM1051.54 94.6396C1048.91 94.6396 1046.55 95.7776 1044.86 97.7179C1046.61 99.324 1048.91 100.328 1051.54 100.328C1054.1 100.328 1056.46 99.324 1058.21 97.7179C1056.53 95.7771 1054.17 94.6396 1051.54 94.6396ZM1047.15 87.6808C1047.15 90.023 1049.11 91.9633 1051.47 91.9633C1053.83 91.9633 1055.78 90.023 1055.78 87.6808C1055.78 85.3385 1053.83 83.3982 1051.47 83.3982C1049.11 83.3982 1047.15 85.3385 1047.15 87.6808ZM1051.47 90.2904C1052.95 90.2904 1054.1 89.0862 1054.1 87.6808C1054.1 86.2753 1052.95 85.1378 1051.47 85.0711C1049.99 85.0711 1048.84 86.2753 1048.84 87.6808C1048.84 89.1529 1050.05 90.2904 1051.47 90.2904Z" fill="#6080FF"/>
<g filter="url(#filter4_d_0_4250)">
<rect x="102" y="25" width="126" height="127" rx="11.2" fill="white"/>
</g>
<path d="M188.762 104.288L188.741 104.287C188.098 104.287 187.575 104.806 187.57 105.449C187.564 106.092 188.078 106.62 188.721 106.631C188.733 106.631 188.745 106.631 188.757 106.631C190.323 106.631 191.868 104.894 192.718 103.398C193.645 101.766 194.325 99.4284 193.19 98.2068L193.191 98.2057C192.76 97.7417 192.039 97.703 191.561 98.1194C191.084 98.5359 191.024 99.2557 191.426 99.746C191.49 99.9866 191.43 100.922 190.681 102.239C189.915 103.587 189.025 104.248 188.762 104.287L188.762 104.288Z" fill="#6080FF"/>
<path fill-rule="evenodd" clip-rule="evenodd" d="M183.077 101.391C183.077 102.038 182.552 102.563 181.905 102.563H180.44V118.969H181.905C182.552 118.969 183.077 119.494 183.077 120.141C183.077 120.788 182.552 121.313 181.905 121.313H149.093C148.446 121.313 147.921 120.788 147.921 120.141C147.921 119.494 148.446 118.969 149.093 118.969H150.558V102.563H149.093C148.446 102.563 147.921 102.038 147.921 101.391C147.921 100.744 148.446 100.219 149.093 100.219H181.905C182.552 100.219 183.077 100.744 183.077 101.391ZM152.902 118.969H155.246V102.563H152.902V118.969ZM161.984 118.969H157.589V102.563H161.984V118.969ZM164.327 118.969H166.671V102.563H164.327V118.969ZM173.409 118.969H169.015V102.563H173.409V118.969ZM175.753 118.969H178.096V102.563H175.753V118.969Z" fill="#6080FF"/>
<path d="M145.578 124.828C145.578 125.475 146.102 126 146.749 126H184.248C184.895 126 185.42 125.475 185.42 124.828C185.42 124.181 184.895 123.656 184.248 123.656H146.749C146.102 123.656 145.578 124.181 145.578 124.828Z" fill="#6080FF"/>
<path d="M161.009 79.9219C161.33 79.8414 161.656 79.7775 161.984 79.7304V77.371C161.461 77.4291 160.943 77.5222 160.433 77.6499C158.427 78.1913 156.628 79.3188 155.266 80.8877C153.904 82.4567 153.04 84.396 152.785 86.4578C152.651 87.615 152.696 88.7853 152.918 89.929L155.084 88.3245C155.053 87.7794 155.064 87.2327 155.117 86.6891C155.329 85.1081 156.001 83.6244 157.048 82.4217C158.095 81.219 159.472 80.3495 161.009 79.9221L161.009 79.9219Z" fill="#6080FF"/>
<path fill-rule="evenodd" clip-rule="evenodd" d="M165.499 51.0001C157.36 50.9996 149.443 53.6468 142.941 58.5424C136.439 63.4387 131.707 70.3171 129.459 78.1388C127.211 85.961 127.569 94.3026 130.479 101.903C133.389 109.504 138.693 115.951 145.591 120.273C145.59 120.252 145.587 120.232 145.585 120.212C145.581 120.189 145.578 120.165 145.578 120.14C145.578 119.346 145.848 118.575 146.345 117.954C144.416 116.696 142.615 115.253 140.966 113.646C141.413 113.466 141.817 113.193 142.15 112.846C143.577 111.34 143.316 108.873 143.137 107.881L143.138 107.881C143.052 107.072 143.125 106.254 143.351 105.472L143.382 105.326L143.382 105.326C143.508 104.8 143.67 104.285 143.867 103.781C144.352 102.672 144.593 101.472 144.571 100.262C144.547 99.9445 144.495 99.6306 144.416 99.3225C143.767 98.7428 143.357 97.9424 143.266 97.0771C142.598 96.2829 141.854 95.5558 141.047 94.9049C139.661 93.7178 138.465 92.6924 138.292 91.1747H138.292C138.124 89.612 138.106 88.0368 138.241 86.4705C138.244 86.427 138.245 86.3836 138.244 86.3402C138.159 83.5868 135.481 81.807 131.045 81.5062H131.045C131.461 79.4665 132.059 77.4685 132.832 75.5354C133.286 75.7938 133.795 75.9372 134.317 75.9529C134.359 75.9545 134.401 75.955 134.443 75.955C136.623 75.955 138.904 73.9398 139.82 72.8537C140.871 71.6076 142.187 71.0034 143.712 70.3039L143.83 70.2499L143.83 70.2497C144.04 70.153 144.252 70.0555 144.464 69.9554C145.758 69.3465 147.561 68.2934 148.289 66.1908H148.29C148.67 64.8479 148.702 63.4296 148.383 62.0704C148.111 60.8535 147.649 59.6869 147.012 58.6149C151.32 55.939 156.159 54.2335 161.192 53.6172C161.2 53.6238 161.206 53.6308 161.213 53.6378L161.213 53.6379C161.221 53.6464 161.23 53.655 161.239 53.6628V53.6622C161.317 54.1095 161.344 54.5647 161.32 55.0177L161.318 55.2542C161.325 56.3738 161.292 57.1391 160.781 57.5598V57.5603C160.321 57.8841 159.814 58.1342 159.278 58.3027C158.963 58.4225 158.649 58.5428 158.348 58.6804H158.347C156.842 59.2851 155.459 60.1583 154.266 61.2569C153.332 62.208 153.062 63.1476 153.465 64.0496C153.717 64.6151 154.366 64.8871 154.945 64.67C155.525 64.4534 155.837 63.8225 155.656 63.2303C155.739 63.11 155.835 62.9985 155.94 62.8965C156.938 62.0103 158.083 61.3045 159.323 60.8118C159.562 60.7022 159.811 60.6073 160.062 60.5121L160.11 60.4937C160.889 60.2416 161.619 59.8612 162.273 59.3684C163.68 58.2091 163.67 56.4931 163.662 55.2413L163.664 55.0451C163.682 54.4947 163.65 53.9438 163.567 53.3992C164.207 53.3642 164.851 53.3438 165.5 53.3438C168.799 53.3443 172.082 53.811 175.25 54.7297C174.412 56.1087 174.745 57.9758 174.972 59.2294C175.003 59.4021 175.034 59.5689 175.06 59.728C175.147 60.2511 175.41 61.8436 175.047 62.2987C175.026 62.3254 174.969 62.3955 174.713 62.4107C174.687 62.4123 174.662 62.4128 174.636 62.4128C173.688 62.3385 167.279 61.9864 166.803 65.7469L166.807 65.7475H166.808C166.796 65.8181 166.788 65.8892 166.784 65.9609C166.764 66.5034 166.674 67.0407 166.519 67.5607C166.995 67.7035 167.434 67.9457 167.809 68.2711L168.508 68.8806H168.509C168.883 67.9991 169.091 67.0564 169.124 66.0995L169.126 66.0644L169.129 66.0409C169.269 64.9428 172.389 64.5828 174.492 64.7523C174.52 64.7544 174.549 64.756 174.577 64.7565C174.675 64.7576 174.767 64.756 174.857 64.7502L174.857 64.7497C175.643 64.7319 176.381 64.3709 176.878 63.7615C177.892 62.491 177.567 60.5224 177.372 59.3457L177.372 59.3449C177.344 59.1749 177.312 58.996 177.278 58.8118C176.935 56.9116 176.911 55.9439 177.705 55.5819C177.715 55.5774 177.724 55.5717 177.733 55.566C177.74 55.5611 177.748 55.5562 177.756 55.552C182.842 57.4574 187.42 60.5101 191.134 64.4729C194.848 68.4363 197.598 73.2023 199.17 78.4014C198.61 78.5218 198.058 78.6724 197.514 78.8534L197.505 78.8565C196.393 79.2099 195.432 79.5155 194.234 79.2584C193.757 79.1035 193.309 78.8691 192.91 78.5657C192.158 77.9777 191.261 77.6057 190.315 77.4901C189.216 77.4273 188.152 77.884 187.441 78.7237C186.73 79.5633 186.454 80.6881 186.697 81.7617C186.82 82.2106 187.005 82.6411 187.244 83.0408C187.407 83.3045 187.536 83.5865 187.632 83.881C187.582 83.9135 187.39 83.9815 186.691 83.914H186.69C186.371 83.8617 186.057 83.7753 185.756 83.6561C184.957 83.3014 184.07 83.1931 183.209 83.3458C182.291 83.5525 181.522 84.174 181.127 85.0278C180.663 86.1312 180.712 87.3836 181.262 88.4466C182.195 90.3106 183.541 90.8615 184.728 91.347C185.293 91.552 185.83 91.8236 186.329 92.1568C186.42 92.2112 186.497 92.2855 186.555 92.3739C186.577 92.5952 186.105 93.2001 185.813 93.5591L185.813 93.5589V93.5594L185.813 93.5591C186.538 93.9211 187.116 94.5211 187.451 95.2586C187.466 95.2411 187.479 95.224 187.493 95.2066C187.501 95.1965 187.51 95.1863 187.518 95.1759L187.52 95.1744C188.199 94.347 189.043 93.318 188.879 92.0689V92.0694C188.762 91.3229 188.332 90.6616 187.696 90.2526C187.049 89.811 186.35 89.45 185.615 89.1775L185.614 89.1771C184.58 88.7541 183.897 88.4745 183.358 87.3982H183.357C183.131 86.9719 183.093 86.4696 183.253 86.014C183.348 85.8073 183.539 85.6608 183.763 85.6232C184.186 85.6049 184.606 85.6896 184.988 85.8701C185.465 86.0553 185.962 86.1819 186.469 86.2468C187.078 86.3054 188.505 86.4414 189.383 85.4354C190.507 84.1447 189.726 82.7008 189.306 81.925C189.175 81.7068 189.066 81.4766 188.981 81.237C188.9 80.886 188.991 80.5177 189.225 80.2441C189.462 79.9615 189.819 79.8077 190.188 79.8302C190.713 79.9485 191.204 80.186 191.623 80.5245C192.259 80.9969 192.979 81.3448 193.744 81.5504C195.252 81.8182 196.804 81.6576 198.225 81.0864C198.729 80.9148 199.244 80.7756 199.765 80.6699C201.376 87.6844 200.79 95.0244 198.088 101.694C195.385 108.364 190.696 114.041 184.656 117.956C185.152 118.576 185.422 119.346 185.422 120.14C185.422 120.165 185.419 120.188 185.415 120.212L185.415 120.212C185.413 120.232 185.41 120.252 185.409 120.273C192.306 115.952 197.61 109.504 200.521 101.903C203.431 94.302 203.789 85.9601 201.541 78.1387C199.293 70.3165 194.561 63.4374 188.059 58.5423C181.558 53.6466 173.64 50.9995 165.501 51L165.499 51.0001ZM135.898 86.3572C135.757 88.0502 135.779 89.7526 135.963 91.4413C136.24 93.8732 137.982 95.3666 139.52 96.6847L139.521 96.6859L139.522 96.6871C140.916 97.8815 142.119 98.913 142.232 100.437C142.219 101.316 142.025 102.182 141.663 102.983C141.427 103.589 141.235 104.211 141.088 104.843L141.057 104.988C140.759 106.065 140.682 107.191 140.83 108.298C141.063 109.591 140.913 110.744 140.448 111.235C140.048 111.564 139.519 111.691 139.013 111.58C135.717 107.822 133.266 103.399 131.825 98.6123C130.385 93.8249 129.988 88.7843 130.663 83.8307C131.935 83.9123 135.766 84.3261 135.898 86.357L135.898 86.3572ZM143.464 67.8363C144.951 67.1362 145.731 66.4142 146.074 65.4229L146.074 65.4225C146.313 64.4504 146.312 63.4344 146.071 62.4629C145.854 61.5731 145.516 60.7172 145.064 59.9199C140.24 63.3754 136.362 67.988 133.787 73.3341C133.946 73.5057 134.167 73.6057 134.401 73.6114L134.4 73.6109C135.504 73.6559 137.204 72.3186 138.027 71.343C139.415 69.6974 141.1 68.9241 142.73 68.176L142.734 68.1742C142.975 68.0638 143.219 67.9519 143.464 67.8363Z" fill="#6080FF"/>
<path d="M178.097 77.2394L179.527 78.4855V78.485C179.805 78.7283 180.042 79.0139 180.23 79.3315C180.361 79.0495 180.442 78.7466 180.47 78.4369C180.677 76.8726 180.187 75.2964 179.13 74.1256C177.527 72.4641 174.905 72.1307 172.226 72.1213L175.202 74.7157C176.036 74.8313 176.816 75.1923 177.443 75.7531C177.816 76.1648 178.046 76.6864 178.097 77.2394L178.097 77.2394Z" fill="#6080FF"/>
<path fill-rule="evenodd" clip-rule="evenodd" d="M146.749 95.5313C146.102 95.5313 145.578 96.056 145.578 96.7032C145.578 97.3503 146.102 97.875 146.749 97.875H184.248C184.895 97.875 185.42 97.3503 185.42 96.7032C185.42 96.056 184.895 95.5313 184.248 95.5313H181.705L166.671 84.3943V82.308L177.218 82.3075C177.706 82.308 178.144 82.0046 178.315 81.5468C178.487 81.0896 178.356 80.5732 177.988 80.2525L166.269 70.0389V70.0383C165.923 69.7365 165.432 69.6653 165.014 69.8552C164.596 70.0457 164.327 70.4626 164.327 70.922V84.3938L149.293 95.5308L146.749 95.5313ZM166.671 73.4974L174.09 79.9631H166.671V73.4974ZM177.768 95.5306L165.499 86.4418L153.229 95.5306H177.768Z" fill="#6080FF"/>
<g filter="url(#filter5_d_0_4250)">
<rect x="1090" y="174" width="79" height="79" rx="11.2" fill="white"/>
</g>
<path d="M1142.35 198.115L1115.76 206.355C1114.75 206.623 1114.03 207.523 1114 208.569C1113.97 209.614 1114.63 210.557 1115.62 210.886L1127.68 214.926C1127.77 214.96 1127.84 215.03 1127.88 215.119L1132.32 226.634C1132.69 227.581 1133.61 228.197 1134.62 228.18H1134.69C1135.72 228.179 1136.64 227.512 1136.96 226.528L1145.42 201.129C1145.69 200.301 1145.48 199.391 1144.87 198.765C1144.22 198.083 1143.25 197.831 1142.35 198.115V198.115Z" fill="#E4E4FF"/>
</g>
</g>
<path d="M92.266 524.768H117.592V530.924H99.07V540.32H116.62V546.476H99.07V556.844H118.564V563H92.266V524.768ZM145.141 532.976C144.421 531.932 143.449 531.176 142.225 530.708C141.037 530.204 139.777 529.952 138.445 529.952C137.653 529.952 136.879 530.042 136.123 530.222C135.403 530.402 134.737 530.69 134.125 531.086C133.549 531.482 133.081 532.004 132.721 532.652C132.361 533.264 132.181 534.002 132.181 534.866C132.181 536.162 132.631 537.152 133.531 537.836C134.431 538.52 135.547 539.114 136.879 539.618C138.211 540.122 139.669 540.608 141.253 541.076C142.837 541.544 144.295 542.192 145.627 543.02C146.959 543.848 148.075 544.946 148.975 546.314C149.875 547.682 150.325 549.5 150.325 551.768C150.325 553.82 149.947 555.62 149.191 557.168C148.435 558.68 147.409 559.94 146.113 560.948C144.853 561.956 143.377 562.712 141.685 563.216C139.993 563.72 138.211 563.972 136.339 563.972C133.963 563.972 131.677 563.576 129.481 562.784C127.285 561.992 125.395 560.66 123.811 558.788L128.941 553.82C129.769 555.08 130.849 556.07 132.181 556.79C133.549 557.474 134.989 557.816 136.501 557.816C137.293 557.816 138.085 557.708 138.877 557.492C139.669 557.276 140.389 556.952 141.037 556.52C141.685 556.088 142.207 555.548 142.603 554.9C142.999 554.216 143.197 553.442 143.197 552.578C143.197 551.174 142.747 550.094 141.847 549.338C140.947 548.582 139.831 547.952 138.499 547.448C137.167 546.908 135.709 546.404 134.125 545.936C132.541 545.468 131.083 544.838 129.751 544.046C128.419 543.218 127.303 542.138 126.403 540.806C125.503 539.438 125.053 537.62 125.053 535.352C125.053 533.372 125.449 531.662 126.241 530.222C127.069 528.782 128.131 527.594 129.427 526.658C130.759 525.686 132.271 524.966 133.963 524.498C135.655 524.03 137.383 523.796 139.147 523.796C141.163 523.796 143.107 524.102 144.979 524.714C146.887 525.326 148.597 526.334 150.109 527.738L145.141 532.976ZM192.502 560.192C187.786 562.712 182.512 563.972 176.68 563.972C173.728 563.972 171.01 563.504 168.526 562.568C166.078 561.596 163.954 560.246 162.154 558.518C160.39 556.754 159.004 554.648 157.996 552.2C156.988 549.752 156.484 547.034 156.484 544.046C156.484 540.986 156.988 538.214 157.996 535.73C159.004 533.21 160.39 531.068 162.154 529.304C163.954 527.54 166.078 526.19 168.526 525.254C171.01 524.282 173.728 523.796 176.68 523.796C179.596 523.796 182.332 524.156 184.888 524.876C187.444 525.56 189.73 526.802 191.746 528.602L186.724 533.678C185.5 532.49 184.006 531.572 182.242 530.924C180.514 530.276 178.678 529.952 176.734 529.952C174.754 529.952 172.954 530.312 171.334 531.032C169.75 531.716 168.382 532.688 167.23 533.948C166.078 535.172 165.178 536.612 164.53 538.268C163.918 539.924 163.612 541.706 163.612 543.614C163.612 545.666 163.918 547.556 164.53 549.284C165.178 551.012 166.078 552.506 167.23 553.766C168.382 555.026 169.75 556.016 171.334 556.736C172.954 557.456 174.754 557.816 176.734 557.816C178.462 557.816 180.082 557.654 181.594 557.33C183.142 557.006 184.51 556.502 185.698 555.818V546.8H177.868V540.644H192.502V560.192ZM238.719 559.112H238.611C237.675 560.696 236.415 561.848 234.831 562.568C233.247 563.288 231.537 563.648 229.701 563.648C227.685 563.648 225.885 563.306 224.301 562.622C222.753 561.902 221.421 560.93 220.305 559.706C219.189 558.482 218.343 557.042 217.767 555.386C217.191 553.73 216.903 551.948 216.903 550.04C216.903 548.132 217.209 546.35 217.821 544.694C218.433 543.038 219.279 541.598 220.359 540.374C221.475 539.15 222.807 538.196 224.355 537.512C225.903 536.792 227.595 536.432 229.431 536.432C230.655 536.432 231.735 536.558 232.671 536.81C233.607 537.062 234.435 537.386 235.155 537.782C235.875 538.178 236.487 538.61 236.991 539.078C237.495 539.51 237.909 539.942 238.233 540.374H238.395V522.176H244.875V563H238.719V559.112ZM223.383 550.04C223.383 551.048 223.545 552.02 223.869 552.956C224.229 553.892 224.733 554.72 225.381 555.44C226.065 556.16 226.875 556.736 227.811 557.168C228.747 557.6 229.809 557.816 230.997 557.816C232.185 557.816 233.247 557.6 234.183 557.168C235.119 556.736 235.911 556.16 236.559 555.44C237.243 554.72 237.747 553.892 238.071 552.956C238.431 552.02 238.611 551.048 238.611 550.04C238.611 549.032 238.431 548.06 238.071 547.124C237.747 546.188 237.243 545.36 236.559 544.64C235.911 543.92 235.119 543.344 234.183 542.912C233.247 542.48 232.185 542.264 230.997 542.264C229.809 542.264 228.747 542.48 227.811 542.912C226.875 543.344 226.065 543.92 225.381 544.64C224.733 545.36 224.229 546.188 223.869 547.124C223.545 548.06 223.383 549.032 223.383 550.04ZM269.538 559.436H269.376C268.44 560.912 267.252 561.992 265.812 562.676C264.372 563.324 262.788 563.648 261.06 563.648C259.872 563.648 258.702 563.486 257.55 563.162C256.434 562.838 255.426 562.352 254.526 561.704C253.662 561.056 252.96 560.246 252.42 559.274C251.88 558.302 251.61 557.168 251.61 555.872C251.61 554.468 251.862 553.28 252.366 552.308C252.87 551.3 253.536 550.472 254.364 549.824C255.228 549.14 256.218 548.6 257.334 548.204C258.45 547.808 259.602 547.52 260.79 547.34C262.014 547.124 263.238 546.998 264.462 546.962C265.686 546.89 266.838 546.854 267.918 546.854H269.538V546.152C269.538 544.532 268.98 543.326 267.864 542.534C266.748 541.706 265.326 541.292 263.598 541.292C262.23 541.292 260.952 541.544 259.764 542.048C258.576 542.516 257.55 543.164 256.686 543.992L253.284 540.59C254.724 539.114 256.398 538.052 258.306 537.404C260.25 536.756 262.248 536.432 264.3 536.432C266.136 536.432 267.684 536.648 268.944 537.08C270.204 537.476 271.248 537.998 272.076 538.646C272.904 539.294 273.534 540.05 273.966 540.914C274.434 541.742 274.758 542.588 274.938 543.452C275.154 544.316 275.28 545.162 275.316 545.99C275.352 546.782 275.37 547.484 275.37 548.096V563H269.538V559.436ZM269.16 551.39H267.81C266.91 551.39 265.902 551.426 264.786 551.498C263.67 551.57 262.608 551.75 261.6 552.038C260.628 552.29 259.8 552.686 259.116 553.226C258.432 553.73 258.09 554.45 258.09 555.386C258.09 555.998 258.216 556.52 258.468 556.952C258.756 557.348 259.116 557.69 259.548 557.978C259.98 558.266 260.466 558.482 261.006 558.626C261.546 558.734 262.086 558.788 262.626 558.788C264.858 558.788 266.496 558.266 267.54 557.222C268.62 556.142 269.16 554.684 269.16 552.848V551.39ZM280.443 542.588V537.08H285.789V529.574H292.269V537.08H299.397V542.588H292.269V553.928C292.269 555.224 292.503 556.25 292.971 557.006C293.475 557.762 294.447 558.14 295.887 558.14C296.463 558.14 297.093 558.086 297.777 557.978C298.461 557.834 299.001 557.618 299.397 557.33V562.784C298.713 563.108 297.867 563.324 296.859 563.432C295.887 563.576 295.023 563.648 294.267 563.648C292.539 563.648 291.117 563.45 290.001 563.054C288.921 562.694 288.057 562.136 287.409 561.38C286.797 560.588 286.365 559.616 286.113 558.464C285.897 557.312 285.789 555.98 285.789 554.468V542.588H280.443ZM321.78 559.436H321.618C320.682 560.912 319.494 561.992 318.054 562.676C316.614 563.324 315.03 563.648 313.302 563.648C312.114 563.648 310.944 563.486 309.792 563.162C308.676 562.838 307.668 562.352 306.768 561.704C305.904 561.056 305.202 560.246 304.662 559.274C304.122 558.302 303.852 557.168 303.852 555.872C303.852 554.468 304.104 553.28 304.608 552.308C305.112 551.3 305.778 550.472 306.606 549.824C307.47 549.14 308.46 548.6 309.576 548.204C310.692 547.808 311.844 547.52 313.032 547.34C314.256 547.124 315.48 546.998 316.704 546.962C317.928 546.89 319.08 546.854 320.16 546.854H321.78V546.152C321.78 544.532 321.222 543.326 320.106 542.534C318.99 541.706 317.568 541.292 315.84 541.292C314.472 541.292 313.194 541.544 312.006 542.048C310.818 542.516 309.792 543.164 308.928 543.992L305.526 540.59C306.966 539.114 308.64 538.052 310.548 537.404C312.492 536.756 314.49 536.432 316.542 536.432C318.378 536.432 319.926 536.648 321.186 537.08C322.446 537.476 323.49 537.998 324.318 538.646C325.146 539.294 325.776 540.05 326.208 540.914C326.676 541.742 327 542.588 327.18 543.452C327.396 544.316 327.522 545.162 327.558 545.99C327.594 546.782 327.612 547.484 327.612 548.096V563H321.78V559.436ZM321.402 551.39H320.052C319.152 551.39 318.144 551.426 317.028 551.498C315.912 551.57 314.85 551.75 313.842 552.038C312.87 552.29 312.042 552.686 311.358 553.226C310.674 553.73 310.332 554.45 310.332 555.386C310.332 555.998 310.458 556.52 310.71 556.952C310.998 557.348 311.358 557.69 311.79 557.978C312.222 558.266 312.708 558.482 313.248 558.626C313.788 558.734 314.328 558.788 314.868 558.788C317.1 558.788 318.738 558.266 319.782 557.222C320.862 556.142 321.402 554.684 321.402 552.848V551.39ZM352.543 537.08H358.699V541.13H358.807C359.383 539.906 360.301 538.826 361.561 537.89C362.857 536.918 364.585 536.432 366.745 536.432C370.813 536.432 373.513 538.034 374.845 541.238C375.781 539.582 376.951 538.376 378.355 537.62C379.759 536.828 381.433 536.432 383.377 536.432C385.105 536.432 386.563 536.72 387.751 537.296C388.939 537.872 389.893 538.664 390.613 539.672C391.369 540.68 391.909 541.868 392.233 543.236C392.557 544.568 392.719 546.008 392.719 547.556V563H386.239V548.312C386.239 547.52 386.167 546.764 386.023 546.044C385.879 545.288 385.627 544.64 385.267 544.1C384.907 543.524 384.421 543.074 383.809 542.75C383.197 542.426 382.405 542.264 381.433 542.264C380.425 542.264 379.561 542.462 378.841 542.858C378.157 543.218 377.581 543.722 377.113 544.37C376.681 544.982 376.357 545.702 376.141 546.53C375.961 547.322 375.871 548.132 375.871 548.96V563H369.391V547.556C369.391 545.936 369.049 544.658 368.365 543.722C367.681 542.75 366.547 542.264 364.963 542.264C363.883 542.264 362.965 542.444 362.209 542.804C361.489 543.164 360.877 543.65 360.373 544.262C359.905 544.874 359.563 545.576 359.347 546.368C359.131 547.16 359.023 547.988 359.023 548.852V563H352.543V537.08ZM417.124 559.436H416.962C416.026 560.912 414.838 561.992 413.398 562.676C411.958 563.324 410.374 563.648 408.646 563.648C407.458 563.648 406.288 563.486 405.136 563.162C404.02 562.838 403.012 562.352 402.112 561.704C401.248 561.056 400.546 560.246 400.006 559.274C399.466 558.302 399.196 557.168 399.196 555.872C399.196 554.468 399.448 553.28 399.952 552.308C400.456 551.3 401.122 550.472 401.95 549.824C402.814 549.14 403.804 548.6 404.92 548.204C406.036 547.808 407.188 547.52 408.376 547.34C409.6 547.124 410.824 546.998 412.048 546.962C413.272 546.89 414.424 546.854 415.504 546.854H417.124V546.152C417.124 544.532 416.566 543.326 415.45 542.534C414.334 541.706 412.912 541.292 411.184 541.292C409.816 541.292 408.538 541.544 407.35 542.048C406.162 542.516 405.136 543.164 404.272 543.992L400.87 540.59C402.31 539.114 403.984 538.052 405.892 537.404C407.836 536.756 409.834 536.432 411.886 536.432C413.722 536.432 415.27 536.648 416.53 537.08C417.79 537.476 418.834 537.998 419.662 538.646C420.49 539.294 421.12 540.05 421.552 540.914C422.02 541.742 422.344 542.588 422.524 543.452C422.74 544.316 422.866 545.162 422.902 545.99C422.938 546.782 422.956 547.484 422.956 548.096V563H417.124V559.436ZM416.746 551.39H415.396C414.496 551.39 413.488 551.426 412.372 551.498C411.256 551.57 410.194 551.75 409.186 552.038C408.214 552.29 407.386 552.686 406.702 553.226C406.018 553.73 405.676 554.45 405.676 555.386C405.676 555.998 405.802 556.52 406.054 556.952C406.342 557.348 406.702 557.69 407.134 557.978C407.566 558.266 408.052 558.482 408.592 558.626C409.132 558.734 409.672 558.788 410.212 558.788C412.444 558.788 414.082 558.266 415.126 557.222C416.206 556.142 416.746 554.684 416.746 552.848V551.39ZM431.053 537.08H437.209V541.238H437.317C437.929 539.942 438.865 538.826 440.125 537.89C441.385 536.918 443.095 536.432 445.255 536.432C446.983 536.432 448.441 536.72 449.629 537.296C450.853 537.872 451.843 538.628 452.599 539.564C453.355 540.5 453.895 541.58 454.219 542.804C454.543 544.028 454.705 545.306 454.705 546.638V563H448.225V549.878C448.225 549.158 448.189 548.366 448.117 547.502C448.045 546.602 447.847 545.774 447.523 545.018C447.235 544.226 446.767 543.578 446.119 543.074C445.471 542.534 444.589 542.264 443.473 542.264C442.393 542.264 441.475 542.444 440.719 542.804C439.999 543.164 439.387 543.65 438.883 544.262C438.415 544.874 438.073 545.576 437.857 546.368C437.641 547.16 437.533 547.988 437.533 548.852V563H431.053V537.08ZM479.386 559.436H479.224C478.288 560.912 477.1 561.992 475.66 562.676C474.22 563.324 472.636 563.648 470.908 563.648C469.72 563.648 468.55 563.486 467.398 563.162C466.282 562.838 465.274 562.352 464.374 561.704C463.51 561.056 462.808 560.246 462.268 559.274C461.728 558.302 461.458 557.168 461.458 555.872C461.458 554.468 461.71 553.28 462.214 552.308C462.718 551.3 463.384 550.472 464.212 549.824C465.076 549.14 466.066 548.6 467.182 548.204C468.298 547.808 469.45 547.52 470.638 547.34C471.862 547.124 473.086 546.998 474.31 546.962C475.534 546.89 476.686 546.854 477.766 546.854H479.386V546.152C479.386 544.532 478.828 543.326 477.712 542.534C476.596 541.706 475.174 541.292 473.446 541.292C472.078 541.292 470.8 541.544 469.612 542.048C468.424 542.516 467.398 543.164 466.534 543.992L463.132 540.59C464.572 539.114 466.246 538.052 468.154 537.404C470.098 536.756 472.096 536.432 474.148 536.432C475.984 536.432 477.532 536.648 478.792 537.08C480.052 537.476 481.096 537.998 481.924 538.646C482.752 539.294 483.382 540.05 483.814 540.914C484.282 541.742 484.606 542.588 484.786 543.452C485.002 544.316 485.128 545.162 485.164 545.99C485.2 546.782 485.218 547.484 485.218 548.096V563H479.386V559.436ZM479.008 551.39H477.658C476.758 551.39 475.75 551.426 474.634 551.498C473.518 551.57 472.456 551.75 471.448 552.038C470.476 552.29 469.648 552.686 468.964 553.226C468.28 553.73 467.938 554.45 467.938 555.386C467.938 555.998 468.064 556.52 468.316 556.952C468.604 557.348 468.964 557.69 469.396 557.978C469.828 558.266 470.314 558.482 470.854 558.626C471.394 558.734 471.934 558.788 472.474 558.788C474.706 558.788 476.344 558.266 477.388 557.222C478.468 556.142 479.008 554.684 479.008 552.848V551.39ZM519.991 537.08V560.678C519.991 563.018 519.703 565.124 519.127 566.996C518.551 568.904 517.651 570.506 516.427 571.802C515.239 573.134 513.727 574.16 511.891 574.88C510.055 575.6 507.877 575.96 505.357 575.96C502.945 575.96 500.659 575.654 498.499 575.042C496.339 574.43 494.341 573.314 492.505 571.694L496.393 566.402C497.689 567.59 499.039 568.508 500.443 569.156C501.847 569.804 503.467 570.128 505.303 570.128C506.851 570.128 508.147 569.912 509.191 569.48C510.271 569.048 511.117 568.454 511.729 567.698C512.377 566.942 512.827 566.024 513.079 564.944C513.367 563.9 513.511 562.73 513.511 561.434V559.544H513.403C512.467 560.804 511.225 561.758 509.677 562.406C508.129 563.018 506.545 563.324 504.925 563.324C502.981 563.324 501.217 562.982 499.633 562.298C498.049 561.578 496.681 560.624 495.529 559.436C494.413 558.248 493.549 556.844 492.937 555.224C492.325 553.604 492.019 551.876 492.019 550.04C492.019 548.132 492.307 546.35 492.883 544.694C493.459 543.038 494.305 541.598 495.421 540.374C496.537 539.15 497.869 538.196 499.417 537.512C501.001 536.792 502.801 536.432 504.817 536.432C506.653 536.432 508.363 536.792 509.947 537.512C511.531 538.232 512.791 539.384 513.727 540.968H513.835V537.08H519.991ZM506.167 542.264C505.015 542.264 503.971 542.462 503.035 542.858C502.099 543.218 501.289 543.74 500.605 544.424C499.957 545.072 499.435 545.882 499.039 546.854C498.679 547.79 498.499 548.834 498.499 549.986C498.499 551.03 498.679 552.002 499.039 552.902C499.435 553.802 499.975 554.594 500.659 555.278C501.343 555.962 502.153 556.502 503.089 556.898C504.025 557.294 505.033 557.492 506.113 557.492C507.301 557.492 508.363 557.294 509.299 556.898C510.271 556.502 511.081 555.98 511.729 555.332C512.413 554.648 512.935 553.838 513.295 552.902C513.655 551.966 513.835 550.958 513.835 549.878C513.835 547.61 513.151 545.774 511.783 544.37C510.415 542.966 508.543 542.264 506.167 542.264ZM533.637 552.308C533.853 554.252 534.609 555.764 535.905 556.844C537.201 557.924 538.767 558.464 540.603 558.464C542.223 558.464 543.573 558.14 544.653 557.492C545.769 556.808 546.741 555.962 547.569 554.954L552.213 558.464C550.701 560.336 549.009 561.668 547.137 562.46C545.265 563.252 543.303 563.648 541.251 563.648C539.307 563.648 537.471 563.324 535.743 562.676C534.015 562.028 532.521 561.11 531.261 559.922C530.001 558.734 528.993 557.312 528.237 555.656C527.517 553.964 527.157 552.092 527.157 550.04C527.157 547.988 527.517 546.134 528.237 544.478C528.993 542.786 530.001 541.346 531.261 540.158C532.521 538.97 534.015 538.052 535.743 537.404C537.471 536.756 539.307 536.432 541.251 536.432C543.051 536.432 544.689 536.756 546.165 537.404C547.677 538.016 548.955 538.916 549.999 540.104C551.079 541.292 551.907 542.768 552.483 544.532C553.095 546.26 553.401 548.258 553.401 550.526V552.308H533.637ZM546.921 547.448C546.885 545.54 546.291 544.046 545.139 542.966C543.987 541.85 542.385 541.292 540.333 541.292C538.389 541.292 536.841 541.85 535.689 542.966C534.573 544.082 533.889 545.576 533.637 547.448H546.921ZM560.316 537.08H566.472V541.13H566.58C567.156 539.906 568.074 538.826 569.334 537.89C570.63 536.918 572.358 536.432 574.518 536.432C578.586 536.432 581.286 538.034 582.618 541.238C583.554 539.582 584.724 538.376 586.128 537.62C587.532 536.828 589.206 536.432 591.15 536.432C592.878 536.432 594.336 536.72 595.524 537.296C596.712 537.872 597.666 538.664 598.386 539.672C599.142 540.68 599.682 541.868 600.006 543.236C600.33 544.568 600.492 546.008 600.492 547.556V563H594.012V548.312C594.012 547.52 593.94 546.764 593.796 546.044C593.652 545.288 593.4 544.64 593.04 544.1C592.68 543.524 592.194 543.074 591.582 542.75C590.97 542.426 590.178 542.264 589.206 542.264C588.198 542.264 587.334 542.462 586.614 542.858C585.93 543.218 585.354 543.722 584.886 544.37C584.454 544.982 584.13 545.702 583.914 546.53C583.734 547.322 583.644 548.132 583.644 548.96V563H577.164V547.556C577.164 545.936 576.822 544.658 576.138 543.722C575.454 542.75 574.32 542.264 572.736 542.264C571.656 542.264 570.738 542.444 569.982 542.804C569.262 543.164 568.65 543.65 568.146 544.262C567.678 544.874 567.336 545.576 567.12 546.368C566.904 547.16 566.796 547.988 566.796 548.852V563H560.316V537.08ZM613.881 552.308C614.097 554.252 614.853 555.764 616.149 556.844C617.445 557.924 619.011 558.464 620.847 558.464C622.467 558.464 623.817 558.14 624.897 557.492C626.013 556.808 626.985 555.962 627.813 554.954L632.457 558.464C630.945 560.336 629.253 561.668 627.381 562.46C625.509 563.252 623.547 563.648 621.495 563.648C619.551 563.648 617.715 563.324 615.987 562.676C614.259 562.028 612.765 561.11 611.505 559.922C610.245 558.734 609.237 557.312 608.481 555.656C607.761 553.964 607.401 552.092 607.401 550.04C607.401 547.988 607.761 546.134 608.481 544.478C609.237 542.786 610.245 541.346 611.505 540.158C612.765 538.97 614.259 538.052 615.987 537.404C617.715 536.756 619.551 536.432 621.495 536.432C623.295 536.432 624.933 536.756 626.409 537.404C627.921 538.016 629.199 538.916 630.243 540.104C631.323 541.292 632.151 542.768 632.727 544.532C633.339 546.26 633.645 548.258 633.645 550.526V552.308H613.881ZM627.165 547.448C627.129 545.54 626.535 544.046 625.383 542.966C624.231 541.85 622.629 541.292 620.577 541.292C618.633 541.292 617.085 541.85 615.933 542.966C614.817 544.082 614.133 545.576 613.881 547.448H627.165ZM640.83 537.08H646.986V541.238H647.094C647.706 539.942 648.642 538.826 649.902 537.89C651.162 536.918 652.872 536.432 655.032 536.432C656.76 536.432 658.218 536.72 659.406 537.296C660.63 537.872 661.62 538.628 662.376 539.564C663.132 540.5 663.672 541.58 663.996 542.804C664.32 544.028 664.482 545.306 664.482 546.638V563H658.002V549.878C658.002 549.158 657.966 548.366 657.894 547.502C657.822 546.602 657.624 545.774 657.3 545.018C657.012 544.226 656.544 543.578 655.896 543.074C655.248 542.534 654.366 542.264 653.25 542.264C652.17 542.264 651.252 542.444 650.496 542.804C649.776 543.164 649.164 543.65 648.66 544.262C648.192 544.874 647.85 545.576 647.634 546.368C647.418 547.16 647.31 547.988 647.31 548.852V563H640.83V537.08ZM669.939 542.588V537.08H675.285V529.574H681.765V537.08H688.893V542.588H681.765V553.928C681.765 555.224 681.999 556.25 682.467 557.006C682.971 557.762 683.943 558.14 685.383 558.14C685.959 558.14 686.589 558.086 687.273 557.978C687.957 557.834 688.497 557.618 688.893 557.33V562.784C688.209 563.108 687.363 563.324 686.355 563.432C685.383 563.576 684.519 563.648 683.763 563.648C682.035 563.648 680.613 563.45 679.497 563.054C678.417 562.694 677.553 562.136 676.905 561.38C676.293 560.588 675.861 559.616 675.609 558.464C675.393 557.312 675.285 555.98 675.285 554.468V542.588H669.939ZM728.38 559.436H728.218C727.282 560.912 726.094 561.992 724.654 562.676C723.214 563.324 721.63 563.648 719.902 563.648C718.714 563.648 717.544 563.486 716.392 563.162C715.276 562.838 714.268 562.352 713.368 561.704C712.504 561.056 711.802 560.246 711.262 559.274C710.722 558.302 710.452 557.168 710.452 555.872C710.452 554.468 710.704 553.28 711.208 552.308C711.712 551.3 712.378 550.472 713.206 549.824C714.07 549.14 715.06 548.6 716.176 548.204C717.292 547.808 718.444 547.52 719.632 547.34C720.856 547.124 722.08 546.998 723.304 546.962C724.528 546.89 725.68 546.854 726.76 546.854H728.38V546.152C728.38 544.532 727.822 543.326 726.706 542.534C725.59 541.706 724.168 541.292 722.44 541.292C721.072 541.292 719.794 541.544 718.606 542.048C717.418 542.516 716.392 543.164 715.528 543.992L712.126 540.59C713.566 539.114 715.24 538.052 717.148 537.404C719.092 536.756 721.09 536.432 723.142 536.432C724.978 536.432 726.526 536.648 727.786 537.08C729.046 537.476 730.09 537.998 730.918 538.646C731.746 539.294 732.376 540.05 732.808 540.914C733.276 541.742 733.6 542.588 733.78 543.452C733.996 544.316 734.122 545.162 734.158 545.99C734.194 546.782 734.212 547.484 734.212 548.096V563H728.38V559.436ZM728.002 551.39H726.652C725.752 551.39 724.744 551.426 723.628 551.498C722.512 551.57 721.45 551.75 720.442 552.038C719.47 552.29 718.642 552.686 717.958 553.226C717.274 553.73 716.932 554.45 716.932 555.386C716.932 555.998 717.058 556.52 717.31 556.952C717.598 557.348 717.958 557.69 718.39 557.978C718.822 558.266 719.308 558.482 719.848 558.626C720.388 558.734 720.928 558.788 721.468 558.788C723.7 558.788 725.338 558.266 726.382 557.222C727.462 556.142 728.002 554.684 728.002 552.848V551.39ZM742.309 537.08H748.465V541.238H748.573C749.185 539.942 750.121 538.826 751.381 537.89C752.641 536.918 754.351 536.432 756.511 536.432C758.239 536.432 759.697 536.72 760.885 537.296C762.109 537.872 763.099 538.628 763.855 539.564C764.611 540.5 765.151 541.58 765.475 542.804C765.799 544.028 765.961 545.306 765.961 546.638V563H759.481V549.878C759.481 549.158 759.445 548.366 759.373 547.502C759.301 546.602 759.103 545.774 758.779 545.018C758.491 544.226 758.023 543.578 757.375 543.074C756.727 542.534 755.845 542.264 754.729 542.264C753.649 542.264 752.731 542.444 751.975 542.804C751.255 543.164 750.643 543.65 750.139 544.262C749.671 544.874 749.329 545.576 749.113 546.368C748.897 547.16 748.789 547.988 748.789 548.852V563H742.309V537.08ZM794.962 559.112H794.854C793.918 560.696 792.658 561.848 791.074 562.568C789.49 563.288 787.78 563.648 785.944 563.648C783.928 563.648 782.128 563.306 780.544 562.622C778.996 561.902 777.664 560.93 776.548 559.706C775.432 558.482 774.586 557.042 774.01 555.386C773.434 553.73 773.146 551.948 773.146 550.04C773.146 548.132 773.452 546.35 774.064 544.694C774.676 543.038 775.522 541.598 776.602 540.374C777.718 539.15 779.05 538.196 780.598 537.512C782.146 536.792 783.838 536.432 785.674 536.432C786.898 536.432 787.978 536.558 788.914 536.81C789.85 537.062 790.678 537.386 791.398 537.782C792.118 538.178 792.73 538.61 793.234 539.078C793.738 539.51 794.152 539.942 794.476 540.374H794.638V522.176H801.118V563H794.962V559.112ZM779.626 550.04C779.626 551.048 779.788 552.02 780.112 552.956C780.472 553.892 780.976 554.72 781.624 555.44C782.308 556.16 783.118 556.736 784.054 557.168C784.99 557.6 786.052 557.816 787.24 557.816C788.428 557.816 789.49 557.6 790.426 557.168C791.362 556.736 792.154 556.16 792.802 555.44C793.486 554.72 793.99 553.892 794.314 552.956C794.674 552.02 794.854 551.048 794.854 550.04C794.854 549.032 794.674 548.06 794.314 547.124C793.99 546.188 793.486 545.36 792.802 544.64C792.154 543.92 791.362 543.344 790.426 542.912C789.49 542.48 788.428 542.264 787.24 542.264C786.052 542.264 784.99 542.48 784.054 542.912C783.118 543.344 782.308 543.92 781.624 544.64C780.976 545.36 780.472 546.188 780.112 547.124C779.788 548.06 779.626 549.032 779.626 550.04ZM826.684 537.08H833.164V541.184H833.272C833.992 539.672 835.018 538.502 836.35 537.674C837.682 536.846 839.212 536.432 840.94 536.432C841.336 536.432 841.714 536.468 842.074 536.54C842.47 536.612 842.866 536.702 843.262 536.81V543.074C842.722 542.93 842.182 542.822 841.642 542.75C841.138 542.642 840.634 542.588 840.13 542.588C838.618 542.588 837.394 542.876 836.458 543.452C835.558 543.992 834.856 544.622 834.352 545.342C833.884 546.062 833.56 546.782 833.38 547.502C833.236 548.222 833.164 548.762 833.164 549.122V563H826.684V537.08ZM853.032 552.308C853.248 554.252 854.004 555.764 855.3 556.844C856.596 557.924 858.162 558.464 859.998 558.464C861.618 558.464 862.968 558.14 864.048 557.492C865.164 556.808 866.136 555.962 866.964 554.954L871.608 558.464C870.096 560.336 868.404 561.668 866.532 562.46C864.66 563.252 862.698 563.648 860.646 563.648C858.702 563.648 856.866 563.324 855.138 562.676C853.41 562.028 851.916 561.11 850.656 559.922C849.396 558.734 848.388 557.312 847.632 555.656C846.912 553.964 846.552 552.092 846.552 550.04C846.552 547.988 846.912 546.134 847.632 544.478C848.388 542.786 849.396 541.346 850.656 540.158C851.916 538.97 853.41 538.052 855.138 537.404C856.866 536.756 858.702 536.432 860.646 536.432C862.446 536.432 864.084 536.756 865.56 537.404C867.072 538.016 868.35 538.916 869.394 540.104C870.474 541.292 871.302 542.768 871.878 544.532C872.49 546.26 872.796 548.258 872.796 550.526V552.308H853.032ZM866.316 547.448C866.28 545.54 865.686 544.046 864.534 542.966C863.382 541.85 861.78 541.292 859.728 541.292C857.784 541.292 856.236 541.85 855.084 542.966C853.968 544.082 853.284 545.576 853.032 547.448H866.316ZM879.981 537.08H886.137V540.968H886.245C887.181 539.384 888.441 538.232 890.025 537.512C891.609 536.792 893.319 536.432 895.155 536.432C897.135 536.432 898.917 536.792 900.501 537.512C902.085 538.196 903.435 539.15 904.551 540.374C905.667 541.598 906.513 543.038 907.089 544.694C907.665 546.35 907.953 548.132 907.953 550.04C907.953 551.948 907.647 553.73 907.035 555.386C906.423 557.042 905.559 558.482 904.443 559.706C903.363 560.93 902.049 561.902 900.501 562.622C898.953 563.306 897.261 563.648 895.425 563.648C894.201 563.648 893.121 563.522 892.185 563.27C891.249 563.018 890.421 562.694 889.701 562.298C888.981 561.902 888.369 561.488 887.865 561.056C887.361 560.588 886.947 560.138 886.623 559.706H886.461V575.312H879.981V537.08ZM901.473 550.04C901.473 549.032 901.293 548.06 900.933 547.124C900.609 546.188 900.105 545.36 899.421 544.64C898.773 543.92 897.981 543.344 897.045 542.912C896.109 542.48 895.047 542.264 893.859 542.264C892.671 542.264 891.609 542.48 890.673 542.912C889.737 543.344 888.927 543.92 888.243 544.64C887.595 545.36 887.091 546.188 886.731 547.124C886.407 548.06 886.245 549.032 886.245 550.04C886.245 551.048 886.407 552.02 886.731 552.956C887.091 553.892 887.595 554.72 888.243 555.44C888.927 556.16 889.737 556.736 890.673 557.168C891.609 557.6 892.671 557.816 893.859 557.816C895.047 557.816 896.109 557.6 897.045 557.168C897.981 556.736 898.773 556.16 899.421 555.44C900.105 554.72 900.609 553.892 900.933 552.956C901.293 552.02 901.473 551.048 901.473 550.04ZM913.823 550.04C913.823 547.988 914.183 546.134 914.903 544.478C915.659 542.786 916.667 541.346 917.927 540.158C919.187 538.97 920.681 538.052 922.409 537.404C924.137 536.756 925.973 536.432 927.917 536.432C929.861 536.432 931.697 536.756 933.425 537.404C935.153 538.052 936.647 538.97 937.907 540.158C939.167 541.346 940.157 542.786 940.877 544.478C941.633 546.134 942.011 547.988 942.011 550.04C942.011 552.092 941.633 553.964 940.877 555.656C940.157 557.312 939.167 558.734 937.907 559.922C936.647 561.11 935.153 562.028 933.425 562.676C931.697 563.324 929.861 563.648 927.917 563.648C925.973 563.648 924.137 563.324 922.409 562.676C920.681 562.028 919.187 561.11 917.927 559.922C916.667 558.734 915.659 557.312 914.903 555.656C914.183 553.964 913.823 552.092 913.823 550.04ZM920.303 550.04C920.303 551.048 920.465 552.02 920.789 552.956C921.149 553.892 921.653 554.72 922.301 555.44C922.985 556.16 923.795 556.736 924.731 557.168C925.667 557.6 926.729 557.816 927.917 557.816C929.105 557.816 930.167 557.6 931.103 557.168C932.039 556.736 932.831 556.16 933.479 555.44C934.163 554.72 934.667 553.892 934.991 552.956C935.351 552.02 935.531 551.048 935.531 550.04C935.531 549.032 935.351 548.06 934.991 547.124C934.667 546.188 934.163 545.36 933.479 544.64C932.831 543.92 932.039 543.344 931.103 542.912C930.167 542.48 929.105 542.264 927.917 542.264C926.729 542.264 925.667 542.48 924.731 542.912C923.795 543.344 922.985 543.92 922.301 544.64C921.653 545.36 921.149 546.188 920.789 547.124C920.465 548.06 920.303 549.032 920.303 550.04ZM949.203 537.08H955.683V541.184H955.791C956.511 539.672 957.537 538.502 958.869 537.674C960.201 536.846 961.731 536.432 963.459 536.432C963.855 536.432 964.233 536.468 964.593 536.54C964.989 536.612 965.385 536.702 965.781 536.81V543.074C965.241 542.93 964.701 542.822 964.161 542.75C963.657 542.642 963.153 542.588 962.649 542.588C961.137 542.588 959.913 542.876 958.977 543.452C958.077 543.992 957.375 544.622 956.871 545.342C956.403 546.062 956.079 546.782 955.899 547.502C955.755 548.222 955.683 548.762 955.683 549.122V563H949.203V537.08ZM968.293 542.588V537.08H973.639V529.574H980.119V537.08H987.247V542.588H980.119V553.928C980.119 555.224 980.353 556.25 980.821 557.006C981.325 557.762 982.297 558.14 983.737 558.14C984.313 558.14 984.943 558.086 985.627 557.978C986.311 557.834 986.851 557.618 987.247 557.33V562.784C986.563 563.108 985.717 563.324 984.709 563.432C983.737 563.576 982.873 563.648 982.117 563.648C980.389 563.648 978.967 563.45 977.851 563.054C976.771 562.694 975.907 562.136 975.259 561.38C974.647 560.588 974.215 559.616 973.963 558.464C973.747 557.312 973.639 555.98 973.639 554.468V542.588H968.293ZM993.591 537.08H1000.07V563H993.591V537.08ZM992.673 528.278C992.673 527.234 993.051 526.334 993.807 525.578C994.599 524.786 995.589 524.39 996.777 524.39C997.965 524.39 998.955 524.768 999.747 525.524C1000.57 526.244 1000.99 527.162 1000.99 528.278C1000.99 529.394 1000.57 530.33 999.747 531.086C998.955 531.806 997.965 532.166 996.777 532.166C995.589 532.166 994.599 531.788 993.807 531.032C993.051 530.24 992.673 529.322 992.673 528.278ZM1008.63 537.08H1014.79V541.238H1014.9C1015.51 539.942 1016.45 538.826 1017.71 537.89C1018.97 536.918 1020.68 536.432 1022.84 536.432C1024.56 536.432 1026.02 536.72 1027.21 537.296C1028.43 537.872 1029.42 538.628 1030.18 539.564C1030.94 540.5 1031.48 541.58 1031.8 542.804C1032.12 544.028 1032.29 545.306 1032.29 546.638V563H1025.81V549.878C1025.81 549.158 1025.77 548.366 1025.7 547.502C1025.63 546.602 1025.43 545.774 1025.1 545.018C1024.82 544.226 1024.35 543.578 1023.7 543.074C1023.05 542.534 1022.17 542.264 1021.05 542.264C1019.97 542.264 1019.06 542.444 1018.3 542.804C1017.58 543.164 1016.97 543.65 1016.46 544.262C1016 544.874 1015.65 545.576 1015.44 546.368C1015.22 547.16 1015.11 547.988 1015.11 548.852V563H1008.63V537.08ZM1067.44 537.08V560.678C1067.44 563.018 1067.16 565.124 1066.58 566.996C1066 568.904 1065.1 570.506 1063.88 571.802C1062.69 573.134 1061.18 574.16 1059.34 574.88C1057.51 575.6 1055.33 575.96 1052.81 575.96C1050.4 575.96 1048.11 575.654 1045.95 575.042C1043.79 574.43 1041.79 573.314 1039.96 571.694L1043.85 566.402C1045.14 567.59 1046.49 568.508 1047.9 569.156C1049.3 569.804 1050.92 570.128 1052.76 570.128C1054.3 570.128 1055.6 569.912 1056.64 569.48C1057.72 569.048 1058.57 568.454 1059.18 567.698C1059.83 566.942 1060.28 566.024 1060.53 564.944C1060.82 563.9 1060.96 562.73 1060.96 561.434V559.544H1060.86C1059.92 560.804 1058.68 561.758 1057.13 562.406C1055.58 563.018 1054 563.324 1052.38 563.324C1050.43 563.324 1048.67 562.982 1047.09 562.298C1045.5 561.578 1044.13 560.624 1042.98 559.436C1041.87 558.248 1041 556.844 1040.39 555.224C1039.78 553.604 1039.47 551.876 1039.47 550.04C1039.47 548.132 1039.76 546.35 1040.34 544.694C1040.91 543.038 1041.76 541.598 1042.87 540.374C1043.99 539.15 1045.32 538.196 1046.87 537.512C1048.45 536.792 1050.25 536.432 1052.27 536.432C1054.11 536.432 1055.82 536.792 1057.4 537.512C1058.98 538.232 1060.24 539.384 1061.18 540.968H1061.29V537.08H1067.44ZM1053.62 542.264C1052.47 542.264 1051.42 542.462 1050.49 542.858C1049.55 543.218 1048.74 543.74 1048.06 544.424C1047.41 545.072 1046.89 545.882 1046.49 546.854C1046.13 547.79 1045.95 548.834 1045.95 549.986C1045.95 551.03 1046.13 552.002 1046.49 552.902C1046.89 553.802 1047.43 554.594 1048.11 555.278C1048.8 555.962 1049.61 556.502 1050.54 556.898C1051.48 557.294 1052.49 557.492 1053.57 557.492C1054.75 557.492 1055.82 557.294 1056.75 556.898C1057.72 556.502 1058.53 555.98 1059.18 555.332C1059.87 554.648 1060.39 553.838 1060.75 552.902C1061.11 551.966 1061.29 550.958 1061.29 549.878C1061.29 547.61 1060.6 545.774 1059.24 544.37C1057.87 542.966 1056 542.264 1053.62 542.264ZM105.496 616.262C104.236 614.498 102.544 613.616 100.42 613.616C99.556 613.616 98.71 613.832 97.882 614.264C97.054 614.696 96.64 615.398 96.64 616.37C96.64 617.162 96.982 617.738 97.666 618.098C98.35 618.458 99.214 618.764 100.258 619.016C101.302 619.268 102.418 619.538 103.606 619.826C104.83 620.078 105.964 620.492 107.008 621.068C108.052 621.608 108.916 622.364 109.6 623.336C110.284 624.308 110.626 625.64 110.626 627.332C110.626 628.88 110.284 630.194 109.6 631.274C108.952 632.318 108.088 633.164 107.008 633.812C105.964 634.46 104.776 634.928 103.444 635.216C102.112 635.504 100.78 635.648 99.448 635.648C97.432 635.648 95.578 635.36 93.886 634.784C92.194 634.208 90.682 633.164 89.35 631.652L93.67 627.602C94.498 628.538 95.38 629.312 96.316 629.924C97.288 630.5 98.458 630.788 99.826 630.788C100.294 630.788 100.78 630.734 101.284 630.626C101.788 630.518 102.256 630.338 102.688 630.086C103.12 629.834 103.462 629.528 103.714 629.168C104.002 628.772 104.146 628.322 104.146 627.818C104.146 626.918 103.804 626.252 103.12 625.82C102.436 625.388 101.572 625.046 100.528 624.794C99.484 624.506 98.35 624.254 97.126 624.038C95.938 623.786 94.822 623.408 93.778 622.904C92.734 622.364 91.87 621.626 91.186 620.69C90.502 619.754 90.16 618.458 90.16 616.802C90.16 615.362 90.448 614.12 91.024 613.076C91.636 611.996 92.428 611.114 93.4 610.43C94.372 609.746 95.488 609.242 96.748 608.918C98.008 608.594 99.286 608.432 100.582 608.432C102.31 608.432 104.02 608.738 105.712 609.35C107.404 609.926 108.772 610.934 109.816 612.374L105.496 616.262ZM116.899 609.08H123.379V635H116.899V609.08ZM115.981 600.278C115.981 599.234 116.359 598.334 117.115 597.578C117.907 596.786 118.897 596.39 120.085 596.39C121.273 596.39 122.263 596.768 123.055 597.524C123.883 598.244 124.297 599.162 124.297 600.278C124.297 601.394 123.883 602.33 123.055 603.086C122.263 603.806 121.273 604.166 120.085 604.166C118.897 604.166 117.907 603.788 117.115 603.032C116.359 602.24 115.981 601.322 115.981 600.278ZM131.673 609.08H137.829V613.13H137.937C138.513 611.906 139.431 610.826 140.691 609.89C141.987 608.918 143.715 608.432 145.875 608.432C149.943 608.432 152.643 610.034 153.975 613.238C154.911 611.582 156.081 610.376 157.485 609.62C158.889 608.828 160.563 608.432 162.507 608.432C164.235 608.432 165.693 608.72 166.881 609.296C168.069 609.872 169.023 610.664 169.743 611.672C170.499 612.68 171.039 613.868 171.363 615.236C171.687 616.568 171.849 618.008 171.849 619.556V635H165.369V620.312C165.369 619.52 165.297 618.764 165.153 618.044C165.009 617.288 164.757 616.64 164.397 616.1C164.037 615.524 163.551 615.074 162.939 614.75C162.327 614.426 161.535 614.264 160.563 614.264C159.555 614.264 158.691 614.462 157.971 614.858C157.287 615.218 156.711 615.722 156.243 616.37C155.811 616.982 155.487 617.702 155.271 618.53C155.091 619.322 155.001 620.132 155.001 620.96V635H148.521V619.556C148.521 617.936 148.179 616.658 147.495 615.722C146.811 614.75 145.677 614.264 144.093 614.264C143.013 614.264 142.095 614.444 141.339 614.804C140.619 615.164 140.007 615.65 139.503 616.262C139.035 616.874 138.693 617.576 138.477 618.368C138.261 619.16 138.153 619.988 138.153 620.852V635H131.673V609.08ZM180.055 609.08H186.211V612.968H186.319C187.255 611.384 188.515 610.232 190.099 609.512C191.683 608.792 193.393 608.432 195.229 608.432C197.209 608.432 198.991 608.792 200.575 609.512C202.159 610.196 203.509 611.15 204.625 612.374C205.741 613.598 206.587 615.038 207.163 616.694C207.739 618.35 208.027 620.132 208.027 622.04C208.027 623.948 207.721 625.73 207.109 627.386C206.497 629.042 205.633 630.482 204.517 631.706C203.437 632.93 202.123 633.902 200.575 634.622C199.027 635.306 197.335 635.648 195.499 635.648C194.275 635.648 193.195 635.522 192.259 635.27C191.323 635.018 190.495 634.694 189.775 634.298C189.055 633.902 188.443 633.488 187.939 633.056C187.435 632.588 187.021 632.138 186.697 631.706H186.535V647.312H180.055V609.08ZM201.547 622.04C201.547 621.032 201.367 620.06 201.007 619.124C200.683 618.188 200.179 617.36 199.495 616.64C198.847 615.92 198.055 615.344 197.119 614.912C196.183 614.48 195.121 614.264 193.933 614.264C192.745 614.264 191.683 614.48 190.747 614.912C189.811 615.344 189.001 615.92 188.317 616.64C187.669 617.36 187.165 618.188 186.805 619.124C186.481 620.06 186.319 621.032 186.319 622.04C186.319 623.048 186.481 624.02 186.805 624.956C187.165 625.892 187.669 626.72 188.317 627.44C189.001 628.16 189.811 628.736 190.747 629.168C191.683 629.6 192.745 629.816 193.933 629.816C195.121 629.816 196.183 629.6 197.119 629.168C198.055 628.736 198.847 628.16 199.495 627.44C200.179 626.72 200.683 625.892 201.007 624.956C201.367 624.02 201.547 623.048 201.547 622.04ZM215.301 594.176H221.781V635H215.301V594.176ZM230.507 609.08H236.987V635H230.507V609.08ZM229.589 600.278C229.589 599.234 229.967 598.334 230.723 597.578C231.515 596.786 232.505 596.39 233.693 596.39C234.881 596.39 235.871 596.768 236.663 597.524C237.491 598.244 237.905 599.162 237.905 600.278C237.905 601.394 237.491 602.33 236.663 603.086C235.871 603.806 234.881 604.166 233.693 604.166C232.505 604.166 231.515 603.788 230.723 603.032C229.967 602.24 229.589 601.322 229.589 600.278ZM247.873 614.588H242.527V609.08H247.873V605.408C247.873 603.608 247.999 601.988 248.251 600.548C248.503 599.072 248.971 597.812 249.655 596.768C250.375 595.724 251.365 594.932 252.625 594.392C253.885 593.816 255.523 593.528 257.539 593.528C259.015 593.528 260.383 593.654 261.643 593.906L261.211 599.414C260.743 599.306 260.293 599.216 259.861 599.144C259.429 599.072 258.979 599.036 258.511 599.036C257.611 599.036 256.891 599.18 256.351 599.468C255.811 599.756 255.379 600.152 255.055 600.656C254.767 601.124 254.569 601.682 254.461 602.33C254.389 602.978 254.353 603.662 254.353 604.382V609.08H260.347V614.588H254.353V635H247.873V614.588ZM264.559 609.08H271.039V635H264.559V609.08ZM263.695 600.278C263.695 599.234 264.073 598.334 264.829 597.578C265.621 596.786 266.611 596.39 267.799 596.39C268.987 596.39 269.977 596.768 270.769 597.524C271.597 598.244 272.011 599.162 272.011 600.278C272.011 601.394 271.597 602.33 270.769 603.086C269.977 603.806 268.987 604.166 267.799 604.166C266.611 604.166 265.621 603.788 264.829 603.032C264.073 602.24 263.695 601.322 263.695 600.278ZM283.87 624.308C284.086 626.252 284.842 627.764 286.138 628.844C287.434 629.924 289 630.464 290.836 630.464C292.456 630.464 293.806 630.14 294.886 629.492C296.002 628.808 296.974 627.962 297.802 626.954L302.446 630.464C300.934 632.336 299.242 633.668 297.37 634.46C295.498 635.252 293.536 635.648 291.484 635.648C289.54 635.648 287.704 635.324 285.976 634.676C284.248 634.028 282.754 633.11 281.494 631.922C280.234 630.734 279.226 629.312 278.47 627.656C277.75 625.964 277.39 624.092 277.39 622.04C277.39 619.988 277.75 618.134 278.47 616.478C279.226 614.786 280.234 613.346 281.494 612.158C282.754 610.97 284.248 610.052 285.976 609.404C287.704 608.756 289.54 608.432 291.484 608.432C293.284 608.432 294.922 608.756 296.398 609.404C297.91 610.016 299.188 610.916 300.232 612.104C301.312 613.292 302.14 614.768 302.716 616.532C303.328 618.26 303.634 620.258 303.634 622.526V624.308H283.87ZM297.154 619.448C297.118 617.54 296.524 616.046 295.372 614.966C294.22 613.85 292.618 613.292 290.566 613.292C288.622 613.292 287.074 613.85 285.922 614.966C284.806 616.082 284.122 617.576 283.87 619.448H297.154ZM331.338 631.112H331.23C330.294 632.696 329.034 633.848 327.45 634.568C325.866 635.288 324.156 635.648 322.32 635.648C320.304 635.648 318.504 635.306 316.92 634.622C315.372 633.902 314.04 632.93 312.924 631.706C311.808 630.482 310.962 629.042 310.386 627.386C309.81 625.73 309.522 623.948 309.522 622.04C309.522 620.132 309.828 618.35 310.44 616.694C311.052 615.038 311.898 613.598 312.978 612.374C314.094 611.15 315.426 610.196 316.974 609.512C318.522 608.792 320.214 608.432 322.05 608.432C323.274 608.432 324.354 608.558 325.29 608.81C326.226 609.062 327.054 609.386 327.774 609.782C328.494 610.178 329.106 610.61 329.61 611.078C330.114 611.51 330.528 611.942 330.852 612.374H331.014V594.176H337.494V635H331.338V631.112ZM316.002 622.04C316.002 623.048 316.164 624.02 316.488 624.956C316.848 625.892 317.352 626.72 318 627.44C318.684 628.16 319.494 628.736 320.43 629.168C321.366 629.6 322.428 629.816 323.616 629.816C324.804 629.816 325.866 629.6 326.802 629.168C327.738 628.736 328.53 628.16 329.178 627.44C329.862 626.72 330.366 625.892 330.69 624.956C331.05 624.02 331.23 623.048 331.23 622.04C331.23 621.032 331.05 620.06 330.69 619.124C330.366 618.188 329.862 617.36 329.178 616.64C328.53 615.92 327.738 615.344 326.802 614.912C325.866 614.48 324.804 614.264 323.616 614.264C322.428 614.264 321.366 614.48 320.43 614.912C319.494 615.344 318.684 615.92 318 616.64C317.352 617.36 316.848 618.188 316.488 619.124C316.164 620.06 316.002 621.032 316.002 622.04Z" fill="#00065D"/>
<defs>
<filter id="filter0_d_0_4250" x="0" y="0" width="1224" height="699" filterUnits="userSpaceOnUse" color-interpolation-filters="sRGB">
<feFlood flood-opacity="0" result="BackgroundImageFix"/>
<feColorMatrix in="SourceAlpha" type="matrix" values="0 0 0 0 0 0 0 0 0 0 0 0 0 0 0 0 0 0 127 0" result="hardAlpha"/>
<feOffset dy="8"/>
<feGaussianBlur stdDeviation="6"/>
<feColorMatrix type="matrix" values="0 0 0 0 0 0 0 0 0 0 0 0 0 0 0 0 0 0 0.08 0"/>
<feBlend mode="normal" in2="BackgroundImageFix" result="effect1_dropShadow_0_4250"/>
<feBlend mode="normal" in="SourceGraphic" in2="effect1_dropShadow_0_4250" result="shape"/>
</filter>
<filter id="filter1_d_0_4250" x="0" y="0" width="1224" height="699" filterUnits="userSpaceOnUse" color-interpolation-filters="sRGB">
<feFlood flood-opacity="0" result="BackgroundImageFix"/>
<feColorMatrix in="SourceAlpha" type="matrix" values="0 0 0 0 0 0 0 0 0 0 0 0 0 0 0 0 0 0 127 0" result="hardAlpha"/>
<feOffset dy="8"/>
<feGaussianBlur stdDeviation="6"/>
<feColorMatrix type="matrix" values="0 0 0 0 0 0 0 0 0 0 0 0 0 0 0 0 0 0 0.08 0"/>
<feBlend mode="normal" in2="BackgroundImageFix" result="effect1_dropShadow_0_4250"/>
<feBlend mode="normal" in="SourceGraphic" in2="effect1_dropShadow_0_4250" result="shape"/>
</filter>
<filter id="filter2_d_0_4250" x="177" y="187" width="113" height="113" filterUnits="userSpaceOnUse" color-interpolation-filters="sRGB">
<feFlood flood-opacity="0" result="BackgroundImageFix"/>
<feColorMatrix in="SourceAlpha" type="matrix" values="0 0 0 0 0 0 0 0 0 0 0 0 0 0 0 0 0 0 127 0" result="hardAlpha"/>
<feOffset dx="10" dy="12"/>
<feGaussianBlur stdDeviation="6"/>
<feColorMatrix type="matrix" values="0 0 0 0 0 0 0 0 0 0 0 0 0 0 0 0 0 0 0.12 0"/>
<feBlend mode="normal" in2="BackgroundImageFix" result="effect1_dropShadow_0_4250"/>
<feBlend mode="normal" in="SourceGraphic" in2="effect1_dropShadow_0_4250" result="shape"/>
</filter>
<filter id="filter3_d_0_4250" x="967" y="34" width="113" height="113" filterUnits="userSpaceOnUse" color-interpolation-filters="sRGB">
<feFlood flood-opacity="0" result="BackgroundImageFix"/>
<feColorMatrix in="SourceAlpha" type="matrix" values="0 0 0 0 0 0 0 0 0 0 0 0 0 0 0 0 0 0 127 0" result="hardAlpha"/>
<feOffset dx="-10" dy="12"/>
<feGaussianBlur stdDeviation="6"/>
<feColorMatrix type="matrix" values="0 0 0 0 0 0 0 0 0 0 0 0 0 0 0 0 0 0 0.12 0"/>
<feBlend mode="normal" in2="BackgroundImageFix" result="effect1_dropShadow_0_4250"/>
<feBlend mode="normal" in="SourceGraphic" in2="effect1_dropShadow_0_4250" result="shape"/>
</filter>
<filter id="filter4_d_0_4250" x="85" y="12" width="200" height="201" filterUnits="userSpaceOnUse" color-interpolation-filters="sRGB">
<feFlood flood-opacity="0" result="BackgroundImageFix"/>
<feColorMatrix in="SourceAlpha" type="matrix" values="0 0 0 0 0 0 0 0 0 0 0 0 0 0 0 0 0 0 127 0" result="hardAlpha"/>
<feOffset dx="20" dy="24"/>
<feGaussianBlur stdDeviation="18.5"/>
<feColorMatrix type="matrix" values="0 0 0 0 0 0 0 0 0 0 0 0 0 0 0 0 0 0 0.12 0"/>
<feBlend mode="normal" in2="BackgroundImageFix" result="effect1_dropShadow_0_4250"/>
<feBlend mode="normal" in="SourceGraphic" in2="effect1_dropShadow_0_4250" result="shape"/>
</filter>
<filter id="filter5_d_0_4250" x="1033" y="161" width="153" height="153" filterUnits="userSpaceOnUse" color-interpolation-filters="sRGB">
<feFlood flood-opacity="0" result="BackgroundImageFix"/>
<feColorMatrix in="SourceAlpha" type="matrix" values="0 0 0 0 0 0 0 0 0 0 0 0 0 0 0 0 0 0 127 0" result="hardAlpha"/>
<feOffset dx="-20" dy="24"/>
<feGaussianBlur stdDeviation="18.5"/>
<feColorMatrix type="matrix" values="0 0 0 0 0 0 0 0 0 0 0 0 0 0 0 0 0 0 0.12 0"/>
<feBlend mode="normal" in2="BackgroundImageFix" result="effect1_dropShadow_0_4250"/>
<feBlend mode="normal" in="SourceGraphic" in2="effect1_dropShadow_0_4250" result="shape"/>
</filter>
</defs>
</svg>
