<?xml version="1.0" encoding="UTF-8"?>
<svg width="64px" height="64px" viewBox="0 0 64 64" version="1.1" xmlns="http://www.w3.org/2000/svg" xmlns:xlink="http://www.w3.org/1999/xlink">
    <title>Group 427319327</title>
    <defs>
        <rect id="path-1" x="0" y="0" width="64" height="64"></rect>
    </defs>
    <g id="Page-1" stroke="none" stroke-width="1" fill="none" fill-rule="evenodd">
        <g id="HOME" transform="translate(-448.000000, -5329.000000)">
            <g id="Group-9" transform="translate(146.000000, 5026.000000)">
                <g id="Group-427319351" transform="translate(0.000000, 263.000000)">
                    <g id="Group-427319334" transform="translate(262.000000, 0.000000)">
                        <g id="database" transform="translate(40.000000, 40.000000)">
                            <mask id="mask-2" fill="white">
                                <use xlink:href="#path-1"></use>
                            </mask>
                            <g id="database-(Background/Mask)"></g>
                            <path d="M9.0673008,7.0673008 C8.38489777,7.74970382 8.00105876,8.67493731 8,9.64000034 L8,20.3600006 C8.00248746,20.857119 8.10790725,21.3483348 8.30961704,21.8026981 C8.51132683,22.2570615 8.80495441,22.6647233 9.17199993,23 C8.80495441,23.3352767 8.51132683,23.7429385 8.30961704,24.1973019 C8.10790725,24.6516652 8.00248746,25.142881 8,25.6399994 L8,36.3600006 C8.00248746,36.857119 8.10790725,37.3483329 8.30961704,37.8026962 C8.51132683,38.2570596 8.80495441,38.6647233 9.17199993,39 C8.80495441,39.3352767 8.51132683,39.7429404 8.30961704,40.1973038 C8.10790725,40.6516671 8.00248746,41.142881 8,41.6399994 L8,52.3600006 C8,54.3680005 9.63200045,56 11.6400003,56 L58.3600006,56 C60.3680005,56 62,54.3680005 62,52.3600006 L62,41.6399994 C61.9975125,41.142881 61.8920937,40.6516671 61.6903839,40.1973038 C61.4886741,39.7429404 61.1950446,39.3352767 60.8279991,39 C61.1950446,38.6647233 61.4886741,38.2570596 61.6903839,37.8026962 C61.8920937,37.3483329 61.9975125,36.857119 62,36.3600006 L62,25.6399994 C61.9975125,25.142881 61.8920937,24.6516652 61.6903839,24.1973019 C61.4886741,23.7429385 61.1950446,23.3352767 60.8279991,23 C61.1950446,22.6647233 61.4886741,22.2570615 61.6903839,21.8026981 C61.8920937,21.3483348 61.9975125,20.857119 62,20.3600006 L62,9.64000034 C61.9989412,8.67493731 61.6151041,7.74970382 60.9327011,7.0673008 C60.2502981,6.38489777 59.3250636,6.00105876 58.3600006,6 L11.6400003,6 C10.6749373,6.00105876 9.74970382,6.38489777 9.0673008,7.0673008 Z M58.3600006,8 C58.7949556,8 59.2120937,8.1727851 59.5196533,8.48034477 C59.827213,8.78790444 60,9.20504531 60,9.64000034 L60,20.3600006 C60,20.7949556 59.827213,21.2120956 59.5196533,21.5196552 C59.2120937,21.8272149 58.7949556,22 58.3600006,22 L11.6400003,22 C11.2050453,22 10.7879044,21.8272149 10.4803448,21.5196552 C10.1727851,21.2120956 10,20.7949556 10,20.3600006 L10,9.64000034 C10,9.20504531 10.1727851,8.78790444 10.4803448,8.48034477 C10.7879044,8.1727851 11.2050453,8 11.6400003,8 L11.6400003,8 L58.3600006,8 Z M52.1500587,14.1520576 C51.92464,14.3774764 51.7980003,14.6832096 51.7980003,15.0019999 C51.7980003,15.3207901 51.92464,15.6265233 52.1500587,15.8519421 C52.3754775,16.0773608 52.6812098,16.2040005 53,16.2040005 C53.3193206,16.2040005 53.6255627,16.0771503 53.8513565,15.8513565 C54.0771503,15.6255627 54.2039986,15.3193206 54.2039986,15 C54.2039986,14.6806794 54.0771503,14.3744373 53.8513565,14.1486435 C53.6255627,13.9228497 53.3193206,13.7959995 53,13.7959995 L53,13.8000002 C52.6812098,13.8000002 52.3754775,13.9266389 52.1500587,14.1520576 Z M15,16 L31,16 L31,14 L15,14 L15,16 Z M53.5656853,14.4343147 C53.7157144,14.5843438 53.7999992,14.7878268 53.7999992,15 C53.7999992,15.2121732 53.7157144,15.4156562 53.5656853,15.5656853 C53.4156562,15.7157144 53.2121732,15.8000002 53,15.8000002 C52.7878268,15.8000002 52.5843438,15.7157144 52.4343147,15.5656853 C52.2842856,15.4156562 52.2000008,15.2121732 52.2000008,15 C52.2000008,14.7878268 52.2842856,14.5843438 52.4343147,14.4343147 C52.5843438,14.2842856 52.7878268,14.1999998 53,14.1999998 C53.2121732,14.1999998 53.4156562,14.2842856 53.5656853,14.4343147 Z M58.3600006,24 C58.5753685,24 58.7886283,24.0424202 58.9876022,24.1248379 C59.1865762,24.2072556 59.3673652,24.3280567 59.5196533,24.4803448 C59.6719414,24.6326329 59.7927463,24.8134257 59.875164,25.0123997 C59.9575817,25.2113736 60,25.4246315 60,25.6399994 L60,36.3600006 C60,36.5753685 59.9575817,36.7886283 59.875164,36.9876022 C59.7927463,37.1865762 59.6719414,37.3673652 59.5196533,37.5196533 C59.3673652,37.6719414 59.1865762,37.7927463 58.9876022,37.875164 C58.7886283,37.9575817 58.5753685,38 58.3600006,38 L11.6400003,38 C11.4246325,38 11.2113727,37.9575817 11.0123987,37.875164 C10.8134248,37.7927463 10.6326329,37.6719414 10.4803448,37.5196533 C10.3280567,37.3673652 10.2072556,37.1865762 10.1248379,36.9876022 C10.0424202,36.7886283 10,36.5753685 10,36.3600006 L10,25.6399994 C10,25.4246315 10.0424202,25.2113736 10.1248379,25.0123997 C10.2072556,24.8134257 10.3280567,24.6326329 10.4803448,24.4803448 C10.6326329,24.3280567 10.8134248,24.2072556 11.0123987,24.1248379 C11.2113727,24.0424202 11.4246325,24 11.6400003,24 L11.6400003,24 L58.3600006,24 Z M52.2354736,30.1514721 C52.01043,30.3765157 51.8839989,30.6817402 51.8839989,31 C51.8839989,31.3182598 52.01043,31.6234843 52.2354736,31.8485279 C52.4605173,32.0735716 52.7657399,32.2000008 53.0839996,32.2000008 C53.4022594,32.2000008 53.7074858,32.0735716 53.9325294,31.8485279 C54.1575731,31.6234843 54.2840004,31.3182598 54.2840004,31 C54.2840004,30.6817402 54.1575731,30.3765157 53.9325294,30.1514721 C53.7074858,29.9264284 53.4022594,29.7999992 53.0839996,29.7999992 L53.0839996,29.7999992 C52.7657399,29.7999992 52.4605173,29.9264284 52.2354736,30.1514721 Z M15,32 L31,32 L31,30 L15,30 L15,32 Z M53.4137802,30.2360268 C53.5199825,30.2709464 53.6176867,30.3277384 53.700592,30.4027386 C53.7834974,30.4777387 53.8497629,30.5692812 53.8951149,30.6714649 C53.9404669,30.7736486 53.9639015,30.8842044 53.9639015,30.9960003 C53.9639015,31.1077962 53.9404669,31.21835 53.8951149,31.3205338 C53.8497629,31.4227175 53.7834974,31.5142618 53.700592,31.589262 C53.6176867,31.6642622 53.5199825,31.7210542 53.4137802,31.7559738 C53.3075779,31.7908935 53.1952365,31.8031654 53.0839996,31.7919998 C52.8732053,31.7920104 52.670927,31.7088234 52.5211258,31.5605202 C52.3713246,31.4122169 52.2861083,31.2107838 52.2840004,31 C52.2840004,30.56 52.6439996,30.2000008 53.0839996,30.2000008 L53.0839996,30.2000008 C53.1952365,30.1888352 53.3075779,30.2011071 53.4137802,30.2360268 Z M58.3600006,40 C58.7949556,40 59.2120937,40.172787 59.5196533,40.4803467 C59.827213,40.7879063 60,41.2050444 60,41.6399994 L60,52.3600006 C60,52.5753685 59.9575817,52.7886283 59.875164,52.9876022 C59.7927463,53.1865762 59.6719414,53.3673652 59.5196533,53.5196533 C59.3673652,53.6719414 59.1865762,53.7927463 58.9876022,53.875164 C58.7886283,53.9575817 58.5753685,54 58.3600006,54 L11.6400003,54 C11.4246325,54 11.2113727,53.9575817 11.0123987,53.875164 C10.8134248,53.7927463 10.6326329,53.6719414 10.4803448,53.5196533 C10.3280567,53.3673652 10.2072556,53.1865762 10.1248379,52.9876022 C10.0424202,52.7886283 10,52.5753685 10,52.3600006 L10,41.6399994 C10,41.2050444 10.1727851,40.7879063 10.4803448,40.4803467 C10.7879044,40.172787 11.2050453,40 11.6400003,40 L11.6440001,40 L58.3600006,40 Z M52.1260567,46.1520576 C51.9006379,46.3774764 51.7739983,46.6832087 51.7739983,47.0019989 C51.7739983,47.3207891 51.9006379,47.6265252 52.1260567,47.851944 C52.3514754,48.0773627 52.6572115,48.2039986 52.9760017,48.2039986 C53.2953224,48.2039986 53.6015645,48.0771503 53.8273582,47.8513565 C54.053152,47.6255627 54.1800003,47.3193206 54.1800003,47 C54.1800003,46.6806794 54.053152,46.3744373 53.8273582,46.1486435 C53.6015645,45.9228497 53.2953224,45.7960014 52.9760017,45.7960014 L52.9760017,45.7999992 C52.6572115,45.7999992 52.3514754,45.9266389 52.1260567,46.1520576 Z M15,48 L31,48 L31,46 L15,46 L15,48 Z M53.541687,46.4343147 C53.6917161,46.5843438 53.776001,46.7878268 53.776001,47 C53.776001,47.2121732 53.6917161,47.4156562 53.541687,47.5656853 C53.3916579,47.7157144 53.1881749,47.7999992 52.9760017,47.7999992 C52.7638285,47.7999992 52.5603456,47.7157144 52.4103165,47.5656853 C52.2602874,47.4156562 52.1759987,47.2121732 52.1759987,47 C52.1759987,46.7878268 52.2602874,46.5843438 52.4103165,46.4343147 C52.5603456,46.2842856 52.7638285,46.2000008 52.9760017,46.2000008 C53.1881749,46.2000008 53.3916579,46.2842856 53.541687,46.4343147 Z" id="Vector" fill="#00DAB2" mask="url(#mask-2)"></path>
                        </g>
                    </g>
                </g>
            </g>
        </g>
    </g>
</svg>