<?xml version="1.0" encoding="UTF-8"?>
<svg width="64px" height="64px" viewBox="0 0 64 64" version="1.1" xmlns="http://www.w3.org/2000/svg" xmlns:xlink="http://www.w3.org/1999/xlink">
    <title>Group 427319333</title>
    <defs>
        <rect id="path-1" x="0" y="0" width="64" height="64"></rect>
    </defs>
    <g id="Page-1" stroke="none" stroke-width="1" fill="none" fill-rule="evenodd">
        <g id="HOME" transform="translate(-688.000000, -5329.000000)">
            <g id="Group-9" transform="translate(146.000000, 5026.000000)">
                <g id="Group-427319351" transform="translate(0.000000, 263.000000)">
                    <g id="collaborate" transform="translate(542.000000, 40.000000)">
                        <mask id="mask-2" fill="white">
                            <use xlink:href="#path-1"></use>
                        </mask>
                        <g id="collaborate-(Background/Mask)"></g>
                        <path d="M62.3610398,57.9292797 C62.3211484,57.8141732 62.258973,57.7080495 62.1780688,57.6169708 C62.0971646,57.525892 61.9991159,57.4516394 61.8895158,57.3984543 C61.7799158,57.3452692 61.6609153,57.3141916 61.539305,57.3069971 C61.4176947,57.2998026 61.2958573,57.3166344 61.1807509,57.3565258 C61.0656444,57.3964172 60.9595207,57.4585891 60.8684419,57.5394933 C60.7773632,57.6203975 60.7031106,57.7184497 60.6499255,57.8280498 C60.5967404,57.9376498 60.5656628,58.0566504 60.5584683,58.1782607 C60.5512738,58.299871 60.5681056,58.4217083 60.607997,58.5368148 C60.7888665,59.0562351 60.9140828,59.587711 60.983648,60.125682 L45.143182,60.125682 C45.6533269,56.217972 49.0267767,53.1784376 53.064342,53.1784376 C54.4153486,53.1780684 55.7443163,53.5208434 56.9266041,54.1746127 C57.1416218,54.2924673 57.3945578,54.3203862 57.6301042,54.2522672 C57.8656505,54.1841481 58.0646411,54.0255338 58.1835639,53.811105 C58.3024866,53.5966763 58.331664,53.3438801 58.2647176,53.1079977 C58.1977712,52.8721154 58.0401498,52.6723394 57.8263154,52.5523514 C51.6739678,49.1399457 44.0115894,53.1765791 43.2788357,60.128463 L20.4475322,60.128463 C19.9197641,55.1958256 15.7106054,51.3224381 10.662026,51.3224381 C5.30272187,51.3224381 0.886721536,55.6837096 0.816162109,61.0430138 C0.814757474,61.1658407 0.837649099,61.2877383 0.883580082,61.4016635 C0.929511064,61.5155887 0.997570199,61.6192806 1.08382227,61.7067402 C1.17007434,61.7941998 1.27280819,61.8636923 1.38608384,61.9112026 C1.49935948,61.958713 1.62092954,61.983532 1.74376499,61.983532 L62.2562292,61.983532 C62.5022271,61.983532 62.7381503,61.8858104 62.9120971,61.7118636 C63.0860438,61.5379168 63.1837654,61.3019972 63.1837654,61.0559993 C63.182909,60.9261254 63.1544256,60.7979233 63.1002127,60.6799024 C63.0459999,60.5618815 62.9672943,60.4567443 62.8693264,60.3714785 L62.8693264,60.3714785 C62.8046761,59.5390746 62.6338644,58.7183568 62.3610398,57.9292797 Z M10.6610989,53.1775106 C14.6921715,53.1775106 18.0665466,56.2188977 18.5831842,60.128463 L2.73993888,60.128463 L2.73993888,60.128463 C3.25657653,56.2188977 6.63002639,53.1775106 10.6610989,53.1775106 Z M35.5102565,11.8713666 C36.5731926,10.8543822 37.2032209,9.46681749 37.2693286,7.99721887 C37.3037253,7.2468274 37.1899117,6.49701317 36.9343924,5.79062771 C36.6788732,5.08424226 36.2866565,4.43513315 35.7801593,3.88039806 C35.273662,3.32566296 34.6628149,2.87617622 33.9825236,2.55762619 C33.3022322,2.23907617 32.5658323,2.05770761 31.8154147,2.02388571 C28.6664293,1.87176977 25.9849234,4.32695846 25.8420828,7.47779908 C25.6946045,10.7093353 28.2777928,13.4576243 31.5621984,13.4576243 L31.5621984,13.4576243 C33.0332826,13.4564852 34.4473204,12.8883509 35.5102565,11.8713666 Z M33.0741966,4.18253048 C33.554786,4.38766801 33.9887513,4.6881934 34.3498243,5.06591529 C34.7108973,5.44363718 34.9915698,5.89069999 35.1748497,6.38004244 C35.3581296,6.86938489 35.4402045,7.39082973 35.4161102,7.91281344 C35.3933642,8.41986023 35.2709027,8.91745147 35.0557233,9.37713794 C34.8405439,9.83682441 34.5368673,10.2495899 34.1620589,10.5918362 C33.7872506,10.9340825 33.348659,11.1990973 32.8713618,11.3717275 C32.3940645,11.5443576 31.8874236,11.6212177 31.3804021,11.597914 C30.3568879,11.5502779 29.3940455,11.0986596 28.7030464,10.3421077 C28.0120473,9.58555586 27.6493029,8.58583495 27.6943724,7.56220451 C27.7405978,6.56916838 28.1672227,5.63201166 28.8857892,4.94504755 C29.6043557,4.25808344 30.5597414,3.87401149 31.5538516,3.8724657 L31.5538516,3.8724657 C32.0763908,3.87190991 32.5936073,3.97739295 33.0741966,4.18253048 Z M40.4730373,25.2818562 C40.5958644,25.2818666 40.7174718,25.2574813 40.8307988,25.210116 C40.9441259,25.1627507 41.0469185,25.0933493 41.1332077,25.0059384 C41.2194968,24.9185274 41.2875655,24.8148476 41.3334631,24.7009183 C41.3793608,24.5869889 41.4021703,24.4650782 41.4005735,24.3422615 C41.3300808,18.981102 36.9140823,14.6216823 31.5557057,14.6216823 C26.1982565,14.6216823 21.7813288,18.981102 21.7108361,24.3422615 C21.7092393,24.4650782 21.7320523,24.5869889 21.77795,24.7009183 C21.8238476,24.8148476 21.8919163,24.9185274 21.9782054,25.0059384 C22.0644946,25.0933493 22.1672855,25.1627507 22.2806125,25.210116 C22.3939396,25.2574813 22.5155452,25.2818666 22.6383723,25.2818562 L22.6383723,25.2818562 L40.4730373,25.2818562 Z M39.4768657,23.4267837 L23.6336186,23.4267837 C24.1511838,19.5172184 27.5246331,16.4767548 31.5557057,16.4767548 C35.5867782,16.4767548 38.9602281,19.5172184 39.4768657,23.4267837 Z M12.6089368,49.8197738 C13.315556,49.5640662 13.9643828,49.1706269 14.5177945,48.6622642 C15.0742355,48.1571696 15.524954,47.546711 15.8438575,46.8662349 C16.162761,46.1857587 16.3435135,45.4487817 16.3756488,44.6979725 C16.4426289,43.1831153 15.9060678,41.7035326 14.883648,40.5837395 C13.8612283,39.4639464 12.4364227,38.795367 10.9217358,38.7246405 C10.1710002,38.6879825 9.42045973,38.8007814 8.71366529,39.0564948 C8.00687085,39.3122082 7.35789665,39.7057433 6.8044025,40.2142627 C5.67651851,41.2438279 5.01704037,42.6518298 4.94747515,44.1785545 C4.87790994,45.7052791 5.40753305,47.167076 6.43709825,48.29496 C6.94220673,48.8513122 7.55268515,49.3019122 8.23317134,49.6206612 C8.91365753,49.9394103 9.65062595,50.1199718 10.4013882,50.1518865 L10.4013882,50.1518865 C11.1519653,50.1883685 11.9023176,50.0754815 12.6089368,49.8197738 Z M9.34511908,40.8020401 C9.82278252,40.6292852 10.3299913,40.5530854 10.8373304,40.5778589 C11.8678231,40.6242357 12.8194754,41.0694536 13.5151275,41.832816 C13.8585336,42.2068973 14.1243727,42.6453465 14.2972718,43.122809 C14.4701709,43.6002716 14.5466987,44.1072706 14.5224314,44.6144941 C14.4728795,45.6373301 14.0204944,46.5989748 13.2641235,47.2893023 C12.5077527,47.9796297 11.5088908,48.3425154 10.4857945,48.2986681 C9.9785455,48.277199 9.48059575,48.1553082 9.02078446,47.9400503 C8.56097316,47.7247923 8.14843719,47.4204476 7.80706901,47.0446415 C7.46362936,46.6704325 7.19784035,46.2318055 7.02509324,45.7541637 C6.85234613,45.276522 6.7760735,44.7693564 6.80069219,44.2620329 C6.82240125,43.7548757 6.94449816,43.2570598 7.15991326,42.797412 C7.37532837,42.3377643 7.67978273,41.9254152 8.05564927,41.5842348 L8.05472136,41.5842348 C8.42884341,41.2406663 8.86745563,40.9747951 9.34511908,40.8020401 Z M47.8787988,42.0102921 C47.5598953,42.6907682 47.3791464,43.4277452 47.347011,44.1785545 C47.116982,49.2503225 53.1737935,52.0811629 56.9182573,48.6622642 C57.4732485,48.1559747 57.9230223,47.5452729 58.241871,46.8650673 C58.5607198,46.1848616 58.7423921,45.4484863 58.7765036,44.6980326 C58.8106151,43.947579 58.6964968,43.1977603 58.4406722,42.4914331 C58.1848477,41.7851059 57.7923327,41.1361184 57.2855616,40.581567 C56.7793391,40.0264682 56.1686605,39.5765994 55.4884496,39.2576808 C54.8082387,38.9387622 54.0718358,38.7570517 53.3213478,38.7229386 C52.5708598,38.6888255 51.8210091,38.8029789 51.1146704,39.0588725 C50.4083317,39.3147661 49.759359,39.7073784 49.2048645,40.2142627 L49.2048645,40.2142627 C48.6484235,40.7193574 48.1977023,41.3298159 47.8787988,42.0102921 Z M54.3775319,48.0733051 C53.9002477,48.2463051 53.3935409,48.3235128 52.8863918,48.3005115 C52.3792427,48.2775102 51.8816016,48.1547523 51.4219373,47.9392577 C50.962273,47.7237631 50.5496047,47.4197625 50.2075323,47.0446415 C49.8640126,46.6704486 49.598109,46.2318474 49.4252067,45.7542168 C49.2523045,45.2765863 49.1758343,44.7694096 49.2002258,44.2620329 C49.357907,40.8264387 53.6069518,39.3043493 55.9155895,41.8318854 C56.258092,42.2065671 56.5233919,42.64508 56.6963229,43.1223526 C56.8692539,43.5996252 56.946423,44.1063002 56.9234232,44.6134149 C56.9004235,45.1205296 56.7777038,45.6181396 56.5622791,46.0777987 C56.3468544,46.5374578 56.0429487,46.9501528 55.6679354,47.2922921 L55.6679354,47.2922921 C55.2933107,47.6349079 54.8548161,47.900305 54.3775319,48.0733051 Z" id="Vector" fill="#00DAB2" mask="url(#mask-2)"></path>
                        <path d="M22.8099821,56.2383668 C23.3089966,57.3551205 25.0063887,56.6075255 24.5027365,55.4796414 L23.649403,53.5735541 C26.1023331,54.8031402 28.8090885,55.4413152 31.5529414,55.436977 C35.3771736,55.436977 39.0168236,54.2385976 42.078621,51.9698437 C42.2710684,51.8215769 42.397662,51.6037247 42.4311954,51.3631118 C42.4647288,51.1224989 42.4025257,50.8783351 42.2579511,50.6830987 C42.1133766,50.4878623 41.8979715,50.3571384 41.658041,50.3190284 C41.4181104,50.2809184 41.1728051,50.3384645 40.9748505,50.4792943 C38.2516273,52.503749 34.9462075,53.5922169 31.5529414,53.5819044 C28.7731152,53.5819044 26.1083022,52.8630621 23.7356643,51.5107142 L26.7009983,50.5646268 C26.9354343,50.4898434 27.1305607,50.3249941 27.2434522,50.106343 C27.3563437,49.8876918 27.3777528,49.6331497 27.3029695,49.3987137 C27.2281861,49.1642777 27.063335,48.969153 26.8446839,48.8562615 C26.6260328,48.74337 26.3714924,48.7219609 26.1370564,48.7967443 L21.2999536,50.3410895 C20.7860985,50.5052634 20.5208234,51.1239302 20.7360118,51.6034665 L20.7360118,51.6034665 L22.8099821,56.2383668 Z M53.0801289,23.4601619 C54.1277069,26.0059584 54.4878699,28.782353 54.1245342,31.5111781 L52.0858077,29.1237003 C51.9259091,28.9367419 51.698292,28.8209589 51.4530271,28.8018247 C51.2077621,28.7826906 50.9649401,28.8617712 50.7779817,29.0216698 C50.5910233,29.1815685 50.475243,29.4091882 50.4561088,29.6544532 C50.4369747,29.8997182 50.5160535,30.1425401 50.6759522,30.3294985 L53.9733439,34.1899034 C54.3007642,34.5729759 54.9806499,34.6230637 55.3553746,34.220513 L58.8243583,30.5131489 C58.9075516,30.4241698 58.9724063,30.319677 59.0152161,30.2056343 C59.0580259,30.0915916 59.0779541,29.9702327 59.0738629,29.8484884 C59.0697718,29.726744 59.041741,29.606997 58.9913717,29.4960855 C58.9410024,29.385174 58.8692824,29.2852699 58.7803033,29.2020765 C58.6913241,29.1188831 58.5868279,29.0540294 58.4727851,29.0112195 C58.3587424,28.9684097 58.2373871,28.9484816 58.1156428,28.9525727 C57.9938984,28.9566639 57.8741496,28.9846956 57.7632381,29.0350648 C57.6523267,29.0854341 57.5524225,29.1571559 57.4692291,29.246135 L56.071432,30.7394673 C56.272754,28.0154877 55.8363985,25.2820765 54.7969966,22.7561629 C53.3693601,19.2443962 50.8432867,16.2891212 47.596532,14.3322778 C47.4923093,14.2642214 47.3754558,14.2178392 47.2529306,14.1958942 C47.1304053,14.1739493 47.0047158,14.1768912 46.8833512,14.2045435 C46.7619866,14.2321959 46.6474294,14.2839931 46.5465043,14.3568502 C46.4455793,14.4297072 46.3603528,14.5221328 46.2958993,14.6286211 C46.2314458,14.7351095 46.1890849,14.8534814 46.1713416,14.9766852 C46.1535982,15.0998891 46.1608354,15.225405 46.1926207,15.3457533 C46.224406,15.4661016 46.2800894,15.5788201 46.3563542,15.6771954 C46.432619,15.7755708 46.5279025,15.8575904 46.6365321,15.9183657 L46.6365321,15.9192927 C49.5421325,17.6714058 51.8026372,20.316847 53.0801289,23.4601619 Z M10.0303875,23.4601619 C11.066835,20.9214851 12.7498353,18.6983768 14.9120103,17.0119301 L14.6634309,20.11454 C14.5641845,21.3416704 16.4136919,21.498424 16.5120107,20.2629456 L16.9173444,15.2023065 C16.9618661,14.6476398 16.4711982,14.1773799 15.9629084,14.2005683 L10.8883585,14.3628864 C10.6424839,14.3706363 10.4097584,14.4757423 10.2413781,14.6550812 C10.0729978,14.8344202 9.98275522,15.0733027 9.99050323,15.3191773 C10.0071989,15.8311774 10.4264452,16.237437 10.946793,16.2170312 L13.0346776,16.1502499 C10.9667011,17.9533395 9.34979781,20.2157334 8.31351788,22.7561629 C6.86568295,26.259737 6.59104276,30.1378926 7.53067738,33.8105407 C7.83490929,35.0052074 9.63154691,34.548859 9.32824256,33.3541923 L9.32824256,33.3541923 C8.48786769,30.066879 8.73419453,26.5958504 10.0303875,23.4601619 Z" id="Vector" fill="#00DAB2" mask="url(#mask-2)"></path>
                    </g>
                </g>
            </g>
        </g>
    </g>
</svg>