<?xml version="1.0" encoding="UTF-8"?>
<svg width="64px" height="64px" viewBox="0 0 64 64" version="1.1" xmlns="http://www.w3.org/2000/svg" xmlns:xlink="http://www.w3.org/1999/xlink">
    <title>Group 427319326</title>
    <defs>
        <rect id="path-1" x="0" y="0" width="64" height="64"></rect>
    </defs>
    <g id="Page-1" stroke="none" stroke-width="1" fill="none" fill-rule="evenodd">
        <g id="HOME" transform="translate(-208.000000, -5329.000000)">
            <g id="Group-9" transform="translate(146.000000, 5026.000000)">
                <g id="Group-427319351" transform="translate(0.000000, 263.000000)">
                    <g id="page-collection" transform="translate(62.000000, 40.000000)">
                        <mask id="mask-2" fill="white">
                            <use xlink:href="#path-1"></use>
                        </mask>
                        <g id="page-collection-(Background/Mask)"></g>
                        <path d="M31.1999976,42.4000066 C31.4666643,42.4000066 31.7333314,42.6666743 31.9999981,42.6666743 C32.2666648,42.6666743 32.5333319,42.6666733 32.7999986,42.4000066 L58.1333288,27.7333399 C58.3999954,27.7333399 58.3999975,27.4666748 58.6666641,27.2000071 C58.9333308,26.6666738 58.9333288,25.8666743 58.1333288,25.333341 L32.7999986,10.6666748 C32.2666653,10.4000081 31.9999986,10.4000081 31.4666653,10.6666748 L5.86666586,25.6000086 C5.5999992,25.6000086 5.59999907,25.8666748 5.33333241,26.1333415 C5.06666574,26.6666748 5.33333254,27.4666748 5.86666586,27.7333399 L31.1999976,42.4000066 Z M54.6666642,26.6666743 L31.9999981,39.7333399 L9.33333228,26.6666743 L31.9999981,13.600008 L54.6666642,26.6666743 Z M31.9999981,50.4000066 L7.46666553,36.0000076 C6.9333322,35.733341 6.13333215,35.7333404 5.59999882,36.5333405 C5.06666549,37.3333405 5.33333254,38.1333399 5.86666586,38.4000066 L31.1999976,53.0666733 C31.4666643,53.0666733 31.7333314,53.3333435 31.9999981,53.3333435 C32.2666648,53.3333435 32.5333319,53.3333435 32.7999986,53.0666733 L58.1333288,38.4000066 C58.6666621,38.1333399 58.9333308,37.3333405 58.6666641,36.5333405 C58.1333308,36.0000071 57.3333329,35.733342 56.5333329,36.2666753 L31.9999981,50.4000066 Z" id="Vector" fill="#00DAB2" mask="url(#mask-2)"></path>
                    </g>
                </g>
            </g>
        </g>
    </g>
</svg>