<svg width="64" height="64" viewBox="0 0 64 64" fill="none" xmlns="http://www.w3.org/2000/svg">
<g id="Group 427319333">
<g id="Group 427319328">
<g id="collaborate">
<mask id="mask0_0_868" style="mask-type:alpha" maskUnits="userSpaceOnUse" x="0" y="0" width="64" height="64">
<rect id="collaborate (Background/Mask)" width="64" height="64" fill="white"/>
</mask>
<g mask="url(#mask0_0_868)">
<path id="Vector" fill-rule="evenodd" clip-rule="evenodd" d="M62.361 57.9292C62.3211 57.8141 62.259 57.708 62.1781 57.6169C62.0972 57.5258 61.9991 57.4515 61.8895 57.3984C61.7799 57.3452 61.6609 57.3141 61.5393 57.3069C61.4177 57.2997 61.2959 57.3165 61.1808 57.3564C61.0656 57.3963 60.9595 57.4585 60.8684 57.5394C60.7774 57.6203 60.7031 57.7184 60.6499 57.828C60.5967 57.9376 60.5657 58.0566 60.5585 58.1782C60.5513 58.2998 60.5681 58.4216 60.608 58.5367C60.7889 59.0561 60.9141 59.5876 60.9836 60.1256H45.1432C45.6533 56.2179 49.0268 53.1783 53.0643 53.1783C54.4153 53.178 55.7443 53.5208 56.9266 54.1745C57.1416 54.2924 57.3946 54.3203 57.6301 54.2522C57.8657 54.1841 58.0646 54.0254 58.1836 53.811C58.3025 53.5966 58.3317 53.3438 58.2647 53.1079C58.1978 52.872 58.0402 52.6722 57.8263 52.5523C51.674 49.1399 44.0116 53.1765 43.2788 60.1284H20.4475C19.9198 55.1957 15.7106 51.3223 10.662 51.3223C5.30272 51.3223 0.886722 55.6836 0.816229 61.0429C0.814757 61.1657 0.837649 61.2876 0.88358 61.4016C0.929511 61.5155 0.99757 61.6192 1.08382 61.7066C1.17007 61.7941 1.27281 61.8636 1.38608 61.9111C1.49936 61.9586 1.62093 61.9832 1.74376 61.9834H62.2562C62.5022 61.9834 62.7382 61.8857 62.9121 61.7118C63.086 61.5378 63.1838 61.3019 63.1838 61.0559C63.1829 60.926 63.1544 60.7978 63.1002 60.6798C63.046 60.5618 62.9673 60.4567 62.8693 60.3714V60.3714C62.8047 59.539 62.6339 58.7183 62.361 57.9292ZM10.6611 53.1774C14.6922 53.1774 18.0665 56.2188 18.5832 60.1284H2.73994V60.1284C3.25658 56.2188 6.63003 53.1774 10.6611 53.1774ZM35.5103 11.8713C36.5732 10.8543 37.2032 9.46673 37.2693 7.99713C37.3037 7.24674 37.1899 6.49692 36.9344 5.79054C36.6789 5.08415 36.2867 4.43504 35.7802 3.88031C35.2737 3.32557 34.6628 2.87608 33.9825 2.55753C33.3022 2.23898 32.5658 2.05762 31.8154 2.02379C28.6664 1.87168 25.9849 4.32687 25.8421 7.47771C25.6946 10.7092 28.2778 13.4575 31.5622 13.4575V13.4575C33.0333 13.4564 34.4473 12.8883 35.5103 11.8713ZM33.0742 4.18244C33.5548 4.38758 33.9888 4.6881 34.3498 5.06582C34.7109 5.44355 34.9916 5.89061 35.1749 6.37995C35.3581 6.86929 35.4402 7.39074 35.4161 7.91272C35.3934 8.41977 35.2709 8.91736 35.0557 9.37705C34.8405 9.83673 34.5369 10.2495 34.1621 10.5917C33.7873 10.934 33.3487 11.199 32.8714 11.3716C32.3941 11.5443 31.8874 11.6211 31.3804 11.5978C30.3569 11.5502 29.394 11.0986 28.703 10.342C28.012 9.58546 27.6493 8.58574 27.6944 7.56211C27.7406 6.56908 28.1672 5.63192 28.8858 4.94496C29.6044 4.25799 30.5597 3.87392 31.5539 3.87237V3.87237C32.0764 3.87182 32.5936 3.9773 33.0742 4.18244ZM40.473 25.2818C40.5959 25.2818 40.7175 25.2574 40.8308 25.21C40.9441 25.1627 41.0469 25.0933 41.1332 25.0058C41.2195 24.9184 41.2876 24.8148 41.3335 24.7008C41.3794 24.5869 41.4022 24.465 41.4006 24.3422C41.3301 18.981 36.9141 14.6216 31.5557 14.6216C26.1983 14.6216 21.7813 18.981 21.7108 24.3422C21.7092 24.465 21.7321 24.5869 21.778 24.7008C21.8238 24.8148 21.8919 24.9184 21.9782 25.0058C22.0645 25.0933 22.1673 25.1627 22.2806 25.21C22.3939 25.2574 22.5155 25.2818 22.6384 25.2818V25.2818H40.473ZM39.4769 23.4267H23.6336C24.1512 19.5171 27.5246 16.4767 31.5557 16.4767C35.5868 16.4767 38.9602 19.5171 39.4769 23.4267ZM12.6089 49.8197C13.3156 49.564 13.9644 49.1705 14.5178 48.6622C15.0742 48.1571 15.525 47.5466 15.8439 46.8661C16.1628 46.1857 16.3435 45.4487 16.3756 44.6979C16.4426 43.183 15.9061 41.7034 14.8836 40.5836C13.8612 39.4639 12.4364 38.7953 10.9217 38.7245C10.171 38.6879 9.42046 38.8007 8.71367 39.0564C8.00687 39.3121 7.3579 39.7057 6.8044 40.2142C5.67652 41.2437 5.01704 42.6517 4.94747 44.1785C4.87791 45.7052 5.40753 47.167 6.4371 48.2949C6.94221 48.8512 7.55269 49.3018 8.23317 49.6206C8.91366 49.9393 9.65063 50.1199 10.4014 50.1518V50.1518C11.152 50.1883 11.9023 50.0754 12.6089 49.8197ZM9.34512 40.8019C9.82278 40.6292 10.33 40.553 10.8373 40.5778C11.8678 40.6241 12.8195 41.0694 13.5151 41.8327C13.8585 42.2068 14.1244 42.6453 14.2973 43.1227C14.4702 43.6002 14.5467 44.1072 14.5224 44.6144C14.4729 45.6372 14.0205 46.5989 13.2641 47.2892C12.5078 47.9795 11.5089 48.3424 10.4858 48.2986C9.97855 48.2771 9.4806 48.1552 9.02078 47.94C8.56097 47.7247 8.14844 47.4204 7.80707 47.0446C7.46363 46.6703 7.19784 46.2317 7.02509 45.7541C6.85235 45.2764 6.77607 44.7693 6.80069 44.2619C6.8224 43.7548 6.9445 43.257 7.15991 42.7973C7.37533 42.3377 7.67978 41.9253 8.05565 41.5841H8.05472C8.42884 41.2406 8.86746 40.9747 9.34512 40.8019ZM47.8788 42.0102C47.5599 42.6907 47.3791 43.4277 47.347 44.1785C47.117 49.2502 53.1738 52.0811 56.9183 48.6622C57.4732 48.1559 57.923 47.5452 58.2419 46.865C58.5607 46.1848 58.7424 45.4484 58.7765 44.6979C58.8106 43.9475 58.6965 43.1977 58.4407 42.4913C58.1848 41.785 57.7923 41.136 57.2856 40.5815C56.7793 40.0264 56.1687 39.5765 55.4884 39.2576C54.8082 38.9387 54.0718 38.757 53.3213 38.7228C52.5709 38.6887 51.821 38.8029 51.1147 39.0588C50.4083 39.3147 49.7594 39.7073 49.2049 40.2142V40.2142C48.6484 40.7193 48.1977 41.3297 47.8788 42.0102ZM54.3775 48.0732C53.9002 48.2462 53.3935 48.3234 52.8864 48.3004C52.3792 48.2774 51.8816 48.1547 51.4219 47.9392C50.9623 47.7237 50.5496 47.4197 50.2075 47.0446C49.864 46.6704 49.5981 46.2318 49.4252 45.7541C49.2523 45.2765 49.1758 44.7693 49.2002 44.2619C49.3579 40.8263 53.607 39.3043 55.9156 41.8318C56.2581 42.2065 56.5234 42.645 56.6963 43.1223C56.8693 43.5995 56.9464 44.1062 56.9234 44.6133C56.9004 45.1204 56.7777 45.618 56.5623 46.0777C56.3469 46.5374 56.0429 46.9501 55.6679 47.2922V47.2922C55.2933 47.6348 54.8548 47.9002 54.3775 48.0732Z" fill="#00BFBF"/>
<path id="Vector_2" fill-rule="evenodd" clip-rule="evenodd" d="M22.81 56.2382C23.309 57.3549 25.0064 56.6073 24.5027 55.4794L23.6494 53.5733C26.1023 54.8029 28.8091 55.4411 31.5529 55.4368C35.3771 55.4368 39.0168 54.2384 42.0786 51.9696C42.271 51.8214 42.3976 51.6035 42.4312 51.3629C42.4647 51.1223 42.4025 50.8781 42.2579 50.6829C42.1133 50.4876 41.8979 50.3569 41.658 50.3188C41.4181 50.2807 41.1728 50.3383 40.9748 50.4791C38.2516 52.5035 34.9462 53.592 31.5529 53.5817C28.7731 53.5817 26.1083 52.8628 23.7356 51.5105L26.701 50.5644C26.9354 50.4896 27.1305 50.3248 27.2434 50.1061C27.3563 49.8875 27.3777 49.6329 27.3029 49.3985C27.2282 49.1641 27.0633 48.9689 26.8447 48.856C26.626 48.7432 26.3715 48.7217 26.137 48.7965L21.2999 50.3409C20.7861 50.5051 20.5208 51.1237 20.736 51.6033V51.6033L22.81 56.2382ZM53.0801 23.4599C54.1277 26.0057 54.4878 28.7821 54.1245 31.511L52.0858 29.1235C51.9259 28.9365 51.6983 28.8207 51.453 28.8016C51.2077 28.7825 50.9649 28.8616 50.778 29.0215C50.591 29.1814 50.4752 29.409 50.4561 29.6542C50.4369 29.8995 50.516 30.1423 50.6759 30.3293L53.9733 34.1897C54.3007 34.5728 54.9806 34.6228 55.3553 34.2203L58.8243 30.5129C58.9075 30.424 58.9724 30.3195 59.0152 30.2054C59.058 30.0914 59.0779 29.97 59.0738 29.8483C59.0697 29.7265 59.0417 29.6068 58.9913 29.4959C58.941 29.385 58.8693 29.2851 58.7803 29.2019C58.6913 29.1187 58.5868 29.0538 58.4728 29.011C58.3587 28.9682 58.2374 28.9483 58.1156 28.9524C57.9939 28.9565 57.8741 28.9845 57.7632 29.0349C57.6523 29.0852 57.5524 29.1569 57.4692 29.2459L56.0714 30.7393C56.2727 28.0153 55.8364 25.2819 54.797 22.7559C53.3693 19.2442 50.8433 16.2889 47.5965 14.3321C47.4923 14.264 47.3754 14.2176 47.2529 14.1957C47.1304 14.1737 47.0047 14.1767 46.8833 14.2043C46.762 14.232 46.6474 14.2838 46.5465 14.3566C46.4455 14.4295 46.3603 14.5219 46.2959 14.6284C46.2314 14.7349 46.1891 14.8533 46.1713 14.9765C46.1536 15.0997 46.1608 15.2252 46.1926 15.3455C46.2244 15.4659 46.2801 15.5786 46.3563 15.677C46.4326 15.7754 46.5279 15.8574 46.6365 15.9182V15.9191C49.5421 17.6712 51.8026 20.3166 53.0801 23.4599ZM10.0304 23.4599C11.0668 20.9213 12.7498 18.6982 14.912 17.0117L14.6634 20.1143C14.5642 21.3415 16.4137 21.4982 16.512 20.2627L16.9173 15.2021C16.9618 14.6474 16.4712 14.1772 15.9629 14.2004L10.8883 14.3627C10.6425 14.3704 10.4097 14.4755 10.2413 14.6549C10.073 14.8342 9.98272 15.0731 9.99047 15.319C10.0072 15.831 10.4264 16.2372 10.9468 16.2168L13.0346 16.15C10.9667 17.9531 9.34977 20.2155 8.31349 22.7559C6.86565 26.2595 6.59101 30.1377 7.53065 33.8103C7.83488 35.005 9.63152 34.5486 9.32821 33.354V33.354C8.48784 30.0667 8.73416 26.5956 10.0304 23.4599Z" fill="#00BFBF"/>
</g>
</g>
</g>
</g>
</svg>
