<?xml version="1.0" encoding="UTF-8"?>
<svg width="792px" height="409px" viewBox="0 0 792 409" version="1.1" xmlns="http://www.w3.org/2000/svg" xmlns:xlink="http://www.w3.org/1999/xlink">
    <title>Communicate</title>
    <defs>
        <rect id="path-1" x="0" y="0" width="792" height="409" rx="4"></rect>
        <linearGradient x1="0.198797337%" y1="50.0585512%" x2="100.122814%" y2="49.9720893%" id="linearGradient-3">
            <stop stop-color="#EFF0F6" offset="0%"></stop>
            <stop stop-color="#B6BCE1" stop-opacity="0" offset="100%"></stop>
        </linearGradient>
        <linearGradient x1="-95.86349%" y1="27.5071719%" x2="91.5703692%" y2="66.0390874%" id="linearGradient-4">
            <stop stop-color="#EFF0F6" offset="0%"></stop>
            <stop stop-color="#4691A4" stop-opacity="0.293" offset="67.4%"></stop>
            <stop stop-color="#00065D" stop-opacity="0" offset="100%"></stop>
        </linearGradient>
        <linearGradient x1="-41.3275343%" y1="45.7399116%" x2="97.8624546%" y2="54.0902499%" id="linearGradient-5">
            <stop stop-color="#EFF0F6" offset="0%"></stop>
            <stop stop-color="#4691A4" stop-opacity="0.293" offset="67.4%"></stop>
            <stop stop-color="#00065D" stop-opacity="0" offset="100%"></stop>
        </linearGradient>
        <linearGradient x1="-34.1080017%" y1="42.5079325%" x2="98.4538431%" y2="54.1958358%" id="linearGradient-6">
            <stop stop-color="#EFF0F6" offset="0%"></stop>
            <stop stop-color="#4691A4" stop-opacity="0.293" offset="67.4%"></stop>
            <stop stop-color="#00065D" stop-opacity="0" offset="100%"></stop>
        </linearGradient>
        <linearGradient x1="-30.9616439%" y1="44.848333%" x2="88.3871724%" y2="52.7113515%" id="linearGradient-7">
            <stop stop-color="#EFF0F6" offset="0%"></stop>
            <stop stop-color="#4691A4" stop-opacity="0.293" offset="67.4%"></stop>
            <stop stop-color="#00065D" stop-opacity="0" offset="100%"></stop>
        </linearGradient>
        <linearGradient x1="-3.0891642%" y1="61.0555556%" x2="96.3310039%" y2="61.0555556%" id="linearGradient-8">
            <stop stop-color="#EFF0F6" offset="0%"></stop>
            <stop stop-color="#B6BCE1" stop-opacity="0" offset="100%"></stop>
        </linearGradient>
        <linearGradient x1="-4.05235456%" y1="54.6341463%" x2="95.6608807%" y2="54.6341463%" id="linearGradient-9">
            <stop stop-color="#EFF0F6" offset="0%"></stop>
            <stop stop-color="#B6BCE1" stop-opacity="0" offset="100%"></stop>
        </linearGradient>
    </defs>
    <g id="Page-1" stroke="none" stroke-width="1" fill="none" fill-rule="evenodd">
        <g id="Group-23-Copy-6" transform="translate(-527.000000, -424.000000)">
            <g id="Group-22" transform="translate(527.000000, 329.000000)">
                <g id="Communicate" transform="translate(0.000000, 95.000000)">
                    <mask id="mask-2" fill="white">
                        <use xlink:href="#path-1"></use>
                    </mask>
                    <g id="Mask"></g>
                    <path d="M-13.9280586,430.895598 C-14.0719414,430.60785 -14,430.320102 -13.7122343,430.176228 L99.1638426,365.001256 L20.8915853,319.537037 C20.7477025,319.4651 20.6038196,319.249289 20.6038196,319.105415 L20.5318782,307.73936 C20.5318782,307.523549 20.6038196,307.379675 20.8196439,307.235801 L321.789058,154.071937 C322.076824,153.928063 322.364589,154 322.508472,154.287748 C322.652355,154.575496 322.580414,154.863245 322.292648,155.007119 L21.6109994,308.027108 L21.6829408,318.817667 L100.458788,364.569634 C100.602671,364.641571 100.746554,364.857382 100.746554,365.001256 C100.746554,365.217067 100.674612,365.360941 100.458788,365.432878 L-13.2086445,431.039472 C-13.2805859,431.183347 -13.3525273,431.183347 -13.4964101,431.183347 C-13.7122343,431.183347 -13.8561172,431.11141 -13.9280586,430.895598 Z" id="Path-Copy-3" fill="#5166F4" fill-rule="nonzero" mask="url(#mask-2)"></path>
                    <path d="M616.071941,420.895598 C615.928059,420.60785 616,420.320102 616.287766,420.176228 L729.163843,355.001256 L650.891585,309.537037 C650.747702,309.4651 650.60382,309.249289 650.60382,309.105415 L650.531878,297.73936 C650.531878,297.523549 650.60382,297.379675 650.819644,297.235801 L951.789058,144.071937 C952.076824,143.928063 952.364589,144 952.508472,144.287748 C952.652355,144.575496 952.580414,144.863245 952.292648,145.007119 L651.610999,298.027108 L651.682941,308.817667 L730.458788,354.569634 C730.602671,354.641571 730.746554,354.857382 730.746554,355.001256 C730.746554,355.217067 730.674612,355.360941 730.458788,355.432878 L616.791356,421.039472 C616.719414,421.183347 616.647473,421.183347 616.50359,421.183347 C616.287766,421.183347 616.143883,421.11141 616.071941,420.895598 Z" id="Path-Copy-9" fill="#5166F4" fill-rule="nonzero" mask="url(#mask-2)"></path>
                    <g id="wood-cutting-industry" mask="url(#mask-2)">
                        <g transform="translate(134.000000, 38.000000)">
                            <polygon id="Path" fill-opacity="0.2" fill="url(#linearGradient-3)" fill-rule="nonzero" points="511.334709 314.431709 511.334709 326.980178 484.357054 327.060105 484.277001 314.511636"></polygon>
                            <path d="M378.28764,175.039796 C377.567168,171.123395 364.598682,166.088022 355.1525,163.770152 L355.1525,177.597446 C356.753547,178.077006 358.354595,178.476638 360.035695,178.796345 C369.401825,180.554729 379.008111,178.636491 378.28764,175.039796 Z" id="Path" fill="url(#linearGradient-4)" fill-rule="nonzero" opacity="0.7"></path>
                            <path d="M353.551452,162.731107 C355.312605,160.81287 345.706318,158.25522 337.701079,157.056321 L328.735212,164.009932 C330.01605,164.249711 331.376941,164.409565 332.817884,164.569418 C341.143332,165.528536 351.950404,164.569418 353.551452,162.731107 L353.551452,162.731107 Z" id="Path" fill="url(#linearGradient-5)" fill-rule="nonzero" opacity="0.7"></path>
                            <path d="M354.271923,164.96905 C354.271923,164.96905 349.628885,173.201486 351.309985,175.918989 C353.071138,178.636491 359.395276,179.036124 360.756167,173.601118 C362.117057,168.166113 362.037005,166.807361 362.597372,165.528536 C363.237791,164.249711 360.51601,161.931841 360.275853,161.931841 L354.271923,164.96905 L354.271923,164.96905 Z M337.06066,153.939186 C337.06066,153.939186 326.65385,158.494999 327.214216,162.171621 C327.774583,165.848243 334.498984,163.930005 336.820503,162.171621 C339.142022,160.413237 340.502913,159.773824 342.74438,160.093531 C344.985846,160.413237 348.187942,159.454118 348.267994,157.535881 C348.267994,155.617643 347.307366,153.779333 347.307366,153.779333 L342.184013,150.742124 L337.06066,153.939186 Z" id="Shape" fill="#9398BC" fill-rule="nonzero"></path>
                            <path d="M300.076457,42.3617144 C299.436038,45.1591438 295.113209,46.0383359 289.429489,44.1200986 C285.827132,42.9212003 289.429489,37.8059007 289.429489,37.8059007 C289.429489,37.8059007 284.386189,36.846782 284.866503,35.5679572 C285.586975,33.4898667 291.270694,35.2482509 293.272004,35.8876634 C293.432109,35.9675899 293.512161,35.8077368 293.432109,35.7278103 C291.831061,34.3690588 292.47148,33.5697933 293.352056,33.3300136 C294.392737,33.0103074 295.433418,35.0883978 297.114518,36.6070024 C298.875671,38.1256069 300.636824,39.5642849 300.076457,42.3617144 L300.076457,42.3617144 Z" id="Path" fill="#D4D8F4" fill-rule="nonzero"></path>
                            <path d="M339.622336,5.59549886 C339.622336,5.59549886 340.823122,7.19402997 342.984537,8.87248764 C345.626266,10.9505781 349.628885,13.0286685 354.432028,12.0695499 C357.153809,14.1476403 354.432028,19.5826461 354.432028,19.5826461 L355.712866,19.5826461 C355.712866,19.5826461 357.954333,14.7071262 359.715486,16.6253635 C361.556691,18.4636743 357.634124,23.1793411 357.634124,23.1793411 L358.83491,27.4953751 C358.83491,27.4953751 367.880829,11.7498436 363.157739,7.35388308 C363.157739,7.35388308 361.716796,-0.0792865762 354.191871,0.000639979282 C346.666947,0.16049309 344.10527,5.43564575 339.622336,5.59549886 L339.622336,5.59549886 Z" id="Path" fill="#5A67BF" fill-rule="nonzero"></path>
                            <path d="M355.1525,14.2275669 C354.992395,13.668081 354.752238,13.1885216 354.351976,12.7888889 C354.752238,13.1885216 354.992395,13.668081 355.1525,14.2275669 Z" id="Path" fill="#565BAA" fill-rule="nonzero"></path>
                            <path d="M346.827051,28.6942734 C346.666947,30.2928045 347.147261,32.2909684 348.027837,33.5697933 C348.027837,33.5697933 356.033076,36.127443 359.555381,30.1329514 L358.5147,26.2165502 L357.714176,23.2592676 C357.714176,23.2592676 356.993705,23.8986801 355.872971,24.6979456 C353.871662,26.1366236 350.509461,28.2946406 347.227313,28.6942734 C347.147261,28.6143468 346.827051,28.6942734 346.827051,28.6942734 L346.827051,28.6942734 Z" id="Path" fill="#C6CCF5" fill-rule="nonzero"></path>
                            <path d="M347.387418,153.859259 C342.344118,156.177129 340.182703,156.416909 335.859874,154.498672 C335.859874,154.498672 334.579036,131.000264 331.777202,111.817891 C328.975369,92.6355178 333.69846,81.2060203 333.69846,81.2060203 L344.745689,82.4049187 L349.148571,115.654366 L347.387418,153.859259 L347.387418,153.859259 Z" id="Path" fill="#111333" fill-rule="nonzero"></path>
                            <path d="M358.5147,30.6924373 C358.5147,30.6924373 354.512081,36.0475165 354.512081,36.127443 C354.512081,36.2073696 352.350666,44.8394376 352.110509,44.9992907 C351.950404,45.1591438 345.946475,54.3506977 345.946475,54.3506977 L340.582965,58.426952 C340.582965,58.426952 338.981917,55.9492288 338.981917,55.8693022 C338.981917,55.7094491 338.821813,45.3989235 338.901865,45.3189969 C338.981917,45.1591438 342.904484,30.2128779 342.904484,30.2128779 C346.346737,36.6070024 352.030457,36.0475165 358.5147,30.6924373 Z" id="Path" fill="#FFFFFF" fill-rule="nonzero"></path>
                            <polygon id="Path" fill="#5166F4" fill-rule="nonzero" points="347.947785 33.5697933 344.745689 36.0475165 345.546213 38.1256069 339.622336 51.8729745 340.582965 56.268935 342.904484 53.0718728 347.067209 38.4453132 348.908413 37.1664883"></polygon>
                            <path d="M366.279782,95.113241 C366.279782,95.113241 361.716796,114.695247 363.157739,128.122908 C364.598682,141.630496 365.55931,154.498672 362.677424,165.44861 C359.475329,167.446774 357.073757,166.407728 354.191871,165.20883 C354.191871,165.20883 341.623646,98.3103032 342.023908,93.8344161 C342.42417,89.358529 366.279782,95.113241 366.279782,95.113241 Z" id="Path" fill="#4C4F75" fill-rule="nonzero"></path>
                            <path d="M346.666947,25.2574315 C340.42286,39.2445787 335.859874,50.8339293 325.132854,56.268935 C324.012121,56.8284209 322.731283,57.1481271 321.530497,57.1481271 C320.97013,57.1481271 320.409763,56.988274 319.849397,56.8284209 C313.285101,54.9101836 303.278552,49.9547371 297.034466,45.7186297 C296.394047,45.5587766 298.315304,37.0066352 298.875671,37.0865617 L318.96882,44.2000251 C319.609239,44.4398048 320.409763,44.2000251 320.810025,43.6405393 C323.371702,40.0438443 332.577726,27.8150813 338.581655,26.2165502 L346.666947,25.2574315 L346.666947,25.2574315 Z" id="Path" fill="#5AD4F2" fill-rule="nonzero"></path>
                            <path d="M338.581655,46.917528 C338.341498,47.0773811 339.542284,53.7112852 340.502913,56.4287881 C340.582965,56.7484944 339.542284,64.181664 339.542284,64.181664 L342.42417,67.2987997 L340.262756,93.3548568 L340.022598,93.8344161 C338.901865,95.5128738 336.580346,95.113241 333.218145,94.393902 C329.535736,93.5946364 329.855945,88.5592634 329.855945,88.5592634 C329.855945,88.5592634 330.576417,76.0907208 331.857255,69.6965963 C332.417622,66.8991669 332.737831,59.4659972 332.977988,51.6331948 C332.577726,44.6795845 332.737831,38.1256069 333.858565,32.1311153 C334.418931,29.3336858 336.260136,26.9358892 338.901865,25.9767705 C342.42417,24.6180191 346.746999,24.0585332 346.746999,24.0585332 L342.74438,28.8541265 C342.74438,28.8541265 341.143332,37.8858273 340.903175,37.8858273 C340.74307,38.0456804 338.74176,46.7576749 338.581655,46.917528 L338.581655,46.917528 Z" id="Path" fill="#8A99FD" fill-rule="nonzero"></path>
                            <path d="M342.504222,67.3787262 L340.342808,93.4347833 L340.102651,93.9143426 C340.102651,93.9143426 340.022598,93.8344161 340.022598,93.7544895 L339.462232,64.5812968 L340.582965,56.5087147 L342.504222,67.3787262 L342.504222,67.3787262 Z" id="Path" fill="#5AD4F2" fill-rule="nonzero"></path>
                            <path d="M365.799467,96.6318455 C361.316534,98.3103032 346.346737,101.986925 340.342808,93.4347833 L340.582965,56.9083475 C341.063279,57.0682006 352.590823,36.127443 360.51601,25.8169174 L363.157739,29.9730983 C363.157739,29.9730983 372.203658,37.2464148 372.523868,39.2445787 C372.844077,41.3226692 365.479258,55.7094491 364.678734,61.7838673 C363.87821,67.5385793 364.758786,87.200512 366.760096,94.8734613 C366.920201,95.5928003 366.519939,96.3920659 365.799467,96.6318455 L365.799467,96.6318455 Z" id="Path" fill="#8A99FD" fill-rule="nonzero"></path>
                            <path d="M361.316534,26.8559626 C361.156429,26.2165502 360.676114,25.7369908 360.1958,25.4172846 L359.315224,24.7778722 C359.315224,24.7778722 354.432028,33.0103074 347.947785,33.5697933 L349.068518,37.7259742 C349.068518,37.7259742 356.51339,35.408104 359.715486,31.7314825 C361.556691,29.4935389 361.556691,27.8150813 361.316534,26.8559626 L361.316534,26.8559626 Z M347.947785,33.5697933 C347.947785,33.5697933 346.10658,29.6533921 346.987156,24.2183863 L342.904484,30.8522904 C343.064589,32.8504543 343.624956,34.6088385 344.585585,36.2073696 L347.947785,33.5697933 Z" id="Shape" fill="#D6DBFD" fill-rule="nonzero"></path>
                            <path d="M358.754857,38.6051663 L354.912343,38.6051663 L357.073757,41.8022285 L340.582965,56.988274 C340.102651,55.7094491 350.989776,36.6869289 360.676114,28.0548609 C361.316534,27.4953751 361.316534,26.6161829 360.756167,25.8968439 L359.955643,25.2574315 L360.51601,24.1384597 C360.51601,24.1384597 361.316534,24.6180191 361.476638,24.8577987 C363.237791,27.0158157 363.558,29.8931717 362.19711,32.2909684 L358.754857,38.6051663 L358.754857,38.6051663 Z" id="Path" fill="#5AD4F2" fill-rule="nonzero"></path>
                            <path d="M340.663018,56.6685678 C338.981917,45.9584094 345.386108,24.4581659 345.386108,24.4581659 C338.901865,22.6997817 337.140712,32.7705277 337.140712,32.7705277 L339.862494,34.7686916 L336.820503,35.6478837 C336.100031,42.9212003 339.302127,52.67224 340.582965,56.9083475 L340.663018,56.6685678 L340.663018,56.6685678 Z" id="Path" fill="#5AD4F2" fill-rule="nonzero"></path>
                            <path d="M357.634124,23.1793411 C357.634124,23.1793411 356.913652,23.8187535 355.792919,24.6180191 C353.791609,26.0566971 350.429409,28.2147141 347.147261,28.6143468 L346.987156,28.6143468 C346.026528,28.6942734 345.065899,28.7741999 344.10527,28.4544937 C339.782441,27.0158157 341.143332,10.9505781 342.824432,8.87248764 C345.466161,10.9505781 349.548833,13.0286685 354.271923,12.0695499 C354.351976,12.1494764 354.512081,12.229403 354.592133,12.3892561 C354.992395,12.7888889 355.232552,13.2684482 355.392657,13.8279341 C356.033076,16.3056573 354.351976,19.6625726 354.351976,19.6625726 L355.632814,19.6625726 C355.632814,19.6625726 357.874281,14.7870527 359.635433,16.7052901 C361.556691,18.4636743 357.634124,23.1793411 357.634124,23.1793411 L357.634124,23.1793411 Z" id="Path" fill="#D4D8F4" fill-rule="nonzero"></path>
                            <path d="M354.351976,12.0695499 C354.351976,12.0695499 358.754857,11.7498436 363.157739,7.35388308 C360.435957,9.03234075 357.474019,10.6308719 354.351976,12.0695499 Z" id="Path" fill="#565BAA" fill-rule="nonzero"></path>
                            <path d="M359.715486,19.9023523 C358.995014,21.58081 357.634124,23.1793411 357.634124,23.1793411 L358.83491,27.4953751 C358.83491,27.4953751 360.836219,24.0585332 362.437267,19.9023523 L359.715486,19.9023523 Z" id="Path" fill="#5A67BF" fill-rule="nonzero"></path>
                            <polygon id="Path" fill="#F8F9FE" fill-rule="nonzero" points="347.46747 81.0461672 332.257517 75.7710146 325.132854 49.3153247 340.663018 55.9492288"></polygon>
                            <polygon id="Path" fill="#F1F2FA" fill-rule="nonzero" points="336.340189 54.9901101 330.816574 52.9120197 330.416312 50.8339293 335.859874 53.1517994"></polygon>
                            <path d="M348.908413,70.655715 C348.908413,70.655715 346.827051,71.0553478 346.10658,71.1352743 C336.820503,72.7338054 334.579036,65.7801951 337.06066,63.7021047 C338.261446,62.742986 339.862494,66.1798279 340.903175,66.7393138 C342.023908,67.4586528 343.544903,67.05902 343.624956,66.0999013 C343.705008,65.3006358 342.74438,65.4604889 342.904484,64.1017375 C342.984537,63.1426188 345.78637,63.8619578 346.666947,64.4214437 C347.547523,64.9809296 347.947785,66.4995341 347.947785,66.4995341 L348.908413,70.655715 Z" id="Path" fill="#D4D8F4" fill-rule="nonzero"></path>
                            <path d="M369.321772,70.4958619 C365.078996,74.0126303 346.746999,71.5349071 346.746999,71.5349071 C346.266685,71.5349071 346.746999,64.4214437 347.227313,64.4214437 L361.476638,62.4232798 C361.956953,62.3433532 362.357215,61.9437205 362.437267,61.4641611 C362.757477,58.5068786 363.718105,48.6759123 364.278472,42.7613471 C364.838839,35.8077368 370.282401,37.4861945 370.282401,37.4861945 C378.28764,38.7650194 373.404444,66.9790935 369.321772,70.4958619 Z" id="Path" fill="#5AD4F2" fill-rule="nonzero"></path>
                            <polygon id="Path" fill="#D4D8F4" fill-rule="nonzero" points="184.080547 80.2469017 191.605471 102.78619 197.209138 115.494513 190.084476 120.849592 179.437508 101.667219 174.234103 86.0016137"></polygon>
                            <path d="M174.234103,63.6221781 C174.234103,63.6221781 182.559551,67.778359 184.400756,80.6465344 C185.041175,81.7655062 174.954575,87.7599979 174.234103,86.5610995 L174.234103,63.6221781 L174.234103,63.6221781 Z" id="Path" fill="#61BED5" fill-rule="nonzero"></path>
                            <polygon id="Path" fill="#4C4F75" fill-rule="nonzero" points="124.201361 120.130253 124.201361 160.173457 166.789231 133.318134 166.789231 121.728784"></polygon>
                            <path d="M133.8877,68.9772573 C133.8877,68.9772573 155.742001,55.3897429 174.154051,63.6221781 C174.154051,63.6221781 181.51887,76.9699129 174.154051,86.5610995 C166.789231,96.1522862 163.106821,111.817891 166.308917,120.050326 C169.591065,128.282761 130.285342,127.563422 124.121222,120.050326 C124.121222,120.050326 124.041256,111.178479 128.764347,104.304795 C133.487438,97.4311111 137.570109,76.3305004 133.8877,68.9772573 Z" id="Path" fill="#5ACBE7" fill-rule="nonzero"></path>
                            <path d="M129.004504,94.8734613 C129.004504,94.8734613 130.285342,113.496349 130.605552,120.370032 C130.925761,127.16379 135.969062,152.820214 135.969062,152.820214 L145.495296,146.825722 L145.095034,94.3139754 L129.004504,94.8734613 L129.004504,94.8734613 Z" id="Path" fill="#D4D8F4" fill-rule="nonzero"></path>
                            <path d="M135.328642,68.497698 C135.328642,68.497698 125.482199,69.5367432 128.123928,93.5147099 C128.123928,97.6708907 145.415243,97.6708907 145.415243,93.5147099 C145.495296,93.4347833 150.138334,66.6593872 135.328642,68.497698 L135.328642,68.497698 Z" id="Path" fill="#61BED5" fill-rule="nonzero"></path>
                            <path d="M157.262997,74.5721162 C152.059592,71.8546133 148.777444,68.6575511 145.415243,63.3823985 L145.655401,62.742986 L147.096344,59.146291 C147.096344,59.146291 147.816815,60.0254831 149.097653,61.304308 C151.33912,63.462325 155.101582,66.5794607 159.104202,67.6984325 C159.104202,67.6984325 160.224935,67.9382121 160.304988,67.9382121 C160.38504,70.0163026 158.543835,73.0535117 157.262997,74.5721162 Z" id="Path" fill="#C6CCF5" fill-rule="nonzero"></path>
                            <path d="M162.946716,68.0181387 C161.745931,68.2579183 160.545145,68.0980652 159.424411,67.778359 C159.344359,67.778359 159.264306,67.6984325 159.264306,67.6984325 C155.261687,66.5794607 151.499225,63.462325 149.257758,61.304308 C147.97692,60.1054097 147.176396,59.2262176 147.176396,59.2262176 C147.176396,59.2262176 143.173777,52.8320931 145.735453,50.8339293 C148.297129,48.8357654 150.218387,55.1499632 150.218387,55.1499632 L151.819434,55.3897429 C151.819434,55.3897429 149.417863,48.2762795 153.100273,46.1182625 C153.500535,45.8784828 153.980849,45.7186297 154.621268,45.5587766 C160.38504,44.5996579 165.188183,41.9620816 167.589755,43.8003924 L167.829912,44.040172 C169.511012,46.917528 168.550383,66.9790935 162.946716,68.0181387 Z" id="Path" fill="#D4D8F4" fill-rule="nonzero"></path>
                            <path d="M145.014981,64.4214437 L147.176396,59.2262176 C147.176396,59.2262176 143.173777,52.8320931 145.735453,50.8339293 C148.297129,48.8357654 150.218387,55.1499632 150.218387,55.1499632 L151.819434,55.3897429 C151.819434,55.3897429 149.417863,48.2762795 153.100273,46.1182625 C158.783992,48.1164264 164.147502,46.198189 167.74986,44.040172 C170.631746,42.3617144 172.392898,40.6033302 172.392898,40.6033302 C166.869283,39.6442115 164.547764,32.6906012 155.261687,31.3318497 C144.854877,29.8132452 143.013672,38.9248725 143.013672,38.9248725 C136.449376,43.4806861 145.014981,64.4214437 145.014981,64.4214437 L145.014981,64.4214437 Z" id="Path" fill="#1D1F43" fill-rule="nonzero"></path>
                            <polygon id="Path" fill="#4C4F75" fill-rule="nonzero" points="121.879841 252.568555 121.879841 272.150561 107.790621 280.30307 93.541296 272.150561 93.6213484 252.568555 107.790621 260.721064"></polygon>
                            <polygon id="Path" fill="#4C4F75" fill-rule="nonzero" points="121.879841 252.568555 121.879841 272.150561 107.790621 280.30307 107.790621 260.721064"></polygon>
                            <polygon id="Path" fill="#1D1F43" fill-rule="nonzero" points="107.790621 260.721064 107.790621 280.30307 93.541296 272.150561 93.6213484 252.568555"></polygon>
                            <polygon id="Path" fill="#111333" fill-rule="nonzero" points="498.446274 299.32559 498.446274 318.907596 484.277001 327.060105 470.107729 318.907596 470.187781 299.32559 484.277001 291.173082"></polygon>
                            <polygon id="Path" fill="#4C4F75" fill-rule="nonzero" points="498.446274 299.32559 498.446274 318.907596 484.277001 327.060105 484.357054 307.558025"></polygon>
                            <polygon id="Path" fill="#111333" fill-rule="nonzero" points="484.357054 307.558025 484.277001 327.060105 470.107729 318.907596 470.187781 299.32559"></polygon>
                            <polygon id="Path" fill="#0F112C" fill-rule="nonzero" points="498.446274 299.32559 484.357054 307.558025 470.187781 299.32559 484.277001 291.173082"></polygon>
                            <polygon id="Path" fill="#4C4F75" fill-rule="nonzero" points="498.446274 308.676997 336.980608 401.871361 93.7014008 260.641137 93.6213484 192.064153 255.087015 98.8697891 498.446274 240.100013"></polygon>
                            <polygon id="Path" fill="#1D1F43" fill-rule="nonzero" points="336.980608 401.871361 93.7014008 260.641137 93.6213484 192.064153 336.900555 333.21445"></polygon>
                            <polygon id="Path" fill="#414365" fill-rule="nonzero" points="336.900555 333.21445 93.6213484 192.064153 255.087015 98.8697891 498.446274 240.100013"></polygon>
                            <polygon id="Path" fill="#4C4F75" fill-rule="nonzero" points="498.446274 240.100013 498.446274 308.676997 336.980608 401.871361 336.900555 333.21445"></polygon>
                            <polygon id="Path" fill="#797F80" fill-rule="nonzero" points="488.439726 237.14273 245.080466 95.9924331 245.080466 88.1596306 488.359673 229.309928"></polygon>
                            <polygon id="Path" fill="#C3C5CF" fill-rule="nonzero" points="346.907104 318.82767 103.547844 177.677373 245.080466 95.9924331 488.439726 237.14273"></polygon>
                            <path d="M488.439726,237.14273 L346.907104,318.82767 L346.907104,310.994867 L346.987156,310.914941 C346.987156,310.914941 346.907104,310.914941 346.907104,310.994867 L96.8234439,165.928169 L238.356066,84.2432294 L488.439726,229.309928 C488.359673,229.389854 488.279621,229.389854 488.119516,229.469781 C488.199568,229.389854 488.279621,229.389854 488.439726,229.309928 L488.439726,237.14273 L488.439726,237.14273 Z" id="Path" fill="#1D1F43" fill-rule="nonzero"></path>
                            <path d="M488.359673,229.309928 C356.51339,305.400008 347.867732,310.435381 346.827051,310.994867 L96.8234439,165.928169 L238.356066,84.2432294 L488.359673,229.309928 L488.359673,229.309928 Z" id="Path" fill="#4C4F75" fill-rule="nonzero"></path>
                            <polygon id="Path" fill="#1D1F43" fill-rule="nonzero" points="488.359673 229.309928 488.439726 237.14273 346.907104 318.82767 346.827051 310.994867"></polygon>
                            <path d="M482.595901,232.666843 L478.112968,235.224493 L233.632975,94.3139754 L238.115909,91.7563256 L482.595901,232.666843 Z M422.076296,267.594748 L417.593362,270.152397 L173.11337,129.24188 L177.596303,126.68423 L422.076296,267.594748 Z M409.988385,274.548358 L405.505452,277.185934 L161.025459,136.275417 L165.508393,133.637841 L409.988385,274.548358 Z M397.900475,281.581895 L393.417541,284.139545 L148.937548,143.229027 L153.420482,140.671378 L397.900475,281.581895 Z M373.644601,295.569042 L369.161668,298.126692 L124.681675,157.216175 L129.164609,154.578598 L373.644601,295.569042 Z M361.556691,302.522652 L357.073757,305.080302 L112.593764,164.169785 L117.076698,161.612135 L361.556691,302.522652 Z M434.164207,260.641137 L429.681273,263.198787 L185.20128,122.28827 L189.684214,119.650693 L434.164207,260.641137 Z M446.252117,253.6076 L441.849236,256.245177 L197.369243,115.254733 L201.772124,112.697083 L446.252117,253.6076 Z M458.42008,246.65399 L453.937146,249.21164 L209.457154,108.301123 L213.940087,105.743473 L458.42008,246.65399 Z M470.507991,239.620453 L466.025057,242.25803 L221.545064,101.347512 L226.027998,98.709936 L470.507991,239.620453 Z" id="Shape" fill="#414365" fill-rule="nonzero"></path>
                            <polygon id="Path" fill="#292A3F" fill-rule="nonzero" points="346.907104 318.82767 103.547844 177.677373 103.547844 169.84457 346.827051 310.994867"></polygon>
                            <polygon id="Path" fill="#8D92B7" fill-rule="nonzero" points="336.900555 327.779444 86.8168954 182.712746 86.8168954 177.117887 336.900555 322.264512"></polygon>
                            <polygon id="Path" fill="#E3E5F0" fill-rule="nonzero" points="498.366222 223.555216 248.282562 78.4885174 238.356066 84.2432294 96.8234439 165.928169 103.147583 169.604791 244.680204 87.919851 488.359673 229.309928 488.439726 237.14273 346.907104 318.82767 346.827051 310.994867 96.7433915 165.928169 86.8168954 171.682881 86.8969478 188.147752 336.900555 333.21445 498.446274 240.100013"></polygon>
                            <path d="M488.359673,229.309928 L238.356066,84.2432294 L248.282562,78.4885174 L498.366222,223.555216 L488.359673,229.309928 Z M244.680204,87.919851 L103.147583,169.604791 L96.8234439,165.928169 L238.356066,84.2432294 L244.680204,87.919851 Z" id="Shape" fill="#E3E5F0" fill-rule="nonzero"></path>
                            <polygon id="Path" fill="#B0B4CF" fill-rule="nonzero" points="336.900555 333.21445 86.8969478 188.147752 86.8168954 171.682881 336.900555 316.749579"></polygon>
                            <polygon id="Path" fill="#C9CCE2" fill-rule="nonzero" points="498.366222 223.555216 498.446274 240.100013 336.900555 333.21445 336.900555 316.749579 346.827051 310.994867 346.907104 318.82767 488.439726 237.14273 488.359673 229.309928"></polygon>
                            <polygon id="Path" fill="#E3E5F0" fill-rule="nonzero" points="336.900555 316.749579 86.8168954 171.682881 96.7433915 165.928169 346.827051 310.994867"></polygon>
                            <polygon id="Shape" fill="#7587FF" fill-rule="nonzero" points="475.871501 262.399522 384.051412 315.310901 384.131464 365.264998 475.871501 312.353619"></polygon>
                            <polygon id="Path" fill="#6070DB" fill-rule="nonzero" points="457.779661 226.672351 457.779661 228.910295 351.309985 290.613596 256.92822 236.263538 256.92822 234.025594 363.397896 172.242367"></polygon>
                            <polygon id="Path" fill="#565BAA" fill-rule="nonzero" points="457.779661 226.672351 457.779661 228.910295 351.309985 290.613596 351.309985 288.375652"></polygon>
                            <polygon id="Path" fill="#5A67BF" fill-rule="nonzero" points="351.309985 288.375652 351.309985 290.613596 256.92822 236.263538 256.92822 234.025594"></polygon>
                            <polygon id="Path" fill="#6070DB" fill-rule="nonzero" points="457.779661 226.672351 351.309985 288.375652 256.92822 234.025594 363.397896 172.242367"></polygon>
                            <path d="M65.1226983,319.946641 C50.3130065,328.09915 26.1371854,328.09915 11.2474412,319.946641 C-3.72235534,311.794133 -3.72235534,298.606251 11.0873364,290.453743 C25.8970282,282.301234 50.0728493,282.301234 64.9625935,290.453743 C79.8523377,298.606251 79.93239,311.794133 65.1226983,319.946641 Z" id="Path" fill-opacity="0.05" fill="#F8F9FE" fill-rule="nonzero"></path>
                            <path d="M34.3025289,314.271856 C32.6214288,313.872223 31.1004334,313.47259 29.6594904,313.072958 L43.2683964,309.31641 C45.1896537,309.636116 44.7893917,309.556189 46.7106491,309.955822 C56.3169356,312.113839 65.8431698,315.230975 63.3615457,317.229139 C56.3169356,322.983851 43.9088155,316.429873 34.3025289,314.271856 L34.3025289,314.271856 Z" id="Path" fill="url(#linearGradient-6)" fill-rule="nonzero" opacity="0.7"></path>
                            <path d="M13.5689605,301.803313 C11.6477031,301.403681 9.88655061,300.924121 8.28550285,300.524488 L23.8156661,297.087647 C26.057133,297.487279 25.5768186,297.327426 27.7382331,297.806986 C38.7854626,300.204782 49.6725874,303.401844 46.9508062,305.479935 C42.9481868,308.357291 24.61619,304.20111 13.5689605,301.803313 L13.5689605,301.803313 Z" id="Path" fill="url(#linearGradient-7)" fill-rule="nonzero" opacity="0.7"></path>
                            <path d="M1.88131181,167.846406 L1.88131181,168.565745 C2.52173092,173.601118 4.12277868,183.352158 5.88393121,187.508339 C7.64508375,191.744447 9.72644583,195.660848 11.8078079,199.577249 C13.0886461,202.054972 16.2106893,203.014091 18.6923133,201.655339 C21.1739373,200.376515 22.134566,197.259379 20.7736754,194.781656 C20.7736754,194.701729 20.693623,194.701729 20.693623,194.621803 C16.1306369,185.829881 12.7684366,176.958034 11.3274936,168.00626 C12.2080699,164.649344 13.5689605,160.972723 15.0899558,157.376028 C16.6910036,153.459626 18.7723657,149.703078 20.5335182,145.706751 C21.3340421,143.86844 20.5335182,141.630496 18.6923133,140.831231 C16.9311607,140.031965 14.8497987,140.751304 13.88917,142.429762 C11.8078079,146.266236 9.48628867,149.862931 7.40492658,153.859259 C5.40361688,157.855587 3.40230719,161.851915 1.88131181,166.647508 C1.9613642,167.127067 1.88131181,167.446774 1.88131181,167.846406 L1.88131181,167.846406 Z" id="Path" fill="#6F81F9" fill-rule="nonzero"></path>
                            <path d="M6.6044027,299.56537 C7.80518852,301.243827 11.8878603,301.163901 13.2487509,299.725223 C14.6096415,298.286545 20.1332563,299.965003 24.61619,296.608087 C29.0190713,293.171245 26.5374473,289.974183 24.6962424,290.693522 C22.7749851,291.412861 18.9324704,291.013228 18.9324704,291.013228 C18.9324704,291.013228 11.407546,290.134036 8.52566001,292.052274 C5.64377405,293.970511 5.40361688,297.886912 6.6044027,299.56537 L6.6044027,299.56537 Z" id="Path" fill="#9EA4C9" fill-rule="nonzero"></path>
                            <path d="M6.84455987,293.810658 C8.76581718,293.650805 10.5269697,293.411025 12.2080699,292.931466 C13.88917,292.451906 15.4101654,291.732567 16.771056,290.853375 C19.0925752,275.747256 22.8550375,260.001725 27.0177616,248.252521 C27.097814,248.012742 27.1778664,247.693035 27.2579188,247.373329 C27.9783903,244.416047 28.6188094,241.538691 29.1791761,238.741261 C30.8602762,230.588752 32.0610621,223.075656 32.3812716,216.361826 L19.5728895,210.607114 L15.330113,208.688876 L12.3681746,210.68704 L12.3681746,245.694871 C7.32487419,259.921798 5.24351211,275.907109 6.84455987,293.810658 Z" id="Path" fill="#4C4F75" fill-rule="nonzero"></path>
                            <path d="M29.579438,312.993031 C31.420643,313.71237 36.383891,312.593398 36.383891,312.593398 C40.3865104,312.993031 51.1135304,312.113839 53.0347877,309.396336 C54.8759926,306.598907 52.7145781,303.721551 49.592535,304.44089 C47.5111729,304.920449 45.4298108,304.360963 44.1489726,303.881404 C43.4285011,303.641624 42.788082,303.321918 42.1476629,302.922285 L41.1069819,302.12302 C41.1069819,302.12302 32.9416383,304.600743 28.3786522,305.160229 C26.9377092,305.400008 27.7382331,312.273692 29.579438,312.993031 L29.579438,312.993031 Z" id="Path" fill="#9EA4C9" fill-rule="nonzero"></path>
                            <path d="M25.4167139,219.079328 C25.8970282,226.352645 26.6174997,233.466108 26.9377092,240.659498 C27.0177616,242.897442 27.1778664,245.215312 27.1778664,247.453256 C27.8983379,244.495973 28.538757,241.618617 29.0991237,238.821188 C28.6188094,232.107357 27.498076,225.473453 25.4167139,219.079328 L25.4167139,219.079328 Z" id="Path" fill="#1D1F43" fill-rule="nonzero"></path>
                            <path d="M25.656871,220.1983 C28.2185474,234.185447 29.0190713,248.172595 27.2579188,262.159742 C25.4967663,273.34946 27.2579188,287.896093 28.3786522,305.160229 C29.8996476,305.000376 31.2605382,304.920449 32.461324,304.760596 C36.3038386,304.20111 38.7854626,303.401844 41.1069819,302.202946 C41.1069819,302.202946 41.5072438,279.823511 42.5479249,267.115188 C43.5085535,254.326939 50.7132684,220.597933 50.7132684,220.597933 L27.3379712,207.649831 L25.4967663,219.159255 C25.4967663,219.478961 25.5768186,219.798667 25.656871,220.1983 Z" id="Path" fill="#4C4F75" fill-rule="nonzero"></path>
                            <path d="M6.84455987,293.810658 C8.76581718,293.650805 10.5269697,293.411025 12.2080699,292.931466 C12.1280175,292.851539 12.0479651,292.691686 11.8878603,292.61176 C10.2868125,290.853375 9.88655061,288.215799 9.966603,285.977855 C9.966603,283.100499 10.4469173,280.223143 10.9272317,277.345787 C14.5295891,255.925471 18.6923133,234.58508 19.6529419,212.924984 C19.6529419,212.125718 19.7329943,211.406379 19.5728895,210.607114 L15.330113,208.688876 L12.3681746,210.68704 L12.3681746,245.694871 C7.32487419,259.921798 5.24351211,275.907109 6.84455987,293.810658 L6.84455987,293.810658 Z M27.2579188,262.159742 C25.4967663,273.34946 27.2579188,287.896093 28.3786522,305.160229 C29.8996476,305.000376 31.2605382,304.920449 32.461324,304.760596 C30.5400667,302.442726 30.3799619,299.085811 30.3799619,296.208455 C30.4600143,284.539177 32.6214288,273.029753 34.3025289,261.440403 C35.9035767,249.930979 36.9442577,238.021922 34.7027909,226.592425 C34.3825813,224.913967 33.9823194,223.235509 33.1017431,221.796831 C32.2211668,220.358153 30.7001715,219.239182 29.0190713,219.079328 C27.8182855,218.999402 26.6975521,219.478961 25.7369234,220.1983 C28.2185474,234.185447 29.0190713,248.252521 27.2579188,262.159742 L27.2579188,262.159742 Z" id="Shape" fill="#44476B" fill-rule="nonzero"></path>
                            <path d="M13.88917,218.519843 C17.0112131,222.835877 28.3786522,225.473453 37.4245721,226.432572 C38.5453055,226.512498 39.5859865,226.672351 40.5466152,226.672351 C43.7487107,226.912131 46.4704919,226.912131 48.0715396,226.672351 C49.5124826,226.432572 50.3130065,225.393526 50.7933208,223.635142 C51.9140543,219.239182 50.5531637,210.846893 49.592535,203.253871 C49.2723255,200.936 49.0321683,198.698057 48.8720635,196.619966 L48.8720635,196.140407 C48.7920111,194.541876 48.8720635,192.543712 49.1922731,190.385695 C50.4731113,180.394876 54.5557831,165.768316 52.474421,157.855587 C51.8340019,155.537717 50.7132684,153.779333 48.7920111,152.900141 L23.4954566,139.632332 C23.4954566,139.632332 19.4928372,137.953875 16.2106893,140.191818 C15.8904797,140.431598 15.5702701,140.671378 15.2500606,140.991084 C14.1293272,142.030129 13.1686985,143.708587 12.5282794,146.106383 C11.6477031,149.463299 11.6477031,154.178965 12.1280175,159.454118 C13.0085937,169.924497 15.330113,182.632819 14.1293272,190.785328 C12.1280175,203.014091 9.2461315,212.045792 13.88917,218.519843 L13.88917,218.519843 Z" id="Path" fill="#8A99FD" fill-rule="nonzero"></path>
                            <path d="M21.1739373,131.719603 L26.3773425,143.548734 L27.0177616,145.706751 C29.7395428,147.704914 34.3825813,147.784841 39.4258818,147.385208 L39.7460913,147.385208 C39.6660389,147.065502 39.6660389,146.665869 39.6660389,146.346163 C39.5859865,145.387044 39.6660389,144.507852 39.9862485,143.788513 C39.9862485,143.788513 40.0663009,143.708587 40.306458,143.62866 C40.7867723,143.468807 41.6673486,143.149101 42.9481868,142.669541 C44.9494965,141.950202 46.4704919,134.037473 44.3891298,130.360852 C42.3077677,126.68423 42.6279773,119.570767 42.6279773,119.570767 L33.1017431,118.531722 L21.1739373,131.719603 L21.1739373,131.719603 Z" id="Path" fill="#D4D8F4" fill-rule="nonzero"></path>
                            <path d="M27.8182855,141.31079 C27.8182855,141.470643 30.7001715,146.985575 30.7001715,146.985575 L39.1056722,147.225355 L39.4258818,147.385208 L39.7460913,147.385208 C39.6660389,147.065502 39.6660389,146.665869 39.6660389,146.346163 C39.5859865,145.387044 39.6660389,144.507852 39.9862485,143.788513 C39.9862485,143.788513 40.0663009,143.708587 40.306458,143.62866 C39.9061961,143.62866 34.7027909,143.86844 31.9009573,142.269909 C28.8589665,140.591451 27.8182855,141.150937 27.8182855,141.31079 L27.8182855,141.31079 Z" id="Path" fill="#C6CCF5" fill-rule="nonzero"></path>
                            <path d="M24.5361376,140.191818 L24.5361376,140.751304 C24.4560852,142.189982 24.61619,143.62866 25.2566091,144.907485 C29.0190713,152.100875 42.3878201,149.543225 42.3878201,149.543225 C41.2670867,148.584107 40.306458,146.825722 39.7460913,145.546897 C31.1804858,147.545061 26.9377092,141.710423 26.5374473,140.991084 L26.6975521,140.591451 L24.5361376,140.191818 Z" id="Path" fill="#FFFFFF" fill-rule="nonzero"></path>
                            <path d="M52.7946305,168.325966 C52.3143162,173.041633 51.3536876,178.476638 50.1529017,184.391203 C42.8681344,170.404056 46.5505443,154.338819 46.5505443,154.338819 C48.2316444,159.933677 50.1529017,164.729271 52.7946305,168.325966 Z" id="Path" fill="#5AD4F2" fill-rule="nonzero"></path>
                            <path d="M20.1332563,134.277253 C23.4154042,144.108219 30.1398048,146.585943 33.8222146,145.387044 C37.5046244,144.188146 37.1043625,141.55057 36.383891,137.074683 C35.6634195,133.078355 40.0663009,131.240044 42.3077677,133.477988 C42.6279773,133.87762 43.2683964,133.717767 43.4285011,133.238208 C43.8287631,132.119236 44.0689203,130.360852 42.5479249,128.842247 C42.4678725,128.762321 42.3878201,128.682394 42.3878201,128.602468 C41.1069819,127.243716 41.5872962,125.085699 43.2683964,124.046654 C44.8694441,123.007609 47.1909634,120.769665 44.8694441,117.812383 C42.7080297,115.09488 36.1437338,113.736128 30.1398048,114.935027 C23.2552994,116.293778 18.4521561,122.448123 19.1726276,129.48166 C19.1726276,130.840411 19.4928372,132.518869 20.1332563,134.277253 L20.1332563,134.277253 Z" id="Path" fill="#1D1F43" fill-rule="nonzero"></path>
                            <path d="M13.88917,218.519843 C17.0112131,222.835877 28.3786522,225.473453 37.4245721,226.432572 C38.5453055,226.512498 39.5859865,226.672351 40.5466152,226.672351 C43.7487107,226.912131 46.4704919,226.912131 48.0715396,226.672351 C49.5124826,226.432572 50.3130065,225.393526 50.7933208,223.635142 C50.7933208,223.635142 50.7132684,223.635142 50.7132684,223.555216 C49.6725874,223.075656 48.4718016,222.915803 47.3510682,222.835877 C39.7460913,222.51617 31.420643,224.434408 25.0965043,220.1983 C21.0138325,217.480797 18.8524181,212.765131 17.7316846,207.969537 C14.929851,195.500995 18.9324704,182.552893 18.5322085,169.764644 C18.4521561,167.206994 18.211999,164.649344 17.9718418,162.171621 C17.4915275,156.896468 16.9311607,151.621316 16.4508464,146.42609 C16.2907416,144.507852 16.0505845,142.589615 15.0899558,140.991084 C13.9692224,142.030129 13.0085937,143.708587 12.3681746,146.106383 C11.4875984,149.463299 11.4875984,154.178965 11.9679127,159.454118 C12.848489,169.924497 15.1700082,182.632819 13.9692224,190.785328 C12.1280175,203.014091 9.2461315,212.045792 13.88917,218.519843 L13.88917,218.519843 Z" id="Path" fill="#5AD4F2" fill-rule="nonzero"></path>
                            <path d="M88.4179432,145.227191 C88.4179432,145.227191 92.9008769,147.385208 90.7394624,149.783005 C87.3772621,153.539553 80.4927568,155.93735 78.9717614,154.178965 C77.450766,152.420581 81.6134902,149.463299 82.2539093,147.704914 C82.8943284,145.94653 82.8943284,143.948366 83.7749047,143.708587 C84.5754285,143.468807 85.2959,143.788513 84.6554809,145.466971 C84.5754285,145.546897 84.7355333,145.626824 84.8155857,145.546897 C86.0163715,144.188146 89.4586242,140.511524 90.8195148,141.630496 C91.7801435,142.429762 88.4179432,145.227191 88.4179432,145.227191 Z" id="Path" fill="#D4D8F4" fill-rule="nonzero"></path>
                            <path d="M80.1725472,160.57309 L85.7762144,154.658525 C87.0570526,152.340655 82.1738569,147.465135 80.8930187,148.664033 L75.7696659,153.699406 L80.1725472,160.57309 L80.1725472,160.57309 Z" id="Path" fill="#FFFFFF" fill-rule="nonzero"></path>
                            <path d="M50.2329541,166.647508 C54.2355735,169.365011 63.201441,174.240531 64.8024887,173.840898 C71.7670465,172.002587 84.8956381,155.93735 85.1357953,155.537717 C86.4966859,153.13992 81.6134902,147.864768 80.2525996,149.063666 L64.242122,161.612135 C64.242122,161.612135 54.3956783,155.537717 49.0321683,153.13992 C43.4285011,151.381536 39.5059341,159.294265 50.2329541,166.647508 L50.2329541,166.647508 Z" id="Path" fill="#8A99FD" fill-rule="nonzero"></path>
                            <polygon id="Path" fill="url(#linearGradient-8)" fill-rule="nonzero" points="255.727434 44.2000251 255.727434 49.9547371 246.281252 49.9547371 246.2012 44.2799517"></polygon>
                            <g id="Group" stroke-width="1" fill="none" fill-rule="evenodd" transform="translate(241.318004, 39.184634)">
                                <path d="M9.9264961,2.93730091 L9.9264961,7.89274735 C9.9264961,8.13252702 9.76639133,8.37230668 9.44618178,8.5321598 L6.08398148,10.4503971 C5.44356238,10.7701033 4.40288134,10.7701033 3.84251462,10.4503971 L0.480314328,8.5321598 C0.160104776,8.37230668 0,8.13252702 0,7.89274735 L0,2.93730091 L9.9264961,2.93730091 L9.9264961,2.93730091 Z" id="Path" fill="#566AEF" fill-rule="nonzero"></path>
                                <path d="M9.44618178,2.21796191 C10.0866009,2.61759469 10.0866009,3.17708058 9.44618178,3.4967868 L6.08398148,5.41502413 C5.44356238,5.81465691 4.48293372,5.81465691 3.84251462,5.41502413 L0.480314328,3.4967868 C-0.160104776,3.09715402 -0.160104776,2.53766814 0.480314328,2.21796191 L3.84251462,0.299724583 C4.48293372,-0.0999081943 5.44356238,-0.0999081943 6.08398148,0.299724583 L9.44618178,2.21796191 Z" id="Path" fill="#7587FF" fill-rule="nonzero"></path>
                            </g>
                            <polygon id="Path" fill="url(#linearGradient-9)" fill-rule="nonzero" points="80.8930187 104.464648 80.8930187 111.018626 70.0058939 111.018626 70.0058939 104.464648"></polygon>
                            <g id="Group" stroke-width="1" fill="none" fill-rule="evenodd" transform="translate(64.322174, 98.729918)">
                                <path d="M11.4474915,3.25700713 L11.4474915,9.01171913 C11.4474915,9.25149879 11.2873867,9.57120502 10.8871248,9.73105813 L7.04461014,11.9690017 C6.32413865,12.3686345 5.12335283,12.3686345 4.40288134,11.9690017 L0.560366715,9.73105813 C0.160104776,9.49127846 0,9.25149879 0,9.01171913 L0,3.25700713 L11.4474915,3.25700713 Z" id="Path" fill="#566AEF" fill-rule="nonzero"></path>
                                <path d="M10.8871248,2.53766814 C11.6075962,2.93730091 11.6075962,3.65663991 10.8871248,4.05627269 L7.04461014,6.29421624 C6.32413865,6.69384902 5.20340522,6.69384902 4.48293372,6.29421624 L0.640419103,4.05627269 C-0.0800523879,3.65663991 -0.0800523879,2.93730091 0.640419103,2.53766814 L4.48293372,0.299724583 C5.20340522,-0.0999081943 6.32413865,-0.0999081943 7.04461014,0.299724583 L10.8871248,2.53766814 Z" id="Path" fill="#7587FF" fill-rule="nonzero"></path>
                            </g>
                        </g>
                    </g>
                    <g id="Group" mask="url(#mask-2)">
                        <g transform="translate(383.471129, 196.352035) rotate(-20.000000) translate(-383.471129, -196.352035) translate(316.227639, 143.755628)">
                            <polygon id="Path" fill="#333BA8" fill-rule="nonzero" points="48.0567061 84.4893209 31.8392483 78.7013178 32.3446324 99.4048098 48.5620902 105.192813"></polygon>
                            <path d="M124.21353,5.80571601 C124.24643,5.80359891 124.279138,5.80239602 124.311942,5.80066385 C124.360138,5.7981137 124.40843,5.79522675 124.456434,5.79349458 C124.491546,5.79224357 124.526371,5.79190676 124.561387,5.79108879 C124.606986,5.79003024 124.652632,5.78858676 124.698039,5.78824995 C124.733921,5.78796125 124.769659,5.78863488 124.805445,5.78882734 C124.849601,5.78906792 124.893901,5.7890198 124.937912,5.78993401 C124.974275,5.79070386 125.010398,5.79238791 125.046618,5.79359081 C125.089811,5.7950824 125.133101,5.7962853 125.176102,5.79845052 C125.212658,5.80027892 125.249021,5.80292529 125.285433,5.80523485 C125.327809,5.80792934 125.370233,5.81033514 125.412416,5.81370325 C125.449164,5.8165902 125.485672,5.82029512 125.522324,5.82366323 C125.563882,5.8275125 125.605489,5.83116931 125.646902,5.83564409 C125.683554,5.83958959 125.720014,5.84430495 125.756522,5.84873161 C125.797551,5.85373566 125.838628,5.85854725 125.879465,5.86412869 C125.915924,5.86913274 125.952144,5.87485853 125.988459,5.88034374 C126.029007,5.88645445 126.069603,5.89246894 126.110007,5.89920516 C126.146274,5.90526776 126.182301,5.91200398 126.218424,5.91849963 C126.258443,5.92571701 126.29851,5.93288628 126.338288,5.94068105 C126.374411,5.9478022 126.41039,5.95550074 126.44632,5.96310305 C126.485714,5.97142709 126.525156,5.97965491 126.564309,5.98850823 C126.600336,5.99668793 126.636074,6.0053969 126.671908,6.01405776 C126.710725,6.02344036 126.749541,6.03272672 126.788165,6.04268671 C126.823855,6.05187684 126.859305,6.06159625 126.894803,6.07121942 C126.933186,6.08166057 126.971618,6.09210171 127.009761,6.10307213 C127.04497,6.11322458 127.079987,6.12385819 127.115051,6.13444368 C127.153098,6.14594338 127.191097,6.15749119 127.228903,6.16956827 C127.263776,6.18068304 127.298456,6.19227897 127.333136,6.20387489 C127.383785,6.22081168 127.434482,6.23760412 127.484746,6.25555135 L127.484746,6.25531077 C127.484746,6.25535888 127.484746,6.25545511 127.484746,6.25550323 L111.267336,0.467500041 C111.240689,0.458021213 111.214042,0.448638617 111.187298,0.439400369 C111.163633,0.431268786 111.13968,0.423858941 111.115918,0.415919821 C111.081094,0.404275779 111.04627,0.392631737 111.011253,0.381468853 C110.973591,0.369439884 110.935785,0.357940189 110.89793,0.346488611 C110.862769,0.335855002 110.827656,0.325173277 110.792255,0.314972711 C110.754016,0.303954175 110.715584,0.29351303 110.677152,0.283071885 C110.641751,0.273448709 110.606398,0.263777418 110.570852,0.254635402 C110.532035,0.244675415 110.493026,0.235292819 110.454018,0.225862107 C110.418376,0.217297481 110.382782,0.208588507 110.346947,0.200456924 C110.307746,0.191555487 110.268256,0.183327672 110.228863,0.175003625 C110.192788,0.167401317 110.156809,0.15965466 110.12059,0.152533511 C110.081004,0.144786854 110.041225,0.137665705 110.001495,0.130496439 C109.965132,0.123904564 109.928816,0.117168341 109.892309,0.111057625 C109.852097,0.104369518 109.811645,0.098403149 109.771242,0.0922443167 C109.73483,0.0867591067 109.698467,0.0810333174 109.661911,0.0759811503 C109.620978,0.0703997086 109.579853,0.065540005 109.538775,0.0605359538 C109.502316,0.0561092931 109.466049,0.0513939371 109.429445,0.0474484352 C109.387935,0.0429736587 109.346136,0.039316852 109.304385,0.0354675819 C109.267878,0.0320994705 109.231466,0.0284426638 109.194862,0.0255075953 C109.152727,0.0221875998 109.110255,0.0197336901 109.067927,0.017039201 C109.031467,0.0147296389 108.995152,0.0120832657 108.958548,0.0102548623 C108.915547,0.00808964787 108.872257,0.00688675094 108.829063,0.00539515876 C108.792796,0.00414414595 108.756673,0.00250820614 108.72031,0.00173835211 C108.676299,0.000776034566 108.632047,0.00087226632 108.587891,0.000631686936 C108.552105,0.000439223428 108.516367,-0.000186282973 108.480485,-1.59288859e-12 C108.43503,0.000391107551 108.389384,0.00178646798 108.343785,0.00284501728 C108.308817,0.00366298719 108.273944,0.00399979832 108.238879,0.00525081113 C108.190828,0.0069829827 108.142536,0.00986993532 108.09434,0.0124200768 C108.061536,0.0141522484 108.028828,0.0153551453 107.995976,0.0174722439 C107.941815,0.0209847029 107.887463,0.0257000588 107.833062,0.0302710672 C107.805837,0.0325325134 107.778709,0.0342165691 107.751437,0.0367667105 C107.669667,0.044417135 107.587705,0.0531742246 107.505454,0.063182327 L9.07435555,12.0527447 L25.2917653,17.8407479 L123.723008,5.85137798 C123.805211,5.84136988 123.887221,5.83256467 123.968991,5.82496236 C123.996263,5.82241222 124.023391,5.82077628 124.050616,5.81846672 C124.104969,5.81394383 124.159369,5.80922847 124.21353,5.80571601 Z" id="Path" fill="#4055E2" fill-rule="nonzero"></path>
                            <path d="M17.4093217,77.9288655 L16.2207767,29.2390623 L0.00336698287,23.4510591 L1.19191194,72.1408623 C1.29450872,76.3441691 3.67775539,79.6777332 7.00216999,80.8642227 L23.2195797,86.6522258 C19.8951651,85.4657364 17.5119184,82.1322204 17.4093217,77.9288655 Z" id="Path" fill="#333BA8" fill-rule="nonzero"></path>
                            <path d="M16.2184679,28.8651057 C16.2189489,28.8024588 16.2195742,28.7397638 16.2211134,28.6772613 C16.2220273,28.6406933 16.2234703,28.6041733 16.2247209,28.5676534 C16.2266449,28.5109247 16.2286651,28.454148 16.2314067,28.3975637 C16.2332826,28.3590229 16.2355914,28.3205783 16.2378521,28.2821337 C16.2410267,28.2275222 16.2444899,28.1729107 16.2484341,28.1184435 C16.2512719,28.0794216 16.2543503,28.0404958 16.2576211,28.0015701 C16.2620944,27.9474878 16.2669525,27.8935499 16.2721953,27.8396601 C16.2759471,27.8010231 16.2797951,27.762386 16.2839317,27.7238452 C16.2897518,27.6693299 16.296149,27.6150071 16.3027387,27.5606843 C16.3073082,27.5232501 16.3117333,27.4857679 16.3166395,27.4484299 C16.324095,27.3917494 16.3322238,27.3352614 16.340497,27.2788215 C16.3455475,27.2442743 16.3503093,27.209679 16.3556484,27.175228 C16.365557,27.1115707 16.3763313,27.048154 16.38725,26.9847372 C16.3918675,26.9578405 16.3961003,26.9307512 16.4009103,26.9039026 C16.4170718,26.8138778 16.4341953,26.7241898 16.452377,26.6347905 C16.4553111,26.6205 16.45863,26.6063059 16.4615641,26.5920154 C16.4771484,26.5169547 16.4932618,26.4419901 16.5102891,26.3674105 C16.5173598,26.3364239 16.5250077,26.3056297 16.5323188,26.2747394 C16.5459791,26.2170484 16.5596876,26.1594056 16.5742137,26.1020515 C16.5830641,26.066975 16.5924435,26.032091 16.6016306,25.9971107 C16.6155314,25.9440389 16.6296246,25.8910152 16.644295,25.838184 C16.6543479,25.8019046 16.6647855,25.7657215 16.6751751,25.7295384 C16.6898936,25.6783431 16.7049007,25.6271959 16.7202927,25.5762412 C16.7313556,25.5396731 16.7426109,25.5032013 16.7540106,25.4668257 C16.7698354,25.4161596 16.7860931,25.3656861 16.8025913,25.3153088 C16.8143277,25.2795587 16.826064,25.2437605 16.8381371,25.2081547 C16.8555011,25.1568632 16.8733942,25.1057641 16.8914316,25.0547613 C16.9035046,25.0206471 16.9154334,24.9864367 16.9278431,24.9524669 C16.9474197,24.8987215 16.9676216,24.8453129 16.9879678,24.7919043 C16.9997522,24.7609176 17.0112481,24.7297385 17.0233211,24.6988963 C17.0408775,24.6538117 17.0591554,24.6090639 17.077289,24.5642199 C17.0914304,24.5292397 17.1052831,24.4941151 17.119713,24.4593273 C17.1387124,24.413521 17.1584814,24.3680996 17.178058,24.3226301 C17.1924399,24.2892377 17.2064369,24.2556528 17.2211073,24.2224047 C17.2421269,24.1746738 17.2639642,24.127424 17.2856091,24.0800299 C17.2996061,24.0494763 17.3131702,24.0187302 17.3273597,23.9882729 C17.3517462,23.9360672 17.3769505,23.8843426 17.4020586,23.8325699 C17.4142759,23.8073572 17.4261085,23.7818558 17.4385182,23.7567393 C17.4763246,23.6801388 17.5149487,23.6040195 17.5543424,23.5283813 C17.5569879,23.5233292 17.5597777,23.5183732 17.5624232,23.5133211 C17.5992676,23.4427832 17.6366892,23.3726783 17.6749285,23.3030547 C17.6889736,23.277457 17.703596,23.2521962 17.7178335,23.2266948 C17.745106,23.1778572 17.7722824,23.1289714 17.8001803,23.0805669 C17.8172557,23.0510237 17.8348602,23.0219136 17.8521761,22.9925148 C17.8779095,22.9487775 17.9035466,22.9048958 17.9298091,22.8615434 C17.9639118,22.8052959 17.9986399,22.7495296 18.0336084,22.6939558 C18.0410157,22.6822155 18.0481826,22.6702828 18.0556381,22.6585425 C18.0983507,22.5911803 18.1417847,22.5243473 18.1858441,22.4579955 C18.1988791,22.4383161 18.2123471,22.4189736 18.2254783,22.3994385 C18.256695,22.3529586 18.288008,22.3065267 18.3198981,22.2606242 C18.3373583,22.2354596 18.3552033,22.2105837 18.372856,22.1855634 C18.4010905,22.1455791 18.429277,22.1055948 18.4579925,22.0659955 C18.4773286,22.0393393 18.4969533,22.0129237 18.5164818,21.9864599 C18.5440911,21.9490258 18.5717484,21.9116879 18.5997425,21.8746386 C18.6202811,21.8475013 18.6410602,21.8205564 18.6617912,21.7936115 C18.6894966,21.7576689 18.7172983,21.7218226 18.7453886,21.6862169 C18.7667449,21.6591757 18.7881973,21.6323271 18.809746,21.6055265 C18.8379325,21.5704501 18.8662632,21.5356142 18.8948345,21.5009226 C18.9166718,21.4743627 18.9386534,21.4478989 18.9607312,21.4215795 C18.9895429,21.3872729 19.0185952,21.3532069 19.0477436,21.3192371 C19.0703505,21.2929177 19.0930055,21.2665983 19.1158529,21.2404714 C19.1455304,21.2065497 19.1755447,21.1729648 19.205607,21.139428 C19.2283101,21.114071 19.2509651,21.0886658 19.2739087,21.0635493 C19.3052216,21.0292908 19.3368713,20.9954172 19.3685209,20.9615918 C19.3906949,20.9379187 19.4127727,20.9140533 19.4351391,20.8905727 C19.4692899,20.8547264 19.5038736,20.8194093 19.5384573,20.7840442 C19.5588997,20.7631619 19.5791016,20.7420871 19.5996883,20.7213973 C19.6411984,20.6796808 19.6831895,20.6385418 19.7252768,20.5974989 C19.7394181,20.5837378 19.7533189,20.5696879 19.7675084,20.556023 C19.8239775,20.501604 19.8809757,20.4478104 19.938503,20.3947386 C19.9527405,20.381603 19.9672666,20.3688042 19.9816004,20.3557647 C20.0250345,20.3161173 20.0685166,20.276566 20.1125279,20.2376403 C20.1344614,20.2182496 20.1567316,20.19934 20.1788094,20.1801418 C20.2151728,20.1485297 20.2515362,20.1169175 20.2882844,20.0858347 C20.3286401,20.0516724 20.3694768,20.0181838 20.4103135,19.9846951 C20.4345558,19.9647751 20.4585575,19.9445665 20.4829441,19.9249352 C20.5318135,19.8855283 20.58126,19.8468912 20.6307547,19.8084466 C20.6475415,19.7954072 20.6640878,19.7819348 20.6809708,19.7689916 C20.7475409,19.7178926 20.8146881,19.6676596 20.8823645,19.6182446 C20.899007,19.6061194 20.9159381,19.5944272 20.9326287,19.5823983 C20.9839031,19.5454453 21.0352255,19.5086366 21.0871252,19.4726941 C21.1127623,19.4549393 21.1387362,19.4377619 21.1645658,19.4201996 C21.2079036,19.3907046 21.2512415,19.3612096 21.2950604,19.3324363 C21.3239202,19.3134786 21.3530687,19.2950502 21.382121,19.2763813 C21.4233905,19.2498213 21.4647082,19.2232614 21.5063145,19.1973269 C21.5367136,19.1783692 21.5674493,19.1599409 21.5980408,19.14132 C21.6388293,19.1165403 21.6796179,19.0918088 21.7207432,19.0676546 C21.7522005,19.04913 21.7838982,19.0309903 21.8155478,19.0128506 C21.8562883,18.9895144 21.8970769,18.9662745 21.938106,18.9435156 C21.9745175,18.923307 22.0111215,18.903387 22.0477735,18.8836595 C22.0766333,18.8681181 22.1055413,18.8525766 22.1345454,18.8372758 C22.1744201,18.8163454 22.2144872,18.7958961 22.2546505,18.775495 C22.2829813,18.7611084 22.3112158,18.7466255 22.3396909,18.7325275 C22.3820668,18.7115009 22.4247793,18.6910998 22.4674438,18.6707467 C22.4938987,18.6580923 22.5202093,18.6452453 22.5468084,18.6328314 C22.5958702,18.6099764 22.6452686,18.5878431 22.6947152,18.5658541 C22.7152057,18.5567602 22.7355038,18.5472814 22.7560424,18.5382837 C22.8261718,18.5076339 22.8965898,18.4778021 22.9674408,18.4489325 C22.9799467,18.4438323 22.992597,18.4390688 23.005151,18.4340166 C23.0635922,18.4104398 23.1222258,18.387248 23.181148,18.364826 C23.2064485,18.3552028 23.2319413,18.346157 23.2572899,18.3367744 C23.3036581,18.3195971 23.3500743,18.3025159 23.3967311,18.2860603 C23.4258796,18.2758116 23.4552204,18.2660441 23.4844651,18.2560841 C23.5277548,18.2413125 23.5710927,18.2266372 23.614623,18.2125392 C23.6454068,18.2025793 23.6763831,18.1930042 23.7073112,18.1833329 C23.7497352,18.170101 23.7922073,18.1569654 23.8348718,18.144359 C23.8664733,18.1349764 23.8981711,18.1259307 23.9298688,18.1168849 C23.9722447,18.1048559 24.0147168,18.0930194 24.057285,18.0816159 C24.0893195,18.0730032 24.121402,18.0645829 24.1535327,18.056307 C24.1963414,18.0453366 24.2392464,18.0347511 24.2822476,18.024358 C24.3142339,18.0166595 24.3462684,18.008961 24.3783509,18.0015511 C24.4222179,17.9914949 24.4661811,17.981968 24.5102404,17.9725372 C24.5416977,17.965801 24.5730587,17.9589686 24.6045641,17.9525692 C24.6504993,17.9432828 24.696627,17.9346219 24.7427547,17.9260573 C24.7725765,17.920524 24.8023022,17.914702 24.8322202,17.9094573 C24.8832059,17.9005078 24.9343841,17.8923762 24.9856584,17.8843408 C25.0108627,17.8803472 25.0360189,17.8759687 25.0613193,17.8722156 C25.1378941,17.8608122 25.2147095,17.8503229 25.2917653,17.8409403 L9.07435555,12.0529371 C8.99729974,12.0623197 8.92048443,12.0728571 8.84390962,12.0842606 C8.81860915,12.0880136 8.79350108,12.0923922 8.7682487,12.0963377 C8.71702247,12.1044211 8.66579623,12.1125046 8.61481049,12.1214541 C8.58494054,12.1266988 8.55516679,12.1325208 8.52534494,12.1380541 C8.47921727,12.1466187 8.43308961,12.1552796 8.38715434,12.164566 C8.355649,12.1709654 8.32423986,12.1777978 8.29283072,12.1844859 C8.24877135,12.1939167 8.20480817,12.2034436 8.16094119,12.2134998 C8.12885866,12.2208615 8.09687232,12.2285601 8.06483788,12.2363067 C8.0218367,12.2466998 7.97893172,12.2572853 7.93607484,12.2683038 C7.9039442,12.2765316 7.87186166,12.285 7.83982723,12.2936127 C7.79725894,12.3050643 7.75478686,12.3168527 7.71241097,12.3288817 C7.68066514,12.3379275 7.6489674,12.3469733 7.61736586,12.3563559 C7.57474947,12.3689622 7.53232549,12.3820497 7.48990151,12.3952816 C7.45892526,12.4049529 7.42794902,12.4145279 7.39706898,12.424536 C7.3535387,12.438634 7.31024892,12.4533093 7.26700724,12.4680328 C7.23771449,12.4779928 7.20837364,12.4877603 7.17917709,12.4980571 C7.13256842,12.5144646 7.08624836,12.5315458 7.03997639,12.548675 C7.01453162,12.5581057 6.98894255,12.5671515 6.96354588,12.5767747 C6.90467178,12.5991486 6.84608628,12.6223404 6.78769318,12.6459172 C6.77513914,12.6509694 6.76244081,12.6557328 6.74988677,12.6608331 C6.67908393,12.6897508 6.60861779,12.7195826 6.53853644,12.7501843 C6.51799785,12.7591339 6.49769975,12.7686127 6.47725736,12.7777547 C6.42781081,12.7997918 6.37836426,12.8219251 6.32930251,12.8447801 C6.30275144,12.8571459 6.27648898,12.8699928 6.25003411,12.8825992 C6.20732153,12.9030003 6.16456085,12.9234015 6.12213686,12.9444281 C6.09375801,12.9584779 6.06557155,12.9729608 6.03733699,12.9872993 C5.9971256,13.0077005 5.9570104,13.0281978 5.91708761,13.0491764 C5.88808345,13.0644291 5.8592236,13.0799705 5.83036375,13.095512 C5.80756446,13.1077815 5.78452468,13.1196661 5.7618216,13.1321281 C5.74796887,13.1397304 5.73440473,13.1478139 5.72060011,13.1554643 C5.67961911,13.1782231 5.63887862,13.2013669 5.59818623,13.2247031 C5.56648849,13.2428909 5.53479075,13.2610306 5.50323731,13.2795552 C5.46206392,13.3037575 5.42122723,13.3285371 5.38039054,13.3533168 C5.34984719,13.3718896 5.31925575,13.3902698 5.2889048,13.4091794 C5.24715421,13.4351619 5.20574032,13.4618181 5.16432643,13.4884262 C5.13541848,13.5069989 5.10641433,13.5253311 5.07765068,13.5442406 C5.0336875,13.5731583 4.99015722,13.6027976 4.94662694,13.6323889 C4.92103787,13.6498069 4.8952083,13.6668399 4.86976353,13.6844984 C4.8177677,13.7205372 4.76630096,13.757394 4.71493042,13.7944432 C4.698336,13.806424 4.68150109,13.81802 4.66495477,13.830097 C4.59727842,13.8795121 4.53013116,13.929745 4.4635611,13.9808441 C4.44667808,13.9937873 4.43013177,14.0072116 4.41329685,14.0202991 C4.36380221,14.0587918 4.31435566,14.0973807 4.26548631,14.1367876 C4.24105163,14.156467 4.21704985,14.1766757 4.19280758,14.1965957 C4.15197088,14.2301324 4.11113419,14.263573 4.0707785,14.2977353 C4.06510272,14.3025468 4.05928265,14.307166 4.05360688,14.3119776 C4.02258254,14.3383451 3.9920392,14.3653381 3.96135155,14.3920424 C3.93927376,14.4112406 3.91700358,14.4301983 3.89507009,14.449589 C3.85105881,14.4884666 3.80752853,14.5280178 3.76409446,14.5676653 C3.74980883,14.5807528 3.7352827,14.5935036 3.72099707,14.6066392 C3.66346977,14.6597591 3.60647156,14.7135045 3.55000244,14.7679236 C3.53590922,14.7815404 3.52205649,14.795494 3.50801136,14.8091589 C3.46577977,14.850298 3.42369249,14.8915333 3.3820862,14.9333941 C3.3616919,14.9538915 3.3417305,14.9747738 3.32148051,14.9954155 C3.28665628,15.0310212 3.25188016,15.0665307 3.21748884,15.1026176 C3.19526675,15.1259538 3.17338136,15.1496269 3.15135167,15.1731555 C3.11955773,15.2071734 3.0877157,15.2411914 3.05625846,15.2755942 C3.03345917,15.3005664 3.01094849,15.3258272 2.9883416,15.3510399 C2.95813495,15.3846729 2.92802451,15.4184503 2.89820266,15.4525163 C2.87540338,15.478547 2.85279649,15.5048183 2.83023771,15.5311376 C2.81330659,15.550817 2.79608688,15.5702077 2.77930006,15.5900315 C2.76717893,15.6043219 2.75539449,15.6189491 2.74332145,15.6333358 C2.72114746,15.6597995 2.69906967,15.6863595 2.67713618,15.7130638 C2.64870923,15.747611 2.62047467,15.7823025 2.59238442,15.8172347 C2.57073953,15.8441795 2.54914274,15.8711725 2.52773834,15.8983099 C2.49969619,15.9338194 2.47194263,15.9696176 2.44433337,16.005464 C2.42355427,16.032457 2.40277518,16.0594019 2.38218848,16.0865873 C2.35419443,16.1236366 2.32653707,16.1610226 2.29892781,16.1984086 C2.27939931,16.2248724 2.25977461,16.2512399 2.24043851,16.2779442 C2.21177105,16.3175435 2.18353649,16.3575278 2.15535004,16.3975602 C2.13769743,16.4225805 2.11985242,16.4474083 2.10239221,16.472621 C2.07055017,16.5185717 2.03923723,16.5650035 2.00797239,16.6114353 C1.99484115,16.6310185 1.98137322,16.6503611 1.96833819,16.6699923 C1.92427881,16.7363441 1.88089283,16.8031771 1.83813215,16.8705393 C1.83062859,16.8823758 1.82341363,16.8944048 1.81595816,16.9062413 C1.78339463,16.9579659 1.75092729,17.0097867 1.71913336,17.0620886 C1.71687267,17.0658417 1.71470818,17.0696428 1.71239939,17.073444 C1.68594453,17.117037 1.66021116,17.1611592 1.63428539,17.2051371 C1.61711378,17.2342953 1.59960546,17.2632611 1.58267435,17.2925637 C1.55472839,17.3409201 1.52760013,17.389854 1.50032757,17.4386916 C1.48609004,17.464193 1.47146772,17.4894538 1.45737449,17.5150515 C1.41918328,17.5846752 1.38171357,17.65478 1.34486916,17.7253179 C1.34222367,17.73037 1.33943389,17.735326 1.3367884,17.7404263 C1.2973466,17.8161125 1.2587706,17.89228 1.22091609,17.9689286 C1.20884305,17.9934195 1.19729911,18.0182473 1.18537037,18.0428345 C1.1599737,18.0951846 1.13448083,18.1475347 1.10980566,18.2003178 C1.09556813,18.230727 1.082004,18.2614731 1.06805507,18.2920748 C1.04641018,18.3394689 1.02457289,18.3867668 1.0035533,18.4344497 C0.988882871,18.4676977 0.974837742,18.5012345 0.960504015,18.5346269 C0.940927414,18.5801445 0.921206515,18.6255178 0.902159012,18.6713241 C0.887680985,18.70616 0.873828256,18.7412365 0.859686928,18.7762167 C0.84155332,18.8210607 0.823323513,18.8658085 0.805719002,18.9108931 C0.803169715,18.917485 0.800379929,18.9240287 0.797782542,18.9306687 C0.78835499,18.9549191 0.779648935,18.9795544 0.770365682,19.0039011 C0.750067585,19.0572616 0.729817588,19.1106702 0.710240988,19.1644156 C0.697831251,19.1984336 0.685902511,19.2326921 0.673829473,19.2668543 C0.655792065,19.3177609 0.637995155,19.3687156 0.620631143,19.4199109 C0.608510005,19.4557092 0.596725565,19.4916036 0.584941125,19.527498 C0.568442909,19.5777791 0.552281391,19.6281565 0.536456572,19.6787262 C0.52505693,19.7151981 0.513801587,19.7516699 0.502738643,19.7882861 C0.487346721,19.8391446 0.472435797,19.8901474 0.457717272,19.9412465 C0.447231525,19.977574 0.436793878,20.0139014 0.42664483,20.0504214 C0.412070604,20.103012 0.398073575,20.1557952 0.384220846,20.2086264 C0.374985693,20.2437991 0.365558141,20.2789237 0.356659686,20.3142407 C0.342229759,20.3713062 0.328617529,20.4286122 0.315005298,20.4859663 C0.307597936,20.5171935 0.299901975,20.5482764 0.292735111,20.5795998 C0.275755898,20.6540832 0.259690579,20.7288553 0.244106258,20.8038198 C0.241124074,20.8182064 0.237805191,20.8324487 0.234871105,20.8468835 C0.216641298,20.9362347 0.199517785,21.0259708 0.183356267,21.1159956 C0.178498192,21.1428443 0.174313513,21.1699335 0.169647837,21.1968303 C0.158729193,21.2601989 0.147954848,21.3236156 0.138046298,21.387321 C0.132707225,21.421772 0.12789725,21.4563673 0.122894875,21.4909145 C0.114621717,21.5474026 0.106492858,21.6038425 0.0990373963,21.660523 C0.0941312212,21.6978609 0.0897060438,21.7353432 0.085136567,21.7727773 C0.0785469005,21.8271001 0.072149633,21.8814711 0.0663295626,21.9359383 C0.0621929837,21.9745272 0.0583450033,22.0131161 0.0545932223,22.0518013 C0.049350349,22.1056911 0.0444922737,22.159629 0.0400189965,22.2137112 C0.0367963129,22.252637 0.0336698288,22.2915627 0.0308800429,22.3305847 C0.0268877632,22.3850519 0.0234726806,22.4396634 0.0202980968,22.4942749 C0.0180374083,22.5327195 0.01572862,22.5711641 0.0138527295,22.6097049 C0.0111110435,22.6663373 0.00904275401,22.7230659 0.00716686355,22.7797945 C0.00591626991,22.8163145 0.00442517749,22.8528344 0.0035593819,22.8894025 C0.00206828948,22.951905 0.00144299266,23.0145519 0.000913895351,23.0772469 C0.000673396575,23.1081373 -4.37031014e-13,23.1389795 -4.37031014e-13,23.1699662 C-4.37031014e-13,23.2635515 0.000961995107,23.3573294 0.00327078336,23.4512516 L16.2206805,29.2392548 C16.2183717,29.1453326 16.2174097,29.0515547 16.2174097,28.9579693 C16.217554,28.9268384 16.2182274,28.8959961 16.2184679,28.8651057 Z" id="Path" fill="#394BC6" fill-rule="nonzero"></path>
                            <path d="M134.483549,63.6687149 L133.295004,14.9789117 C133.156621,9.31076519 128.871221,5.22433187 123.723008,5.8514261 L25.2917653,17.8407479 C20.1436003,18.467794 16.0824418,23.5709639 16.2207767,29.2390623 L17.4093217,77.9288655 C17.5476566,83.5969639 21.8331524,87.6834453 26.9813173,87.0563511 L48.056658,84.4892728 L48.5620421,105.192765 L66.8609687,82.1988608 L125.41256,75.0669812 C130.560773,74.4399832 134.621884,69.3368133 134.483549,63.6687149 Z" id="Path" fill="#475EFD" fill-rule="nonzero"></path>
                            <g id="Group" stroke-width="1" fill="none" fill-rule="evenodd" transform="translate(29.368989, 24.895527)">
                                <path d="M48.7430896,33.1653783 C50.2299492,32.9842701 51.4682293,34.1645526 51.5082002,35.8018397 C51.5481711,37.438838 50.3746333,38.9132047 48.8877737,39.0942648 L19.3317727,42.6943428 C17.844913,42.875451 16.6068253,41.6948798 16.5669025,40.0578333 C16.5269316,38.4205463 17.700229,36.9465164 19.1870405,36.7654082 L48.7430896,33.1653783 Z M73.6287005,20.075454 C75.1160412,19.8942977 76.3540808,21.0748688 76.3940517,22.7119153 C76.4340226,24.3492024 75.2607252,25.8232323 73.7734327,26.0043886 L19.0870411,32.6654543 C17.6001815,32.8465625 16.3620938,31.6662319 16.322171,30.0289449 C16.2822001,28.3919465 17.4554974,26.9176279 18.942309,26.7365197 L73.6287005,20.075454 Z M73.3839209,10.046758 C74.8712134,9.86560169 76.1093011,11.0459323 76.149272,12.6837005 C76.1892429,14.3206989 75.0159456,15.7950174 73.528653,15.9761737 L18.8422615,22.6372395 C17.3554018,22.8183477 16.1173141,21.6377765 16.0773432,20.00073 C16.0373723,18.3629137 17.2106697,16.8888838 18.6974812,16.7077756 L73.3839209,10.046758 Z M18.5974337,12.608351 C17.1105741,12.7894592 15.8724864,11.6091286 15.8325155,9.97184154 C15.7925446,8.33484317 16.9658419,6.86052459 18.4527015,6.67941643 L73.1391412,0.0183506502 C74.6264818,-0.162805627 75.8645215,1.01776553 75.9044923,2.65481201 C75.9444632,4.29209908 74.7711659,5.76612897 73.2838734,5.94728524 L18.5974337,12.608351 Z" id="Shape" fill="#FFFFFF" fill-rule="nonzero"></path>
                                <path d="M88.358962,29.8563532 L92.4711544,28.8546288 C91.5313333,33.1747128 89.7132106,38.8013834 88.5000867,41.2518769 L85.9690776,41.860206 C86.8947093,38.7947434 87.9479977,33.5108022 88.358962,29.8563532 Z M81.6495752,30.6735533 L85.7175639,29.6772178 C84.8219465,33.9919128 82.9596202,39.6239725 81.79171,42.0689808 L79.2601718,42.6773579 C80.1857554,39.6118954 81.2390438,34.3280022 81.6495752,30.6735533 Z M6.75359045,13.0352351 C7.6492079,8.72054004 9.51153422,3.08790302 10.6794444,0.642942849 L13.2109345,0.0339883103 C12.2853509,3.1005575 11.2321106,8.38449876 10.8215792,12.0383703 L6.75359045,13.0352351 Z M3.97053861,1.4601429 L6.50202873,0.851188365 C5.57697424,3.91770944 4.52320479,9.20169881 4.11219239,12.8556185 L-1.19584983e-12,13.8578722 C0.939243923,9.53783633 2.75789567,3.91058829 3.97053861,1.4601429 Z" id="Shape" fill="#FFFFFF" fill-rule="nonzero"></path>
                            </g>
                        </g>
                    </g>
                </g>
            </g>
        </g>
    </g>
</svg>