<?xml version="1.0" encoding="UTF-8"?>
<svg width="74px" height="74px" viewBox="0 0 74 74" version="1.1" xmlns="http://www.w3.org/2000/svg" xmlns:xlink="http://www.w3.org/1999/xlink">
    <title>noun-report-4934426</title>
    <g id="Page-1" stroke="none" stroke-width="1" fill="none" fill-rule="evenodd">
        <g id="HOME" transform="translate(-962.000000, -2743.000000)" fill="#FFFFFF" fill-rule="nonzero">
            <g id="Group-20" transform="translate(120.000000, 2466.000000)">
                <g id="noun-report-4934426" transform="translate(842.000000, 277.000000)">
                    <path d="M70.0357143,0 L3.96428571,0 C1.77856735,0 0,1.77856735 0,3.96428571 L0,70.0357143 C0,72.2214327 1.77856735,74 3.96428571,74 L70.0357143,74 C72.2214327,74 74,72.2214327 74,70.0357143 L74,3.96428571 C74,1.77856735 72.2214327,0 70.0357143,0 Z M71.3571429,70.0357143 C71.3571429,70.763678 70.7648559,71.3571429 70.0357143,71.3571429 L3.96428571,71.3571429 C3.23514408,71.3571429 2.64285714,70.763678 2.64285714,70.0357143 L2.64285714,3.96428571 C2.64285714,3.23632204 3.23514408,2.64285714 3.96428571,2.64285714 L70.0357143,2.64285714 C70.7648559,2.64285714 71.3571429,3.23632204 71.3571429,3.96428571 L71.3571429,70.0357143 Z M51.5372245,5.28571429 C50.8063159,5.28571429 50.2157959,5.87800122 50.2157959,6.60714286 L50.2157959,22.4642857 C50.2157959,23.1934273 50.8063159,23.7857143 51.5372245,23.7857143 L67.3943673,23.7857143 C68.1252759,23.7857143 68.7157959,23.1934273 68.7157959,22.4642857 C68.7157959,12.9924367 61.0096776,5.28571429 51.5372245,5.28571429 Z M52.8586531,7.99577551 C59.8197878,8.62758449 65.3750735,14.1811184 66.0057347,21.1428571 L52.8586531,21.1428571 L52.8586531,7.99577551 Z M47.5729388,43.6063878 C57.0447878,43.6063878 64.7515102,35.8996653 64.7515102,26.4278163 C64.7515102,25.6986747 64.1609902,25.1063878 63.4300816,25.1063878 L48.8943673,25.1063878 L48.8943673,10.5706735 C48.8943673,9.84153184 48.3038473,9.2492449 47.5729388,9.2492449 C38.1010898,9.2492449 30.3943673,16.9559673 30.3943673,26.4278163 C30.3943673,35.8996653 38.1010898,43.6063878 47.5729388,43.6063878 Z M46.2515102,11.951 L46.2515102,26.4270612 C46.2515102,27.1562029 46.8420302,27.7484898 47.5729388,27.7484898 L62.049,27.7484898 C61.3788469,35.1472816 55.1422327,40.9627755 47.5729388,40.9627755 C39.5582857,40.9627755 33.0372245,34.4417143 33.0372245,26.4270612 C33.0372245,18.8565592 38.8527184,12.6204735 46.2515102,11.951 Z M5.28571429,7.92706122 C5.28571429,7.19791959 5.87623429,6.60563265 6.60714286,6.60563265 L26.4285714,6.60563265 C27.15948,6.60563265 27.75,7.19791959 27.75,7.92706122 C27.75,8.65620286 27.15948,9.2484898 26.4285714,9.2484898 L6.60714286,9.2484898 C5.87623429,9.2484898 5.28571429,8.65620286 5.28571429,7.92706122 Z M5.28571429,14.5342041 C5.28571429,13.8050624 5.87623429,13.2127755 6.60714286,13.2127755 L26.4285714,13.2127755 C27.15948,13.2127755 27.75,13.8050624 27.75,14.5342041 C27.75,15.2633457 27.15948,15.8556327 26.4285714,15.8556327 L6.60714286,15.8556327 C5.87623429,15.8556327 5.28571429,15.2633457 5.28571429,14.5342041 Z M5.28571429,21.1413469 C5.28571429,20.4122053 5.87623429,19.8199184 6.60714286,19.8199184 L26.4285714,19.8199184 C27.15948,19.8199184 27.75,20.4122053 27.75,21.1413469 C27.75,21.8704886 27.15948,22.4627755 26.4285714,22.4627755 L6.60714286,22.4627755 C5.87623429,22.4627755 5.28571429,21.8704886 5.28571429,21.1413469 Z M5.28571429,27.7484898 C5.28571429,27.0193482 5.87623429,26.4270612 6.60714286,26.4270612 L26.4285714,26.4270612 C27.15948,26.4270612 27.75,27.0193482 27.75,27.7484898 C27.75,28.4776314 27.15948,29.0699184 26.4285714,29.0699184 L6.60714286,29.0699184 C5.87623429,29.0699184 5.28571429,28.4776314 5.28571429,27.7484898 Z M5.28571429,34.3556327 C5.28571429,33.626491 5.87623429,33.0342041 6.60714286,33.0342041 L26.4300816,33.0342041 C27.1609902,33.0342041 27.7515102,33.626491 27.7515102,34.3556327 C27.7515102,35.0847743 27.1609902,35.6770612 26.4300816,35.6770612 L6.60714286,35.6770612 C5.87623429,35.6770612 5.28571429,35.0847743 5.28571429,34.3556327 Z M35.6785714,67.3913469 C35.6785714,68.1204886 35.0880514,68.7127755 34.3571429,68.7127755 L6.60714286,68.7127755 C5.87623429,68.7127755 5.28571429,68.1204886 5.28571429,67.3913469 L5.28571429,42.2842041 C5.28571429,41.5550624 5.87623429,40.9627755 6.60714286,40.9627755 C7.33805143,40.9627755 7.92857143,41.5550624 7.92857143,42.2842041 L7.92857143,66.0699184 L34.3571429,66.0699184 C35.0880514,66.0699184 35.6785714,66.6622053 35.6785714,67.3913469 Z M30.4324245,49.891102 L30.5964176,49.2345106 L23.3999931,56.4309351 C22.9958927,56.8326796 22.3823722,56.9288343 21.874989,56.6792882 L17.5986951,54.5414433 L11.648189,62.8729371 C11.3898082,63.2333776 10.9851188,63.426291 10.5715796,63.426291 C10.3061159,63.426291 10.0376922,63.3454709 9.80527184,63.1802939 C9.21180694,62.756138 9.0731702,61.9302527 9.49851918,61.3367878 L16.1044539,52.0867878 C16.4825939,51.5582163 17.1869682,51.3812355 17.7709641,51.6732486 L22.2053763,53.8908322 L28.7305151,47.3656935 L28.0721567,47.5308796 C27.3624816,47.7078604 26.6474906,47.2760327 26.4705853,46.5687135 C26.2924265,45.8602163 26.7230763,45.1428694 27.4327514,44.9659339 L32.7184657,43.6445053 C33.1650331,43.5347799 33.6446437,43.6645623 33.9726449,43.9919731 C34.3018241,44.3211522 34.4339669,44.7966249 34.3201127,45.2473302 L32.9975061,50.5330445 C32.8453078,51.1330033 32.3067086,51.5335547 31.7155996,51.5335547 C31.6088236,51.5335547 31.5014527,51.5217562 31.3929143,51.4940296 C30.6861841,51.3170488 30.2555494,50.5991129 30.4325151,49.89125 L30.4324245,49.891102 Z M68.716098,48.8905918 C68.716098,49.6197335 68.125578,50.2120204 67.3946694,50.2120204 L43.6074449,50.2120204 C42.8765363,50.2120204 42.2860163,49.6197335 42.2860163,48.8905918 C42.2860163,48.1614502 42.8765363,47.5691633 43.6074449,47.5691633 L67.3946694,47.5691633 C68.125578,47.5691633 68.716098,48.1614502 68.716098,48.8905918 Z M68.716098,58.1405918 C68.716098,58.8697335 68.125578,59.4620204 67.3946694,59.4620204 L43.6074449,59.4620204 C42.8765363,59.4620204 42.2860163,58.8697335 42.2860163,58.1405918 C42.2860163,57.4114502 42.8765363,56.8191633 43.6074449,56.8191633 L67.3946694,56.8191633 C68.125578,56.8191633 68.716098,57.4114502 68.716098,58.1405918 Z M68.716098,67.3905918 C68.716098,68.1197335 68.125578,68.7120204 67.3946694,68.7120204 L43.6074449,68.7120204 C42.8765363,68.7120204 42.2860163,68.1197335 42.2860163,67.3905918 C42.2860163,66.6614502 42.8765363,66.0691633 43.6074449,66.0691633 L67.3946694,66.0691633 C68.125578,66.0691633 68.716098,66.6614502 68.716098,67.3905918 Z" id="Shape"></path>
                </g>
            </g>
        </g>
    </g>
</svg>