<?xml version="1.0" encoding="UTF-8"?>
<svg width="64px" height="64px" viewBox="0 0 64 64" version="1.1" xmlns="http://www.w3.org/2000/svg" xmlns:xlink="http://www.w3.org/1999/xlink">
    <title>Group 427319329</title>
    <defs>
        <rect id="path-1" x="0" y="0" width="64" height="64"></rect>
    </defs>
    <g id="Page-1" stroke="none" stroke-width="1" fill="none" fill-rule="evenodd">
        <g id="HOME" transform="translate(-927.000000, -5329.000000)">
            <g id="Group-9" transform="translate(146.000000, 5026.000000)">
                <g id="Group-427319351" transform="translate(0.000000, 263.000000)">
                    <g id="chat" transform="translate(781.000000, 40.000000)">
                        <mask id="mask-2" fill="white">
                            <use xlink:href="#path-1"></use>
                        </mask>
                        <g id="chat-(Background/Mask)"></g>
                        <path d="M29.6687591,31.668759 C29.6687591,32.7732513 30.5642668,33.668759 31.668759,33.668759 C32.7732513,33.668759 33.668759,32.7732513 33.668759,31.668759 C33.668759,30.5642668 32.7732513,29.6687591 31.668759,29.6687591 C30.5642668,29.6687591 29.6687591,30.5642668 29.6687591,31.668759 Z M21.668758,31.668759 C21.668758,32.7732513 22.5642657,33.668759 23.6687579,33.668759 C24.7732502,33.668759 25.6687579,32.7732513 25.6687579,31.668759 C25.6687579,30.5642668 24.7732502,29.6687591 23.6687579,29.6687591 C22.5642657,29.6687591 21.668758,30.5642668 21.668758,31.668759 Z M37.6687589,31.668759 C37.6687589,32.7732513 38.5642666,33.668759 39.6687588,33.668759 C40.7732511,33.668759 41.6687588,32.7732513 41.6687588,31.668759 C41.6687588,30.5642668 40.7732511,29.6687591 39.6687588,29.6687591 C38.5642666,29.6687591 37.6687589,30.5642668 37.6687589,31.668759 Z M13.7761801,11.8927166 C2.8547936,21.774064 2.0115319,38.6379946 11.8927166,49.5593811 L5.39271699,56.0593809 C5.142717,56.3093809 5.00225475,56.6484107 5.00225475,57.0019265 C5.00209182,57.7382544 5.5990974,58.3354225 6.33542535,58.3354225 L31.668759,58.3354225 C38.2805753,58.3354225 44.6565491,55.8787168 49.5593811,51.4428446 C60.4809303,41.5614971 61.3240292,24.6975665 51.4428446,13.7761801 C41.5614971,2.8547936 24.6975665,2.0115319 13.7761801,11.8927166 Z M9.55401251,55.6687559 L14.697404,50.5255269 C14.6975667,50.5253642 14.6977295,50.5252013 14.6977295,50.5250386 C15.2182372,50.0043679 15.2180746,49.160455 14.697404,48.6401102 C10.1977296,44.1404356 7.66940958,38.0377367 7.66875865,31.6741301 C7.66729385,18.4207125 18.4099703,7.67559454 31.6633879,7.67412974 C44.9166428,7.67266494 55.66192,18.4153414 55.6633848,31.668759 C55.6648499,44.9220139 44.9221767,55.6672911 31.668759,55.6687559 L9.55401251,55.6687559 Z" id="Vector" fill="#00DAB2" mask="url(#mask-2)"></path>
                    </g>
                </g>
            </g>
        </g>
    </g>
</svg>