<?xml version="1.0" encoding="UTF-8"?>
<svg width="48px" height="61px" viewBox="0 0 48 61" version="1.1" xmlns="http://www.w3.org/2000/svg" xmlns:xlink="http://www.w3.org/1999/xlink">
    <title>shield-check</title>
    <g id="Page-1" stroke="none" stroke-width="1" fill="none" fill-rule="evenodd">
        <g id="HOME" transform="translate(-1175.000000, -5331.000000)" fill="#00DAB2" fill-rule="nonzero">
            <g id="Group-9" transform="translate(146.000000, 5026.000000)">
                <g id="Group-427319351" transform="translate(0.000000, 263.000000)">
                    <g id="shield-check" transform="translate(1029.000000, 42.000000)">
                        <path d="M29.6892699,24.3463401 L20.5486449,33.4759662 L16.8103635,29.7391823 C16.2273558,29.1683864 15.2940672,29.1683864 14.7108762,29.7391823 C14.1192624,30.318391 14.109741,31.2668526 14.6894529,31.857766 L19.4882811,36.6538418 C19.7695311,36.9349418 20.1509397,37.092775 20.5488279,37.092775 C20.9465331,37.092775 21.3279417,36.9349421 21.6091917,36.6538418 L31.8317868,26.4433431 C32.4114987,25.8524293 32.4019773,24.9037853 31.8103635,24.3247594 C31.2187497,23.7457334 30.2691651,23.7552436 29.6892699,24.3463401 Z M47.9683227,5.78952801 C47.7985839,4.97933075 47.0035401,4.45992638 46.1923827,4.62928155 C38.7846678,6.19170046 31.0601805,4.61391875 24.8613279,0.272138648 C24.3446043,-0.0907128826 23.6553954,-0.0907128826 23.1386715,0.272138648 C16.9400025,4.61410153 9.2153319,6.19206602 1.8076173,4.62928125 C1.7069091,4.60824917 1.60437,4.59764173 1.5014649,4.59764173 C0.6727296,4.59709308 0.0005493,5.26756318 0,6.09531814 L0,30.1225173 C0.0049437,38.9207489 4.2456666,47.180007 11.3964843,52.3179022 L23.1269529,60.7190821 C23.3812866,60.9019707 23.6867064,61 24,61 C24.3132936,61 24.6187134,60.9021535 24.8730468,60.7192646 L36.6035154,52.3179016 C43.7543334,47.180007 47.9950563,38.9207486 48,30.122517 L48,6.09531814 C48,5.99253451 47.98938,5.89011674 47.9683227,5.78952801 Z M45,30.122517 C44.9967042,37.9550955 41.2225341,45.3083227 34.8574218,49.8832862 L24,57.658255 L13.1425782,49.8832862 C6.7774659,45.3081399 3.0032958,37.9550958 3,30.122517 L3,7.88616513 C10.3253175,8.97910862 17.7974853,7.34975231 24,3.30662959 C30.203064,7.34865501 37.6748658,8.97801132 45,7.88616513 L45,30.122517 Z" id="Shape"></path>
                    </g>
                </g>
            </g>
        </g>
    </g>
</svg>