<svg width="78" height="78" viewBox="0 0 78 78" fill="none" xmlns="http://www.w3.org/2000/svg">
<path fill-rule="evenodd" clip-rule="evenodd" d="M22.6598 23.0272C20.7591 20.0932 19.9502 16.5978 20.3775 13.109C21.3773 4.94225 28.835 -0.889341 37.002 0.111866C38.8304 0.335812 40.5678 0.883185 42.1503 1.71666C49.1834 1.75627 55.2624 6.73854 56.6662 13.6769C57.3634 17.1217 56.8285 20.6695 55.1618 23.7424L57.607 28.6569C57.8279 29.1008 57.7578 29.6345 57.4295 30.0062C57.1015 30.3779 56.5808 30.5141 56.1125 30.3498L51.0134 28.5617C49.2457 29.8915 47.181 30.82 45.0004 31.2614C44.0214 31.4596 43.0309 31.5572 42.044 31.5572C39.6376 31.5572 37.252 30.9739 35.1023 29.8437C34.5312 29.8402 33.955 29.8047 33.3746 29.7335C31.1665 29.4633 29.0358 28.6976 27.1699 27.5093L22.2254 29.6884C21.7711 29.8885 21.2417 29.7936 20.8857 29.4483C20.5295 29.1031 20.4182 28.5766 20.6037 28.1169L22.6598 23.0272ZM34.4205 63.9558C34.4205 60.9362 33.2414 58.0941 31.1002 55.9527C28.9589 53.8117 26.1167 52.6324 23.0971 52.6322H16.9581C16.6649 52.6322 16.3866 52.5154 16.1743 52.3032C15.962 52.0908 15.845 51.8125 15.845 51.5192V43.9172L15.8608 43.9274C16.4575 44.3104 17.1481 44.5144 17.858 44.5175L30.3115 44.5199C32.3581 44.5199 34.0234 42.8548 34.0234 40.808C34.0234 38.7613 32.3583 37.096 30.3115 37.096H18.9474L15.845 35.0941V34.5377C15.845 32.9939 15.1503 31.6092 14.0569 30.6743C15.7597 29.5791 16.8908 27.6688 16.8908 25.4982C16.8908 22.1064 14.1316 19.3472 10.7398 19.3472C7.348 19.3472 4.58859 22.1064 4.58859 25.4982C4.58859 27.667 5.71777 29.5756 7.41792 30.6712C6.32745 31.6061 5.63443 32.992 5.63443 34.5377V51.5194C5.63443 54.539 6.81373 57.3811 8.95507 59.5225C11.0961 61.6635 13.9385 62.8427 16.9581 62.8427H23.0971C23.3902 62.8427 23.6686 62.9595 23.8809 63.172C24.0933 63.3844 24.2103 63.6627 24.2103 63.9558V76.7812C24.2103 77.4543 24.756 78 25.4291 78H33.2018C33.8749 78 34.4205 77.4543 34.4205 76.7812V63.9558ZM21.0131 67.2587C21.0131 67.9317 20.4674 68.4774 19.7943 68.4774H16.9581C12.4334 68.4774 8.17614 66.7122 4.97067 63.5069C1.76521 60.3016 0 56.0443 0 51.5194C0 50.8463 0.545695 50.3006 1.21875 50.3006C1.8918 50.3006 2.4375 50.8463 2.4375 51.5194C2.4375 55.3933 3.94921 59.0383 6.69414 61.7833C9.43922 64.5284 13.0842 66.0399 16.958 66.0399H19.7942C20.4674 66.0399 21.0131 66.5856 21.0131 67.2587ZM76.7812 50.3006C76.1082 50.3006 75.5625 50.8463 75.5625 51.5194C75.5625 55.3933 74.0508 59.0383 71.3057 61.7833C68.5608 64.5284 64.9158 66.0399 61.042 66.0399H58.2058C57.5328 66.0399 56.9871 66.5856 56.9871 67.2587C56.9871 67.9317 57.5328 68.4774 58.2058 68.4774H61.042C65.5668 68.4774 69.824 66.7122 73.0293 63.5069C76.2346 60.3016 78 56.0443 78 51.5194C78 50.8463 77.4543 50.3006 76.7812 50.3006ZM18.2291 39.5335L13.5313 36.5022C13.2486 36.3206 12.909 36.2597 12.5777 36.3319C12.2463 36.4042 11.9631 36.6012 11.78 36.8866C11.5969 37.1719 11.5356 37.5116 11.608 37.8427C11.6802 38.174 11.8772 38.4572 12.1625 38.6403L17.18 41.878C17.383 42.0082 17.6211 42.0787 17.8663 42.0801L30.3118 42.0826C31.0141 42.0826 31.5859 41.5108 31.5859 40.8082C31.5859 40.1054 31.0141 39.5337 30.3115 39.5337H18.2291V39.5335ZM10.7398 29.2119C8.69213 29.2119 7.02609 27.5459 7.02609 25.4982C7.02609 23.4505 8.69213 21.7847 10.7398 21.7847C12.7874 21.7847 14.4533 23.4505 14.4533 25.4982C14.4533 27.5459 12.7874 29.2119 10.7398 29.2119ZM31.9829 63.9558C31.9829 61.5872 31.0573 59.357 29.3764 57.6764C27.6958 55.9955 25.4656 55.0699 23.097 55.0699H16.958C16.0139 55.0699 15.1235 54.6994 14.4506 54.027C13.7778 53.3537 13.4073 52.4633 13.4073 51.5192V42.3444L10.8432 40.6898C10.0125 40.1566 9.43724 39.3292 9.22639 38.362C9.0154 37.3945 9.19379 36.4029 9.72867 35.5695C10.2636 34.7364 11.0908 34.1614 12.0582 33.9503C12.4806 33.8579 12.9078 33.8401 13.3244 33.8937C13.033 32.7399 11.9811 31.8816 10.728 31.8816C9.26357 31.8816 8.07193 33.0731 8.07193 34.5377V51.5194C8.07193 53.888 8.99757 56.1182 10.6784 57.7991C12.359 59.4797 14.5894 60.4053 16.958 60.4053H23.097C24.0411 60.4053 24.9317 60.7758 25.6044 61.4486C26.2772 62.1213 26.6477 63.0119 26.6477 63.956V75.5625H31.9829V63.9558ZM54.903 62.8428H61.042C64.0618 62.8428 66.9039 61.6637 69.0451 59.5228C71.1863 57.3816 72.3654 54.5393 72.3654 51.5195V34.5379C72.3654 32.9923 71.6724 31.6063 70.5821 30.6714C72.2822 29.5757 73.4113 27.667 73.4113 25.4984C73.4113 22.1066 70.652 19.3473 67.2602 19.3473C63.8684 19.3473 61.109 22.1066 61.109 25.4984C61.109 27.6691 62.2403 29.5794 63.9431 30.6744C62.8497 31.6092 62.155 32.9939 62.155 34.5379V35.0942L59.0526 37.0962H47.6885C45.6419 37.0962 43.9766 38.7613 43.9766 40.8082C43.9766 42.8548 45.6417 44.5201 47.6888 44.5201L60.1418 44.5176C60.852 44.5146 61.5426 44.3104 62.1416 43.9259L62.155 43.9172V51.5192C62.155 51.8123 62.0382 52.0908 61.826 52.303C61.6136 52.5154 61.3353 52.6324 61.042 52.6324H54.903C51.8834 52.6324 49.0413 53.8115 46.8999 55.9527C44.7587 58.0939 43.5796 60.9362 43.5796 63.9558V76.7812C43.5796 77.4543 44.1253 78 44.7984 78H52.5711C53.2441 78 53.7898 77.4543 53.7898 76.7812V63.956C53.7898 63.6629 53.9067 63.3845 54.119 63.1722C54.3314 62.9598 54.6097 62.8428 54.903 62.8428ZM63.5465 25.4982C63.5465 27.5459 65.2126 29.2119 67.2602 29.2119C69.3079 29.2119 70.9738 27.5459 70.9738 25.4982C70.9738 23.4505 69.3079 21.7847 67.2602 21.7847C65.2126 21.7847 63.5465 23.4505 63.5465 25.4982ZM66.3919 37.8425C66.3198 38.1739 66.1228 38.4571 65.8349 38.6419L60.8223 41.8763C60.6168 42.0081 60.3787 42.0786 60.1336 42.08L47.6885 42.0824C46.9859 42.0824 46.4141 41.5107 46.4141 40.808C46.4141 40.1053 46.9859 39.5335 47.6885 39.5335H59.7709L64.4661 36.5037C64.7516 36.3206 65.0908 36.2597 65.4222 36.3317C65.7534 36.4041 66.0368 36.6011 66.2199 36.8866C66.403 37.1717 66.4642 37.5113 66.3919 37.8425ZM54.903 60.4053H61.042C63.4106 60.4053 65.6408 59.4798 67.3215 57.799C69.0023 56.1183 69.9279 53.888 69.9279 51.5194V34.5377C69.9279 33.0732 68.7366 31.8816 67.2719 31.8816C66.0188 31.8816 64.9668 32.74 64.6754 33.8939C65.0921 33.8401 65.5191 33.8581 65.9417 33.9503C66.9091 34.1614 67.7363 34.7364 68.2712 35.5697C68.8061 36.4029 68.9845 37.3946 68.7735 38.362C68.5625 39.3294 67.9874 40.1566 67.154 40.6915L64.5925 42.3444V51.5194C64.5925 52.4631 64.2222 53.3536 63.5497 54.0266C62.8764 54.6996 61.9859 55.0701 61.0419 55.0701H54.9029C52.5342 55.0701 50.3041 55.9957 48.6234 57.6765C46.9426 59.3572 46.017 61.5873 46.017 63.956V75.5625H51.3522V63.9558C51.3522 63.0119 51.7227 62.1215 52.3951 61.4486C53.0682 60.7757 53.9586 60.4053 54.903 60.4053ZM57.1595 48.5683C57.1595 49.2414 56.6138 49.7871 55.9408 49.7871H40.2188V76.7812C40.2188 77.4543 39.6731 78 39 78C38.3269 78 37.7812 77.4543 37.7812 76.7812V49.7871H22.0591C21.386 49.7871 20.8403 49.2414 20.8403 48.5683C20.8403 47.8953 21.386 47.3496 22.0591 47.3496H55.9408C56.6138 47.3496 57.1595 47.8953 57.1595 48.5683ZM46.9435 5.7323C46.7098 5.4334 46.4662 5.14486 46.2135 4.86699C50.2465 6.29811 53.3861 9.75663 54.2772 14.1604C54.8981 17.2287 54.3511 20.3942 52.7368 23.074C52.5217 23.4307 52.5039 23.8727 52.6896 24.2456L54.0884 27.057L51.1877 26.0398C50.7838 25.8984 50.3353 25.9789 50.0059 26.252C48.4324 27.5581 46.5343 28.464 44.517 28.8723C43.0779 29.1633 41.6093 29.195 40.1787 28.9791C45.3322 27.1399 49.2901 22.527 49.9991 16.7363C50.4835 12.7802 49.3984 8.87212 46.9435 5.7323ZM25.0255 22.1722C25.2676 22.5113 25.3197 22.9506 25.1637 23.3369L23.9876 26.2484L26.8003 25.0087C26.9577 24.9394 27.1251 24.9051 27.2918 24.9051C27.5398 24.9051 27.786 24.9807 27.995 25.1285C29.6654 26.3082 31.6282 27.064 33.671 27.3143C34.1835 27.3771 34.6934 27.4075 35.1973 27.4075C41.4101 27.408 46.8059 22.7601 47.5798 16.44C47.9851 13.13 47.0773 9.86053 45.0235 7.2335C42.9696 4.60648 40.0157 2.93648 36.7057 2.53124C33.3963 2.12677 30.1263 3.03383 27.4993 5.08758C24.8722 7.14149 23.2023 10.0954 22.7969 13.4054C22.4163 16.5126 23.2077 19.6261 25.0255 22.1722ZM42.5071 14.9226C42.5071 15.7639 41.8249 16.4461 40.9837 16.4461C40.1421 16.4461 39.4602 15.764 39.4602 14.9226C39.4602 14.0812 40.1423 13.3992 40.9837 13.3992C41.8251 13.3992 42.5071 14.0814 42.5071 14.9226ZM35.2168 16.4461C36.0582 16.4461 36.7403 15.7639 36.7403 14.9226C36.7403 14.0814 36.0581 13.3992 35.2168 13.3992C34.3755 13.3992 33.6934 14.0812 33.6934 14.9226C33.6934 15.764 34.3755 16.4461 35.2168 16.4461ZM31.002 14.9226C31.002 15.7639 30.3199 16.4461 29.4785 16.4461C28.6371 16.4461 27.9551 15.7639 27.9551 14.9226C27.9551 14.0814 28.6373 13.3992 29.4785 13.3992C30.3199 13.3992 31.002 14.0814 31.002 14.9226Z" fill="url(#paint0_linear_0_4189)"/>
<defs>
<linearGradient id="paint0_linear_0_4189" x1="58.2618" y1="100.571" x2="108.574" y2="25.1563" gradientUnits="userSpaceOnUse">
<stop stop-color="#0518C2"/>
<stop offset="1" stop-color="#FF882A"/>
</linearGradient>
</defs>
</svg>
