<?xml version="1.0" encoding="UTF-8"?>
<svg width="78px" height="78px" viewBox="0 0 78 78" version="1.1" xmlns="http://www.w3.org/2000/svg" xmlns:xlink="http://www.w3.org/1999/xlink">
    <title>strategy</title>
    <g id="Page-1" stroke="none" stroke-width="1" fill="none" fill-rule="evenodd">
        <g id="HOME" transform="translate(-552.000000, -2748.000000)" fill="#FFFFFF" fill-rule="nonzero">
            <g id="Group-20" transform="translate(120.000000, 2466.000000)">
                <g id="Group-17" transform="translate(430.000000, 282.000000)">
                    <g id="strategy" transform="translate(2.000000, 0.000000)">
                        <path d="M76.7,0 L1.3,0 C0.582029825,0 0,0.582029825 0,1.3 L0,55.9 C0,56.6179702 0.582029825,57.2 1.3,57.2 L20.8,57.2 L20.8,76.7 C20.8,77.4179702 21.3820298,78 22.1,78 L40.3,78 C41.0179702,78 41.6,77.4179702 41.6,76.7 L41.6,62.9083 L46.8689,57.2 L76.7,57.2 C77.4179702,57.2 78,56.6179702 78,55.9 L78,1.3 C78,0.582029825 77.4179702,0 76.7,0 Z M39.3458,61.5173 C39.1235339,61.757517 39.0000489,62.0727288 39,62.4 L39,75.4 L23.4,75.4 L23.4,57.0037 C23.401433,55.6767672 24.4767672,54.601433 25.8037,54.6 L39,54.6 C39.2567232,54.5995939 39.5076491,54.5236379 39.7215,54.3816 L51.09,46.8 L52.9269,46.8 L39.3458,61.5173 Z M26,46.8 C26,43.9281193 28.3281193,41.6 31.2,41.6 C34.0718807,41.6 36.4,43.9281193 36.4,46.8 C36.4,49.6718807 34.0718807,52 31.2,52 C28.3281193,52 26,49.6718807 26,46.8 Z M75.4,54.6 L49.27,54.6 L56.8555,46.3827 C56.9498057,46.2790249 57.026245,46.1604123 57.0817,46.0317 C57.0973,45.9992 57.1025,45.9628 57.1155,45.9277 C57.1556513,45.8137292 57.1797163,45.6947168 57.187,45.5741 C57.187,45.5481 57.2013,45.526 57.2013,45.5 L57.2013,42.3969 C58.6134825,42.0368288 59.9673207,41.4778726 61.2222,40.7368 L63.4127,42.9273 C63.9203498,43.4347965 64.7432502,43.4347965 65.2509,42.9273 L68.9286,39.2496 C69.4360965,38.7419502 69.4360965,37.9190498 68.9286,37.4114 L66.7381,35.2209 C67.4787202,33.9659485 68.0372373,32.6121134 68.3969,31.2 L71.5,31.2 C72.2179702,31.2 72.8,30.6179702 72.8,29.9 L72.8,24.7 C72.8,23.9820298 72.2179702,23.4 71.5,23.4 L68.3969,23.4 C68.0368288,21.9878175 67.4778726,20.6339793 66.7368,19.3791 L68.9273,17.1886 C69.4347965,16.6809502 69.4347965,15.8580498 68.9273,15.3504 L65.2496,11.6727 C64.7419502,11.1652035 63.9190498,11.1652035 63.4114,11.6727 L61.2209,13.8632 C59.9660207,13.1221274 58.6121825,12.5631712 57.2,12.2031 L57.2,9.1 C57.2,8.38202983 56.6179702,7.8 55.9,7.8 L50.7,7.8 C49.9820298,7.8 49.4,8.38202983 49.4,9.1 L49.4,12.2031 C47.9878175,12.5631712 46.6339793,13.1221274 45.3791,13.8632 L43.1886,11.6727 C42.6809502,11.1652035 41.8580498,11.1652035 41.3504,11.6727 L37.6727,15.3504 L39.5122,17.1886 L42.2695,14.43 L44.2806,16.4385 C44.7237755,16.8819099 45.4202759,16.9458742 45.9368,16.5906 C47.4374808,15.5550912 49.1414121,14.8509177 50.9353,14.5249 C51.5519258,14.4114164 51.9996971,13.8739815 52,13.247 L52,10.4 L54.6,10.4 L54.6,13.247 C54.5996757,13.8744716 55.0475922,14.4126277 55.6647,14.5262 C57.4585879,14.8522177 59.1625192,15.5563912 60.6632,16.5919 C61.1797241,16.9471742 61.8762245,16.8832099 62.3194,16.4398 L64.3305,14.43 L66.17,16.2695 L64.1615,18.2806 C63.7180901,18.7237755 63.6541258,19.4202759 64.0094,19.9368 C65.0449088,21.4374808 65.7490823,23.1414121 66.0751,24.9353 C66.1885836,25.5519258 66.7260185,25.9996971 67.353,26 L70.2,26 L70.2,28.6 L67.353,28.6 C66.7255284,28.5996757 66.1873723,29.0475922 66.0738,29.6647 C65.7477823,31.4585879 65.0436088,33.1625192 64.0081,34.6632 C63.6528258,35.1797241 63.7167901,35.8762245 64.1602,36.3194 L66.17,38.3305 L64.3305,40.17 L62.3194,38.1615 C61.8762245,37.7180901 61.1797241,37.6541258 60.6632,38.0094 C59.1625192,39.0449088 57.4585879,39.7490823 55.6647,40.0751 C55.0480742,40.1885836 54.6003029,40.7260185 54.6,41.353 L54.6,44.2 L52,44.2 L52,41.353 C52.0003243,40.7255284 51.5524078,40.1873723 50.9353,40.0738 C49.1414121,39.7477823 47.4374808,39.0436088 45.9368,38.0081 C45.4202759,37.6528258 44.7237755,37.7167901 44.2806,38.1602 L42.2695,40.17 L39.5122,37.4127 L37.6727,39.2509 L41.3504,42.9286 C41.8580498,43.4360965 42.6809502,43.4360965 43.1886,42.9286 L45.3791,40.7381 C46.6340515,41.4787202 47.9878866,42.0372373 49.4,42.3969 L49.4,44.8045 L38.61,52 L36.998,52 C39.8125914,48.8720987 39.6388624,44.0755122 36.6053621,41.1594246 C33.5718618,38.243337 28.7721557,38.258987 25.7577362,41.1947946 C22.7433167,44.1306022 22.6008709,48.9282197 25.4358,52.0377 C23.7568171,52.1610957 22.2541328,53.1252203 21.4422,54.6 L2.6,54.6 L2.6,2.6 L75.4,2.6 L75.4,54.6 Z" id="Shape"></path>
                        <path d="M16.3193634,17.7562716 L28.7307213,30.118539 C29.0159342,32.0004708 30.6271273,33.4000238 32.5377667,33.4255058 C34.4484061,33.4509877 36.0966431,32.0949053 36.4323423,30.2212545 L44.9746148,23.8411907 C45.6239395,24.8447566 46.7011209,25.4945246 47.8948482,25.6027083 C49.0885755,25.7108921 50.2658036,25.2654343 51.0863079,24.3950744 L54.0403364,28.807941 C52.4451399,29.7930197 51.7797604,31.7695274 52.4562943,33.5133328 C53.1328283,35.2571382 54.9596769,36.2743844 56.8053988,35.9350495 C58.6511207,35.5957147 59.9929956,33.9959007 59.9999731,32.1264372 C60.0068964,30.2569736 58.6769538,28.6473046 56.8338057,28.2943634 L52.1214579,21.2537999 C51.8981683,19.3403625 50.3009068,17.8788514 48.3678645,17.8192225 C46.4348223,17.7595935 44.7498243,19.119856 44.4080887,21.015864 L35.8658163,27.3959277 C35.1754335,26.3252861 34.0012793,25.6605277 32.724505,25.6174448 C31.4477306,25.5743619 30.2311008,26.1584467 29.4695548,27.1800951 L19.2707812,17.01776 C20.7599624,15.9015786 21.2530659,13.8946839 20.4496972,12.2196593 C19.6463286,10.5446346 17.7690949,9.66561627 15.9615911,10.1180948 C14.1540873,10.5705733 12.9171587,12.2291703 13.0043316,14.0834827 C13.0915045,15.937795 14.478624,17.4740071 16.3206687,17.7562716 L16.3193634,17.7562716 Z M56.0819186,30.8193448 C56.8028487,30.8193448 57.3872781,31.4014626 57.3872781,32.1195413 C57.3872781,32.8376199 56.8028487,33.4197377 56.0819186,33.4197377 C55.3609885,33.4197377 54.7765591,32.8376199 54.7765591,32.1195413 C54.7765591,31.4014626 55.3609885,30.8193448 56.0819186,30.8193448 Z M48.2497617,20.4177736 C48.9706918,20.4177736 49.5551212,20.9998914 49.5551212,21.71797 C49.5551212,22.4360487 48.9706918,23.0181664 48.2497617,23.0181664 C47.5288316,23.0181664 46.9444022,22.4360487 46.9444022,21.71797 C46.9444022,20.9998914 47.5288316,20.4177736 48.2497617,20.4177736 Z M32.5854479,28.218952 C33.306378,28.218952 33.8908074,28.8010698 33.8908074,29.5191484 C33.8908074,30.2372271 33.306378,30.8193448 32.5854479,30.8193448 C31.8645178,30.8193448 31.2800884,30.2372271 31.2800884,29.5191484 C31.2800884,28.8010698 31.8645178,28.218952 32.5854479,28.218952 Z M16.9211341,12.6165952 C17.6420642,12.6165952 18.2264936,13.1987129 18.2264936,13.9167916 C18.2264936,14.6348702 17.6420642,15.216988 16.9211341,15.216988 C16.2002039,15.216988 15.6157746,14.6348702 15.6157746,13.9167916 C15.6157746,13.1987129 16.2002039,12.6165952 16.9211341,12.6165952 Z" id="Shape"></path>
                        <polygon id="Path" points="29.75 20 31.5 18.25 33.25 20 35 18.25 33.25 16.5 35 14.75 33.25 13 31.5 14.75 29.75 13 28 14.75 29.75 16.5 28 18.25"></polygon>
                        <polygon id="Path" points="46.25 29 44.5 30.75 42.75 29 41 30.75 42.75 32.5 41 34.25 42.75 36 44.5 34.25 46.25 36 48 34.25 46.25 32.5 48 30.75"></polygon>
                        <polygon id="Path" points="13.75 33 15.5 31.25 17.25 33 19 31.25 17.25 29.5 19 27.75 17.25 26 15.5 27.75 13.75 26 12 27.75 13.75 29.5 12 31.25"></polygon>
                    </g>
                </g>
            </g>
        </g>
    </g>
</svg>