<?xml version="1.0" encoding="UTF-8"?>
<svg width="40px" height="40px" viewBox="0 0 40 40" version="1.1" xmlns="http://www.w3.org/2000/svg" xmlns:xlink="http://www.w3.org/1999/xlink">
    <title>Group 5 Copy 2</title>
    <g id="Page-1" stroke="none" stroke-width="1" fill="none" fill-rule="evenodd">
        <g id="4-blog-detail" transform="translate(-216.000000, -1038.000000)">
            <g id="Group-5-Copy-2" transform="translate(216.000000, 1038.000000)">
                <circle id="Oval-Copy" stroke-opacity="0.1" stroke="#000000" cx="20" cy="20" r="19.5"></circle>
                <g id="facebook" transform="translate(14.000000, 11.000000)" fill="#2F2F2F" fill-rule="nonzero">
                    <path d="M10.6097735,0.140748409 C9.7039221,0.0441659706 8.79346695,-0.00277233181 7.88257331,0.000126461822 C4.86248416,0.000126461822 2.98588978,1.93782215 2.98588978,5.057672 L2.98588978,7.1755275 L0.448979781,7.1755275 C0.201142155,7.17536184 1.00766556e-07,7.37769345 1.00766556e-07,7.62740516 L1.00766556e-07,11.1117171 C-0.000164214665,11.3614288 0.200648906,11.5639261 0.448486532,11.5640917 L2.98588978,11.5640917 L2.98588978,18.5476253 C2.98572536,18.797337 3.18653848,19 3.43437611,19 L7.00653702,19 C7.25437465,19 7.45535218,18.7978339 7.4555166,18.5481222 L7.4555166,11.5640917 L9.98458921,11.5640917 C10.2101751,11.5640365 10.4007942,11.3954452 10.4300612,11.170031 L10.87641,7.68621612 C10.9084722,7.43860289 10.7352269,7.21164246 10.4894173,7.17933785 C10.4700156,7.17679767 10.4505042,7.17552759 10.4309381,7.17552759 L7.45551669,7.17552759 L7.45551669,5.40313785 C7.45551669,4.5257784 7.63089934,4.15910758 8.72002556,4.15910758 L10.5510204,4.15822401 C10.798858,4.15833448 10.9998356,3.95605805 11.0000001,3.70634634 L11.0000001,0.58958892 C11.0000001,0.362518021 10.8331672,0.170568041 10.6097735,0.140748409 Z M10.1020407,3.25347472 L8.72002547,3.2543583 C6.78204723,3.2543583 6.55755744,4.48071773 6.55755744,5.40313785 L6.55755744,7.62795742 C6.5574478,7.87761385 6.75820614,8.0801664 7.00604377,8.08027687 L9.92051973,8.08027687 L9.58992341,10.6593424 L7.00653702,10.6593424 C6.75869939,10.659232 6.55772186,10.8615084 6.55755744,11.1112201 L6.55755744,18.0952506 L3.88384893,18.0952506 L3.88384893,11.1117171 C3.88401335,10.8620054 3.68320023,10.6595081 3.43541747,10.6593424 L0.89795936,10.6593424 L0.89795936,8.08027687 L3.43486936,8.08027687 C3.68270698,8.08044253 3.88368452,7.87811092 3.88384893,7.62839921 L3.88384893,5.057672 C3.88384893,2.45740139 5.37893118,0.905014106 7.88257331,0.905014106 C8.78842473,0.905014106 9.60658477,0.954492583 10.1020407,0.997786284 L10.1020407,3.25347472 Z" id="Shape"></path>
                </g>
            </g>
        </g>
    </g>
</svg>