<svg width="12" height="21" viewBox="0 0 12 21" fill="none" xmlns="http://www.w3.org/2000/svg">
<path fill-rule="evenodd" clip-rule="evenodd" d="M4.02768 21H7.39722C7.96004 21 8.41804 20.5431 8.41804 19.9813V12.3959H10.8209C11.3837 12.3959 11.8415 11.9389 11.8415 11.3775L11.8428 8.12718C11.8428 7.7582 11.6415 7.41678 11.3177 7.23621C11.1676 7.15258 10.9929 7.1082 10.8127 7.1082H8.41804V5.8223C8.41804 5.40333 8.47438 5.2516 8.52174 5.19793C8.55047 5.16557 8.68484 5.05998 9.2125 5.05998L10.9427 5.05934C11.5054 5.05934 11.963 4.6024 11.963 4.04068V1.02283C11.963 0.462067 11.506 0.00512695 10.9441 0.00416563L8.37437 0C6.78833 0 5.44003 0.522148 4.47524 1.51021C3.51478 2.49378 3.00702 3.86684 3.00702 5.48071V7.10836H1.04116C0.478342 7.10836 0.0205078 7.5653 0.0205078 8.12702V11.3773C0.0205078 11.9389 0.478342 12.396 1.04116 12.396H3.00702V19.9813C3.00702 20.5431 3.46486 21 4.02768 21ZM7.18436 19.7689H4.24054V11.8449C4.24054 11.4698 3.93489 11.1647 3.55925 11.1647H1.25403V8.33947H3.55925C3.93489 8.33947 4.24054 8.03426 4.24054 7.65935V5.48071C4.24054 2.85956 5.8245 1.23111 8.37341 1.23111L10.7295 1.23495V3.82823L9.21218 3.82887C8.72931 3.82887 8.03661 3.88623 7.59708 4.38322C7.23332 4.79434 7.18436 5.34132 7.18436 5.8223V7.65935C7.18436 8.03442 7.49001 8.33947 7.86565 8.33947H10.6091L10.608 11.1647H7.86581C7.49017 11.1647 7.18436 11.4698 7.18436 11.8449V19.7689Z" fill="white"/>
</svg>
