<svg width="21" height="21" viewBox="0 0 21 21" fill="none" xmlns="http://www.w3.org/2000/svg">
<path fill-rule="evenodd" clip-rule="evenodd" d="M5.68451 0H15.3155C18.45 0 21 2.55002 21 5.68451V15.3157C21 18.45 18.45 21 15.3157 21H5.68451C2.55002 21 0 18.45 0 15.3157V5.68451C0 2.55002 2.55002 0 5.68451 0ZM15.3155 19.7689C17.7711 19.7689 19.7689 17.7711 19.7689 15.3157V5.68451C19.7689 3.22886 17.7711 1.23111 15.3157 1.23111H5.68451C3.22886 1.23111 1.23111 3.22886 1.23111 5.68451V15.3157C1.23111 17.7711 3.22886 19.7689 5.68451 19.7689H15.3155Z" fill="white"/>
<path fill-rule="evenodd" clip-rule="evenodd" d="M4.75781 10.4998C4.75781 7.33363 7.33363 4.75781 10.4998 4.75781C13.6661 4.75781 16.2419 7.33363 16.2419 10.4998C16.2419 13.6661 13.6661 16.2419 10.4998 16.2419C7.33363 16.2419 4.75781 13.6661 4.75781 10.4998ZM5.98892 10.4998C5.98892 12.9872 8.01263 15.0108 10.4998 15.0108C12.9872 15.0108 15.0108 12.9872 15.0108 10.4998C15.0108 8.01263 12.9872 5.98892 10.4998 5.98892C8.01263 5.98892 5.98892 8.01263 5.98892 10.4998Z" fill="white"/>
<path fill-rule="evenodd" clip-rule="evenodd" d="M14.6826 4.41545C14.6826 3.47994 15.4436 2.71875 16.3793 2.71875C17.315 2.71875 18.0762 3.47978 18.0762 4.41545C18.0762 5.35112 17.315 6.11231 16.3793 6.11231C15.4436 6.11231 14.6826 5.35112 14.6826 4.41545ZM15.9137 4.41545C15.9137 4.67212 16.1227 4.88104 16.3793 4.88104C16.6361 4.88104 16.8451 4.67212 16.8451 4.41545C16.8451 4.15862 16.6361 3.94986 16.3793 3.94986C16.1227 3.94986 15.9137 4.15862 15.9137 4.41545Z" fill="white"/>
</svg>
