<?xml version="1.0" encoding="UTF-8"?>
<svg width="40px" height="40px" viewBox="0 0 40 40" version="1.1" xmlns="http://www.w3.org/2000/svg" xmlns:xlink="http://www.w3.org/1999/xlink">
    <title>Group 3</title>
    <g id="Page-1" stroke="none" stroke-width="1" fill="none" fill-rule="evenodd">
        <g id="4-blog-detail" transform="translate(-120.000000, -958.000000)">
            <g id="Group-3" transform="translate(120.000000, 958.000000)">
                <circle id="Oval" stroke-opacity="0.1" stroke="#000000" cx="20" cy="20" r="19.5"></circle>
                <g id="like" transform="translate(12.000000, 15.000000)" fill="#00DAB2" fill-rule="nonzero">
                    <path d="M11.4632911,0.000302764178 C10.128602,-0.00671035485 8.85972541,0.568584899 8,1.57052246 C7.14562343,0.561729058 5.87325027,-0.0151515239 4.53670886,0.000302764178 C2.03115374,0.000302764178 0,1.99365127 0,4.45257128 C0,8.6663254 7.49367089,12.7806985 7.79746835,12.9397081 C7.92006571,13.0200973 8.07993429,13.0200973 8.20253165,12.9397081 C8.50632911,12.7806985 16,8.725954 16,4.45257128 C16,3.27175625 15.5220267,2.13930433 14.6712287,1.30434202 C13.8204308,0.469379707 12.6665011,0.000302764178 11.4632911,0.000302764178 Z M8,12.1446602 C6.82531646,11.4688694 0.810126582,7.87127745 0.810126582,4.45257128 C0.810126582,2.43274413 2.4785743,0.795350713 4.53670886,0.795350713 C5.79706779,0.779116712 6.97655283,1.40298118 7.6556962,2.44507521 C7.73570167,2.55333999 7.8637247,2.61742514 8,2.61742514 C8.1362753,2.61742514 8.26429833,2.55333999 8.3443038,2.44507521 C9.2469971,1.09024539 10.9498384,0.478969577 12.5302445,0.942431217 C14.1106505,1.40589286 15.192588,2.83381838 15.1898785,4.45257128 C15.1898785,7.91102985 9.17468354,11.4887456 8,12.1446602 Z" id="Shape"></path>
                </g>
            </g>
        </g>
    </g>
</svg>