<?xml version="1.0" encoding="UTF-8"?>
<svg width="23px" height="22px" viewBox="0 0 23 22" version="1.1" xmlns="http://www.w3.org/2000/svg" xmlns:xlink="http://www.w3.org/1999/xlink">
    <title>linkedin (2)</title>
    <g id="Page-1" stroke="none" stroke-width="1" fill="none" fill-rule="evenodd" opacity="0.5">
        <g id="HOME" transform="translate(-1295.000000, -7712.000000)" fill-rule="nonzero">
            <g id="Group-19" transform="translate(-1.000000, 7146.000000)">
                <g id="Group-10" transform="translate(1223.000000, 566.000000)">
                    <g id="linkedin-(2)" transform="translate(73.000000, 0.000000)">
                        <path d="M5.3,21 L1.1,21 C0.8,21 0.6,20.8 0.6,20.5 L0.6,6.9 C0.6,6.6 0.8,6.4 1.1,6.4 L5.4,6.4 C5.7,6.4 5.9,6.6 5.9,6.9 L5.9,20.5 C5.8,20.8 5.6,21 5.3,21 L5.3,21 Z M1.6,20 L4.9,20 L4.9,7.4 L1.6,7.4 L1.6,20 Z" id="Shape" fill="#000000"></path>
                        <path d="M5.3,21 L1.1,21 C0.8,21 0.6,20.8 0.6,20.5 L0.6,6.9 C0.6,6.6 0.8,6.4 1.1,6.4 L5.4,6.4 C5.7,6.4 5.9,6.6 5.9,6.9 L5.9,20.5 C5.8,20.8 5.6,21 5.3,21 L5.3,21 Z M1.6,20 L4.9,20 L4.9,7.4 L1.6,7.4 L1.6,20 Z" id="Shape" fill="#000000"></path>
                        <path d="M5.3,21 L1.1,21 C0.8,21 0.6,20.8 0.6,20.5 L0.6,6.9 C0.6,6.6 0.8,6.4 1.1,6.4 L5.4,6.4 C5.7,6.4 5.9,6.6 5.9,6.9 L5.9,20.5 C5.8,20.8 5.6,21 5.3,21 L5.3,21 Z M1.6,20 L4.9,20 L4.9,7.4 L1.6,7.4 L1.6,20 Z M22.5,21 L17.6,21 C17.3,21 17.1,20.8 17.1,20.5 L17.1,14.7 C17.1,13.5 16.8,12.1 15.2,12.1 C14.1,12.1 13.6,12.8 13.3,13.5 C13.2,13.7 13.2,14 13.2,14.3 L13.2,20.6 C13.2,20.9 13,21.1 12.7,21.1 L8,21.1 C7.9,21.1 7.7,21 7.6,21 C7.5,21 7.5,20.6 7.5,20.5 L7.5,6.9 C7.5,6.8 7.5,6.6 7.6,6.5 C7.7,6.5 7.8,6.4 8,6.4 L12.8,6.4 C13.1,6.4 13.3,6.6 13.3,6.9 L13.3,7.5 C14.1,6.8 15.4,6.2 17.1,6.2 C20.8,6.2 23,8.8 23,12.9 L23,20.5 C23,20.8 22.8,21 22.5,21 Z M18.1,20 L22,20 L22,12.9 C22,9.4 20.2,7.2 17.1,7.2 C14.8,7.2 13.5,8.4 13.3,9.1 C13.2,9.3 13,9.5 12.7,9.4 C12.5,9.4 12.3,9.2 12.3,8.9 L12.3,7.4 L8.5,7.4 L8.5,20 L12.3,20 L12.3,14.2 C12.3,13.8 12.3,13.4 12.4,13 C12.9,11.7 13.9,11 15.2,11 C17,11 18.1,12.3 18.1,14.6 L18.1,20 L18.1,20 Z" id="Shape" fill="#FFFFFF"></path>
                        <path d="M22.5,21 L17.6,21 C17.3,21 17.1,20.8 17.1,20.5 L17.1,14.7 C17.1,13.5 16.8,12.1 15.2,12.1 C14.1,12.1 13.6,12.8 13.3,13.5 C13.2,13.7 13.2,14 13.2,14.3 L13.2,20.6 C13.2,20.9 13,21.1 12.7,21.1 L8,21.1 C7.9,21.1 7.7,21 7.6,21 C7.5,21 7.5,20.6 7.5,20.5 L7.5,6.9 C7.5,6.8 7.5,6.6 7.6,6.5 C7.7,6.5 7.8,6.4 8,6.4 L12.8,6.4 C13.1,6.4 13.3,6.6 13.3,6.9 L13.3,7.5 C14.1,6.8 15.4,6.2 17.1,6.2 C20.8,6.2 23,8.8 23,12.9 L23,20.5 C23,20.8 22.8,21 22.5,21 Z M18.1,20 L22,20 L22,12.9 C22,9.4 20.2,7.2 17.1,7.2 C14.8,7.2 13.5,8.4 13.3,9.1 C13.2,9.3 13,9.5 12.7,9.4 C12.5,9.4 12.3,9.2 12.3,8.9 L12.3,7.4 L8.5,7.4 L8.5,20 L12.3,20 L12.3,14.2 C12.3,13.8 12.3,13.4 12.4,13 C12.9,11.7 13.9,11 15.2,11 C17,11 18.1,12.3 18.1,14.6 L18.1,20 L18.1,20 Z M3.1,5.7 C1.3,5.7 0,4.5 0,2.9 C0,1.2 1.3,0 3.1,0 C4.9,0 6.1,1.2 6.2,2.8 C6.2,4.5 4.9,5.7 3.1,5.7 L3.1,5.7 Z M3.1,1 C1.8,1 1,1.7 1,2.9 C1,4 1.8,4.8 3.1,4.8 C4.4,4.8 5.2,4.1 5.2,2.9 C5.2,1.7 4.4,1 3.1,1 Z" id="Shape" fill="#FFFFFF"></path>
                    </g>
                </g>
            </g>
        </g>
    </g>
</svg>