<?xml version="1.0" encoding="UTF-8"?>
<svg width="40px" height="40px" viewBox="0 0 40 40" version="1.1" xmlns="http://www.w3.org/2000/svg" xmlns:xlink="http://www.w3.org/1999/xlink">
    <title>Group 5 Copy</title>
    <g id="Page-1" stroke="none" stroke-width="1" fill="none" fill-rule="evenodd">
        <g id="4-blog-detail" transform="translate(-168.000000, -1038.000000)">
            <g id="Group-5-Copy" transform="translate(168.000000, 1038.000000)">
                <circle id="Oval-Copy" stroke-opacity="0.1" stroke="#000000" cx="20" cy="20" r="19.5"></circle>
                <g id="linkedin-(2)" transform="translate(13.000000, 11.000000)" fill="#2F2F2F" fill-rule="nonzero">
                    <path d="M3.68695652,15.92891 L0.765217391,15.92891 C0.556521739,15.92891 0.417391304,15.7867299 0.417391304,15.5734597 L0.417391304,5.90521327 C0.417391304,5.69194313 0.556521739,5.54976303 0.765217391,5.54976303 L3.75652174,5.54976303 C3.96521739,5.54976303 4.10434783,5.69194313 4.10434783,5.90521327 L4.10434783,15.5734597 C4.03478261,15.7867299 3.89565217,15.92891 3.68695652,15.92891 L3.68695652,15.92891 Z M1.11304348,15.2180095 L3.40869565,15.2180095 L3.40869565,6.26066351 L1.11304348,6.26066351 L1.11304348,15.2180095 Z M15.6521739,15.92891 L12.2434783,15.92891 C12.0347826,15.92891 11.8956522,15.7867299 11.8956522,15.5734597 L11.8956522,11.450237 C11.8956522,10.5971564 11.6869565,9.60189573 10.573913,9.60189573 C9.80869565,9.60189573 9.46086957,10.0995261 9.25217391,10.5971564 C9.1826087,10.7393365 9.1826087,10.9526066 9.1826087,11.1658768 L9.1826087,15.6445498 C9.1826087,15.8578199 9.04347826,16 8.83478261,16 L5.56521739,16 C5.49565217,16 5.35652174,15.92891 5.28695652,15.92891 C5.2173913,15.92891 5.2173913,15.6445498 5.2173913,15.5734597 L5.2173913,5.90521327 C5.2173913,5.83412322 5.2173913,5.69194313 5.28695652,5.62085308 C5.35652174,5.62085308 5.42608696,5.54976303 5.56521739,5.54976303 L8.90434783,5.54976303 C9.11304348,5.54976303 9.25217391,5.69194313 9.25217391,5.90521327 L9.25217391,6.33175355 C9.80869565,5.83412322 10.7130435,5.40758294 11.8956522,5.40758294 C14.4695652,5.40758294 16,7.25592417 16,10.1706161 L16,15.5734597 C16,15.7867299 15.8608696,15.92891 15.6521739,15.92891 Z M12.5913043,15.2180095 L15.3043478,15.2180095 L15.3043478,10.1706161 C15.3043478,7.68246445 14.0521739,6.11848341 11.8956522,6.11848341 C10.2956522,6.11848341 9.39130435,6.97156398 9.25217391,7.46919431 C9.1826087,7.61137441 9.04347826,7.7535545 8.83478261,7.68246445 C8.69565217,7.68246445 8.55652174,7.54028436 8.55652174,7.32701422 L8.55652174,6.26066351 L5.91304348,6.26066351 L5.91304348,15.2180095 L8.55652174,15.2180095 L8.55652174,11.0947867 C8.55652174,10.8104265 8.55652174,10.5260664 8.62608696,10.2417062 C8.97391304,9.31753555 9.66956522,8.81990521 10.573913,8.81990521 C11.826087,8.81990521 12.5913043,9.74407583 12.5913043,11.3791469 L12.5913043,15.2180095 L12.5913043,15.2180095 Z" id="Shape"></path>
                    <path d="M0,2.06161137 C0,0.853080569 0.904347826,0 2.15652174,0 C3.40869565,0 4.24347826,0.853080569 4.31304348,1.99052133 C4.31304348,3.19905213 3.40869565,4.0521327 2.15652174,4.0521327 C0.904347826,4.0521327 0,3.19905213 0,2.06161137 Z M2.15652174,0.710900474 C1.25217391,0.710900474 0.695652174,1.20853081 0.695652174,2.06161137 C0.695652174,2.8436019 1.25217391,3.41232227 2.15652174,3.41232227 C3.06086957,3.41232227 3.6173913,2.91469194 3.6173913,2.06161137 C3.6173913,1.20853081 3.06086957,0.710900474 2.15652174,0.710900474 Z" id="Shape"></path>
                </g>
            </g>
        </g>
    </g>
</svg>