<?xml version="1.0" encoding="UTF-8"?>
<svg width="205px" height="41px" viewBox="0 0 205 41" version="1.1" xmlns="http://www.w3.org/2000/svg" xmlns:xlink="http://www.w3.org/1999/xlink">
    <title>Group 32</title>
    <g id="Page-1" stroke="none" stroke-width="1" fill="none" fill-rule="evenodd">
        <g id="1.1-HOME" transform="translate(-122.000000, -35.000000)">
            <g id="Group-32" transform="translate(122.000000, 35.000000)">
                <g id="Group" transform="translate(0.000000, 1.005301)">
                    <path d="M26.0193006,19.4243308 L22.6236444,19.4243308 L15.6468973,10.4990606 C14.8271518,9.4491671 13.2416268,9.4491671 12.4218813,10.4990606 L5.44530233,19.4243308 L2.0496461,19.4243308 C0.34542949,19.4243308 -0.611668782,17.461618 0.437054039,16.1207781 L12.4218813,0.785782259 C13.2416268,-0.26192742 14.8271518,-0.26192742 15.6468973,0.785782259 L27.6318927,16.1207781 C28.6804474,17.461618 27.7233491,19.4243308 26.0193006,19.4243308" id="Fill-6" fill="#FFFFFF"></path>
                    <path d="M26.0193006,29.1355093 L2.0496461,29.1355093 C0.34542949,29.1355093 -0.611668782,27.1749803 0.437054039,25.8317886 L5.44530233,19.4242468 L22.6236444,19.4242468 L27.6318927,25.8317886 C28.6804474,27.1749803 27.7233491,29.1355093 26.0193006,29.1355093" id="Fill-7" fill="#00FEB7"></path>
                </g>
                <g id="ClimeUp" transform="translate(33.480000, 0.000000)" fill="#FFFFFF" fill-rule="nonzero">
                    <path d="M0,15.64 C0,12.92 0.633333333,10.48 1.9,8.32 C3.16666667,6.16 4.88666667,4.47333333 7.06,3.26 C9.23333333,2.04666667 11.6133333,1.44 14.2,1.44 C17.16,1.44 19.7933333,2.16666667 22.1,3.62 C24.4066667,5.07333333 26.08,7.13333333 27.12,9.8 L21.64,9.8 C20.92,8.33333333 19.92,7.24 18.64,6.52 C17.36,5.8 15.88,5.44 14.2,5.44 C12.36,5.44 10.72,5.85333333 9.28,6.68 C7.84,7.50666667 6.71333333,8.69333333 5.9,10.24 C5.08666667,11.7866667 4.68,13.5866667 4.68,15.64 C4.68,17.6933333 5.08666667,19.4933333 5.9,21.04 C6.71333333,22.5866667 7.84,23.78 9.28,24.62 C10.72,25.46 12.36,25.88 14.2,25.88 C15.88,25.88 17.36,25.52 18.64,24.8 C19.92,24.08 20.92,22.9866667 21.64,21.52 L27.12,21.52 C26.08,24.1866667 24.4066667,26.24 22.1,27.68 C19.7933333,29.12 17.16,29.84 14.2,29.84 C11.5866667,29.84 9.2,29.2333333 7.04,28.02 C4.88,26.8066667 3.16666667,25.12 1.9,22.96 C0.633333333,20.8 0,18.36 0,15.64 Z" id="Path"></path>
                    <polygon id="Path" points="37.2 -1.13686838e-13 37.2 29.6 32.64 29.6 32.64 -1.13686838e-13"></polygon>
                    <path d="M43.393602,0 L47.9607162,0 L47.9607162,4.72285723 L43.393602,4.72285723 L43.393602,0 Z M47.96,7.56 L47.96,29.6 L43.4,29.6 L43.4,7.56 L47.96,7.56 Z" id="Shape"></path>
                    <path d="M80.84,7.2 C82.5733333,7.2 84.1266667,7.56 85.5,8.28 C86.8733333,9 87.9533333,10.0666667 88.74,11.48 C89.5266667,12.8933333 89.92,14.6 89.92,16.6 L89.92,29.6 L85.4,29.6 L85.4,17.28 C85.4,15.3066667 84.9066667,13.7933333 83.92,12.74 C82.9333333,11.6866667 81.5866667,11.16 79.88,11.16 C78.1733333,11.16 76.82,11.6866667 75.82,12.74 C74.82,13.7933333 74.32,15.3066667 74.32,17.28 L74.32,29.6 L69.8,29.6 L69.8,17.28 C69.8,15.3066667 69.3066667,13.7933333 68.32,12.74 C67.3333333,11.6866667 65.9866667,11.16 64.28,11.16 C62.5733333,11.16 61.22,11.6866667 60.22,12.74 C59.22,13.7933333 58.72,15.3066667 58.72,17.28 L58.72,29.6 L54.16,29.6 L54.16,7.56 L58.72,7.56 L58.72,10.08 C59.4666667,9.17333333 60.4133333,8.46666667 61.56,7.96 C62.7066667,7.45333333 63.9333333,7.2 65.24,7.2 C67,7.2 68.5733333,7.57333333 69.96,8.32 C71.3466667,9.06666667 72.4133333,10.1466667 73.16,11.56 C73.8266667,10.2266667 74.8666667,9.16666667 76.28,8.38 C77.6933333,7.59333333 79.2133333,7.2 80.84,7.2 Z" id="Path"></path>
                    <path d="M116.12,18.04 C116.12,18.8666667 116.066667,19.6133333 115.96,20.28 L99.12,20.28 C99.2533333,22.04 99.9066667,23.4533333 101.08,24.52 C102.253333,25.5866667 103.693333,26.12 105.4,26.12 C107.853333,26.12 109.586667,25.0933333 110.6,23.04 L115.52,23.04 C114.853333,25.0666667 113.646667,26.7266667 111.9,28.02 C110.153333,29.3133333 107.986667,29.96 105.4,29.96 C103.293333,29.96 101.406667,29.4866667 99.74,28.54 C98.0733333,27.5933333 96.7666667,26.26 95.82,24.54 C94.8733333,22.82 94.4,20.8266667 94.4,18.56 C94.4,16.2933333 94.86,14.3 95.78,12.58 C96.7,10.86 97.9933333,9.53333333 99.66,8.6 C101.326667,7.66666667 103.24,7.2 105.4,7.2 C107.48,7.2 109.333333,7.65333333 110.96,8.56 C112.586667,9.46666667 113.853333,10.74 114.76,12.38 C115.666667,14.02 116.12,15.9066667 116.12,18.04 Z M111.36,16.6 C111.333333,14.92 110.733333,13.5733333 109.56,12.56 C108.386667,11.5466667 106.933333,11.04 105.2,11.04 C103.626667,11.04 102.28,11.54 101.16,12.54 C100.04,13.54 99.3733333,14.8933333 99.16,16.6 L111.36,16.6 Z" id="Shape"></path>
                    <path d="M125.32,1.8 L125.32,19.52 C125.32,21.6266667 125.873333,23.2133333 126.98,24.28 C128.086667,25.3466667 129.626667,25.88 131.6,25.88 C133.6,25.88 135.153333,25.3466667 136.26,24.28 C137.366667,23.2133333 137.92,21.6266667 137.92,19.52 L137.92,1.8 L142.48,1.8 L142.48,19.44 C142.48,21.7066667 141.986667,23.6266667 141,25.2 C140.013333,26.7733333 138.693333,27.9466667 137.04,28.72 C135.386667,29.4933333 133.56,29.88 131.56,29.88 C129.56,29.88 127.74,29.4933333 126.1,28.72 C124.46,27.9466667 123.16,26.7733333 122.2,25.2 C121.24,23.6266667 120.76,21.7066667 120.76,19.44 L120.76,1.8 L125.32,1.8 Z" id="Path"></path>
                    <path d="M153.16,10.8 C153.933333,9.78666667 154.986667,8.93333333 156.32,8.24 C157.653333,7.54666667 159.16,7.2 160.84,7.2 C162.76,7.2 164.513333,7.67333333 166.1,8.62 C167.686667,9.56666667 168.933333,10.8933333 169.84,12.6 C170.746667,14.3066667 171.2,16.2666667 171.2,18.48 C171.2,20.6933333 170.746667,22.6733333 169.84,24.42 C168.933333,26.1666667 167.686667,27.5266667 166.1,28.5 C164.513333,29.4733333 162.76,29.96 160.84,29.96 C159.16,29.96 157.666667,29.62 156.36,28.94 C155.053333,28.26 153.986667,27.4133333 153.16,26.4 L153.16,40.08 L148.6,40.08 L148.6,7.56 L153.16,7.56 L153.16,10.8 Z M166.56,18.48 C166.56,16.96 166.246667,15.6466667 165.62,14.54 C164.993333,13.4333333 164.166667,12.5933333 163.14,12.02 C162.113333,11.4466667 161.013333,11.16 159.84,11.16 C158.693333,11.16 157.606667,11.4533333 156.58,12.04 C155.553333,12.6266667 154.726667,13.48 154.1,14.6 C153.473333,15.72 153.16,17.04 153.16,18.56 C153.16,20.08 153.473333,21.4066667 154.1,22.54 C154.726667,23.6733333 155.553333,24.5333333 156.58,25.12 C157.606667,25.7066667 158.693333,26 159.84,26 C161.013333,26 162.113333,25.7 163.14,25.1 C164.166667,24.5 164.993333,23.6266667 165.62,22.48 C166.246667,21.3333333 166.56,20 166.56,18.48 Z" id="Shape"></path>
                </g>
            </g>
        </g>
    </g>
</svg>