<svg width="24" height="16" viewBox="0 0 24 16" fill="none" xmlns="http://www.w3.org/2000/svg">
<g opacity="0.5">
<path fill-rule="evenodd" clip-rule="evenodd" d="M23.9657 0.368703C23.9547 0.332531 23.9414 0.296859 23.9256 0.262432V0.223267L23.8854 0.178614C23.8617 0.149926 23.8348 0.123733 23.8052 0.100531L23.7137 0.0391647L23.6163 0H0.353378L0.25599 0.0391647L0.164486 0.100531C0.134836 0.123731 0.107997 0.149924 0.0842226 0.178614L0.0440925 0.223267V0.262432C0.0282447 0.296857 0.0149535 0.332532 0.00421749 0.368703C-0.00140583 0.405872 -0.00140583 0.443292 0.00421749 0.480459C0.00166145 0.495177 0.00166145 0.510394 0.00421749 0.525112V15.0088C0.00421749 15.157 0.064541 15.2992 0.171895 15.4039C0.279249 15.5087 0.424947 15.5676 0.576776 15.5676H23.4274C23.5793 15.5676 23.725 15.5087 23.8323 15.4039C23.9397 15.2992 24 15.157 24 15.0088V0.508508C23.9903 0.497532 23.9785 0.488053 23.9657 0.480569C23.9711 0.44329 23.9711 0.40587 23.9657 0.368703ZM21.4695 1.08389L11.9761 7.07961L2.48342 1.06723L21.4695 1.08389ZM1.09763 14.45H22.8549L22.8555 1.53667L12.2628 8.24207C12.0744 8.35982 11.8329 8.35982 11.6445 8.24207L1.09763 1.53667V14.45Z" fill="white"/>
</g>
</svg>
