<svg width="24" height="24" viewBox="0 0 24 24" fill="none" xmlns="http://www.w3.org/2000/svg">
<path opacity="0.5" d="M15.1277 14.71C15.1996 14.7244 15.3156 14.7355 15.3999 14.7418C15.4474 14.7453 15.4975 14.7483 15.5423 14.7496L15.5439 14.7497C15.5724 14.7506 15.6431 14.7527 15.709 14.7429C15.7978 14.7297 15.8651 14.6961 15.8859 14.6857C15.9187 14.6692 15.9479 14.6515 15.9699 14.6374C16.0146 14.6088 16.0597 14.5756 16.0974 14.5468C16.173 14.489 16.2487 14.4253 16.2871 14.3909C17.627 13.1978 19.5807 13.254 20.739 14.4123L20.7391 14.4124L22.2588 15.9318C22.2588 15.9318 22.2588 15.9318 22.2588 15.9318C22.9657 16.6387 23.3042 17.3168 23.4337 17.9277C23.5637 18.5412 23.4904 19.1224 23.3179 19.6434C22.9673 20.7019 22.2228 21.464 22.0772 21.6029L22.0772 21.6028L22.0698 21.6101C20.4378 23.2338 18.3016 23.7599 15.9134 23.3848L15.9132 23.3848C12.7568 22.8907 9.14602 20.7262 6.20993 17.7902L6.20991 17.7901C3.27391 14.8545 1.10935 11.2434 0.615241 8.0871L0.615199 8.08684C0.240069 5.69888 0.766156 3.5627 2.3899 1.93058L2.49067 1.82929C2.75457 1.57672 3.44576 0.983656 4.35627 0.682116C4.8773 0.509564 5.45855 0.436253 6.07203 0.566301C6.68292 0.6958 7.3611 1.03432 8.06797 1.74116C8.06799 1.74118 8.06801 1.74119 8.06803 1.74121L9.58743 3.26085L9.58749 3.2609C10.7896 4.46303 10.8035 6.52645 9.46452 7.86519L9.46395 7.86576C9.31958 8.01057 9.27133 8.18012 9.25622 8.30669C9.24428 8.40666 9.25094 8.50883 9.25424 8.55949C9.25459 8.56482 9.2549 8.56959 9.25514 8.57372L9.25523 8.57517C9.27523 8.89342 9.37224 9.21075 9.48846 9.50378L9.4888 9.50464C9.89047 10.5119 10.6748 11.5557 11.5592 12.4414C12.4429 13.3269 13.4851 14.1132 14.4915 14.5138C14.6987 14.5973 14.9126 14.6674 15.1277 14.71ZM15.1277 14.71C15.1279 14.7101 15.1281 14.7101 15.1284 14.7102L15.2253 14.2196L15.127 14.7099C15.1272 14.7099 15.1274 14.71 15.1277 14.71ZM9.81804 8.21877C11.3408 6.69628 11.3497 4.31606 9.94104 2.90735L9.81804 8.21877ZM9.81804 8.21877C9.73925 8.2978 9.74621 8.41193 9.75342 8.53008C9.7537 8.53466 9.75397 8.53923 9.75425 8.54381M9.81804 8.21877L9.75425 8.54381M9.75425 8.54381C9.7695 8.78652 9.84549 9.04777 9.95324 9.31944L9.75425 8.54381Z" stroke="white"/>
</svg>
