<svg width="78" height="78" viewBox="0 0 78 78" fill="none" xmlns="http://www.w3.org/2000/svg">
<path fill-rule="evenodd" clip-rule="evenodd" d="M4.17857 0H73.8214C76.1253 0 78 1.87471 78 4.17857V73.8214C78 76.1253 76.1253 78 73.8214 78H4.17857C1.87471 78 0 76.1253 0 73.8214V4.17857C0 1.87471 1.87471 0 4.17857 0ZM73.8214 75.2143C74.59 75.2143 75.2143 74.5887 75.2143 73.8214V4.17857C75.2143 3.41126 74.59 2.78571 73.8214 2.78571H4.17857C3.41002 2.78571 2.78571 3.41126 2.78571 4.17857V73.8214C2.78571 74.5887 3.41002 75.2143 4.17857 75.2143H73.8214ZM54.323 5.57143C53.5526 5.57143 52.9302 6.19573 52.9302 6.96429V23.6786C52.9302 24.4471 53.5526 25.0714 54.323 25.0714H71.0373C71.8077 25.0714 72.4302 24.4471 72.4302 23.6786C72.4302 13.6947 64.3075 5.57143 54.323 5.57143ZM69.5736 22.2857C68.9089 14.9477 63.0533 9.09394 55.7159 8.42798V22.2857H69.5736ZM50.1445 45.9635C60.1283 45.9635 68.2516 37.8402 68.2516 27.8563C68.2516 27.0878 67.6292 26.4635 66.8587 26.4635H51.5373V11.1421C51.5373 10.3735 50.9149 9.7492 50.1445 9.7492C40.1606 9.7492 32.0373 17.8725 32.0373 27.8563C32.0373 37.8402 40.1606 45.9635 50.1445 45.9635ZM48.7516 27.8556V12.597C40.9529 13.3027 34.823 19.8758 34.823 27.8556C34.823 36.3034 41.6966 43.177 50.1444 43.177C58.1229 43.177 64.6966 37.0471 65.403 29.2484H50.1444C49.374 29.2484 48.7516 28.6241 48.7516 27.8556ZM5.57143 8.35555C5.57143 7.587 6.19387 6.96269 6.96429 6.96269H27.8571C28.6276 6.96269 29.25 7.587 29.25 8.35555C29.25 9.12411 28.6276 9.74841 27.8571 9.74841H6.96429C6.19387 9.74841 5.57143 9.12411 5.57143 8.35555ZM6.96429 13.927C6.19387 13.927 5.57143 14.5513 5.57143 15.3198C5.57143 16.0884 6.19387 16.7127 6.96429 16.7127H27.8571C28.6276 16.7127 29.25 16.0884 29.25 15.3198C29.25 14.5513 28.6276 13.927 27.8571 13.927H6.96429ZM5.57143 22.2841C5.57143 21.5156 6.19387 20.8913 6.96429 20.8913H27.8571C28.6276 20.8913 29.25 21.5156 29.25 22.2841C29.25 23.0527 28.6276 23.677 27.8571 23.677H6.96429C6.19387 23.677 5.57143 23.0527 5.57143 22.2841ZM6.96429 27.8556C6.19387 27.8556 5.57143 28.4799 5.57143 29.2484C5.57143 30.017 6.19387 30.6413 6.96429 30.6413H27.8571C28.6276 30.6413 29.25 30.017 29.25 29.2484C29.25 28.4799 28.6276 27.8556 27.8571 27.8556H6.96429ZM5.57143 36.2127C5.57143 35.4441 6.19387 34.8198 6.96429 34.8198H27.8587C28.6292 34.8198 29.2516 35.4441 29.2516 36.2127C29.2516 36.9812 28.6292 37.6055 27.8587 37.6055H6.96429C6.19387 37.6055 5.57143 36.9812 5.57143 36.2127ZM36.2143 72.427C36.9847 72.427 37.6071 71.8027 37.6071 71.0341C37.6071 70.2656 36.9847 69.6413 36.2143 69.6413H8.35714V44.5698C8.35714 43.8013 7.7347 43.177 6.96429 43.177C6.19387 43.177 5.57143 43.8013 5.57143 44.5698V71.0341C5.57143 71.8027 6.19387 72.427 6.96429 72.427H36.2143ZM32.0774 52.5879L32.2503 51.8958L24.6649 59.4813C24.2389 59.9047 23.5922 60.0061 23.0574 59.743L18.55 57.4896L12.2778 66.2715C12.0055 66.6514 11.5789 66.8547 11.143 66.8547C10.8632 66.8547 10.5803 66.7696 10.3353 66.5954C9.70974 66.1484 9.56361 65.2778 10.012 64.6523L16.975 54.9023C17.3735 54.3451 18.116 54.1586 18.7316 54.4664L23.4057 56.8039L30.2835 49.926L29.5896 50.1001C28.8415 50.2867 28.0879 49.8315 27.9014 49.0859C27.7136 48.3391 28.1676 47.583 28.9156 47.3965L34.487 46.0037C34.9577 45.888 35.4633 46.0248 35.809 46.3699C36.156 46.7169 36.2953 47.2181 36.1753 47.6931L34.7812 53.2646C34.6207 53.8969 34.053 54.3192 33.43 54.3192C33.3174 54.3192 33.2042 54.3067 33.0898 54.2775C32.3449 54.0909 31.891 53.3342 32.0775 52.5881L32.0774 52.5879ZM71.0376 52.9262C71.808 52.9262 72.4305 52.3019 72.4305 51.5333C72.4305 50.7648 71.808 50.1405 71.0376 50.1405H45.9646C45.1942 50.1405 44.5717 50.7648 44.5717 51.5333C44.5717 52.3019 45.1942 52.9262 45.9646 52.9262H71.0376ZM72.4305 61.2833C72.4305 62.0519 71.808 62.6762 71.0376 62.6762H45.9646C45.1942 62.6762 44.5717 62.0519 44.5717 61.2833C44.5717 60.5148 45.1942 59.8905 45.9646 59.8905H71.0376C71.808 59.8905 72.4305 60.5148 72.4305 61.2833ZM71.0376 72.4262C71.808 72.4262 72.4305 71.8019 72.4305 71.0333C72.4305 70.2648 71.808 69.6405 71.0376 69.6405H45.9646C45.1942 69.6405 44.5717 70.2648 44.5717 71.0333C44.5717 71.8019 45.1942 72.4262 45.9646 72.4262H71.0376Z" fill="url(#paint0_linear_0_4234)"/>
<defs>
<linearGradient id="paint0_linear_0_4234" x1="52.9611" y1="132.155" x2="153.997" y2="26.2329" gradientUnits="userSpaceOnUse">
<stop stop-color="#0518C2"/>
<stop offset="1" stop-color="#FF9C4E"/>
</linearGradient>
</defs>
</svg>
