<svg width="78" height="78" viewBox="0 0 78 78" fill="none" xmlns="http://www.w3.org/2000/svg">
<path fill-rule="evenodd" clip-rule="evenodd" d="M1.3 0H76.7C77.418 0 78 0.58203 78 1.3V55.9C78 56.618 77.418 57.2 76.7 57.2H46.8689L41.6 62.9083V76.7C41.6 77.418 41.018 78 40.3 78H22.1C21.382 78 20.8 77.418 20.8 76.7V57.2H1.3C0.58203 57.2 0 56.618 0 55.9V1.3C0 0.58203 0.58203 0 1.3 0ZM39 62.4C39 62.0727 39.1235 61.7575 39.3458 61.5173L52.9269 46.8H51.09L39.7215 54.3816C39.5077 54.5236 39.2567 54.5996 39 54.6H25.8037C24.4768 54.6014 23.4014 55.6768 23.4 57.0037V75.4H39V62.4ZM26 46.8C26 43.9281 28.3281 41.6 31.2 41.6C34.0719 41.6 36.4 43.9281 36.4 46.8C36.4 49.6719 34.0719 52 31.2 52C28.3281 52 26 49.6719 26 46.8ZM49.27 54.6H75.4V2.6H2.6V54.6H21.4422C22.2541 53.1252 23.7568 52.1611 25.4358 52.0377C22.6009 48.9282 22.7433 44.1306 25.7577 41.1948C28.7722 38.259 33.5719 38.2433 36.6054 41.1594C39.6389 44.0755 39.8126 48.8721 36.998 52H38.61L49.4 44.8045V42.3969C47.9879 42.0372 46.634 41.4787 45.3791 40.7381L43.1886 42.9286C42.681 43.4361 41.858 43.4361 41.3504 42.9286L37.6727 39.2509L39.5122 37.4127L42.2695 40.17L44.2806 38.1602C44.7238 37.7168 45.4203 37.6528 45.9368 38.0081C47.4375 39.0436 49.1414 39.7478 50.9353 40.0738C51.5524 40.1874 52.0003 40.7255 52 41.353V44.2H54.6V41.353C54.6003 40.726 55.0481 40.1886 55.6647 40.0751C57.4586 39.7491 59.1625 39.0449 60.6632 38.0094C61.1797 37.6541 61.8762 37.7181 62.3194 38.1615L64.3305 40.17L66.17 38.3305L64.1602 36.3194C63.7168 35.8762 63.6528 35.1797 64.0081 34.6632C65.0436 33.1625 65.7478 31.4586 66.0738 29.6647C66.1874 29.0476 66.7255 28.5997 67.353 28.6H70.2V26H67.353C66.726 25.9997 66.1886 25.5519 66.0751 24.9353C65.7491 23.1414 65.0449 21.4375 64.0094 19.9368C63.6541 19.4203 63.7181 18.7238 64.1615 18.2806L66.17 16.2695L64.3305 14.43L62.3194 16.4398C61.8762 16.8832 61.1797 16.9472 60.6632 16.5919C59.1625 15.5564 57.4586 14.8522 55.6647 14.5262C55.0476 14.4126 54.5997 13.8745 54.6 13.247V10.4H52V13.247C51.9997 13.874 51.5519 14.4114 50.9353 14.5249C49.1414 14.8509 47.4375 15.5551 45.9368 16.5906C45.4203 16.9459 44.7238 16.8819 44.2806 16.4385L42.2695 14.43L39.5122 17.1886L37.6727 15.3504L41.3504 11.6727C41.858 11.1652 42.681 11.1652 43.1886 11.6727L45.3791 13.8632C46.634 13.1221 47.9878 12.5632 49.4 12.2031V9.1C49.4 8.38203 49.982 7.8 50.7 7.8H55.9C56.618 7.8 57.2 8.38203 57.2 9.1V12.2031C58.6122 12.5632 59.966 13.1221 61.2209 13.8632L63.4114 11.6727C63.919 11.1652 64.742 11.1652 65.2496 11.6727L68.9273 15.3504C69.4348 15.858 69.4348 16.681 68.9273 17.1886L66.7368 19.3791C67.4779 20.634 68.0368 21.9878 68.3969 23.4H71.5C72.218 23.4 72.8 23.982 72.8 24.7V29.9C72.8 30.618 72.218 31.2 71.5 31.2H68.3969C68.0372 32.6121 67.4787 33.9659 66.7381 35.2209L68.9286 37.4114C69.4361 37.919 69.4361 38.742 68.9286 39.2496L65.2509 42.9273C64.7433 43.4348 63.9203 43.4348 63.4127 42.9273L61.2222 40.7368C59.9673 41.4779 58.6135 42.0368 57.2013 42.3969V45.5C57.2013 45.513 57.1977 45.525 57.1941 45.537C57.1906 45.5491 57.187 45.5611 57.187 45.5741C57.1797 45.6947 57.1556 45.8137 57.1155 45.9277C57.1101 45.9423 57.106 45.9571 57.102 45.9718C57.0964 45.9924 57.0908 46.0127 57.0817 46.0317C57.0262 46.1604 56.9498 46.279 56.8555 46.3827L49.27 54.6Z" fill="url(#paint0_linear_0_4210)"/>
<path fill-rule="evenodd" clip-rule="evenodd" d="M16.3194 17.7563L28.7307 30.1185C29.0159 32.0005 30.6271 33.4 32.5378 33.4255C34.4484 33.451 36.0966 32.0949 36.4323 30.2213L44.9746 23.8412C45.6239 24.8448 46.7011 25.4945 47.8948 25.6027C49.0886 25.7109 50.2658 25.2654 51.0863 24.3951L54.0403 28.8079C52.4451 29.793 51.7798 31.7695 52.4563 33.5133C53.1328 35.2571 54.9597 36.2744 56.8054 35.935C58.6511 35.5957 59.993 33.9959 59.9999 32.1264C60.0069 30.257 58.677 28.6473 56.8338 28.2944L52.1215 21.2538C51.8982 19.3404 50.3009 17.8789 48.3679 17.8192C46.4348 17.7596 44.7498 19.1199 44.4081 21.0159L35.8658 27.3959C35.1754 26.3253 34.0013 25.6605 32.7245 25.6174C31.4477 25.5744 30.2311 26.1584 29.4696 27.1801L19.2708 17.0178C20.76 15.9016 21.2531 13.8947 20.4497 12.2197C19.6463 10.5446 17.7691 9.66562 15.9616 10.1181C14.1541 10.5706 12.9172 12.2292 13.0043 14.0835C13.0915 15.9378 14.4786 17.474 16.3207 17.7563H16.3194ZM56.0819 30.8193C56.8028 30.8193 57.3873 31.4015 57.3873 32.1195C57.3873 32.8376 56.8028 33.4197 56.0819 33.4197C55.361 33.4197 54.7766 32.8376 54.7766 32.1195C54.7766 31.4015 55.361 30.8193 56.0819 30.8193ZM49.5551 21.718C49.5551 20.9999 48.9707 20.4178 48.2498 20.4178C47.5288 20.4178 46.9444 20.9999 46.9444 21.718C46.9444 22.436 47.5288 23.0182 48.2498 23.0182C48.9707 23.0182 49.5551 22.436 49.5551 21.718ZM32.5854 28.219C33.3064 28.219 33.8908 28.8011 33.8908 29.5191C33.8908 30.2372 33.3064 30.8193 32.5854 30.8193C31.8645 30.8193 31.2801 30.2372 31.2801 29.5191C31.2801 28.8011 31.8645 28.219 32.5854 28.219ZM18.2265 13.9168C18.2265 13.1987 17.6421 12.6166 16.9211 12.6166C16.2002 12.6166 15.6158 13.1987 15.6158 13.9168C15.6158 14.6349 16.2002 15.217 16.9211 15.217C17.6421 15.217 18.2265 14.6349 18.2265 13.9168Z" fill="url(#paint1_linear_0_4210)"/>
<path d="M29.75 20L31.5 18.25L33.25 20L35 18.25L33.25 16.5L35 14.75L33.25 13L31.5 14.75L29.75 13L28 14.75L29.75 16.5L28 18.25L29.75 20Z" fill="url(#paint2_linear_0_4210)"/>
<path d="M46.25 29L44.5 30.75L42.75 29L41 30.75L42.75 32.5L41 34.25L42.75 36L44.5 34.25L46.25 36L48 34.25L46.25 32.5L48 30.75L46.25 29Z" fill="url(#paint3_linear_0_4210)"/>
<path d="M13.75 33L15.5 31.25L17.25 33L19 31.25L17.25 29.5L19 27.75L17.25 26L15.5 27.75L13.75 26L12 27.75L13.75 29.5L12 31.25L13.75 33Z" fill="url(#paint4_linear_0_4210)"/>
<defs>
<linearGradient id="paint0_linear_0_4210" x1="45.3724" y1="124.971" x2="132.04" y2="34.2261" gradientUnits="userSpaceOnUse">
<stop stop-color="#0518C2"/>
<stop offset="1" stop-color="#FF9C4E"/>
</linearGradient>
<linearGradient id="paint1_linear_0_4210" x1="42.0943" y1="51.8571" x2="65.7244" y2="4.91142" gradientUnits="userSpaceOnUse">
<stop stop-color="#0518C2"/>
<stop offset="1" stop-color="#FF9C4E"/>
</linearGradient>
<linearGradient id="paint2_linear_0_4210" x1="31.178" y1="23.331" x2="37.1871" y2="16.9751" gradientUnits="userSpaceOnUse">
<stop stop-color="#0518C2"/>
<stop offset="1" stop-color="#FF9C4E"/>
</linearGradient>
<linearGradient id="paint3_linear_0_4210" x1="44.178" y1="39.331" x2="50.1871" y2="32.9751" gradientUnits="userSpaceOnUse">
<stop stop-color="#0518C2"/>
<stop offset="1" stop-color="#FF9C4E"/>
</linearGradient>
<linearGradient id="paint4_linear_0_4210" x1="15.178" y1="36.331" x2="21.1871" y2="29.9751" gradientUnits="userSpaceOnUse">
<stop stop-color="#0518C2"/>
<stop offset="1" stop-color="#FF9C4E"/>
</linearGradient>
</defs>
</svg>
