<?xml version="1.0" encoding="UTF-8"?>
<svg width="78px" height="78px" viewBox="0 0 78 78" version="1.1" xmlns="http://www.w3.org/2000/svg" xmlns:xlink="http://www.w3.org/1999/xlink">
    <title>consulting</title>
    <defs>
        <linearGradient x1="9.86639358%" y1="116.430593%" x2="103.14615%" y2="-4.40398928%" id="linearGradient-1">
            <stop stop-color="#00065D" offset="0%"></stop>
            <stop stop-color="#00C3E5" offset="100%"></stop>
        </linearGradient>
        <path d="M21.0130781,67.2586635 C21.0130781,67.9317204 20.4673828,68.4774175 19.7943281,68.4774175 L16.9581445,68.4774175 C12.4333828,68.4774175 8.17613672,66.7122046 4.97067187,63.5068815 C1.76520703,60.3015583 0,56.044298 0,51.5193689 C0,50.846312 0.545695313,50.3006149 1.21875,50.3006149 C1.89180469,50.3006149 2.4375,50.846312 2.4375,51.5193689 C2.4375,55.393331 3.94920703,59.0383197 6.69413672,61.7832585 C9.43921875,64.5283497 13.0841953,66.0399094 16.9579922,66.0399094 L19.7941758,66.0399094 C20.4673828,66.0399094 21.0130781,66.5856065 21.0130781,67.2586635 Z M76.78125,50.3006149 C76.1081953,50.3006149 75.5625,50.846312 75.5625,51.5193689 C75.5625,55.393331 74.050793,59.0383197 71.3057109,61.7832585 C68.5607813,64.5283497 64.9158047,66.0399094 61.0420078,66.0399094 L58.2058242,66.0399094 C57.5327695,66.0399094 56.9870742,66.5856065 56.9870742,67.2586635 C56.9870742,67.9317204 57.5327695,68.4774175 58.2058242,68.4774175 L61.0420078,68.4774175 C65.5667695,68.4774175 69.8240156,66.7122046 73.0293281,63.5068815 C76.2346406,60.3015583 78,56.044298 78,51.5193689 C78,50.846312 77.4543047,50.3006149 76.78125,50.3006149 Z M31.1002148,55.9527391 C33.2414062,58.09409 34.4205469,60.9362245 34.4205469,63.95584 L34.4205469,76.7812459 C34.4205469,77.4543029 33.8748516,78 33.2017969,78 L25.4290664,78 C24.7560117,78 24.2103164,77.4543029 24.2103164,76.7812459 L24.2103164,63.95584 C24.2103164,63.6627296 24.0933164,63.3843967 23.8809492,63.1720288 C23.668582,62.9595085 23.39025,62.8426605 23.0971406,62.8426605 L16.9581445,62.8426605 C13.9385391,62.8426605 11.0961094,61.663516 8.95507031,59.5224698 C6.81372656,57.3811189 5.63443359,54.5389844 5.63443359,51.5193689 L5.63443359,34.5377069 C5.63443359,32.9920221 6.32744531,31.6061464 7.41792187,30.6712097 C5.71776562,29.5755498 4.58859375,27.666981 4.58859375,25.4982081 C4.58859375,22.1064156 7.34799609,19.3471564 10.7397773,19.3471564 C14.1315586,19.3471564 16.8908086,22.1064156 16.8908086,25.4982081 C16.8908086,27.6688091 15.7596562,29.5790537 14.0569102,30.6742566 C15.1502812,31.6091933 15.8449687,32.9938502 15.8449687,34.5377069 L15.8449687,35.0940682 L18.9474492,37.096024 L30.3115312,37.096024 C32.3582695,37.096024 34.0233867,38.7612991 34.0233867,40.8080442 C34.0233867,42.8547893 32.3581172,44.519912 30.3115312,44.519912 L17.8580391,44.5174745 C17.1481172,44.5144276 16.457543,44.3104387 15.8608125,43.9274452 L15.8449687,43.9172382 L15.8449687,51.5192166 C15.8449687,51.8124793 15.9619687,52.0908122 16.1743359,52.3031801 C16.3865508,52.5153957 16.6648828,52.6322437 16.9581445,52.6322437 L23.0971406,52.6322437 C26.1167461,52.6323961 28.9588711,53.8116929 31.1002148,55.9527391 Z M18.2291484,39.5335322 L13.5313242,36.5021861 C13.2485742,36.3205918 12.909,36.2596541 12.5776523,36.3318653 C12.2463047,36.4042288 11.9630977,36.6012099 11.7799805,36.8865507 C11.5968633,37.1718915 11.5356211,37.5116192 11.6079844,37.8426632 C11.6801953,38.174012 11.8771758,38.45722 12.1625156,38.6403378 L17.179957,41.8779579 C17.3830312,42.0082123 17.6211445,42.0787477 17.8662656,42.0801188 L30.3118359,42.0825563 C31.0141406,42.0825563 31.5858867,41.5108083 31.5858867,40.8081966 C31.5858867,40.1054325 31.0141406,39.5336845 30.3115312,39.5336845 L18.2291484,39.5336845 L18.2291484,39.5335322 Z M7.02609375,25.4982081 C7.02609375,27.5458673 8.692125,29.2119041 10.7397773,29.2119041 C12.7874297,29.2119041 14.4533086,27.5458673 14.4533086,25.4982081 C14.4533086,23.450549 12.7874297,21.7846645 10.7397773,21.7846645 C8.692125,21.7846645 7.02609375,23.450549 7.02609375,25.4982081 Z M31.9828945,63.95584 C31.9828945,61.5871915 31.0572539,59.3570239 29.3764453,57.6763621 C27.6957891,55.9955479 25.4656289,55.0699042 23.0969883,55.0699042 L16.9579922,55.0699042 C16.013918,55.0699042 15.1234688,54.6994029 14.4505664,54.0269554 C13.7778164,53.3537461 13.4073164,52.4632939 13.4073164,51.5192166 L13.4073164,42.344436 L10.8432188,40.6898251 C10.0124883,40.1566202 9.43723828,39.3292385 9.22639453,38.3620048 C9.01539844,37.3944664 9.19379297,36.4028577 9.72867188,35.5695346 C10.2635508,34.7363639 11.0907773,34.1614166 12.0581602,33.9502675 C12.4806094,33.8579469 12.9077813,33.8401226 13.3244414,33.8937478 C13.0330078,32.7398924 11.9810742,31.8815848 10.7280469,31.8815848 C9.26356641,31.8815848 8.07193359,33.0730693 8.07193359,34.5377069 L8.07193359,51.5193689 C8.07193359,53.8880174 8.99757422,56.118185 10.6783828,57.7991515 C12.3590391,59.479661 14.5893516,60.4053047 16.9579922,60.4053047 L23.0969883,60.4053047 C24.0410625,60.4053047 24.9316641,60.775806 25.6044141,61.4485582 C26.2771641,62.1213104 26.6476641,63.011915 26.6476641,63.9559923 L26.6476641,75.5624919 L31.9828945,75.5624919 L31.9828945,63.95584 L31.9828945,63.95584 Z M61.0420078,62.8428128 L54.9030117,62.8428128 C54.60975,62.8428128 54.331418,62.9598132 54.1190508,63.1721811 C53.9066836,63.384549 53.7898359,63.662882 53.7898359,63.9559923 L53.7898359,76.7812459 C53.7898359,77.4543029 53.2441406,78 52.5710859,78 L44.7983555,78 C44.1253008,78 43.5796055,77.4543029 43.5796055,76.7812459 L43.5796055,63.95584 C43.5796055,60.9362245 44.7587461,58.0939377 46.8999375,55.9527391 C49.0412813,53.8115406 51.8834063,52.6323961 54.9030117,52.6323961 L61.0420078,52.6323961 C61.3352695,52.6323961 61.6136016,52.5153957 61.8259688,52.3030278 C62.0381836,52.0908122 62.1550313,51.8123269 62.1550313,51.5192166 L62.1550313,43.9172382 L62.141625,43.9259218 C61.5426094,44.3104387 60.8520352,44.51458 60.1418086,44.5176269 L47.6887734,44.5200644 C45.6417305,44.5200644 43.9766133,42.8547893 43.9766133,40.8081966 C43.9766133,38.7612991 45.6418828,37.0961764 47.6884688,37.0961764 L59.0525508,37.0961764 L62.1550313,35.0942205 L62.1550313,34.5378593 C62.1550313,32.9938502 62.8497188,31.6091933 63.9430898,30.6744089 C62.2403438,29.5793584 61.1090391,27.6691138 61.1090391,25.4983605 C61.1090391,22.1065679 63.8684414,19.3473087 67.2602227,19.3473087 C70.6520039,19.3473087 73.4112539,22.1065679 73.4112539,25.4983605 C73.4112539,27.666981 72.2822344,29.5757021 70.5820781,30.671362 C71.6724023,31.6062987 72.3654141,32.9923268 72.3654141,34.5378593 L72.3654141,51.5195213 C72.3654141,54.5392891 71.1862734,57.3815759 69.045082,59.5227745 C66.9038906,61.6636683 64.0617656,62.8428128 61.0420078,62.8428128 Z M63.5465391,25.4982081 C63.5465391,27.5458673 65.2125703,29.2119041 67.2602227,29.2119041 C69.307875,29.2119041 70.9737539,27.5458673 70.9737539,25.4982081 C70.9737539,23.450549 69.307875,21.7846645 67.2602227,21.7846645 C65.2125703,21.7846645 63.5465391,23.450549 63.5465391,25.4982081 Z M65.8348945,38.6418612 C66.1228242,38.4570676 66.3198047,38.1738597 66.3918633,37.8425109 C66.4642266,37.5113145 66.4029844,37.1717391 66.2198672,36.8865507 C66.03675,36.6010576 65.7533906,36.4040764 65.4221953,36.3317129 C65.0908477,36.2596541 64.7515781,36.3205918 64.4660859,36.5037096 L59.7708516,39.5335322 L47.6884688,39.5335322 C46.9858594,39.5335322 46.4141133,40.1052802 46.4141133,40.8080442 C46.4141133,41.5106559 46.9858594,42.0824039 47.6884688,42.0824039 L60.133582,42.0799664 C60.3787031,42.0785953 60.6168164,42.0080599 60.8223281,41.8762821 L65.8348945,38.6418612 Z M54.9030117,60.4053047 L61.0420078,60.4053047 C63.4106484,60.4053047 65.6408086,59.4798134 67.3214648,57.7989992 C69.0022734,56.1183373 69.9279141,53.8880174 69.9279141,51.5193689 L69.9279141,34.5377069 C69.9279141,33.0732216 68.7365859,31.8815848 67.2719531,31.8815848 C66.0187734,31.8815848 64.9668398,32.7400447 64.6754063,33.8939001 C65.0920664,33.8401226 65.5190859,33.8580992 65.9416875,33.9502675 C66.9090703,34.1614166 67.7362969,34.7363639 68.2711758,35.5696869 C68.8060547,36.4028577 68.9844492,37.3946188 68.7734531,38.3620048 C68.562457,39.3293909 67.9873594,40.1566202 67.1540391,40.6915009 L64.5925313,42.344436 L64.5925313,51.5193689 C64.5925313,52.4631416 64.2221836,53.3535938 63.5497383,54.0266507 C62.8763789,54.6995553 61.9859297,55.0700565 61.0418555,55.0700565 L54.9028594,55.0700565 C52.5342188,55.0700565 50.3040586,55.9957002 48.6234023,57.6765144 C46.9425938,59.3571762 46.0169531,61.5873438 46.0169531,63.9559923 L46.0169531,75.5624919 L51.3521836,75.5624919 L51.3521836,63.95584 C51.3521836,63.011915 51.7226836,62.1214628 52.3951289,61.4485582 C53.0681836,60.7756536 53.9586328,60.4053047 54.9030117,60.4053047 Z M55.9407773,49.7870624 C56.613832,49.7870624 57.1595273,49.2413652 57.1595273,48.5683083 C57.1595273,47.8952514 56.613832,47.3495543 55.9407773,47.3495543 L22.0590703,47.3495543 C21.3860156,47.3495543 20.8403203,47.8952514 20.8403203,48.5683083 C20.8403203,49.2413652 21.3860156,49.7870624 22.0590703,49.7870624 L37.78125,49.7870624 L37.78125,76.7812459 C37.78125,77.4543029 38.3269453,78 39,78 C39.6730547,78 40.21875,77.4543029 40.21875,76.7812459 L40.21875,49.7870624 L55.9407773,49.7870624 Z M22.6597617,23.0271843 C20.7591211,20.0931862 19.9501758,16.5977996 20.3775,13.1089638 C21.377332,4.94224518 28.8350156,-0.889340632 37.0020117,0.111865824 C38.8304414,0.335811882 40.5677695,0.883184797 42.1503164,1.71666023 C49.183418,1.75626973 55.2623906,6.73853631 56.6662383,13.6769031 C57.3633633,17.1217115 56.8284844,20.6695045 55.1618437,23.7424405 L57.6069609,28.6569139 C57.8278594,29.1008451 57.7577812,29.634507 57.4294805,30.006227 C57.1014844,30.377947 56.5807734,30.5141428 56.1124687,30.3497633 L51.0133711,28.5616988 C49.2457266,29.8915118 47.1810117,30.82005 45.0003633,31.2613914 C44.0214023,31.4595912 43.0308633,31.5572439 42.0439805,31.5572439 C39.6375586,31.5572439 37.2520078,30.9739177 35.1022852,29.8436757 C34.5311484,29.8401718 33.9549844,29.8046756 33.3745547,29.7335308 C31.1664844,29.4632721 29.0358047,28.6975899 27.1698984,27.5093046 L22.2254297,29.6884369 C21.7711406,29.8884649 21.2417461,29.7935544 20.8857187,29.4483423 C20.5295391,29.1031303 20.4181758,28.5766285 20.6037305,28.1168535 L22.6597617,23.0271843 Z M46.2134766,4.86698712 C46.4662148,5.14486304 46.7098125,5.43340306 46.9435078,5.7323025 C49.398375,8.87211763 50.4835195,12.7802049 49.9990664,16.7362805 C49.2900586,22.5270381 45.332168,27.1398698 40.1786836,28.979122 C41.6093438,29.1949938 43.0779375,29.1633062 44.5169766,28.8723287 C46.5343125,28.4640461 48.4323633,27.5580548 50.0059219,26.2520075 C50.3352891,25.9788542 50.7837891,25.8984165 51.1876523,26.0397919 L54.0884297,27.0569945 L52.6896094,24.2456336 C52.5039023,23.8726949 52.5217266,23.4307442 52.7368359,23.073954 C54.3510703,20.3942185 54.8981367,17.2286572 54.2771836,14.1604438 C53.386125,9.75662839 50.2464727,6.29810907 46.2134766,4.86698712 Z M25.0255078,22.1722283 C25.267582,22.5113466 25.3196836,22.9505551 25.1636836,23.3369001 L23.9875898,26.2483512 L26.8003125,25.008726 C26.9576836,24.9394094 27.1251094,24.9051319 27.2917734,24.9051319 C27.5397891,24.9051319 27.7859766,24.9806947 27.9949922,25.1284686 C29.6654414,26.3082225 31.6282383,27.0640024 33.6710156,27.314304 C34.1835,27.3770698 34.6933945,27.4075387 35.1973477,27.4075387 C41.4100781,27.4079957 46.8059414,22.7601248 47.5798477,16.4399709 C47.985082,13.1299873 47.0772656,9.86052717 45.0235195,7.2335028 C42.9696211,4.60647844 40.0156758,2.93648069 36.7057031,2.53124497 C33.3963398,2.12677097 30.1262813,3.03382867 27.4992656,5.0875816 C24.87225,7.14148687 23.2022578,10.095442 22.7968711,13.4054257 C22.4163164,16.5126391 23.2077422,19.6260987 25.0255078,22.1722283 Z M40.983668,16.4460647 C41.8249102,16.4460647 42.5071055,15.7638671 42.5071055,14.9226221 C42.5071055,14.0813772 41.8250625,13.3991796 40.983668,13.3991796 C40.1422734,13.3991796 39.4602305,14.0812248 39.4602305,14.9226221 C39.4602305,15.7640195 40.1421211,16.4460647 40.983668,16.4460647 Z M35.2168477,16.4460647 C36.0582422,16.4460647 36.7402852,15.7638671 36.7402852,14.9226221 C36.7402852,14.0813772 36.0580898,13.3991796 35.2168477,13.3991796 C34.3754531,13.3991796 33.6934102,14.0812248 33.6934102,14.9226221 C33.6934102,15.7640195 34.3754531,16.4460647 35.2168477,16.4460647 Z M29.4785156,16.4460647 C30.3199102,16.4460647 31.0019531,15.7638671 31.0019531,14.9226221 C31.0019531,14.0813772 30.3199102,13.3991796 29.4785156,13.3991796 C28.6372734,13.3991796 27.9550781,14.0813772 27.9550781,14.9226221 C27.9550781,15.7638671 28.6371211,16.4460647 29.4785156,16.4460647 Z" id="path-2"></path>
    </defs>
    <g id="Page-1" stroke="none" stroke-width="1" fill="none" fill-rule="evenodd">
        <g id="HOME" transform="translate(-144.000000, -2742.000000)" fill-rule="nonzero">
            <g id="Group-20" transform="translate(120.000000, 2466.000000)">
                <g id="Shape" transform="translate(24.000000, 276.000000)">
                    <use fill="url(#linearGradient-1)" xlink:href="#path-2"></use>
                    <use fill="#FFFFFF" xlink:href="#path-2"></use>
                </g>
            </g>
        </g>
    </g>
</svg>