<svg width="176" height="378" viewBox="0 0 176 378" fill="none" xmlns="http://www.w3.org/2000/svg">
<path d="M169.365 209.035L168.659 209.587L168.659 209.587L169.365 209.035ZM14.7959 11.1403L15.502 10.5888L15.5017 10.5884L14.7959 11.1403ZM-26.7967 11.1403L-27.5025 10.5884L-27.5028 10.5888L-26.7967 11.1403ZM-181.363 209.035L-180.657 209.587L-180.657 209.587L-181.363 209.035ZM-181.363 334.362L-182.07 333.811L-182.07 333.811L-181.363 334.362ZM169.365 334.362L170.071 333.811L170.071 333.811L169.365 334.362ZM-26.7967 136.488L-26.0906 137.04L-26.0903 137.039L-26.7967 136.488ZM14.7959 136.488L14.0895 137.039L14.0898 137.04L14.7959 136.488ZM148.567 250.771H104.774V252.563H148.567V250.771ZM168.659 209.587C181.722 226.302 169.798 250.771 148.567 250.771V252.563C171.291 252.563 184.053 226.375 170.071 208.483L168.659 209.587ZM14.0897 11.6919L168.659 209.587L170.071 208.484L15.502 10.5888L14.0897 11.6919ZM-26.0909 11.6923C-15.8775 -1.36942 3.87662 -1.36942 14.09 11.6923L15.5017 10.5884C4.57083 -3.39081 -16.5717 -3.39081 -27.5025 10.5884L-26.0909 11.6923ZM-180.657 209.587L-26.0906 11.6919L-27.5028 10.5888L-182.07 208.484L-180.657 209.587ZM-160.566 250.771C-181.799 250.771 -193.723 226.302 -180.657 209.587L-182.069 208.483C-196.054 226.375 -183.292 252.563 -160.566 252.563V250.771ZM-116.773 250.771H-160.566V252.563H-116.773V250.771ZM-180.657 334.914L-116.067 252.218L-117.479 251.115L-182.07 333.811L-180.657 334.914ZM-160.566 376.104C-181.798 376.104 -193.724 351.661 -180.657 334.913L-182.07 333.811C-196.054 351.734 -183.292 377.896 -160.566 377.896V376.104ZM148.567 376.104H-160.566V377.896H148.567V376.104ZM168.658 334.913C181.723 351.661 169.797 376.104 148.567 376.104V377.896C171.291 377.896 184.053 351.734 170.071 333.811L168.658 334.913ZM104.068 252.218L168.659 334.914L170.071 333.811L105.48 251.115L104.068 252.218ZM-116.773 252.563H104.774V250.771H-116.773V252.563ZM-27.5028 135.936L-117.479 251.115L-116.067 252.218L-26.0906 137.04L-27.5028 135.936ZM15.5023 135.937C4.57138 121.928 -16.5722 121.928 -27.5031 135.937L-26.0903 137.039C-15.8769 123.95 3.87607 123.95 14.0895 137.039L15.5023 135.937ZM105.48 251.115L15.502 135.936L14.0898 137.04L104.068 252.218L105.48 251.115Z" fill="#00BFBF"/>
</svg>
