<svg width="270" height="592" viewBox="0 0 270 592" fill="none" xmlns="http://www.w3.org/2000/svg">
<path d="M559.189 327.331L558.086 328.193L558.086 328.193L559.189 327.331ZM317.515 17.8578L318.619 16.9961L318.618 16.9955L317.515 17.8578ZM252.484 17.8578L251.381 16.9955L251.38 16.9961L252.484 17.8578ZM10.8131 327.331L11.9162 328.194L11.9165 328.193L10.8131 327.331ZM10.8131 523.322L9.70965 522.46L9.7092 522.461L10.8131 523.322ZM559.189 523.322L560.293 522.461L560.292 522.46L559.189 523.322ZM252.484 213.88L253.587 214.742L253.587 214.741L252.484 213.88ZM317.515 213.88L316.411 214.741L316.412 214.742L317.515 213.88ZM526.672 392.6H458.199V395.4H526.672V392.6ZM558.086 328.193C578.512 354.334 559.866 392.6 526.672 392.6V395.4C562.2 395.4 582.154 354.448 560.292 326.469L558.086 328.193ZM316.412 18.7194L558.086 328.193L560.292 326.47L318.619 16.9961L316.412 18.7194ZM253.587 18.72C269.556 -1.70668 300.443 -1.70668 316.412 18.72L318.618 16.9955C301.528 -4.86517 268.471 -4.86517 251.381 16.9955L253.587 18.72ZM11.9165 328.193L253.587 18.7194L251.38 16.9961L9.70965 326.47L11.9165 328.193ZM43.3305 392.6C10.1323 392.6 -8.5129 354.334 11.9162 328.194L9.70997 326.469C-12.1553 354.448 7.79868 395.4 43.3305 395.4V392.6ZM111.803 392.6H43.3305V395.4H111.803V392.6ZM11.9165 524.184L112.906 394.862L110.7 393.138L9.70966 522.46L11.9165 524.184ZM43.3305 588.6C10.1331 588.6 -8.51418 550.374 11.9169 524.183L9.7092 522.461C-12.1541 550.488 7.79785 591.4 43.3305 591.4V588.6ZM526.672 588.6H43.3305V591.4H526.672V588.6ZM558.085 524.183C578.513 550.374 559.865 588.6 526.672 588.6V591.4C562.201 591.4 582.153 550.488 560.293 522.461L558.085 524.183ZM457.096 394.862L558.086 524.184L560.292 522.46L459.303 393.138L457.096 394.862ZM111.803 395.4H458.199V392.6H111.803V395.4ZM251.38 213.018L110.7 393.138L112.906 394.862L253.587 214.742L251.38 213.018ZM318.619 213.019C301.528 191.113 268.47 191.113 251.38 213.019L253.587 214.741C269.557 194.272 300.442 194.272 316.411 214.741L318.619 213.019ZM459.302 393.138L318.618 213.018L316.412 214.742L457.096 394.862L459.302 393.138Z" fill="#00BFBF"/>
</svg>
