<?xml version="1.0" encoding="UTF-8"?>
<svg width="40px" height="40px" viewBox="0 0 40 40" version="1.1" xmlns="http://www.w3.org/2000/svg" xmlns:xlink="http://www.w3.org/1999/xlink">
    <title>Group 5</title>
    <g id="Page-1" stroke="none" stroke-width="1" fill="none" fill-rule="evenodd">
        <g id="4-blog-detail" transform="translate(-120.000000, -1038.000000)">
            <g id="Group-5" transform="translate(120.000000, 1038.000000)">
                <circle id="Oval-Copy" stroke-opacity="0.1" stroke="#000000" cx="20" cy="20" r="19.5"></circle>
                <path d="M18.4684992,27 C15.6311915,27 13.388686,26.5408549 12.3158111,25.7405344 L12.2949295,25.7249172 L12.2759934,25.7073779 C12.0211337,25.4711981 11.9376072,25.1613772 12.0470736,24.8574429 L12.0570605,24.8322151 C12.1898728,24.5245566 12.515289,24.3174488 12.8679422,24.3155267 C13.593741,24.3038739 14.22875,24.2237457 14.8050052,24.0681745 C13.8858244,23.6722189 13.2473134,22.9866247 12.8674234,21.994333 C12.7396693,21.6848725 12.8499139,21.3417751 13.144332,21.13719 C13.2169637,21.0866144 13.2990635,21.0484124 13.3859623,21.0228242 C12.8752054,20.4767034 12.4979093,19.8552597 12.2866287,19.1980166 L12.280014,19.1775942 L12.2754746,19.1566912 C12.2037507,18.8242855 12.3641891,18.4825095 12.658218,18.3353476 C12.7815623,18.2697554 12.9155419,18.235758 13.0500404,18.2328748 C12.9050362,17.9435966 12.7995905,17.6466299 12.7370753,17.3478612 C12.5635373,16.5199103 12.7067256,15.6899172 13.1624899,14.8809472 L13.2679356,14.6856123 C13.3523701,14.5293204 13.5137163,14.4195196 13.6997055,14.3915288 C13.8856947,14.3636581 14.076353,14.4206008 14.2095545,14.5439765 L14.4016396,14.7221325 C15.9191245,16.1956736 17.278376,16.8948428 19.6284024,17.3732091 C19.7333294,16.5376899 20.123336,15.7610355 20.7525086,15.149803 C21.5012642,14.4225229 22.5011182,14.0144339 23.5678971,14.0004986 L23.5749009,14.0004986 C24.353228,14.0004986 25.3187116,14.4120714 25.902619,14.7023107 C26.4035188,14.5504637 27.0070108,14.315365 27.6332004,14.0668115 C27.9261917,13.9394715 28.287405,13.9977356 28.5177514,14.2110903 C28.7435584,14.4202404 28.8062032,14.7151648 28.6863609,15.0018002 C28.6408363,15.1191693 28.5892159,15.2343761 28.531759,15.34706 C28.6174904,15.3834601 28.6959586,15.4328344 28.7622351,15.4942219 C28.9626209,15.6798261 29.0461475,15.9703057 28.9749424,16.2343562 L28.9672901,16.2594638 C28.7273459,16.9756917 28.2663937,17.5590535 27.6568057,17.9252164 C27.5549915,22.9468609 23.4723085,27 18.4684992,27 L18.4684992,27 Z M13.2718266,25.2262486 C14.2828348,25.7560314 16.2095218,26.0765441 18.4684992,26.0765441 C20.6403185,26.0765441 22.689831,25.2129139 24.2393518,23.6447087 C25.8015831,22.0636493 26.6618803,19.9640995 26.6618803,17.7327646 L26.6618803,17.707657 C26.6618803,17.5055947 26.7819821,17.3211919 26.9752345,17.2262874 C27.3673163,17.0339559 27.6848208,16.7063554 27.8913025,16.2874546 C27.6783358,16.3185688 27.4618672,16.2394017 27.3291846,16.0743401 C27.1749718,15.8824891 27.1732857,15.623364 27.3249045,15.4298311 C27.4067449,15.3253161 27.4809331,15.2165965 27.5470799,15.1041528 C27.0063623,15.3145042 26.4928818,15.5031117 26.0471043,15.6284095 C25.8851096,15.6738195 25.7045678,15.6560399 25.5565806,15.5795157 C24.7629489,15.1699852 24.0237911,14.9251558 23.5781434,14.9239545 C21.9336826,14.9472602 20.5966097,16.2517753 20.5966097,17.8334354 C20.5966097,17.9969353 20.5182712,18.1502239 20.3819569,18.2541382 C20.245513,18.3579324 20.068084,18.3994982 19.8948054,18.3677833 C17.185122,17.8733193 15.5794414,17.1318636 13.9096891,15.5777138 C13.6703934,16.108818 13.6050248,16.6437666 13.7156586,17.1719877 C13.8278487,17.7070563 14.1262874,18.2432062 14.5788092,18.7224134 C14.7507908,18.9042935 14.7736179,19.1644998 14.6356176,19.3698056 C14.498136,19.5743907 14.2367914,19.6700159 13.9855633,19.6076673 C13.7891982,19.5588937 13.6086564,19.4948632 13.437453,19.4125727 C13.7862151,20.1142646 14.3860756,20.7632186 15.1401489,21.2418251 C15.3586927,21.3805778 15.4500012,21.6392223 15.3623243,21.8708372 C15.2745177,22.1028123 15.0292558,22.2521366 14.7641499,22.2338765 C14.4753089,22.2140547 14.2194117,22.1632388 13.9838773,22.0775846 C14.4066979,22.875142 15.0823029,23.3139848 16.1231419,23.4816893 C16.3709978,23.5216933 16.5639908,23.7029728 16.6034194,23.9327856 C16.6429778,24.1625984 16.5201523,24.390369 16.2979769,24.4995691 C15.4108319,24.9351683 14.441198,25.1689456 13.2718266,25.2262486 Z" id="Shape" fill="#2F2F2F" fill-rule="nonzero"></path>
            </g>
        </g>
    </g>
</svg>