<svg width="22" height="18" viewBox="0 0 22 18" fill="none" xmlns="http://www.w3.org/2000/svg">
<path fill-rule="evenodd" clip-rule="evenodd" d="M0.407901 16.2492C1.79362 17.354 4.69003 17.9878 8.35469 17.9878C14.8176 17.9878 20.0908 12.3928 20.2223 5.46088C21.0096 4.95543 21.605 4.15015 21.9149 3.16146L21.9248 3.1268C22.0167 2.76231 21.9089 2.36133 21.65 2.10512C21.5644 2.02038 21.4631 1.95222 21.3524 1.90197C21.4266 1.74642 21.4932 1.58739 21.552 1.42537C21.7068 1.0297 21.6259 0.622584 21.3343 0.333871C21.0368 0.0393546 20.5702 -0.0410736 20.1918 0.134708C19.383 0.477813 18.6035 0.802345 17.9566 1.01196C17.2024 0.611307 15.9554 0.0431687 14.9501 0.0431687H14.9411C13.5632 0.0624052 12.2718 0.625734 11.3047 1.62968C10.4921 2.47343 9.98834 3.54553 9.85282 4.69888C6.81753 4.03854 5.06193 3.07341 3.10195 1.03932L2.85385 0.79339C2.68181 0.623081 2.43556 0.544477 2.19533 0.58295C1.95511 0.621589 1.74672 0.773158 1.63766 0.988905L1.50147 1.25855C0.912804 2.37526 0.727863 3.52098 0.952004 4.66389C1.03275 5.07632 1.16894 5.48625 1.35623 5.88557C1.18251 5.88955 1.00946 5.93648 0.850152 6.02703C0.470385 6.23017 0.263164 6.70196 0.355802 7.16082L0.361665 7.18967L0.370209 7.21786C0.643098 8.12513 1.13041 8.98297 1.7901 9.73684C1.67787 9.77216 1.57183 9.8249 1.47802 9.89471C1.09775 10.1771 0.955354 10.6507 1.12036 11.0779C1.61103 12.4477 2.43572 13.3941 3.62293 13.9407C2.87865 14.1554 2.05847 14.266 1.12103 14.2821C0.665545 14.2848 0.245239 14.5707 0.0736991 14.9954L0.0608001 15.0302C-0.0805863 15.4497 0.0272962 15.8774 0.356472 16.2034L0.38093 16.2276L0.407901 16.2492ZM8.35469 16.713C5.437 16.713 2.9485 16.2706 1.64269 15.5393C3.15304 15.4602 4.40542 15.1375 5.55125 14.5362C5.83821 14.3854 5.99685 14.071 5.94576 13.7538C5.89483 13.4365 5.64557 13.1863 5.32544 13.1311C3.98109 12.8996 3.10848 12.2938 2.56237 11.1928C2.86658 11.3111 3.1971 11.3812 3.57017 11.4086C3.91258 11.4338 4.22936 11.2277 4.34277 10.9074C4.45601 10.5877 4.33808 10.2307 4.05581 10.0392C3.08185 9.37848 2.30707 8.48266 1.85661 7.51404C2.07773 7.62763 2.31092 7.71602 2.56455 7.78335C2.88903 7.86941 3.22658 7.73741 3.40415 7.455C3.58239 7.1716 3.55291 6.81241 3.33078 6.56134C2.7463 5.89984 2.36084 5.15973 2.21594 4.42112C2.07304 3.69196 2.15747 2.95351 2.46655 2.22037C4.62319 4.36573 6.69708 5.38924 10.1969 6.0718C10.4207 6.11558 10.6499 6.0582 10.8261 5.91493C11.0022 5.77148 11.1034 5.55988 11.1034 5.33418C11.1034 3.15085 12.8303 1.35009 14.9543 1.31791C15.5299 1.31957 16.4846 1.65754 17.5096 2.22286C17.7008 2.32849 17.934 2.35303 18.1432 2.29035C18.719 2.11739 19.3822 1.85703 20.0806 1.56666C19.9951 1.72188 19.8993 1.87196 19.7936 2.01623C19.5978 2.28338 19.5999 2.64108 19.7991 2.90592C19.9705 3.13377 20.2501 3.24305 20.5251 3.2001C20.2585 3.77835 19.8484 4.23058 19.342 4.49607C19.0924 4.62708 18.9372 4.88163 18.9372 5.16056V5.19522C18.9372 8.27537 17.8261 11.1736 15.8083 13.3561C13.8069 15.5209 11.1598 16.713 8.35469 16.713Z" fill="white"/>
</svg>
