<svg width="60" height="60" viewBox="0 0 60 60" fill="none" xmlns="http://www.w3.org/2000/svg">
<path fill-rule="evenodd" clip-rule="evenodd" d="M31.92 54C31.432 57.387 28.519 60 25 60C21.14 60 18 56.86 18 53C18 49.14 21.14 46 25 46C28.519 46 31.432 48.613 31.92 52H42.586L41.293 50.707L42.707 49.293L45.707 52.293C45.8851 52.4701 45.9895 52.7075 46.0001 52.9574L46 53L46.0001 53.0426C45.9895 53.2925 45.8851 53.5299 45.707 53.707L42.707 56.707L41.293 55.293L42.586 54H31.92ZM46.0001 53.0426C46.0231 56.8831 49.1542 60 53 60C56.86 60 60 56.86 60 53C60 49.14 56.86 46 53 46C49.1542 46 46.0231 49.1169 46.0001 52.9574C46.0007 52.9716 46.001 52.9858 46.001 53C46.001 53.0142 46.0007 53.0284 46.0001 53.0426ZM30 53C30 50.243 27.757 48 25 48C22.243 48 20 50.243 20 53C20 55.757 22.243 58 25 58C27.757 58 30 55.757 30 53ZM58 53C58 50.243 55.757 48 53 48C50.243 48 48 50.243 48 53C48 55.757 50.243 58 53 58C55.757 58 58 55.757 58 53Z" fill="white"/>
<path fill-rule="evenodd" clip-rule="evenodd" d="M24.707 3.293L23.293 4.707L24.586 6H13.92C13.432 2.613 10.52 0 7 0C3.14 0 0 3.14 0 7C0 10.86 3.14 14 7 14C10.519 14 13.432 11.387 13.92 8H24.586L23.293 9.293L24.707 10.707L27.707 7.707C27.8851 7.52989 27.9895 7.29249 28.0001 7.04257C28.0231 10.8831 31.1542 14 35 14C38.519 14 41.432 11.387 41.92 8H47.5C53.29 8 58 12.71 58 18.5C58 24.29 53.29 29 47.5 29H31.414L32.707 27.707L31.293 26.293L28.293 29.293C28.1149 29.4701 28.0105 29.7075 27.9999 29.9574C27.9769 26.1169 24.8458 23 21 23C17.481 23 14.568 25.613 14.08 29H12.5C5.607 29 0 34.607 0 41.5C0 48.393 5.607 54 12.5 54H14.586L13.293 55.293L14.707 56.707L17.707 53.707C17.8952 53.5199 18.001 53.2654 18.001 53C18.001 52.7346 17.8952 52.4801 17.707 52.293L14.707 49.293L13.293 50.707L14.586 52H12.5C6.71 52 2 47.29 2 41.5C2 35.71 6.71 31 12.5 31H14.08C14.568 34.387 17.481 37 21 37C24.8458 37 27.9769 33.8831 27.9999 30.0426C28.0105 30.2925 28.1149 30.5299 28.293 30.707L31.293 33.707L32.707 32.293L31.414 31H47.5C54.393 31 60 25.393 60 18.5C60 11.607 54.393 6 47.5 6H41.92C41.432 2.613 38.52 0 35 0C31.1542 0 28.0231 3.11694 28.0001 6.95743C27.9895 6.70751 27.8851 6.47011 27.707 6.293L24.707 3.293ZM27.9999 30.0426C27.9993 30.0284 27.999 30.0142 27.999 30C27.999 29.9858 27.9993 29.9716 27.9999 29.9574L28 30L27.9999 30.0426ZM28.0001 6.95743C28.0007 6.97158 28.001 6.98578 28.001 7C28.001 7.01422 28.0007 7.02842 28.0001 7.04257L28 7L28.0001 6.95743ZM16 30C16 32.757 18.243 35 21 35C23.757 35 26 32.757 26 30C26 27.243 23.757 25 21 25C18.243 25 16 27.243 16 30ZM2 7C2 9.757 4.243 12 7 12C9.757 12 12 9.757 12 7C12 4.243 9.757 2 7 2C4.243 2 2 4.243 2 7ZM30 7C30 9.757 32.243 12 35 12C37.757 12 40 9.757 40 7C40 4.243 37.757 2 35 2C32.243 2 30 4.243 30 7Z" fill="white"/>
</svg>
