<svg width="69" height="69" viewBox="0 0 69 69" fill="none" xmlns="http://www.w3.org/2000/svg">
<path d="M46.8984 26.4141H49.0547V7.00781C49.0547 6.41239 48.572 5.92972 47.9766 5.92969H43.125V8.08594H46.8984V26.4141Z" fill="white"/>
<rect x="29.6484" y="34.5" width="9.70312" height="2.15625" fill="white"/>
<path fill-rule="evenodd" clip-rule="evenodd" d="M39.8906 0H29.1094C28.514 2.97688e-05 28.0313 0.482705 28.0312 1.07812V11.8594C28.0313 12.4548 28.514 12.9375 29.1094 12.9375H39.8906C40.486 12.9375 40.9687 12.4548 40.9688 11.8594V1.07812C40.9687 0.482705 40.486 2.97688e-05 39.8906 0ZM22.1016 8.08594H25.875V5.92969H21.0234C20.428 5.92972 19.9453 6.41239 19.9453 7.00781V26.4141H22.1016V8.08594ZM5.39062 35.5781V53.9062H7.54688V36.6562H12.3984V34.5H6.46875C5.87333 34.5 5.39065 34.9827 5.39062 35.5781ZM19.9453 62.5312V43.6641H22.1016V61.4531H25.875V63.6094H21.0234C20.428 63.6093 19.9453 63.1267 19.9453 62.5312ZM46.8984 61.4531H43.125V63.6094H47.9766C48.572 63.6093 49.0547 63.1267 49.0547 62.5312V43.6641H46.8984V61.4531ZM63.6094 35.5781V53.9062H61.4531V36.6562H56.6016V34.5H62.5312C63.1267 34.5 63.6093 34.9827 63.6094 35.5781ZM30.1875 10.7812H38.8125V2.15625H30.1875V10.7812ZM53.3672 28.5703H42.5859C41.9905 28.5703 41.5078 29.053 41.5078 29.6484V40.4297C41.5078 41.0251 41.9905 41.5078 42.5859 41.5078H53.3672C53.9626 41.5078 54.4453 41.0251 54.4453 40.4297V29.6484C54.4453 29.053 53.9626 28.5703 53.3672 28.5703ZM43.6641 39.3516H52.2891V30.7266H43.6641V39.3516ZM15.6328 28.5703C15.0374 28.5703 14.5547 29.053 14.5547 29.6484V40.4297C14.5547 41.0251 15.0374 41.5078 15.6328 41.5078H26.4141C27.0095 41.5078 27.4922 41.0251 27.4922 40.4297V29.6484C27.4922 29.053 27.0095 28.5703 26.4141 28.5703H15.6328ZM16.7109 30.7266V39.3516H25.3359V30.7266H16.7109ZM57.1406 56.0625C56.5452 56.0625 56.0625 56.5452 56.0625 57.1406V67.9219C56.0625 68.5173 56.5452 69 57.1406 69H67.9219C68.5173 69 69 68.5173 69 67.9219V57.1406C69 56.5452 68.5173 56.0625 67.9219 56.0625H57.1406ZM39.8906 56.0625H29.1094C28.514 56.0625 28.0313 56.5452 28.0312 57.1406V67.9219C28.0313 68.5173 28.514 69 29.1094 69H39.8906C40.486 69 40.9687 68.5173 40.9688 67.9219V57.1406C40.9687 56.5452 40.486 56.0625 39.8906 56.0625ZM30.1875 66.8438H38.8125V58.2188H30.1875V66.8438ZM12.9375 57.1406C12.9375 56.5452 12.4548 56.0625 11.8594 56.0625H1.07812C0.482705 56.0625 2.97688e-05 56.5452 0 57.1406V67.9219C2.97688e-05 68.5173 0.482705 69 1.07812 69H11.8594C12.4548 69 12.9375 68.5173 12.9375 67.9219V57.1406ZM2.15625 66.8438H10.7812V58.2188H2.15625V66.8438ZM58.2188 66.8438H66.8438V58.2188H58.2188V66.8438Z" fill="white"/>
</svg>
