<svg width="69" height="69" viewBox="0 0 69 69" fill="none" xmlns="http://www.w3.org/2000/svg">
<path fill-rule="evenodd" clip-rule="evenodd" d="M15.8077 30.2781C15.4927 29.9729 15.3941 29.5071 15.5584 29.1003L17.7318 23.7206C15.7426 20.6922 14.8931 17.0715 15.3357 13.4577C15.8328 9.39662 17.8819 5.7724 21.1051 3.25244C24.3284 0.732475 28.34 -0.381489 32.401 0.115927C34.2917 0.347317 36.0874 0.915485 37.7214 1.78162C44.9662 1.80614 51.2289 6.92288 52.6734 14.0623C53.3955 17.6307 52.83 21.3063 51.0821 24.4803L53.6668 29.675C53.8622 30.0679 53.8001 30.5398 53.5098 30.8688C53.2193 31.1977 52.7587 31.3177 52.3447 31.1727L46.9506 29.281C45.1186 30.6784 42.9695 31.6532 40.698 32.1128C39.6931 32.316 38.6763 32.4166 37.6629 32.4166C35.1779 32.4166 32.7149 31.8105 30.4981 30.6366C29.8965 30.6346 29.2892 30.5976 28.6775 30.5227C26.377 30.2411 24.1588 29.4362 22.2237 28.1855L16.9929 30.4906C16.5914 30.6676 16.1227 30.5835 15.8077 30.2781ZM48.9358 23.8866C50.6376 21.0616 51.2143 17.7243 50.5599 14.4896C49.5685 9.59122 45.9353 5.79733 41.3449 4.45993C41.7907 4.90532 42.212 5.38091 42.6063 5.8852C45.1261 9.10836 46.2401 13.1199 45.7428 17.1809C44.9834 23.3825 40.596 28.2712 34.9702 29.9804C36.7046 30.3425 38.5085 30.3559 40.2704 29.9994C42.3969 29.5691 44.3979 28.6139 46.057 27.237C46.3483 26.9951 46.7451 26.9238 47.1023 27.0492L50.5541 28.2596L48.894 24.9232C48.7299 24.5932 48.7457 24.2023 48.9358 23.8866ZM17.4756 13.7195C17.9028 10.2301 19.6634 7.116 22.433 4.95087C25.2024 2.78561 28.6493 1.82865 32.1388 2.25585C35.6281 2.68306 38.7423 4.44362 40.9074 7.21317C43.0726 9.98258 44.0298 13.4294 43.6026 16.9189C42.7866 23.5817 37.0984 28.4816 30.5488 28.481C27.8473 28.4809 25.1633 27.6374 22.9557 26.0783C22.6654 25.8733 22.2354 25.8241 21.8989 25.9724L18.5516 27.4475L19.9473 23.9922C20.0853 23.6504 20.0394 23.262 19.8252 22.962C17.9089 20.2776 17.0745 16.9953 17.4756 13.7195ZM30.5239 13.9715C29.7796 13.9715 29.1762 14.5748 29.1762 15.3191C29.1762 16.0634 29.7796 16.6668 30.5239 16.6668C31.2682 16.6668 31.8715 16.0634 31.8715 15.3191C31.8715 14.5748 31.2682 13.9715 30.5239 13.9715ZM35.344 15.3191C35.344 14.5748 35.9474 13.9715 36.6917 13.9715C37.436 13.9715 38.0393 14.5748 38.0393 15.3191C38.0393 16.0634 37.436 16.6668 36.6917 16.6668C35.9475 16.6668 35.344 16.0634 35.344 15.3191ZM24.3864 13.9715C23.6421 13.9715 23.0387 14.5748 23.0387 15.3191C23.0387 16.0634 23.6421 16.6668 24.3864 16.6668C25.1307 16.6668 25.734 16.0634 25.734 15.3191C25.734 14.5748 25.1307 13.9715 24.3864 13.9715ZM21.0303 52.4043C23.4087 50.8399 24.983 48.1488 24.983 45.0955C24.983 40.2744 21.0606 36.3521 16.2394 36.3521C11.4182 36.3521 7.4958 40.2744 7.4958 45.0955C7.4958 48.1487 9.07013 50.8399 11.4485 52.4043C4.82528 54.4533 0 60.6345 0 67.9219C0 68.5173 0.48273 69 1.07812 69H31.4004C31.9958 69 32.4785 68.5173 32.4785 67.9219C32.4785 60.6346 27.6534 54.4534 21.0303 52.4043ZM16.2394 38.5083C12.6071 38.5083 9.65205 41.4633 9.65205 45.0955C9.65205 48.7271 12.6061 51.6818 16.2378 51.6828H16.2394H16.2411C19.8725 51.6818 22.8267 48.7271 22.8267 45.0955C22.8267 41.4633 19.8717 38.5083 16.2394 38.5083ZM2.19708 66.8438C2.74935 59.5806 8.8355 53.8399 16.2375 53.839H16.2393H16.241C23.643 53.8399 29.729 59.5806 30.2813 66.8438H2.19708ZM61.5045 45.0955C61.5045 48.1488 59.93 50.8399 57.5517 52.4043C64.1749 54.4534 69 60.6346 69 67.9219C69 68.5173 68.5173 69 67.9219 69H37.5996C37.0042 69 36.5215 68.5173 36.5215 67.9219C36.5215 60.6345 41.3468 54.4533 47.9701 52.4043C45.5918 50.8399 44.0174 48.1487 44.0174 45.0955C44.0174 40.2744 47.9398 36.3521 52.7609 36.3521C57.5821 36.3521 61.5045 40.2744 61.5045 45.0955ZM46.1735 45.0955C46.1735 41.4633 49.1285 38.5083 52.7607 38.5083C56.3931 38.5083 59.3481 41.4633 59.3481 45.0955C59.3481 48.7271 56.3939 51.6818 52.7624 51.6828H52.7606H52.7589C49.1276 51.6818 46.1735 48.7271 46.1735 45.0955ZM52.759 53.839C45.357 53.8399 39.2708 59.5806 38.7186 66.8438H66.8028C66.2506 59.5806 60.1645 53.8399 52.7625 53.839H52.7607H52.759Z" fill="white"/>
</svg>
