<svg width="65" height="61" viewBox="0 0 65 61" fill="none" xmlns="http://www.w3.org/2000/svg">
<path d="M40.73 43.45C40.66 43.45 40.58 43.46 40.51 43.47C39.91 43.55 39.43 44.01 39.29 44.61C37.43 52.82 34.09 57.88 31 57.88C27.79 57.88 24.34 52.47 22.51 43.76C22.38 43.12 22.25 42.46 22.14 41.78C22.11 41.62 22.08 41.45 22.06 41.29L21.71 38.81C21.63 38.17 21.56 37.52 21.5 36.85C21.31 34.8 21.21 32.65 21.21 30.39C21.21 27.13 21.42 24.08 21.8 21.28C21.93 20.17 22.1 19.09 22.3 18.06C24.06 8.74 27.67 2.89 31 2.89C34.36 2.89 37.99 8.83 39.73 18.27C39.93 19.31 40.09 20.4 40.24 21.53C40.52 23.72 40.7 26.04 40.75 28.49H37.41L42.22 36.29L47.03 28.49H43.63C43.59 26.58 43.48 24.74 43.31 22.97C43.08 20.54 42.73 18.26 42.27 16.12C40.23 6.38 36.04 0 31 0C25.98 0 21.83 6.28 19.76 15.9C19.3 18.02 18.94 20.3 18.7 22.71C18.46 25.14 18.32 27.71 18.32 30.39C18.32 32.46 18.4 34.46 18.55 36.38C18.6 37.05 18.66 37.72 18.73 38.37C18.84 39.38 18.96 40.36 19.11 41.32L19.12 41.37C19.22 42.05 19.33 42.72 19.46 43.37C21.41 53.83 25.73 60.76 31 60.76C35.94 60.76 40.05 54.66 42.15 45.25C42.36 44.32 41.65 43.45 40.73 43.45Z" fill="white"/>
<path fill-rule="evenodd" clip-rule="evenodd" d="M63.94 9.16012C63.9 8.94012 63.84 8.75012 63.74 8.60012C63.64 8.44012 63.52 8.32012 63.36 8.24012C63.21 8.16012 63.01 8.12012 62.79 8.12012C62.56 8.12012 62.36 8.17012 62.19 8.26012C62.03 8.35012 61.89 8.48012 61.8 8.64012C61.7 8.80012 61.63 8.99012 61.59 9.21012C61.55 9.42012 61.53 9.66012 61.53 9.92012C61.53 10.2001 61.55 10.4401 61.59 10.6601C61.63 10.8801 61.69 11.0701 61.79 11.2201C61.89 11.3801 62.01 11.5001 62.17 11.5801C62.33 11.6601 62.52 11.7001 62.74 11.7001C62.98 11.7001 63.18 11.6501 63.34 11.5601C63.5 11.4701 63.64 11.3401 63.74 11.1801C63.84 11.0201 63.91 10.8301 63.95 10.6101C63.99 10.3901 64.01 10.1601 64.01 9.90012C64 9.62012 63.98 9.37012 63.94 9.16012ZM45.59 15.3101C45.57 15.2801 45.56 15.2501 45.55 15.2201C45.5342 15.1964 45.5309 15.1664 45.5252 15.1154V15.1154C45.5237 15.1018 45.5221 15.0869 45.52 15.0701C45.51 15.0201 45.51 14.9601 45.51 14.8901C45.51 14.7701 45.52 14.6801 45.55 14.6301C45.58 14.5801 45.61 14.5601 45.66 14.5601C45.69 14.5601 45.76 14.5801 45.85 14.6401C45.94 14.7001 46.06 14.7601 46.21 14.8201C46.36 14.8801 46.53 14.9401 46.73 15.0001C46.93 15.0501 47.15 15.0801 47.39 15.0801C47.63 15.0801 47.83 15.0501 48.01 14.9901C48.19 14.9301 48.34 14.8501 48.46 14.7401C48.58 14.6301 48.67 14.5101 48.73 14.3601C48.79 14.2101 48.82 14.0501 48.82 13.8801C48.82 13.6801 48.78 13.5101 48.7 13.3601C48.62 13.2001 48.51 13.0701 48.36 12.9601C48.21 12.8501 48.03 12.7701 47.81 12.7101C47.59 12.6501 47.35 12.6201 47.07 12.6201H46.41C46.3863 12.6201 46.3688 12.6139 46.3477 12.6063L46.33 12.6001C46.3 12.5901 46.28 12.5701 46.26 12.5401C46.24 12.5101 46.22 12.4801 46.21 12.4301C46.2 12.3801 46.19 12.3201 46.19 12.2501C46.19 12.1901 46.2 12.1301 46.21 12.0901C46.22 12.0501 46.23 12.0201 46.25 11.9901C46.27 11.9601 46.3 11.9401 46.32 11.9301C46.34 11.9201 46.37 11.9101 46.4 11.9101H46.99C47.22 11.9101 47.43 11.8801 47.61 11.8201C47.79 11.7601 47.94 11.6701 48.07 11.5601C48.2 11.4501 48.29 11.3101 48.36 11.1601C48.43 11.0001 48.46 10.8301 48.46 10.6401C48.46 10.5001 48.44 10.3701 48.39 10.2401C48.35 10.1101 48.28 10.0001 48.19 9.91012C48.1 9.82012 47.98 9.74012 47.84 9.69012C47.7 9.64012 47.53 9.61012 47.35 9.61012C47.15 9.61012 46.97 9.64012 46.8 9.70012L46.755 9.7186C46.6034 9.78089 46.4684 9.83635 46.35 9.90012C46.22 9.97012 46.11 10.0401 46.02 10.1001C45.94 10.1601 45.87 10.1901 45.84 10.1901C45.81 10.1901 45.79 10.1901 45.77 10.1801C45.75 10.1701 45.74 10.1601 45.72 10.1301C45.705 10.1076 45.7012 10.0851 45.6961 10.0542C45.6944 10.0439 45.6925 10.0326 45.69 10.0201C45.68 9.98012 45.68 9.92012 45.68 9.84012C45.68 9.81379 45.6828 9.78747 45.6854 9.7626L45.6854 9.76254L45.6854 9.76241L45.6854 9.76234C45.6878 9.74007 45.69 9.71898 45.69 9.70012C45.69 9.66012 45.7 9.63012 45.71 9.60012C45.717 9.5792 45.7288 9.55827 45.7387 9.54075C45.743 9.53314 45.747 9.52617 45.75 9.52012C45.76 9.49012 45.79 9.46012 45.82 9.43012C45.85 9.40012 45.92 9.35012 46.02 9.29012C46.12 9.23012 46.24 9.17012 46.39 9.11012C46.54 9.05012 46.71 9.00012 46.9 8.96012C47.09 8.92012 47.3 8.90012 47.52 8.90012C47.83 8.90012 48.1 8.94012 48.34 9.02012C48.58 9.10012 48.77 9.21012 48.93 9.36012C49.08 9.50012 49.2 9.68012 49.28 9.88012C49.36 10.0801 49.4 10.3001 49.4 10.5501C49.4 10.7601 49.38 10.9601 49.32 11.1401C49.27 11.3201 49.19 11.4801 49.08 11.6201C48.97 11.7601 48.83 11.8801 48.68 11.9801C48.53 12.0801 48.34 12.1501 48.14 12.1901V12.2001C48.37 12.2201 48.59 12.2801 48.78 12.3701C48.98 12.4701 49.14 12.5801 49.28 12.7201C49.42 12.8601 49.53 13.0201 49.61 13.2101C49.69 13.4001 49.73 13.6001 49.73 13.8101C49.73 14.1201 49.68 14.4001 49.57 14.6501C49.47 14.9001 49.31 15.1101 49.11 15.2901C48.91 15.4701 48.66 15.6001 48.37 15.7001C48.07 15.7901 47.74 15.8401 47.37 15.8401C47.15 15.8401 46.94 15.8301 46.74 15.7901C46.55 15.7501 46.37 15.7101 46.22 15.6601C46.07 15.6101 45.94 15.5501 45.84 15.5001C45.74 15.4401 45.68 15.4001 45.65 15.3801C45.62 15.3601 45.6 15.3301 45.59 15.3101ZM16.87 38.0101C8.52 36.2501 2.88 32.9001 2.88 29.5701C2.88 27.6103 4.79971 25.6704 8.04927 24.0205L9.22 27.6801L15.67 20.1501L6.04 17.7601L7.15 21.2401C2.58 23.4701 0 26.3701 0 29.5701C0 34.6601 6.56 38.9801 17.22 41.0201C17.51 41.0901 17.8 41.1401 18.09 41.1901C17.93 40.2001 17.81 39.2001 17.71 38.1801C17.42 38.1301 17.14 38.0701 16.87 38.0101ZM46.64 18.8001C45.72 18.5701 44.84 19.2701 44.84 20.1901C44.84 20.2601 44.84 20.3201 44.85 20.3901C44.93 20.9801 45.36 21.4501 45.93 21.5901C53.19 23.4501 57.87 26.5001 57.87 29.5701C57.87 33.0301 51.84 36.5201 42.86 38.2301C38.95 38.9701 34.74 39.3501 30.37 39.3501C28.05 39.3501 25.77 39.2401 23.58 39.0201C23.44 39.0051 23.2975 38.9926 23.155 38.9801C23.0125 38.9676 22.87 38.9551 22.73 38.9401C22.85 39.9501 23 40.9301 23.16 41.8801C23.3533 41.9068 23.5465 41.9245 23.7398 41.9423L23.74 41.9423H23.74C23.8367 41.9512 23.9333 41.9601 24.03 41.9701C26.09 42.1501 28.21 42.2301 30.37 42.2301C34.92 42.2301 39.3 41.8401 43.39 41.0601C54.27 38.9901 60.76 34.7001 60.76 29.5701C60.76 24.9601 55.55 21.0401 46.64 18.8001ZM51.12 14.3301C51.18 14.5701 51.27 14.7801 51.37 14.9701C51.48 15.1601 51.61 15.3201 51.77 15.4401C51.93 15.5701 52.12 15.6701 52.33 15.7401C52.55 15.8101 52.79 15.8401 53.07 15.8401C53.46 15.8401 53.8 15.7801 54.09 15.6501C54.38 15.5201 54.62 15.3601 54.8 15.1501C54.99 14.9401 55.13 14.7001 55.22 14.4201C55.31 14.1401 55.36 13.8601 55.36 13.5601C55.36 13.2801 55.33 13.0201 55.26 12.7901C55.19 12.5501 55.08 12.3501 54.93 12.1701C54.78 11.9901 54.57 11.8601 54.32 11.7601C54.07 11.6601 53.76 11.6101 53.4 11.6101C53.23 11.6101 53.07 11.6201 52.92 11.6501C52.77 11.6801 52.63 11.7101 52.5 11.7501C52.37 11.7901 52.24 11.8401 52.13 11.8901C52.02 11.9401 51.92 11.9901 51.83 12.0501C51.84 11.7301 51.88 11.4201 51.95 11.1301C52.02 10.8401 52.13 10.5801 52.28 10.3601C52.43 10.1401 52.62 9.96012 52.85 9.83012C53.08 9.70012 53.36 9.63012 53.68 9.63012C53.86 9.63012 54.01 9.64012 54.15 9.67012C54.28 9.69012 54.4 9.72012 54.49 9.75012C54.5212 9.76052 54.5512 9.77092 54.58 9.7809C54.6343 9.79972 54.6843 9.81705 54.73 9.83012C54.7487 9.83546 54.766 9.8408 54.782 9.84576L54.782 9.84577L54.7822 9.84581C54.8261 9.8594 54.8607 9.87012 54.89 9.87012C54.92 9.87012 54.95 9.86012 54.97 9.85012C54.9865 9.84189 54.9961 9.82688 55.0102 9.8051L55.02 9.79012C55.03 9.76012 55.04 9.73012 55.04 9.68012V9.52012C55.04 9.47012 55.04 9.43012 55.03 9.40012C55.03 9.37012 55.02 9.34012 55.01 9.31012C55 9.28014 54.99 9.26015 54.98 9.24016L54.98 9.24012C54.97 9.22013 54.95 9.20013 54.93 9.18014L54.93 9.18012C54.9156 9.1657 54.8856 9.15129 54.84 9.12939C54.8223 9.1209 54.8023 9.11129 54.78 9.10012C54.7 9.07012 54.61 9.04012 54.5 9.01012C54.39 8.98012 54.27 8.96012 54.14 8.95012C54.01 8.93012 53.88 8.93012 53.75 8.93012C53.37 8.93012 53.03 8.98012 52.75 9.09012C52.46 9.19012 52.21 9.34012 52.01 9.51012C51.8 9.69012 51.63 9.90012 51.49 10.1401C51.35 10.3801 51.24 10.6401 51.16 10.9101C51.08 11.1801 51.02 11.4701 50.99 11.7601C50.96 12.0601 50.94 12.3501 50.94 12.6301C50.94 12.9601 50.95 13.2601 50.98 13.5501C51.01 13.8301 51.05 14.0901 51.12 14.3301ZM52.48 12.4501C52.36 12.4901 52.25 12.5401 52.14 12.5901C52.03 12.6401 51.93 12.7001 51.82 12.7801C51.82 13.2201 51.85 13.6001 51.91 13.9001C51.97 14.2101 52.05 14.4501 52.16 14.6301C52.27 14.8101 52.41 14.9401 52.57 15.0201C52.73 15.1001 52.92 15.1401 53.14 15.1401C53.36 15.1401 53.56 15.0901 53.72 15.0101C53.89 14.9201 54.02 14.8101 54.13 14.6701C54.24 14.5301 54.32 14.3801 54.37 14.2001C54.42 14.0201 54.45 13.8401 54.45 13.6601C54.45 13.4601 54.43 13.2701 54.39 13.1101C54.35 12.9401 54.28 12.8001 54.19 12.6901C54.1 12.5701 53.98 12.4801 53.82 12.4201C53.66 12.3601 53.47 12.3301 53.24 12.3301C53.11 12.3301 52.98 12.3401 52.85 12.3601C52.72 12.3801 52.6 12.4101 52.48 12.4501ZM60.33 9.80012C60.15 9.51012 59.92 9.28012 59.63 9.13012C59.34 8.98012 58.98 8.90012 58.55 8.90012C58.11 8.90012 57.73 8.98012 57.43 9.15012C57.12 9.32012 56.88 9.56012 56.69 9.86012C56.5 10.1701 56.37 10.5401 56.28 10.9601C56.2 11.3901 56.15 11.8601 56.15 12.3701C56.15 12.9301 56.19 13.4201 56.26 13.8501C56.33 14.2801 56.46 14.6401 56.64 14.9301C56.82 15.2201 57.05 15.4501 57.34 15.6001C57.63 15.7501 57.99 15.8301 58.41 15.8301C58.86 15.8301 59.23 15.7501 59.54 15.5801C59.85 15.4101 60.09 15.1701 60.28 14.8701C60.47 14.5601 60.6 14.2001 60.69 13.7701C60.77 13.3401 60.81 12.8701 60.81 12.3501C60.81 11.7901 60.77 11.3001 60.7 10.8701C60.63 10.4601 60.51 10.0901 60.33 9.80012ZM59.79 13.7801C59.84 13.5901 59.86 13.3701 59.88 13.1401C59.8933 12.9875 59.8977 12.8305 59.9022 12.6749C59.9044 12.596 59.9066 12.5175 59.91 12.4401C59.91 12.1001 59.89 11.8001 59.87 11.5301C59.84 11.2601 59.81 11.0201 59.76 10.8201C59.72 10.6101 59.65 10.4401 59.58 10.2901C59.5 10.1501 59.41 10.0301 59.31 9.93012C59.2 9.83012 59.08 9.76012 58.95 9.72012C58.82 9.67012 58.67 9.65012 58.5 9.65012C58.2 9.65012 57.96 9.72012 57.78 9.86012C57.6 10.0001 57.46 10.1901 57.35 10.4301C57.24 10.6701 57.17 10.9501 57.13 11.2801C57.09 11.6001 57.07 11.9601 57.07 12.3301C57.07 12.8301 57.1 13.2601 57.15 13.6101C57.2 13.9601 57.29 14.2501 57.4 14.4701C57.51 14.6901 57.65 14.8501 57.83 14.9501C58.01 15.0501 58.22 15.1001 58.47 15.1001C58.66 15.1001 58.83 15.0701 58.98 15.0101C59.13 14.9501 59.25 14.8601 59.36 14.7401C59.46 14.6201 59.55 14.4801 59.62 14.3201C59.69 14.1601 59.75 13.9801 59.79 13.7801ZM63.31 10.5701C63.33 10.4801 63.34 10.3801 63.35 10.2701C63.3551 10.2139 63.3576 10.1576 63.3602 10.1C63.3626 10.045 63.3651 9.98874 63.37 9.93012C63.37 9.77012 63.36 9.63012 63.35 9.50012C63.34 9.38012 63.32 9.27012 63.3 9.17012C63.28 9.08012 63.25 9.00012 63.22 8.94012C63.19 8.88012 63.15 8.83012 63.11 8.79012C63.07 8.76012 63.02 8.73012 62.97 8.71012C62.92 8.69012 62.85 8.68012 62.78 8.68012C62.66 8.68012 62.56 8.70012 62.49 8.76012C62.42 8.82012 62.35 8.90012 62.31 9.00012C62.26 9.11012 62.23 9.24012 62.21 9.39012C62.19 9.54012 62.18 9.71012 62.18 9.89012C62.18 10.1301 62.19 10.3301 62.22 10.5001C62.24 10.6601 62.28 10.7901 62.33 10.8901C62.37 10.9801 62.43 11.0501 62.5 11.0901C62.57 11.1301 62.66 11.1501 62.76 11.1501C62.84 11.1501 62.91 11.1401 62.97 11.1101C63.03 11.0801 63.08 11.0501 63.12 11.0001C63.16 10.9501 63.2 10.8901 63.23 10.8201C63.27 10.7401 63.29 10.6601 63.31 10.5701Z" fill="white"/>
</svg>
