<svg width="25" height="18" viewBox="0 0 25 18" fill="none" xmlns="http://www.w3.org/2000/svg">
<path fill-rule="evenodd" clip-rule="evenodd" d="M10.8037 5.0615L16.3161 7.93272C16.6423 8.1027 16.8441 8.42798 16.8428 8.7819C16.8413 9.13582 16.637 9.45966 16.3098 9.62728L10.7972 12.449C10.6459 12.5266 10.4814 12.5652 10.3173 12.5652C10.1382 12.5652 9.95945 12.5192 9.79822 12.4275C9.48945 12.2519 9.30518 11.9425 9.30518 11.6002V5.90706C9.30518 5.56311 9.49059 5.25323 9.80145 5.07781C10.1121 4.90257 10.4868 4.89641 10.8037 5.0615ZM10.7674 6.62904V10.884L14.8872 8.77502L10.7674 6.62904Z" fill="white"/>
<path fill-rule="evenodd" clip-rule="evenodd" d="M24.7666 4.23524L24.7678 4.24611C24.7752 4.32585 24.9513 6.21958 24.9515 8.12091V9.8983C24.9515 11.7996 24.7752 13.6934 24.7678 13.7731L24.7649 13.7974C24.7405 13.9842 24.5012 15.6483 23.6741 16.5042C22.6816 17.5438 21.5623 17.6569 21.0241 17.7113L21.0237 17.7113C20.9723 17.7164 20.9255 17.7211 20.8838 17.7264L20.8402 17.7307C17.5416 17.959 12.5602 17.9902 12.5103 17.9904L12.5027 17.9906L12.4951 17.9904C12.2419 17.987 6.27037 17.902 4.36579 17.7294L4.30811 17.7218C4.25012 17.7121 4.1658 17.7029 4.0678 17.6923L4.05968 17.6914C3.41778 17.6214 2.22439 17.4913 1.28057 16.508C0.416134 15.6427 0.205973 13.9733 0.184843 13.7852L0.18351 13.7733C0.176086 13.6935 0 11.7996 0 9.8983V8.12091C0 6.21958 0.176086 4.32567 0.18351 4.24611L0.186365 4.22183C0.210922 4.03481 0.450018 2.37069 1.27715 1.51498C2.28379 0.460837 3.40959 0.337065 3.9506 0.277626C3.9582 0.276783 3.96568 0.275958 3.97305 0.275145C4.0069 0.271412 4.03841 0.267936 4.06749 0.264215L4.11146 0.259866C7.43977 0.0315319 12.4214 0.000362436 12.4713 0.000181218L12.4756 0L12.48 0.000181218C12.5299 0.000362436 17.5115 0.0315319 20.8101 0.259866L20.8537 0.264215C20.8908 0.268927 20.9323 0.273458 20.9776 0.278351C21.5249 0.337609 22.6629 0.461199 23.6667 1.47856C24.5351 2.34351 24.7455 4.04406 24.7666 4.23524ZM23.3124 13.6368C23.3277 13.4705 23.4891 11.6581 23.4891 9.8983V8.12091C23.4891 6.33266 23.3229 4.49493 23.3119 4.37623C23.2496 3.83384 23.0046 2.83207 22.6087 2.43937L22.6028 2.43339C21.9656 1.78644 21.2714 1.71106 20.812 1.66122L20.8095 1.66095C20.7642 1.65598 20.722 1.65135 20.6833 1.64673C17.4751 1.426 12.6489 1.39302 12.4756 1.39193L12.4691 1.39198C12.2061 1.39388 7.44207 1.42821 4.23748 1.64673C4.20381 1.65088 4.16758 1.65488 4.12894 1.65914L4.11831 1.66032C3.67172 1.70943 2.99651 1.78373 2.35612 2.45423C1.96988 2.854 1.71289 3.84309 1.63884 4.38293C1.62323 4.55273 1.46218 6.3631 1.46218 8.12091V9.8983C1.46218 11.6827 1.62779 13.5165 1.63941 13.6423C1.70166 14.1739 1.94665 15.1585 2.34261 15.5512L2.35612 15.565C2.93133 16.1673 3.67934 16.2489 4.22586 16.3085L4.22606 16.3085C4.33381 16.3201 4.43603 16.3313 4.53064 16.346C6.37716 16.5093 12.2613 16.595 12.5089 16.5985C12.7298 16.5972 17.5233 16.5635 20.7138 16.3439C20.761 16.3382 20.8132 16.3328 20.8695 16.3272C21.3355 16.2802 21.9738 16.2157 22.5951 15.565C22.9981 15.148 23.2504 14.0951 23.3124 13.6368Z" fill="white"/>
</svg>
